<svg xmlns="http://www.w3.org/2000/svg" xmlns:xlink="http://www.w3.org/1999/xlink" width="826" height="520" viewBox="0 0 826 520">
  <defs>
    <clipPath id="clip-path">
      <rect x="87" y="245" width="826" height="520" fill="none"/>
    </clipPath>
    <clipPath id="clip-path-2">
      <ellipse id="Ellipse_4" data-name="Ellipse 4" cx="602.5" cy="622" rx="602.5" ry="622" transform="translate(323.603 385.337)" stroke="#fff" stroke-width="1"/>
    </clipPath>
    <clipPath id="clip-path-3">
      <rect id="Rectangle_23" data-name="Rectangle 23" width="1013" height="1050" transform="translate(0.01 -0.119)" fill="none" stroke="#fff" stroke-width="1.283"/>
    </clipPath>
    <clipPath id="clip-path-4">
      <rect id="Rectangle_24" data-name="Rectangle 24" width="938.686" height="968.837" fill="none"/>
    </clipPath>
  </defs>
  <g id="profil" transform="translate(-87 -245)" clip-path="url(#clip-path)" style="isolation: isolate">
    <g id="Groupe_de_masques_5" data-name="Groupe de masques 5" transform="translate(-398.603 -466.337)" clip-path="url(#clip-path-2)">
      <g id="reservations" transform="translate(389.593 467.456)" clip-path="url(#clip-path-3)" style="isolation: isolate">
        <g id="Groupe_4" data-name="Groupe 4" transform="translate(42.486 49.738)">
          <g id="account" transform="translate(0 0)" clip-path="url(#clip-path-4)" style="isolation: isolate">
            <g id="account-2" data-name="account" transform="translate(46.934 206.75)">
              <path id="Tracé_304" data-name="Tracé 304" d="M311.129,193.786c0,58.579-46.02,106.082-102.791,106.087s-102.807-47.5-102.812-106.093S151.545,87.672,208.316,87.666c56.8,0,102.827,47.521,102.812,106.131" transform="translate(6.554 -87.666)"/>
              <path id="Tracé_305" data-name="Tracé 305" d="M255.656,202.929c-101.973,0-185.563,94.042-194.762,221.718a22.388,22.388,0,0,0,5.913,16.57,20.964,20.964,0,0,0,15.817,6.73H428.672a20.964,20.964,0,0,0,15.818-6.73,22.389,22.389,0,0,0,5.913-16.57C441.219,296.954,357.644,202.929,255.656,202.929Z" transform="translate(-40.791 42.074)"/>
              <path id="Tracé_306" data-name="Tracé 306" d="M598.958,274.361H303.116A13.072,13.072,0,0,0,290.6,287.278v66.431a13.072,13.072,0,0,0,12.515,12.918H598.958a13.072,13.072,0,0,0,12.515-12.918V287.263A13.072,13.072,0,0,0,598.958,274.361Z" transform="translate(202.679 122.507)"/>
              <path id="Tracé_307" data-name="Tracé 307" d="M598.958,181.013H303.116A13.072,13.072,0,0,0,290.6,193.931v66.43a13.072,13.072,0,0,0,12.515,12.918H598.958a13.071,13.071,0,0,0,12.515-12.918v-66.43A13.072,13.072,0,0,0,598.958,181.013Z" transform="translate(202.679 17.405)"/>
              <path id="Tracé_308" data-name="Tracé 308" d="M598.958,87.665H303.116A13.071,13.071,0,0,0,290.6,100.583v66.43a13.071,13.071,0,0,0,12.515,12.918H598.958a13.071,13.071,0,0,0,12.515-12.918v-66.43a13.072,13.072,0,0,0-12.516-12.918Z" transform="translate(202.679 -87.665)"/>
              <g id="Groupe_277" data-name="Groupe 277" transform="translate(1.263 773.737)">
                <path id="Tracé_309" data-name="Tracé 309" d="M26.966,15.254a19.467,19.467,0,0,1-4.521,1.728,19.736,19.736,0,0,1-4.9.6A16.41,16.41,0,0,1,5.485,13.2,15.991,15.991,0,0,1,1.027,1.287,15.958,15.958,0,0,1,5.485-10.63a16.381,16.381,0,0,1,12.062-4.408,19.737,19.737,0,0,1,4.9.6,19.467,19.467,0,0,1,4.521,1.728v6.459A17.718,17.718,0,0,0,22.648-8.5a13.815,13.815,0,0,0-4.537-.71,8.242,8.242,0,0,0-6.6,2.793A11.3,11.3,0,0,0,9.1,1.238a11.346,11.346,0,0,0,2.409,7.654,8.27,8.27,0,0,0,6.6,2.761,14.147,14.147,0,0,0,4.474-.694A17.229,17.229,0,0,0,26.9,8.7Z" transform="translate(-1.007 15.063)"/>
              </g>
              <g id="Groupe_278" data-name="Groupe 278" transform="translate(33.402 781.59)">
                <path id="Tracé_310" data-name="Tracé 310" d="M18.685-4.359a9.876,9.876,0,0,0-1.94-.678,7.742,7.742,0,0,0-1.877-.226A5.241,5.241,0,0,0,10.534-3.39,8.255,8.255,0,0,0,8.969,1.922V12.806H1.71V-10.786H9.016V-6.91a9.438,9.438,0,0,1,3.223-3.375,8.481,8.481,0,0,1,4.381-1.082h.8l1.252.113Z" transform="translate(-1.71 11.37)"/>
              </g>
              <g id="Groupe_279" data-name="Groupe 279" transform="translate(52.235 781.621)">
                <path id="Tracé_311" data-name="Tracé 311" d="M25.481.94V3.1H8.381a5.674,5.674,0,0,0,1.862,3.972A6.745,6.745,0,0,0,14.7,8.4,16.712,16.712,0,0,0,19.4,7.705a24.521,24.521,0,0,0,4.959-2.148v5.8a30.051,30.051,0,0,1-5.178,1.518A26.07,26.07,0,0,1,14,13.405a13.518,13.518,0,0,1-9.653-3.229A11.96,11.96,0,0,1,.887,1.053,12.1,12.1,0,0,1,4.267-8.022a12.661,12.661,0,0,1,9.277-3.326A11.423,11.423,0,0,1,22.18-7.974,12.318,12.318,0,0,1,25.418.956Zm-7.509-2.5A4.937,4.937,0,0,0,16.751-5a4.112,4.112,0,0,0-3.129-1.324A4.879,4.879,0,0,0,10.165-5.1,5.725,5.725,0,0,0,8.506-1.563Z" transform="translate(-0.869 11.369)"/>
              </g>
              <g id="Groupe_280" data-name="Groupe 280" transform="translate(80.633 781.653)">
                <path id="Tracé_312" data-name="Tracé 312" d="M12.84,2.152a6.1,6.1,0,0,0-3.457.791A2.676,2.676,0,0,0,8.241,5.3a2.836,2.836,0,0,0,.939,2.261,3.826,3.826,0,0,0,2.566.791,4.532,4.532,0,0,0,3.473-1.518,5.425,5.425,0,0,0,1.424-3.827V2.136ZM24-.69V12.761H16.642V9.273a9.506,9.506,0,0,1-3.3,3.133,9.627,9.627,0,0,1-4.474.969,7.968,7.968,0,0,1-5.757-2.115A7.368,7.368,0,0,1,.888,5.7,6.9,6.9,0,0,1,3.626-.3a15.24,15.24,0,0,1,8.636-1.889h4.381v-.6a2.816,2.816,0,0,0-1.377-2.632,8.435,8.435,0,0,0-4.271-.84,19.048,19.048,0,0,0-4.381.484,14.828,14.828,0,0,0-3.739,1.4V-10.12a43.2,43.2,0,0,1,4.693-.888,37.159,37.159,0,0,1,4.693-.307,12.889,12.889,0,0,1,8.9,2.535A10.636,10.636,0,0,1,23.917-.593Z" transform="translate(-0.872 11.368)"/>
              </g>
              <g id="Groupe_281" data-name="Groupe 281" transform="translate(107.605 775.425)">
                <path id="Tracé_313" data-name="Tracé 313" d="M11.208-14.184V-7.5h7.541v5.393H11.208V7.905a2.972,2.972,0,0,0,.626,2.212,3.829,3.829,0,0,0,2.5.581h3.755v5.393H11.833A8.391,8.391,0,0,1,5.685,14.17,9,9,0,0,1,3.839,7.84V-2.171H.272V-7.564H3.839v-6.685Z" transform="translate(-0.272 14.249)"/>
              </g>
              <g id="Groupe_282" data-name="Groupe 282" transform="translate(128.754 781.621)">
                <path id="Tracé_314" data-name="Tracé 314" d="M25.481.94V3.1H8.381a5.674,5.674,0,0,0,1.862,3.972A6.745,6.745,0,0,0,14.7,8.4,16.712,16.712,0,0,0,19.4,7.705a24.521,24.521,0,0,0,4.959-2.148v5.8a30.051,30.051,0,0,1-5.178,1.518A26.07,26.07,0,0,1,14,13.405a13.518,13.518,0,0,1-9.653-3.229A11.96,11.96,0,0,1,.887,1.053,12.1,12.1,0,0,1,4.267-8.022a12.661,12.661,0,0,1,9.277-3.326A11.423,11.423,0,0,1,22.18-7.974,12.318,12.318,0,0,1,25.418.956Zm-7.509-2.5A4.937,4.937,0,0,0,16.751-5a4.112,4.112,0,0,0-3.129-1.324A4.879,4.879,0,0,0,10.165-5.1,5.725,5.725,0,0,0,8.506-1.563Z" transform="translate(-0.869 11.369)"/>
              </g>
              <g id="Groupe_283" data-name="Groupe 283" transform="translate(157.233 772.954)">
                <path id="Tracé_315" data-name="Tracé 315" d="M18.107-2.782V-15.425H25.46V17.354H18.107V13.931a9.73,9.73,0,0,1-3.317,3.052,8.946,8.946,0,0,1-4.224.969A8.4,8.4,0,0,1,3.635,14.48,14.028,14.028,0,0,1,.929,5.566,14.078,14.078,0,0,1,3.635-3.363a8.4,8.4,0,0,1,6.931-3.472,8.689,8.689,0,0,1,4.193.985,10.216,10.216,0,0,1,3.332,3.036ZM13.3,12.51a4.1,4.1,0,0,0,3.567-1.76A9.007,9.007,0,0,0,18.107,5.6,8.907,8.907,0,0,0,16.871.464,4.086,4.086,0,0,0,13.3-1.312,4.07,4.07,0,0,0,9.737.464,8.857,8.857,0,0,0,8.5,5.6,8.957,8.957,0,0,0,9.737,10.75,4.086,4.086,0,0,0,13.3,12.526Z" transform="translate(-0.916 15.425)"/>
              </g>
              <g id="Groupe_284" data-name="Groupe 284" transform="translate(203.351 773.003)">
                <path id="Tracé_316" data-name="Tracé 316" d="M13.866,12.479a4.115,4.115,0,0,0,3.6-1.76A9.007,9.007,0,0,0,18.7,5.568,8.907,8.907,0,0,0,17.464.434a4.116,4.116,0,0,0-3.6-1.776A4.161,4.161,0,0,0,10.252.434,8.94,8.94,0,0,0,9.016,5.568,8.907,8.907,0,0,0,10.252,10.7a4.146,4.146,0,0,0,3.614,1.776ZM9.016-2.812a10.469,10.469,0,0,1,3.332-3.036,8.81,8.81,0,0,1,4.224-.985,8.448,8.448,0,0,1,6.946,3.472,14.111,14.111,0,0,1,2.707,8.929,14.061,14.061,0,0,1-2.707,8.913,8.448,8.448,0,0,1-6.946,3.472,9.022,9.022,0,0,1-4.224-.969,10.218,10.218,0,0,1-3.332-3.052v3.423H1.71V-15.423H9.016Z" transform="translate(-1.71 15.423)"/>
              </g>
              <g id="Groupe_285" data-name="Groupe 285" transform="translate(230.26 782.142)">
                <path id="Tracé_317" data-name="Tracé 317" d="M.249-11.1h7.29L13.7,4.9l5.225-16h7.228L16.551,14.736a12.651,12.651,0,0,1-3.379,5.49A7.762,7.762,0,0,1,8.087,21.84H3.91V16.883H6.194a4.576,4.576,0,0,0,2.753-.662,3.954,3.954,0,0,0,1.33-2.115l.235-.646Z" transform="translate(-0.249 11.1)"/>
              </g>
              <g id="Groupe_286" data-name="Groupe 286" transform="translate(271.812 774.294)">
                <path id="Tracé_318" data-name="Tracé 318" d="M22.148,10.914H9.883L7.927,16.647H.1L11.4-14.792h9.387l11.3,31.439H24.261ZM11.839,5.085h8.323L16.016-7.429Z" transform="translate(-0.105 14.792)"/>
              </g>
              <g id="Groupe_287" data-name="Groupe 287" transform="translate(305.749 772.954)">
                <path id="Tracé_319" data-name="Tracé 319" d="M18.107-2.782V-15.425H25.46V17.354H18.107V13.931a9.73,9.73,0,0,1-3.317,3.052,8.946,8.946,0,0,1-4.224.969A8.4,8.4,0,0,1,3.635,14.48,14.028,14.028,0,0,1,.929,5.566,14.078,14.078,0,0,1,3.635-3.363a8.4,8.4,0,0,1,6.931-3.472,8.689,8.689,0,0,1,4.193.985,10.216,10.216,0,0,1,3.332,3.036ZM13.3,12.51a4.1,4.1,0,0,0,3.567-1.76A9.007,9.007,0,0,0,18.107,5.6,8.907,8.907,0,0,0,16.871.464,4.086,4.086,0,0,0,13.3-1.312,4.07,4.07,0,0,0,9.737.464,8.857,8.857,0,0,0,8.5,5.6,8.957,8.957,0,0,0,9.737,10.75,4.086,4.086,0,0,0,13.3,12.526Z" transform="translate(-0.916 15.425)"/>
              </g>
              <g id="Groupe_288" data-name="Groupe 288" transform="translate(337.332 781.59)">
                <path id="Tracé_320" data-name="Tracé 320" d="M18.685-4.359a9.876,9.876,0,0,0-1.94-.678,7.742,7.742,0,0,0-1.877-.226A5.241,5.241,0,0,0,10.534-3.39,8.255,8.255,0,0,0,8.969,1.922V12.806H1.71V-10.786H9.016V-6.91a9.438,9.438,0,0,1,3.223-3.375,8.481,8.481,0,0,1,4.381-1.082h.8l1.252.113Z" transform="translate(-1.71 11.37)"/>
              </g>
              <g id="Groupe_289" data-name="Groupe 289" transform="translate(357.937 773.003)">
                <path id="Tracé_321" data-name="Tracé 321" d="M1.71-6.235H9.016V17.356H1.71Zm0-9.188H9.016v6.168H1.71Z" transform="translate(-1.71 15.423)"/>
              </g>
              <g id="Groupe_290" data-name="Groupe 290" transform="translate(370.465 781.621)">
                <path id="Tracé_322" data-name="Tracé 322" d="M25.481.94V3.1H8.381a5.674,5.674,0,0,0,1.862,3.972A6.745,6.745,0,0,0,14.7,8.4,16.712,16.712,0,0,0,19.4,7.705a24.521,24.521,0,0,0,4.959-2.148v5.8a30.051,30.051,0,0,1-5.178,1.518A26.07,26.07,0,0,1,14,13.405a13.518,13.518,0,0,1-9.653-3.229A11.96,11.96,0,0,1,.887,1.053,12.1,12.1,0,0,1,4.267-8.022a12.661,12.661,0,0,1,9.277-3.326A11.423,11.423,0,0,1,22.18-7.974,12.318,12.318,0,0,1,25.418.956Zm-7.509-2.5A4.937,4.937,0,0,0,16.751-5a4.112,4.112,0,0,0-3.129-1.324A4.879,4.879,0,0,0,10.165-5.1,5.725,5.725,0,0,0,8.506-1.563Z" transform="translate(-0.869 11.369)"/>
              </g>
              <g id="Groupe_291" data-name="Groupe 291" transform="translate(400.615 781.608)">
                <path id="Tracé_323" data-name="Tracé 323" d="M24.692-1.567V12.8H17.339v-11A41.658,41.658,0,0,0,17.2-2.406a4.632,4.632,0,0,0-.469-1.712,3.012,3.012,0,0,0-1.173-1.13,3.34,3.34,0,0,0-1.658-.4,4.18,4.18,0,0,0-3.6,1.825A8.436,8.436,0,0,0,9,1.211v11.61H1.71V-10.771H9.016v3.439a11.77,11.77,0,0,1,3.5-3.036,8.66,8.66,0,0,1,4.1-.985,7.3,7.3,0,0,1,6.023,2.535,11.25,11.25,0,0,1,2.049,7.266Z" transform="translate(-1.71 11.369)"/>
              </g>
              <g id="Groupe_292" data-name="Groupe 292" transform="translate(443.447 773.737)">
                <path id="Tracé_324" data-name="Tracé 324" d="M26.966,15.254a19.467,19.467,0,0,1-4.521,1.728,19.736,19.736,0,0,1-4.9.6A16.41,16.41,0,0,1,5.485,13.2,15.991,15.991,0,0,1,1.027,1.287,15.958,15.958,0,0,1,5.485-10.63a16.381,16.381,0,0,1,12.062-4.408,19.737,19.737,0,0,1,4.9.6,19.467,19.467,0,0,1,4.521,1.728v6.459A17.718,17.718,0,0,0,22.648-8.5a13.815,13.815,0,0,0-4.537-.71,8.242,8.242,0,0,0-6.6,2.793A11.3,11.3,0,0,0,9.1,1.238a11.346,11.346,0,0,0,2.409,7.654,8.27,8.27,0,0,0,6.6,2.761,14.147,14.147,0,0,0,4.474-.694A17.229,17.229,0,0,0,26.9,8.7Z" transform="translate(-1.007 15.063)"/>
              </g>
              <g id="Groupe_293" data-name="Groupe 293" transform="translate(473.783 781.582)">
                <path id="Tracé_325" data-name="Tracé 325" d="M13.529-5.95A4.253,4.253,0,0,0,9.821-4.141a8.9,8.9,0,0,0-1.283,5.2,8.9,8.9,0,0,0,1.283,5.2,4.267,4.267,0,0,0,3.708,1.776,4.176,4.176,0,0,0,3.645-1.776,8.937,8.937,0,0,0,1.283-5.2,8.937,8.937,0,0,0-1.283-5.2A4.163,4.163,0,0,0,13.529-5.95Zm0-5.393a12.488,12.488,0,0,1,9.215,3.229A12.25,12.25,0,0,1,26.06.977a12.283,12.283,0,0,1-3.317,9.091A12.533,12.533,0,0,1,13.529,13.3a12.624,12.624,0,0,1-9.262-3.229A12.194,12.194,0,0,1,.888,1.074,12.166,12.166,0,0,1,4.22-8.017a12.576,12.576,0,0,1,9.387-3.229Z" transform="translate(-0.869 11.371)"/>
              </g>
              <g id="Groupe_294" data-name="Groupe 294" transform="translate(502.637 781.639)">
                <path id="Tracé_326" data-name="Tracé 326" d="M13.3-5.887A4.07,4.07,0,0,0,9.737-4.111,8.857,8.857,0,0,0,8.5,1.024,8.957,8.957,0,0,0,9.737,6.175,4.084,4.084,0,0,0,13.3,7.935a4.1,4.1,0,0,0,3.567-1.76,9.007,9.007,0,0,0,1.236-5.151,8.907,8.907,0,0,0-1.236-5.135A4.086,4.086,0,0,0,13.3-5.887Zm4.8,15.259a9.73,9.73,0,0,1-3.317,3.052,8.946,8.946,0,0,1-4.224.969A8.4,8.4,0,0,1,3.636,9.921,14.028,14.028,0,0,1,.929,1.008,13.979,13.979,0,0,1,3.636-7.906a8.431,8.431,0,0,1,6.931-3.439,8.75,8.75,0,0,1,4.224.985,9.886,9.886,0,0,1,3.317,3.036v-3.488H25.46V21.708H18.107Z" transform="translate(-0.916 11.347)"/>
              </g>
              <g id="Groupe_295" data-name="Groupe 295" transform="translate(533.851 782.142)">
                <path id="Tracé_327" data-name="Tracé 327" d="M1.685,3.336V-11.1H9.038V-.039q-.031,2.061.141,4.118a4.865,4.865,0,0,0,.485,1.809A3.173,3.173,0,0,0,10.853,7.05a3.43,3.43,0,0,0,1.658.388,4.2,4.2,0,0,0,3.6-1.808,8.47,8.47,0,0,0,1.3-5.038V-11.1h7.306V12.491H17.345V9.068a11.583,11.583,0,0,1-3.5,3.052,8.737,8.737,0,0,1-4.13,1,7.346,7.346,0,0,1-6.023-2.5,11.149,11.149,0,0,1-2.081-7.3Z" transform="translate(-1.58 11.1)"/>
              </g>
              <g id="Groupe_296" data-name="Groupe 296" transform="translate(562.176 781.621)">
                <path id="Tracé_328" data-name="Tracé 328" d="M25.481.94V3.1H8.381a5.674,5.674,0,0,0,1.862,3.972A6.745,6.745,0,0,0,14.7,8.4,16.712,16.712,0,0,0,19.4,7.705a24.521,24.521,0,0,0,4.959-2.148v5.8a30.051,30.051,0,0,1-5.178,1.518A26.07,26.07,0,0,1,14,13.405a13.518,13.518,0,0,1-9.653-3.229A11.96,11.96,0,0,1,.887,1.053,12.1,12.1,0,0,1,4.267-8.022a12.661,12.661,0,0,1,9.277-3.326A11.423,11.423,0,0,1,22.18-7.974,12.318,12.318,0,0,1,25.418.956Zm-7.509-2.5A4.937,4.937,0,0,0,16.751-5a4.112,4.112,0,0,0-3.129-1.324A4.879,4.879,0,0,0,10.165-5.1,5.725,5.725,0,0,0,8.506-1.563Z" transform="translate(-0.869 11.369)"/>
              </g>
              <g id="Groupe_297" data-name="Groupe 297" transform="translate(589.338 775.425)">
                <path id="Tracé_329" data-name="Tracé 329" d="M11.208-14.184V-7.5h7.541v5.393H11.208V7.905a2.972,2.972,0,0,0,.626,2.212,3.829,3.829,0,0,0,2.5.581h3.755v5.393H11.833A8.391,8.391,0,0,1,5.685,14.17,9,9,0,0,1,3.839,7.84V-2.171H.272V-7.564H3.839v-6.685Z" transform="translate(-0.272 14.249)"/>
              </g>
              <g id="Groupe_298" data-name="Groupe 298" transform="translate(0 816.083)">
                <path id="Tracé_330" data-name="Tracé 330" d="M18.142-15.392v4.957H14.105a3.193,3.193,0,0,0-2.175.581,2.722,2.722,0,0,0-.61,2.018v1.615h6.258V-.827H11.321v18.2H4.03V-.827H.385V-6.221H4.03V-7.835a7.263,7.263,0,0,1,2.128-5.7,9.5,9.5,0,0,1,6.461-1.857Z" transform="translate(-0.385 15.425)"/>
              </g>
              <g id="Groupe_299" data-name="Groupe 299" transform="translate(20.917 824.719)">
                <path id="Tracé_331" data-name="Tracé 331" d="M18.685-4.359a9.876,9.876,0,0,0-1.94-.678,7.742,7.742,0,0,0-1.877-.226A5.241,5.241,0,0,0,10.534-3.39,8.255,8.255,0,0,0,8.969,1.922V12.806H1.71V-10.786H9.016V-6.91a9.438,9.438,0,0,1,3.223-3.375,8.481,8.481,0,0,1,4.381-1.082h.8l1.252.113Z" transform="translate(-1.71 11.37)"/>
              </g>
              <g id="Groupe_300" data-name="Groupe 300" transform="translate(39.734 824.711)">
                <path id="Tracé_332" data-name="Tracé 332" d="M13.529-5.95A4.253,4.253,0,0,0,9.821-4.141a8.9,8.9,0,0,0-1.283,5.2,8.9,8.9,0,0,0,1.283,5.2,4.267,4.267,0,0,0,3.708,1.776,4.176,4.176,0,0,0,3.645-1.776,8.937,8.937,0,0,0,1.283-5.2,8.937,8.937,0,0,0-1.283-5.2A4.163,4.163,0,0,0,13.529-5.95Zm0-5.393a12.488,12.488,0,0,1,9.215,3.229A12.25,12.25,0,0,1,26.06.977a12.283,12.283,0,0,1-3.317,9.091A12.533,12.533,0,0,1,13.529,13.3a12.624,12.624,0,0,1-9.262-3.229A12.194,12.194,0,0,1,.888,1.074,12.166,12.166,0,0,1,4.22-8.017a12.576,12.576,0,0,1,9.387-3.229Z" transform="translate(-0.869 11.371)"/>
              </g>
              <g id="Groupe_301" data-name="Groupe 301" transform="translate(70.151 824.673)">
                <path id="Tracé_333" data-name="Tracé 333" d="M22.962-6.786a10.061,10.061,0,0,1,3.285-3.343,7.942,7.942,0,0,1,4.193-1.163,7.272,7.272,0,0,1,5.992,2.535A11.148,11.148,0,0,1,38.513-1.49V12.881H31.16V-.909a6.883,6.883,0,0,0-.72-3.617,2.492,2.492,0,0,0-2.284-1.13A3.617,3.617,0,0,0,24.933-3.88a9.492,9.492,0,0,0-1.173,5.1V12.8H16.407V.5a12.071,12.071,0,0,0-.657-5.038,2.46,2.46,0,0,0-2.331-1.13A3.632,3.632,0,0,0,10.18-3.9,9.328,9.328,0,0,0,9.038,1.19V12.8H1.685V-10.791H9.116v3.439a9.622,9.622,0,0,1,3.129-3,7.632,7.632,0,0,1,3.849-1.017,7.639,7.639,0,0,1,4.193,1.179A7.369,7.369,0,0,1,23.04-6.867Z" transform="translate(-1.685 11.373)"/>
              </g>
              <g id="Groupe_302" data-name="Groupe 302" transform="translate(125.377 818.554)">
                <path id="Tracé_334" data-name="Tracé 334" d="M11.208-14.184V-7.5h7.541v5.393H11.208V7.905a2.972,2.972,0,0,0,.626,2.212,3.829,3.829,0,0,0,2.5.581h3.755v5.393H11.833A8.391,8.391,0,0,1,5.685,14.17,9,9,0,0,1,3.839,7.84V-2.171H.272V-7.564H3.839v-6.685Z" transform="translate(-0.272 14.249)"/>
              </g>
              <g id="Groupe_303" data-name="Groupe 303" transform="translate(148.312 816.132)">
                <path id="Tracé_335" data-name="Tracé 335" d="M24.692,2.969V17.34H17.339V6.392A42.275,42.275,0,0,0,17.2,2.129,4.632,4.632,0,0,0,16.729.417a3.013,3.013,0,0,0-1.173-1.13,3.34,3.34,0,0,0-1.658-.4A4.18,4.18,0,0,0,10.3.708,8.436,8.436,0,0,0,9,5.746v11.61H1.71V-15.423H9.016V-2.78a11.77,11.77,0,0,1,3.5-3.036,8.66,8.66,0,0,1,4.1-.985,7.3,7.3,0,0,1,6.023,2.535A11.25,11.25,0,0,1,24.692,3Z" transform="translate(-1.71 15.423)"/>
              </g>
              <g id="Groupe_304" data-name="Groupe 304" transform="translate(176.282 824.75)">
                <path id="Tracé_336" data-name="Tracé 336" d="M25.481.94V3.1H8.381a5.674,5.674,0,0,0,1.862,3.972A6.745,6.745,0,0,0,14.7,8.4,16.712,16.712,0,0,0,19.4,7.705a24.521,24.521,0,0,0,4.959-2.148v5.8a30.051,30.051,0,0,1-5.178,1.518A26.07,26.07,0,0,1,14,13.405a13.518,13.518,0,0,1-9.653-3.229A11.96,11.96,0,0,1,.887,1.053,12.1,12.1,0,0,1,4.267-8.022a12.661,12.661,0,0,1,9.277-3.326A11.423,11.423,0,0,1,22.18-7.974,12.318,12.318,0,0,1,25.418.956Zm-7.509-2.5A4.937,4.937,0,0,0,16.751-5a4.112,4.112,0,0,0-3.129-1.324A4.879,4.879,0,0,0,10.165-5.1,5.725,5.725,0,0,0,8.506-1.563Z" transform="translate(-0.869 11.369)"/>
              </g>
              <g id="Groupe_305" data-name="Groupe 305" transform="translate(221.295 817.472)">
                <path id="Tracé_337" data-name="Tracé 337" d="M1.868-14.789h8.777L21.721,6.784V-14.789h7.447V16.65H20.391L9.315-4.923V16.65H1.868Z" transform="translate(-1.868 14.789)"/>
              </g>
              <g id="Groupe_306" data-name="Groupe 306" transform="translate(254.146 824.711)">
                <path id="Tracé_338" data-name="Tracé 338" d="M13.529-5.95A4.253,4.253,0,0,0,9.821-4.141a8.9,8.9,0,0,0-1.283,5.2,8.9,8.9,0,0,0,1.283,5.2,4.267,4.267,0,0,0,3.708,1.776,4.176,4.176,0,0,0,3.645-1.776,8.937,8.937,0,0,0,1.283-5.2,8.937,8.937,0,0,0-1.283-5.2A4.163,4.163,0,0,0,13.529-5.95Zm0-5.393a12.488,12.488,0,0,1,9.215,3.229A12.25,12.25,0,0,1,26.06.977a12.283,12.283,0,0,1-3.317,9.091A12.533,12.533,0,0,1,13.529,13.3a12.624,12.624,0,0,1-9.262-3.229A12.194,12.194,0,0,1,.888,1.074,12.166,12.166,0,0,1,4.22-8.017a12.576,12.576,0,0,1,9.387-3.229Z" transform="translate(-0.869 11.371)"/>
              </g>
              <g id="Groupe_307" data-name="Groupe 307" transform="translate(284.302 825.287)">
                <path id="Tracé_339" data-name="Tracé 339" d="M1.685,3.336V-11.1H9.038V-.039q-.031,2.061.141,4.118a4.865,4.865,0,0,0,.485,1.809A3.173,3.173,0,0,0,10.853,7.05a3.43,3.43,0,0,0,1.658.388,4.2,4.2,0,0,0,3.6-1.808,8.47,8.47,0,0,0,1.3-5.038V-11.1h7.306V12.491H17.345V9.068a11.583,11.583,0,0,1-3.5,3.052,8.737,8.737,0,0,1-4.13,1,7.346,7.346,0,0,1-6.023-2.5,11.149,11.149,0,0,1-2.081-7.3Z" transform="translate(-1.58 11.1)"/>
              </g>
              <g id="Groupe_308" data-name="Groupe 308" transform="translate(314.413 824.738)">
                <path id="Tracé_340" data-name="Tracé 340" d="M24.692-1.567V12.8H17.339v-11A41.658,41.658,0,0,0,17.2-2.406a4.632,4.632,0,0,0-.469-1.712,3.012,3.012,0,0,0-1.173-1.13,3.34,3.34,0,0,0-1.658-.4,4.18,4.18,0,0,0-3.6,1.825A8.436,8.436,0,0,0,9,1.211v11.61H1.71V-10.771H9.016v3.439a11.77,11.77,0,0,1,3.5-3.036,8.66,8.66,0,0,1,4.1-.985,7.3,7.3,0,0,1,6.023,2.535,11.25,11.25,0,0,1,2.049,7.266Z" transform="translate(-1.71 11.369)"/>
              </g>
              <g id="Groupe_309" data-name="Groupe 309" transform="translate(359.032 817.441)">
                <path id="Tracé_341" data-name="Tracé 341" d="M1.868-14.76H14.884a13.263,13.263,0,0,1,8.9,2.664,9.41,9.41,0,0,1,3.129,7.589A9.46,9.46,0,0,1,23.786,3.1a13.263,13.263,0,0,1-8.9,2.664H9.706v10.9H1.884ZM9.69-8.882V-.1h4.365a4.98,4.98,0,0,0,3.52-1.163A4.187,4.187,0,0,0,18.827-4.49,4.154,4.154,0,0,0,17.575-7.72a5.054,5.054,0,0,0-3.52-1.13Z" transform="translate(-1.868 14.791)"/>
              </g>
              <g id="Groupe_310" data-name="Groupe 310" transform="translate(389.351 824.719)">
                <path id="Tracé_342" data-name="Tracé 342" d="M18.685-4.359a9.876,9.876,0,0,0-1.94-.678,7.742,7.742,0,0,0-1.877-.226A5.241,5.241,0,0,0,10.534-3.39,8.255,8.255,0,0,0,8.969,1.922V12.806H1.71V-10.786H9.016V-6.91a9.438,9.438,0,0,1,3.223-3.375,8.481,8.481,0,0,1,4.381-1.082h.8l1.252.113Z" transform="translate(-1.71 11.37)"/>
              </g>
              <g id="Groupe_311" data-name="Groupe 311" transform="translate(408.153 824.711)">
                <path id="Tracé_343" data-name="Tracé 343" d="M13.529-5.95A4.253,4.253,0,0,0,9.821-4.141a8.9,8.9,0,0,0-1.283,5.2,8.9,8.9,0,0,0,1.283,5.2,4.267,4.267,0,0,0,3.708,1.776,4.176,4.176,0,0,0,3.645-1.776,8.937,8.937,0,0,0,1.283-5.2,8.937,8.937,0,0,0-1.283-5.2A4.163,4.163,0,0,0,13.529-5.95Zm0-5.393a12.488,12.488,0,0,1,9.215,3.229A12.25,12.25,0,0,1,26.06.977a12.283,12.283,0,0,1-3.317,9.091A12.533,12.533,0,0,1,13.529,13.3a12.624,12.624,0,0,1-9.262-3.229A12.194,12.194,0,0,1,.888,1.074,12.166,12.166,0,0,1,4.22-8.017a12.576,12.576,0,0,1,9.387-3.229Z" transform="translate(-0.869 11.371)"/>
              </g>
              <g id="Groupe_312" data-name="Groupe 312" transform="translate(433.751 816.132)">
                <path id="Tracé_344" data-name="Tracé 344" d="M4.233-6.235h7.275V16.92a10.625,10.625,0,0,1-2.222,7.25,8.043,8.043,0,0,1-6.383,2.5H-.679V21.716H.557A3.5,3.5,0,0,0,3.4,20.747a6.464,6.464,0,0,0,.8-3.827Zm0-9.188h7.275v6.168H4.233Z" transform="translate(0.679 15.423)"/>
              </g>
              <g id="Groupe_313" data-name="Groupe 313" transform="translate(451.208 824.75)">
                <path id="Tracé_345" data-name="Tracé 345" d="M25.481.94V3.1H8.381a5.674,5.674,0,0,0,1.862,3.972A6.745,6.745,0,0,0,14.7,8.4,16.712,16.712,0,0,0,19.4,7.705a24.521,24.521,0,0,0,4.959-2.148v5.8a30.051,30.051,0,0,1-5.178,1.518A26.07,26.07,0,0,1,14,13.405a13.518,13.518,0,0,1-9.653-3.229A11.96,11.96,0,0,1,.887,1.053,12.1,12.1,0,0,1,4.267-8.022a12.661,12.661,0,0,1,9.277-3.326A11.423,11.423,0,0,1,22.18-7.974,12.318,12.318,0,0,1,25.418.956Zm-7.509-2.5A4.937,4.937,0,0,0,16.751-5a4.112,4.112,0,0,0-3.129-1.324A4.879,4.879,0,0,0,10.165-5.1,5.725,5.725,0,0,0,8.506-1.563Z" transform="translate(-0.869 11.369)"/>
              </g>
              <g id="Groupe_314" data-name="Groupe 314" transform="translate(479.65 824.775)">
                <path id="Tracé_346" data-name="Tracé 346" d="M21.042-10.1v6.136a11.24,11.24,0,0,0-2.988-1.615,9.607,9.607,0,0,0-3.129-.5,6.15,6.15,0,0,0-4.787,1.857A7.282,7.282,0,0,0,8.432.933a7.311,7.311,0,0,0,1.768,5.2,6.239,6.239,0,0,0,4.787,1.825,10.333,10.333,0,0,0,3.238-.5,9.49,9.49,0,0,0,2.847-1.615V12.01a19.274,19.274,0,0,1-3.473.969,18.873,18.873,0,0,1-3.551.339,13.594,13.594,0,0,1-9.684-3.229A11.875,11.875,0,0,1,.891,1.014,11.926,11.926,0,0,1,4.364-8.109a13.609,13.609,0,0,1,9.684-3.229A18.875,18.875,0,0,1,17.6-11a19.034,19.034,0,0,1,3.473.985Z" transform="translate(-0.873 11.367)"/>
              </g>
              <g id="Groupe_315" data-name="Groupe 315" transform="translate(503.151 818.554)">
                <path id="Tracé_347" data-name="Tracé 347" d="M11.208-14.184V-7.5h7.541v5.393H11.208V7.905a2.972,2.972,0,0,0,.626,2.212,3.829,3.829,0,0,0,2.5.581h3.755v5.393H11.833A8.391,8.391,0,0,1,5.685,14.17,9,9,0,0,1,3.839,7.84V-2.171H.272V-7.564H3.839v-6.685Z" transform="translate(-0.272 14.249)"/>
              </g>
            </g>
          </g>
        </g>
      </g>
    </g>
  </g>
</svg>
