<svg xmlns="http://www.w3.org/2000/svg" width="527.632" height="531.277" viewBox="0 0 527.632 531.277">
  <g id="noun-management-3025765" transform="translate(-70.047 -40.254)">
    <path id="Tracé_6" data-name="Tracé 6" d="M538.56,256.98,532.6,223.511l40.523-53.539L508.153,89.144,443.731,114.9,419.34,102.16,401.02,40.254H297.88L279.56,102.16,255.224,114.9,190.747,89.144l-64.969,80.828L166.3,223.511,160.34,256.98l-59.117,29.531,20.125,96.414L189.653,389l17.172,23.68-7.656,63.492,89.086,42.492,43.477-45.719H367.17l43.477,45.719,89.086-42.492-7.656-63.492L509.249,389l68.3-6.07,20.125-96.414ZM349.45,158.433A56.055,56.055,0,1,1,293.4,214.488,56.132,56.132,0,0,1,349.45,158.433Zm97.4,220.94a8.426,8.426,0,0,1-8.422,8.422H260.476a8.426,8.426,0,0,1-8.422-8.422v-42a58.629,58.629,0,0,1,58.625-58.625h1.039l.93.547a74.548,74.548,0,0,0,73.664,0l.93-.547h1.039a58.629,58.629,0,0,1,58.625,58.625v42Z" fill="#fff"/>
    <g id="Groupe_5" data-name="Groupe 5" transform="translate(70 568.203)">
      <path id="Tracé_7" data-name="Tracé 7" d="M1.828-.109a.942.942,0,0,1-.3.109,1.539,1.539,0,0,1-.312.031,1.13,1.13,0,0,1-.8-.266A1.033,1.033,0,0,1,.141-1a1.014,1.014,0,0,1,.281-.75,1.1,1.1,0,0,1,.8-.281.99.99,0,0,1,.313.047,1.182,1.182,0,0,1,.3.109v.406a1.183,1.183,0,0,0-.281-.141.945.945,0,0,0-.3-.047.514.514,0,0,0-.422.188A.673.673,0,0,0,.672-1a.744.744,0,0,0,.156.5.526.526,0,0,0,.422.172.944.944,0,0,0,.3-.047,1.183,1.183,0,0,0,.281-.141Z" fill="#fff"/>
    </g>
    <g id="Groupe_6" data-name="Groupe 6" transform="translate(72.008 568.203)">
      <path id="Tracé_8" data-name="Tracé 8" d="M1.344-1.094a.31.31,0,0,0-.125-.031.729.729,0,0,0-.125-.016.375.375,0,0,0-.3.125A.5.5,0,0,0,.7-.688V0H.234V-1.5H.7v.25a.628.628,0,0,1,.2-.2.551.551,0,0,1,.3-.078H1.25a.753.753,0,0,1,.094.016Z" fill="#fff"/>
    </g>
    <g id="Groupe_7" data-name="Groupe 7" transform="translate(73.355 568.203)">
      <path id="Tracé_9" data-name="Tracé 9" d="M1.719-.75v.141H.609a.38.38,0,0,0,.109.25.479.479,0,0,0,.3.078,1.1,1.1,0,0,0,.313-.047,2.512,2.512,0,0,0,.328-.125v.359A1.964,1.964,0,0,1,1.313,0,2.083,2.083,0,0,1,.969.031a.873.873,0,0,1-.625-.2A.737.737,0,0,1,.125-.75a.724.724,0,0,1,.219-.563.825.825,0,0,1,.609-.219.721.721,0,0,1,.547.219.738.738,0,0,1,.219.563ZM1.234-.906a.305.305,0,0,0-.078-.219.273.273,0,0,0-.219-.094.333.333,0,0,0-.219.078.333.333,0,0,0-.109.234Z" fill="#fff"/>
    </g>
    <g id="Groupe_8" data-name="Groupe 8" transform="translate(75.211 568.203)">
      <path id="Tracé_10" data-name="Tracé 10" d="M.906-.672a.458.458,0,0,0-.234.047.165.165,0,0,0-.078.156.161.161,0,0,0,.063.141.273.273,0,0,0,.172.047.273.273,0,0,0,.219-.094.336.336,0,0,0,.094-.25V-.672Zm.719-.187V0H1.141V-.219a.565.565,0,0,1-.219.2A.729.729,0,0,1,.641.031.531.531,0,0,1,.266-.094.483.483,0,0,1,.125-.453.407.407,0,0,1,.3-.828,1.034,1.034,0,0,1,.859-.953h.281V-1a.164.164,0,0,0-.094-.156.457.457,0,0,0-.266-.062,1.442,1.442,0,0,0-.3.031,1.049,1.049,0,0,0-.234.094v-.359a1.7,1.7,0,0,1,.313-.062c.1-.008.2-.016.3-.016a.875.875,0,0,1,.578.156.64.64,0,0,1,.188.516Z" fill="#fff"/>
    </g>
    <g id="Groupe_9" data-name="Groupe 9" transform="translate(77.055 568.203)">
      <path id="Tracé_11" data-name="Tracé 11" d="M.75-1.922V-1.5h.5v.344H.75v.641a.235.235,0,0,0,.031.141.3.3,0,0,0,.172.031H1.2V0H.8A.6.6,0,0,1,.391-.109.6.6,0,0,1,.281-.516v-.641H.031V-1.5h.25v-.422Z" fill="#fff"/>
    </g>
    <g id="Groupe_10" data-name="Groupe 10" transform="translate(78.363 568.203)">
      <path id="Tracé_12" data-name="Tracé 12" d="M1.719-.75v.141H.609a.38.38,0,0,0,.109.25.479.479,0,0,0,.3.078,1.1,1.1,0,0,0,.313-.047,2.512,2.512,0,0,0,.328-.125v.359A1.964,1.964,0,0,1,1.313,0,2.083,2.083,0,0,1,.969.031a.873.873,0,0,1-.625-.2A.737.737,0,0,1,.125-.75a.724.724,0,0,1,.219-.563.825.825,0,0,1,.609-.219.721.721,0,0,1,.547.219.738.738,0,0,1,.219.563ZM1.234-.906a.305.305,0,0,0-.078-.219.273.273,0,0,0-.219-.094.333.333,0,0,0-.219.078.333.333,0,0,0-.109.234Z" fill="#fff"/>
    </g>
    <g id="Groupe_11" data-name="Groupe 11" transform="translate(80.215 568.203)">
      <path id="Tracé_13" data-name="Tracé 13" d="M1.25-1.281v-.8h.484V0H1.25V-.219a.7.7,0,0,1-.234.2A.687.687,0,0,1,.75.031.565.565,0,0,1,.3-.187.863.863,0,0,1,.125-.75.878.878,0,0,1,.3-1.312.577.577,0,0,1,.75-1.531a.567.567,0,0,1,.266.063.854.854,0,0,1,.234.188ZM.938-.312a.253.253,0,0,0,.219-.109A.484.484,0,0,0,1.25-.75a.474.474,0,0,0-.094-.312.25.25,0,0,0-.219-.125A.258.258,0,0,0,.7-1.062.522.522,0,0,0,.625-.75.535.535,0,0,0,.7-.422.263.263,0,0,0,.938-.312Z" fill="#fff"/>
    </g>
    <g id="Groupe_12" data-name="Groupe 12" transform="translate(83.125 568.203)">
      <path id="Tracé_14" data-name="Tracé 14" d="M1.031-.312A.253.253,0,0,0,1.25-.422.484.484,0,0,0,1.344-.75a.474.474,0,0,0-.094-.312.25.25,0,0,0-.219-.125.3.3,0,0,0-.25.125A.522.522,0,0,0,.7-.75a.535.535,0,0,0,.078.328A.307.307,0,0,0,1.031-.312ZM.7-1.281a.862.862,0,0,1,.219-.187A.647.647,0,0,1,1.2-1.531a.555.555,0,0,1,.453.219.9.9,0,0,1,.172.563.886.886,0,0,1-.172.563A.545.545,0,0,1,1.2.031.786.786,0,0,1,.922-.016.7.7,0,0,1,.7-.219V0H.234V-2.078H.7Z" fill="#fff"/>
    </g>
    <g id="Groupe_13" data-name="Groupe 13" transform="translate(85.082 568.203)">
      <path id="Tracé_15" data-name="Tracé 15" d="M.031-1.5H.516L.906-.484,1.25-1.5h.484L1.109.141A.7.7,0,0,1,.875.484.5.5,0,0,1,.547.594H.281V.281H.422A.245.245,0,0,0,.594.234.247.247,0,0,0,.688.094L.7.062Z" fill="#fff"/>
    </g>
    <g id="Groupe_14" data-name="Groupe 14" transform="translate(87.816 568.203)">
      <path id="Tracé_16" data-name="Tracé 16" d="M.25-2H.766V0H.25Z" fill="#fff"/>
    </g>
    <g id="Groupe_15" data-name="Groupe 15" transform="translate(88.836 568.203)">
      <path id="Tracé_17" data-name="Tracé 17" d="M1.438-1.453v.391a.959.959,0,0,0-.2-.094.691.691,0,0,0-.2-.031.427.427,0,0,0-.312.125A.424.424,0,0,0,.609-.75a.491.491,0,0,0,.109.344A.449.449,0,0,0,1.031-.3.63.63,0,0,0,1.25-.328a.875.875,0,0,0,.188-.109v.391A.943.943,0,0,1,1.2.016,2.134,2.134,0,0,1,.984.031a.934.934,0,0,1-.641-.2A.737.737,0,0,1,.125-.75a.724.724,0,0,1,.219-.562.9.9,0,0,1,.641-.219A.87.87,0,0,1,1.2-1.5a2.073,2.073,0,0,1,.234.047Z" fill="#fff"/>
    </g>
    <g id="Groupe_16" data-name="Groupe 16" transform="translate(90.457 568.203)">
      <path id="Tracé_18" data-name="Tracé 18" d="M.938-1.187a.319.319,0,0,0-.25.109A.551.551,0,0,0,.609-.75a.614.614,0,0,0,.078.344A.307.307,0,0,0,.938-.3a.272.272,0,0,0,.234-.109A.554.554,0,0,0,1.266-.75a.5.5,0,0,0-.094-.328A.282.282,0,0,0,.938-1.187Zm0-.344a.837.837,0,0,1,.609.219.738.738,0,0,1,.219.563.751.751,0,0,1-.219.578.864.864,0,0,1-.609.2.851.851,0,0,1-.609-.2.773.773,0,0,1-.2-.578.759.759,0,0,1,.2-.562A.825.825,0,0,1,.938-1.531Z" fill="#fff"/>
    </g>
    <g id="Groupe_17" data-name="Groupe 17" transform="translate(92.336 568.203)">
      <path id="Tracé_19" data-name="Tracé 19" d="M1.734-.906V0H1.25V-.7a1.526,1.526,0,0,0-.016-.25.516.516,0,0,0-.016-.125.169.169,0,0,0-.078-.062.21.21,0,0,0-.109-.031.3.3,0,0,0-.25.125A.522.522,0,0,0,.7-.734V0H.234V-1.5H.7v.219a.753.753,0,0,1,.234-.187A.617.617,0,0,1,1.2-1.531a.483.483,0,0,1,.391.156.686.686,0,0,1,.141.469Z" fill="#fff"/>
    </g>
    <g id="Groupe_18" data-name="Groupe 18" transform="translate(94.281 568.203)">
      <path id="Tracé_20" data-name="Tracé 20" d="M.25-2h.859a.88.88,0,0,1,.578.172.613.613,0,0,1,.2.484.6.6,0,0,1-.2.484.859.859,0,0,1-.578.172H.766V0H.25Zm.516.375v.563h.281a.372.372,0,0,0,.234-.062.3.3,0,0,0,.078-.219.251.251,0,0,0-.078-.2.333.333,0,0,0-.234-.078Z" fill="#fff"/>
    </g>
    <g id="Groupe_19" data-name="Groupe 19" transform="translate(96.285 568.203)">
      <path id="Tracé_21" data-name="Tracé 21" d="M.906-.672a.458.458,0,0,0-.234.047.165.165,0,0,0-.078.156.161.161,0,0,0,.063.141.273.273,0,0,0,.172.047.273.273,0,0,0,.219-.094.336.336,0,0,0,.094-.25V-.672Zm.719-.187V0H1.141V-.219a.565.565,0,0,1-.219.2A.729.729,0,0,1,.641.031.531.531,0,0,1,.266-.094.483.483,0,0,1,.125-.453.407.407,0,0,1,.3-.828,1.034,1.034,0,0,1,.859-.953h.281V-1a.164.164,0,0,0-.094-.156.457.457,0,0,0-.266-.062,1.442,1.442,0,0,0-.3.031,1.049,1.049,0,0,0-.234.094v-.359a1.7,1.7,0,0,1,.313-.062c.1-.008.2-.016.3-.016a.875.875,0,0,1,.578.156.64.64,0,0,1,.188.516Z" fill="#fff"/>
    </g>
    <g id="Groupe_20" data-name="Groupe 20" transform="translate(98.129 568.203)">
      <path id="Tracé_22" data-name="Tracé 22" d="M.234-1.5H.7V0H.234Zm0-.578H.7v.391H.234Z" fill="#fff"/>
    </g>
    <g id="Groupe_21" data-name="Groupe 21" transform="translate(70 570.938)">
      <path id="Tracé_23" data-name="Tracé 23" d="M1.219-2.078v.313H.953A.213.213,0,0,0,.8-1.719a.172.172,0,0,0-.031.125V-1.5h.406v.344H.766V0H.3V-1.156H.047V-1.5H.3v-.094a.452.452,0,0,1,.125-.359.625.625,0,0,1,.422-.125Z" fill="#fff"/>
    </g>
    <g id="Groupe_22" data-name="Groupe 22" transform="translate(71.191 570.938)">
      <path id="Tracé_24" data-name="Tracé 24" d="M1.344-1.094a.31.31,0,0,0-.125-.031.729.729,0,0,0-.125-.016.375.375,0,0,0-.3.125A.5.5,0,0,0,.7-.688V0H.234V-1.5H.7v.25a.628.628,0,0,1,.2-.2.551.551,0,0,1,.3-.078H1.25a.753.753,0,0,1,.094.016Z" fill="#fff"/>
    </g>
    <g id="Groupe_23" data-name="Groupe 23" transform="translate(72.539 570.938)">
      <path id="Tracé_25" data-name="Tracé 25" d="M.938-1.187a.319.319,0,0,0-.25.109A.551.551,0,0,0,.609-.75a.614.614,0,0,0,.078.344A.307.307,0,0,0,.938-.3a.272.272,0,0,0,.234-.109A.554.554,0,0,0,1.266-.75a.5.5,0,0,0-.094-.328A.282.282,0,0,0,.938-1.187Zm0-.344a.837.837,0,0,1,.609.219.738.738,0,0,1,.219.563.751.751,0,0,1-.219.578.864.864,0,0,1-.609.2.851.851,0,0,1-.609-.2.773.773,0,0,1-.2-.578.759.759,0,0,1,.2-.562A.825.825,0,0,1,.938-1.531Z" fill="#fff"/>
    </g>
    <g id="Groupe_24" data-name="Groupe 24" transform="translate(74.418 570.938)">
      <path id="Tracé_26" data-name="Tracé 26" d="M1.609-1.25a.568.568,0,0,1,.219-.2.525.525,0,0,1,.281-.078.511.511,0,0,1,.391.156.686.686,0,0,1,.141.469V0H2.156V-.875a.387.387,0,0,0-.047-.219.173.173,0,0,0-.156-.078.24.24,0,0,0-.2.109.551.551,0,0,0-.078.328V0H1.188V-.781a.641.641,0,0,0-.047-.313A.14.14,0,0,0,1-1.172a.246.246,0,0,0-.219.125A.522.522,0,0,0,.7-.734V0H.234V-1.5H.7v.219a.7.7,0,0,1,.2-.187.577.577,0,0,1,.25-.062.463.463,0,0,1,.266.078.548.548,0,0,1,.188.2Z" fill="#fff"/>
    </g>
    <g id="Groupe_25" data-name="Groupe 25" transform="translate(78.219 570.938)">
      <path id="Tracé_27" data-name="Tracé 27" d="M.75-1.922V-1.5h.5v.344H.75v.641a.235.235,0,0,0,.031.141.3.3,0,0,0,.172.031H1.2V0H.8A.6.6,0,0,1,.391-.109.6.6,0,0,1,.281-.516v-.641H.031V-1.5h.25v-.422Z" fill="#fff"/>
    </g>
    <g id="Groupe_26" data-name="Groupe 26" transform="translate(79.523 570.938)">
      <path id="Tracé_28" data-name="Tracé 28" d="M1.734-.906V0H1.25V-.687a1.693,1.693,0,0,0-.016-.266.516.516,0,0,0-.016-.125.169.169,0,0,0-.078-.062.21.21,0,0,0-.109-.031.3.3,0,0,0-.25.125A.522.522,0,0,0,.7-.734V0H.234V-2.078H.7v.8a.753.753,0,0,1,.234-.187A.617.617,0,0,1,1.2-1.531a.483.483,0,0,1,.391.156.686.686,0,0,1,.141.469Z" fill="#fff"/>
    </g>
    <g id="Groupe_27" data-name="Groupe 27" transform="translate(81.473 570.938)">
      <path id="Tracé_29" data-name="Tracé 29" d="M1.719-.75v.141H.609a.38.38,0,0,0,.109.25.479.479,0,0,0,.3.078,1.1,1.1,0,0,0,.313-.047,2.512,2.512,0,0,0,.328-.125v.359A1.964,1.964,0,0,1,1.313,0,2.083,2.083,0,0,1,.969.031a.873.873,0,0,1-.625-.2A.737.737,0,0,1,.125-.75a.724.724,0,0,1,.219-.563.825.825,0,0,1,.609-.219.721.721,0,0,1,.547.219.738.738,0,0,1,.219.563ZM1.234-.906a.305.305,0,0,0-.078-.219.273.273,0,0,0-.219-.094.333.333,0,0,0-.219.078.333.333,0,0,0-.109.234Z" fill="#fff"/>
    </g>
    <g id="Groupe_28" data-name="Groupe 28" transform="translate(84.277 570.938)">
      <path id="Tracé_30" data-name="Tracé 30" d="M.25-2H.828L1.547-.625V-2h.484V0H1.469L.734-1.375V0H.25Z" fill="#fff"/>
    </g>
    <g id="Groupe_29" data-name="Groupe 29" transform="translate(86.566 570.938)">
      <path id="Tracé_31" data-name="Tracé 31" d="M.938-1.187a.319.319,0,0,0-.25.109A.551.551,0,0,0,.609-.75a.614.614,0,0,0,.078.344A.307.307,0,0,0,.938-.3a.272.272,0,0,0,.234-.109A.554.554,0,0,0,1.266-.75a.5.5,0,0,0-.094-.328A.282.282,0,0,0,.938-1.187Zm0-.344a.837.837,0,0,1,.609.219.738.738,0,0,1,.219.563.751.751,0,0,1-.219.578.864.864,0,0,1-.609.2.851.851,0,0,1-.609-.2.773.773,0,0,1-.2-.578.759.759,0,0,1,.2-.562A.825.825,0,0,1,.938-1.531Z" fill="#fff"/>
    </g>
    <g id="Groupe_30" data-name="Groupe 30" transform="translate(88.445 570.938)">
      <path id="Tracé_32" data-name="Tracé 32" d="M.219-.578V-1.5H.688v.969a.168.168,0,0,0,.047.109.249.249,0,0,0,.078.078.308.308,0,0,0,.109.016.253.253,0,0,0,.219-.109A.46.46,0,0,0,1.234-.75V-1.5h.484V0H1.234V-.219A.7.7,0,0,1,1-.016.634.634,0,0,1,.75.031.51.51,0,0,1,.344-.125.689.689,0,0,1,.219-.578Z" fill="#fff"/>
    </g>
    <g id="Groupe_31" data-name="Groupe 31" transform="translate(90.391 570.938)">
      <path id="Tracé_33" data-name="Tracé 33" d="M1.734-.906V0H1.25V-.7a1.526,1.526,0,0,0-.016-.25.516.516,0,0,0-.016-.125.169.169,0,0,0-.078-.062.21.21,0,0,0-.109-.031.3.3,0,0,0-.25.125A.522.522,0,0,0,.7-.734V0H.234V-1.5H.7v.219a.753.753,0,0,1,.234-.187A.617.617,0,0,1,1.2-1.531a.483.483,0,0,1,.391.156.686.686,0,0,1,.141.469Z" fill="#fff"/>
    </g>
    <g id="Groupe_32" data-name="Groupe 32" transform="translate(93.289 570.938)">
      <path id="Tracé_34" data-name="Tracé 34" d="M.25-2h.859a.88.88,0,0,1,.578.172.613.613,0,0,1,.2.484.6.6,0,0,1-.2.484.859.859,0,0,1-.578.172H.766V0H.25Zm.516.375v.563h.281a.372.372,0,0,0,.234-.062.3.3,0,0,0,.078-.219.251.251,0,0,0-.078-.2.333.333,0,0,0-.234-.078Z" fill="#fff"/>
    </g>
    <g id="Groupe_33" data-name="Groupe 33" transform="translate(95.293 570.938)">
      <path id="Tracé_35" data-name="Tracé 35" d="M1.344-1.094a.31.31,0,0,0-.125-.031.729.729,0,0,0-.125-.016.375.375,0,0,0-.3.125A.5.5,0,0,0,.7-.688V0H.234V-1.5H.7v.25a.628.628,0,0,1,.2-.2.551.551,0,0,1,.3-.078H1.25a.753.753,0,0,1,.094.016Z" fill="#fff"/>
    </g>
    <g id="Groupe_34" data-name="Groupe 34" transform="translate(96.645 570.938)">
      <path id="Tracé_36" data-name="Tracé 36" d="M.938-1.187a.319.319,0,0,0-.25.109A.551.551,0,0,0,.609-.75a.614.614,0,0,0,.078.344A.307.307,0,0,0,.938-.3a.272.272,0,0,0,.234-.109A.554.554,0,0,0,1.266-.75a.5.5,0,0,0-.094-.328A.282.282,0,0,0,.938-1.187Zm0-.344a.837.837,0,0,1,.609.219.738.738,0,0,1,.219.563.751.751,0,0,1-.219.578.864.864,0,0,1-.609.2.851.851,0,0,1-.609-.2.773.773,0,0,1-.2-.578.759.759,0,0,1,.2-.562A.825.825,0,0,1,.938-1.531Z" fill="#fff"/>
    </g>
    <g id="Groupe_35" data-name="Groupe 35" transform="translate(98.52 570.938)">
      <path id="Tracé_37" data-name="Tracé 37" d="M.234-1.5H.7V-.031A.686.686,0,0,1,.563.438.548.548,0,0,1,.141.594H-.094V.281h.078A.233.233,0,0,0,.172.219a.379.379,0,0,0,.063-.25Zm0-.578H.7v.391H.234Z" fill="#fff"/>
    </g>
    <g id="Groupe_36" data-name="Groupe 36" transform="translate(99.457 570.938)">
      <path id="Tracé_38" data-name="Tracé 38" d="M1.719-.75v.141H.609a.38.38,0,0,0,.109.25.479.479,0,0,0,.3.078,1.1,1.1,0,0,0,.313-.047,2.512,2.512,0,0,0,.328-.125v.359A1.964,1.964,0,0,1,1.313,0,2.083,2.083,0,0,1,.969.031a.873.873,0,0,1-.625-.2A.737.737,0,0,1,.125-.75a.724.724,0,0,1,.219-.563.825.825,0,0,1,.609-.219.721.721,0,0,1,.547.219.738.738,0,0,1,.219.563ZM1.234-.906a.305.305,0,0,0-.078-.219.273.273,0,0,0-.219-.094.333.333,0,0,0-.219.078.333.333,0,0,0-.109.234Z" fill="#fff"/>
    </g>
    <g id="Groupe_37" data-name="Groupe 37" transform="translate(101.313 570.938)">
      <path id="Tracé_39" data-name="Tracé 39" d="M1.438-1.453v.391a.959.959,0,0,0-.2-.094.691.691,0,0,0-.2-.031.427.427,0,0,0-.312.125A.424.424,0,0,0,.609-.75a.491.491,0,0,0,.109.344A.449.449,0,0,0,1.031-.3.63.63,0,0,0,1.25-.328a.875.875,0,0,0,.188-.109v.391A.943.943,0,0,1,1.2.016,2.134,2.134,0,0,1,.984.031a.934.934,0,0,1-.641-.2A.737.737,0,0,1,.125-.75a.724.724,0,0,1,.219-.562.9.9,0,0,1,.641-.219A.87.87,0,0,1,1.2-1.5a2.073,2.073,0,0,1,.234.047Z" fill="#fff"/>
    </g>
    <g id="Groupe_38" data-name="Groupe 38" transform="translate(102.934 570.938)">
      <path id="Tracé_40" data-name="Tracé 40" d="M.75-1.922V-1.5h.5v.344H.75v.641a.235.235,0,0,0,.031.141.3.3,0,0,0,.172.031H1.2V0H.8A.6.6,0,0,1,.391-.109.6.6,0,0,1,.281-.516v-.641H.031V-1.5h.25v-.422Z" fill="#fff"/>
    </g>
  </g>
</svg>
