<svg xmlns="http://www.w3.org/2000/svg" width="490.001" height="505.063" viewBox="0 0 490.001 505.063">
  <path id="noun-booking-3266102" d="M237.825-.137a19.92,19.92,0,0,0-12.853,4.785,14.669,14.669,0,0,0-5.189,11.176V35.111h36.724V15.825a14.712,14.712,0,0,0-5.414-11.374A20.051,20.051,0,0,0,237.825-.137Zm246.816,0h0a19.924,19.924,0,0,0-12.918,4.754,14.674,14.674,0,0,0-5.226,11.209V35.112h36.724V15.825a14.719,14.719,0,0,0-5.377-11.342,20.034,20.034,0,0,0-13.2-4.62Zm-351.6,35.28h0a19.558,19.558,0,0,0-11.792,5.12,14.61,14.61,0,0,0-4.742,10.6V129.7h490V50.859a14.764,14.764,0,0,0-5.382-11.1,19.985,19.985,0,0,0-12.911-4.62H503.213V85.92c.008.454,0,.9-.037,1.356a13.439,13.439,0,0,1-.217,1.511v.06c-.012.07-.025.141-.037.215-.1.444-.217.887-.361,1.324-.025.07-.049.144-.074.215-.029.053-.053.1-.078.155-.143.447-.311.891-.5,1.324-.135.282-.279.56-.43.831-.07.134-.139.268-.213.4-.2.335-.418.662-.648.986-.082.134-.164.268-.25.4l-.143.187q-.443.57-.934,1.109c-.275.3-.562.585-.861.863-.107.113-.217.229-.328.338-.061.053-.123.106-.184.155s-.127.106-.189.155c-.381.313-.775.613-1.185.894s-.824.57-1.254.831c-.5.3-1.012.577-1.545.835-.082.042-.164.081-.25.123-.131.053-.262.106-.393.155-.41.18-.832.345-1.258.5-.48.183-.971.349-1.467.493-.086.021-.168.042-.25.06-.111.021-.217.042-.328.06-.484.12-.975.225-1.471.31-.59.1-1.193.169-1.791.215-.525.039-1.053.06-1.578.06-.623.007-1.246-.014-1.865-.06-.6-.046-1.2-.116-1.8-.215-.5-.085-.984-.19-1.471-.31l-.393-.1c-.562-.151-1.111-.327-1.652-.525-.561-.2-1.111-.43-1.648-.68q-.7-.312-1.365-.676l-.213-.127-.078-.032c-.484-.289-.951-.6-1.4-.923-.41-.282-.807-.581-1.185-.894-.086-.07-.168-.141-.25-.215-.148-.141-.291-.282-.43-.43-.3-.278-.586-.567-.861-.863a14.158,14.158,0,0,1-.934-1.109c-.012-.018-.025-.039-.037-.06-.123-.173-.242-.345-.361-.525-.23-.32-.443-.648-.643-.986-.238-.4-.451-.813-.648-1.232s-.357-.877-.5-1.324c-.037-.07-.074-.141-.111-.215-.012-.049-.025-.1-.037-.155a13.565,13.565,0,0,1-.361-1.324c-.012-.07-.025-.144-.037-.215v-.06a13.428,13.428,0,0,1-.213-1.511,12.46,12.46,0,0,1-.037-1.356V35.143H256.481V85.92c.008.454,0,.9-.037,1.356a13.439,13.439,0,0,1-.217,1.511v.06c-.066.352-.152.7-.246,1.046-.066.239-.139.475-.217.711-.025.049-.049.1-.078.155a13.434,13.434,0,0,1-.5,1.324c-.193.43-.406.849-.643,1.264-.037.06-.074.123-.111.183-.127.187-.258.373-.4.556-.156.25-.324.5-.5.739q-.455.6-.971,1.169c-.275.3-.562.585-.861.863-.139.144-.283.289-.43.43-.082.074-.164.144-.25.215-.377.313-.775.609-1.184.894-.447.327-.914.634-1.4.923-.213.12-.426.232-.643.342-.283.148-.57.292-.865.43-.189.085-.381.166-.574.243-.4.18-.807.342-1.221.5-.537.2-1.09.37-1.648.525l-.393.1c-.488.12-.975.222-1.471.31-.594.1-1.193.169-1.8.215a22.231,22.231,0,0,1-2.906.032l-.541-.032c-.6-.046-1.2-.12-1.791-.215-.5-.088-.988-.19-1.471-.31l-.4-.1c-.557-.155-1.107-.327-1.648-.525-.414-.155-.82-.317-1.221-.5-.193-.077-.385-.158-.574-.243-.291-.137-.578-.282-.861-.43-.217-.109-.434-.222-.648-.342-.484-.289-.951-.6-1.4-.923-.41-.285-.8-.581-1.185-.894-.086-.07-.168-.141-.25-.215-.148-.141-.291-.285-.43-.43-.3-.278-.586-.567-.861-.863q-.5-.539-.934-1.109c-.012-.018-.025-.039-.037-.06-.123-.173-.242-.349-.361-.525-.23-.32-.443-.651-.643-.986-.238-.4-.451-.813-.648-1.232-.115-.243-.225-.489-.324-.739-.123-.313-.23-.634-.328-.954-.143-.437-.262-.88-.361-1.324-.012-.074-.025-.144-.037-.215v-.06a13.431,13.431,0,0,1-.213-1.511,12.452,12.452,0,0,1-.037-1.356V35.143H134.748q-.879-.037-1.758,0ZM116.5,161.256V489.088h0a14.736,14.736,0,0,0,5.328,11.174,19.971,19.971,0,0,0,12.964,4.662H588.2a19.97,19.97,0,0,0,12.964-4.662,14.734,14.734,0,0,0,5.328-11.174V161.256ZM457.268,245v0a20.032,20.032,0,0,1,13.218,4.578,14.277,14.277,0,0,1-.2,22.569L315.07,401.991a20.434,20.434,0,0,1-16.423,4.148c-5.939-1.032-10.9-4.507-13.271-9.3l-36.724-73.824a13.759,13.759,0,0,1-.422-12.233,17.156,17.156,0,0,1,9.89-8.814,21.145,21.145,0,0,1,14.247-.088,17.266,17.266,0,0,1,10.033,8.687l26.182,52.749,136.067-113.79v0A19.98,19.98,0,0,1,457.273,245Z" transform="translate(-116.498 0.14)" fill="#fff"/>
</svg>
