<svg xmlns="http://www.w3.org/2000/svg" xmlns:xlink="http://www.w3.org/1999/xlink" width="77" height="77" viewBox="0 0 77 77">
  <defs>
    <clipPath id="clip-path">
      <circle id="Ellipse_4" data-name="Ellipse 4" cx="38.5" cy="38.5" r="38.5" transform="translate(323.84 385)" fill="#fff" stroke="#fff" stroke-width="1"/>
    </clipPath>
    <clipPath id="clip-path-2">
      <rect id="Rectangle_23" data-name="Rectangle 23" width="60" height="60" transform="translate(-6.416 0.424)" fill="none" stroke="#fff" stroke-width="1.283"/>
    </clipPath>
  </defs>
  <g id="Groupe_de_masques_5" data-name="Groupe de masques 5" transform="translate(-323.84 -385)" clip-path="url(#clip-path)">
    <g id="reservations" transform="translate(334.256 389.576)" clip-path="url(#clip-path-2)" style="isolation: isolate">
      <path id="reservations-2" data-name="reservations" d="M159.445-.178a1.51,1.51,0,0,0-1.482,1.522V3.182h3.008V1.343a1.5,1.5,0,0,0-1.53-1.522Zm20.219,0h0a1.5,1.5,0,0,0-1.487,1.522V3.182h3.008V1.343a1.5,1.5,0,0,0-1.522-1.522Zm-28.8,3.361h0a1.51,1.51,0,0,0-1.353,1.5V12.2h40.14V4.684a1.5,1.5,0,0,0-1.5-1.5h-6.962v4.97a.794.794,0,0,1-.018.144v.029c-.008.042-.018.085-.029.126l-.006.02-.006.015c-.012.042-.025.085-.041.126s-.023.053-.035.08l-.017.038c-.017.032-.034.063-.053.094l-.02.038-.012.018q-.036.054-.076.106c-.022.028-.046.055-.07.083l-.027.032-.015.015-.015.015a.939.939,0,0,1-.1.086c-.037.027-.067.054-.1.08a1.108,1.108,0,0,1-.127.08l-.02.012-.032.015c-.033.017-.068.033-.1.047s-.079.033-.12.047l-.02.006-.027.006c-.039.011-.08.021-.121.029a1.44,1.44,0,0,1-.147.02c-.043,0-.087.006-.129.006a1.383,1.383,0,0,1-.153-.006,1.449,1.449,0,0,1-.147-.02c-.04-.008-.081-.018-.121-.029l-.032-.009a1.276,1.276,0,0,1-.135-.05,1.466,1.466,0,0,1-.135-.064q-.057-.03-.112-.064l-.017-.012h-.006q-.059-.041-.115-.088c-.033-.027-.066-.055-.1-.086l-.02-.02-.035-.041c-.024-.026-.048-.054-.07-.083s-.052-.069-.076-.106V8.88l-.029-.05a1.064,1.064,0,0,1-.052-.094c-.016-.032-.037-.078-.053-.118a1.317,1.317,0,0,1-.041-.126l-.009-.02V8.457c-.012-.041-.021-.084-.029-.126V8.3c-.008-.047-.014-.1-.017-.144s0-.086,0-.129V3.182H160.974v4.97a.794.794,0,0,1-.018.144v.009c-.005.033-.012.066-.02.1s-.011.045-.018.067l-.006.015c-.012.042-.025.085-.041.126s-.033.081-.052.121l-.009.017c-.01.018-.021.035-.032.053s-.026.047-.04.07c-.025.038-.051.075-.08.112s-.046.055-.07.083l-.035.041-.02.02a.937.937,0,0,1-.1.086c-.037.027-.074.06-.115.088l-.052.032-.07.041-.047.023c-.033.017-.066.032-.1.047s-.09.035-.135.05l-.032.009c-.04.011-.08.021-.121.029s-.1.016-.147.02a1.565,1.565,0,0,1-.238,0h-.044a.783.783,0,0,1-.147-.02c-.046-.009-.081-.018-.121-.029l-.032-.009c-.045-.015-.091-.031-.135-.05s-.067-.03-.1-.047l-.047-.023-.07-.041-.053-.032q-.059-.041-.115-.088l-.1-.086-.02-.02-.035-.041c-.024-.026-.048-.054-.07-.083s-.052-.069-.076-.106V8.876l-.029-.05c-.019-.03-.036-.062-.052-.094s-.037-.078-.053-.118c-.009-.023-.018-.046-.026-.07s-.019-.06-.027-.091-.021-.084-.029-.126V8.3c-.008-.047-.014-.1-.017-.144s0-.086,0-.129V3.182h-7.1ZM149.508,15.21V46.468h0a1.5,1.5,0,0,0,1.5,1.51h37.14a1.5,1.5,0,0,0,1.5-1.51V15.21Zm27.915,7.985h0a1.5,1.5,0,0,1,1.066,2.589l-12.715,12.38a1.5,1.5,0,0,1-2.433-.491l-3.008-7.039a1.5,1.5,0,1,1,2.764-1.188l2.145,5.033L176.387,23.63h0a1.5,1.5,0,0,1,1.034-.432Z" transform="translate(-145.858 5.078)" fill="#fff" stroke="#fff" stroke-width="1.283"/>
    </g>
  </g>
</svg>
