<svg id="handicape" xmlns="http://www.w3.org/2000/svg" width="30" height="30" viewBox="0 0 30 30">
  <g id="invisible_box" data-name="invisible box">
    <rect id="Rectangle_22" data-name="Rectangle 22" width="30" height="30" fill="none"/>
  </g>
  <g id="Q3_icons" data-name="Q3 icons" transform="translate(3.112 2.727)">
    <g id="Groupe_2" data-name="Groupe 2" transform="translate(0 0)">
      <path id="Tracé_4" data-name="Tracé 4" d="M13.117,30.75a5.625,5.625,0,0,1-.875-11.187l2.438-2.438L13.117,17A8.125,8.125,0,1,0,20.93,27.313H18.3A5.688,5.688,0,0,1,13.117,30.75Z" transform="translate(-4.979 -9.102)"/>
      <circle id="Ellipse_5" data-name="Ellipse 5" cx="2.5" cy="2.5" r="2.5" transform="translate(18.888 0.273)"/>
      <path id="Tracé_5" data-name="Tracé 5" d="M27.958,18.15H23.27l6.188-6.187-5.5-5.5a1.812,1.812,0,0,0-2.625,0L18.958,8.838a1.25,1.25,0,0,0,1.75,1.75L22.645,8.65l2.313,2.312-6.5,6.5a1.812,1.812,0,0,0-.438,2,1.875,1.875,0,0,0,1.75,1.188h7.563v6.563a1.25,1.25,0,0,0,2.5,0V20.025a1.812,1.812,0,0,0-1.875-1.875Z" transform="translate(-9.82 -4.94)"/>
    </g>
  </g>
</svg>
