<svg xmlns="http://www.w3.org/2000/svg" width="490.001" height="455" viewBox="0 0 490.001 455">
  <g id="noun-dish-2717168" transform="translate(-105 -35)">
    <path id="Tracé_23" data-name="Tracé 23" d="M350,122.5a245,245,0,0,0-245,245A52.494,52.494,0,0,0,157.5,420h385A52.494,52.494,0,0,0,595,367.5a245,245,0,0,0-245-245Z" fill="#fff"/>
    <path id="Tracé_24" data-name="Tracé 24" d="M402.5,87.5A52.5,52.5,0,1,1,350,35a52.5,52.5,0,0,1,52.5,52.5" fill="#fff"/>
    <path id="Tracé_25" data-name="Tracé 25" d="M577.5,490h-455a17.5,17.5,0,1,1,0-35h455a17.5,17.5,0,1,1,0,35Z" fill="#fff"/>
  </g>
</svg>
