<svg xmlns="http://www.w3.org/2000/svg" xmlns:xlink="http://www.w3.org/1999/xlink" width="60" height="60" viewBox="0 0 60 60">
  <defs>
    <clipPath id="clip-path">
      <rect x="6" y="-10" width="60" height="60" fill="none"/>
    </clipPath>
  </defs>
  <g id="edit-password" transform="translate(-6 10)" clip-path="url(#clip-path)" style="isolation: isolate">
    <g id="edit-password-2" data-name="edit-password" transform="translate(-60.171 -5.445)">
      <path id="Tracé_348" data-name="Tracé 348" d="M96.747,0C88.8,0,82.427,5.6,82.427,12.532H81.2a2.123,2.123,0,0,0-2.238,1.9V36.543a2.123,2.123,0,0,0,2.238,1.9l18.917-.374,14.645-17.058V14.433a2.123,2.123,0,0,0-2.238-1.9h-1.455C111.066,5.6,104.691,0,96.748,0Zm0,2.91c6.041,0,10.963,4.364,11.074,9.622H85.782c0-5.258,4.923-9.622,10.964-9.622ZM123.2,17.363a4.763,4.763,0,0,0-3.916,1.9l-1.678,2.012,7.718,6.49L127,25.753a5.011,5.011,0,0,0-.559-7.159,5.337,5.337,0,0,0-3.243-1.232Zm-7.5,5.82L102.279,39.069,110,45.559,123.425,29.67Zm-18.957.088A2.545,2.545,0,0,1,99.318,25.4a2.1,2.1,0,0,1-1.229,1.789v4.475c0,.559-.56.9-1.232.9s-1.229-.448-1.229-.9V27.187A1.917,1.917,0,0,1,94.4,25.4a2.185,2.185,0,0,1,2.351-2.127Zm3.967,20.383-.672,3.693-.67,3.579,3.467-1.342,3.469-1.229L103.51,46Z" transform="translate(-6.17)" fill="#bb9457"/>
      <g id="Groupe_316" data-name="Groupe 316" transform="translate(72.171 59.908)">
        <path id="Tracé_349" data-name="Tracé 349" d="M4.639-29.676a1.9,1.9,0,0,1-.431.161,1.922,1.922,0,0,1-.465.055,1.6,1.6,0,0,1-1.15-.4,1.45,1.45,0,0,1-.423-1.1,1.45,1.45,0,0,1,.423-1.1,1.6,1.6,0,0,1,1.15-.4,1.976,1.976,0,0,1,.465.054,1.888,1.888,0,0,1,.431.162v.6a1.642,1.642,0,0,0-.411-.207,1.348,1.348,0,0,0-.425-.067.8.8,0,0,0-.629.257,1.021,1.021,0,0,0-.229.706,1.023,1.023,0,0,0,.229.706A.8.8,0,0,0,3.8-30a1.368,1.368,0,0,0,.425-.065,1.661,1.661,0,0,0,.411-.209Z" transform="translate(-2.171 32.469)" fill="#bb9457"/>
      </g>
      <g id="Groupe_317" data-name="Groupe 317" transform="translate(75.227 60.633)">
        <path id="Tracé_350" data-name="Tracé 350" d="M5.289-23.854a.917.917,0,0,0-.183-.063.778.778,0,0,0-.18-.021.511.511,0,0,0-.413.172.749.749,0,0,0-.144.493v1h-.7v-2.175h.7v.357a.882.882,0,0,1,.307-.311.841.841,0,0,1,.418-.1l.075,0,.118.013Z" transform="translate(-3.672 24.499)" fill="#bb9457"/>
      </g>
      <g id="Groupe_318" data-name="Groupe 318" transform="translate(77.026 60.633)">
        <path id="Tracé_351" data-name="Tracé 351" d="M4.21-23.366v.2H2.583a.517.517,0,0,0,.176.367.66.66,0,0,0,.425.122,1.675,1.675,0,0,0,.449-.064,2.309,2.309,0,0,0,.473-.2v.536a2.9,2.9,0,0,1-.493.141,2.586,2.586,0,0,1-.493.048,1.312,1.312,0,0,1-.919-.3,1.088,1.088,0,0,1-.327-.843,1.1,1.1,0,0,1,.321-.837,1.235,1.235,0,0,1,.885-.305,1.108,1.108,0,0,1,.821.31,1.115,1.115,0,0,1,.308.824ZM3.5-23.6a.442.442,0,0,0-.117-.32.4.4,0,0,0-.3-.122.474.474,0,0,0-.33.114.529.529,0,0,0-.156.328Z" transform="translate(-1.874 24.5)" fill="#bb9457"/>
      </g>
      <g id="Groupe_319" data-name="Groupe 319" transform="translate(79.724 60.632)">
        <path id="Tracé_352" data-name="Tracé 352" d="M3.014-23.252a.589.589,0,0,0-.327.074.245.245,0,0,0-.109.217.258.258,0,0,0,.088.207.371.371,0,0,0,.246.074.437.437,0,0,0,.33-.141.489.489,0,0,0,.135-.352v-.08Zm1.063-.263v1.242h-.7V-22.6a.905.905,0,0,1-.315.288.914.914,0,0,1-.425.091.773.773,0,0,1-.55-.2.669.669,0,0,1-.21-.512.629.629,0,0,1,.263-.561,1.5,1.5,0,0,1,.827-.179h.411v-.055a.26.26,0,0,0-.131-.242.825.825,0,0,0-.406-.077,1.8,1.8,0,0,0-.415.045,1.427,1.427,0,0,0-.358.134v-.53a3.742,3.742,0,0,1,.449-.082,3.626,3.626,0,0,1,.45-.028,1.26,1.26,0,0,1,.85.233.961.961,0,0,1,.261.753Z" transform="translate(-1.876 24.501)" fill="#bb9457"/>
      </g>
      <g id="Groupe_320" data-name="Groupe 320" transform="translate(82.291 60.067)">
        <path id="Tracé_353" data-name="Tracé 353" d="M1.619-30.719v.618h.716v.5H1.619v.922a.274.274,0,0,0,.06.206.38.38,0,0,0,.239.053h.358v.5h-.6A.807.807,0,0,1,1.1-28.1a.807.807,0,0,1-.172-.584V-29.6H.578v-.5H.923v-.618Z" transform="translate(-0.578 30.719)" fill="#bb9457"/>
      </g>
      <g id="Groupe_321" data-name="Groupe 321" transform="translate(84.311 60.633)">
        <path id="Tracé_354" data-name="Tracé 354" d="M4.21-23.366v.2H2.583a.517.517,0,0,0,.176.367.66.66,0,0,0,.425.122,1.675,1.675,0,0,0,.449-.064,2.309,2.309,0,0,0,.473-.2v.536a2.9,2.9,0,0,1-.493.141,2.586,2.586,0,0,1-.493.048,1.312,1.312,0,0,1-.919-.3,1.088,1.088,0,0,1-.327-.843,1.1,1.1,0,0,1,.321-.837,1.235,1.235,0,0,1,.885-.305,1.108,1.108,0,0,1,.821.31,1.115,1.115,0,0,1,.308.824ZM3.5-23.6a.442.442,0,0,0-.117-.32.4.4,0,0,0-.3-.122.474.474,0,0,0-.33.114.529.529,0,0,0-.156.328Z" transform="translate(-1.874 24.5)" fill="#bb9457"/>
      </g>
      <g id="Groupe_322" data-name="Groupe 322" transform="translate(87.018 59.838)">
        <path id="Tracé_355" data-name="Tracé 355" d="M3.6-32.069v-1.165h.7v3.022H3.6v-.314a.945.945,0,0,1-.317.281.863.863,0,0,1-.4.09.812.812,0,0,1-.661-.32,1.271,1.271,0,0,1-.257-.823,1.271,1.271,0,0,1,.257-.823.812.812,0,0,1,.661-.32.85.85,0,0,1,.4.091.945.945,0,0,1,.318.28Zm-.459,1.408a.392.392,0,0,0,.341-.163A.8.8,0,0,0,3.6-31.3a.806.806,0,0,0-.118-.475.393.393,0,0,0-.341-.163.394.394,0,0,0-.34.163.812.812,0,0,0-.117.475.808.808,0,0,0,.117.473A.393.393,0,0,0,3.145-30.661Z" transform="translate(-1.969 33.234)" fill="#bb9457"/>
      </g>
      <g id="Groupe_323" data-name="Groupe 323" transform="translate(91.405 59.838)">
        <path id="Tracé_356" data-name="Tracé 356" d="M4.83-30.66a.4.4,0,0,0,.341-.163.8.8,0,0,0,.118-.473.806.806,0,0,0-.118-.475.4.4,0,0,0-.341-.163.4.4,0,0,0-.342.165.8.8,0,0,0-.119.473.8.8,0,0,0,.119.473.4.4,0,0,0,.342.163Zm-.462-1.408a.942.942,0,0,1,.318-.28.861.861,0,0,1,.4-.091.813.813,0,0,1,.661.32,1.267,1.267,0,0,1,.259.823,1.267,1.267,0,0,1-.259.823.813.813,0,0,1-.661.32.861.861,0,0,1-.4-.091.957.957,0,0,1-.318-.28v.314h-.7v-3.022h.7Z" transform="translate(-3.672 33.234)" fill="#bb9457"/>
      </g>
      <g id="Groupe_324" data-name="Groupe 324" transform="translate(93.968 60.685)">
        <path id="Tracé_357" data-name="Tracé 357" d="M.531-23.922h.7l.584,1.476.5-1.476h.7L2.09-21.541a1.151,1.151,0,0,1-.323.507.759.759,0,0,1-.485.145h-.4v-.456H1.1a.454.454,0,0,0,.257-.057.369.369,0,0,0,.126-.2l.018-.06Z" transform="translate(-0.531 23.922)" fill="#bb9457"/>
      </g>
      <g id="Groupe_325" data-name="Groupe 325" transform="translate(98.104 60.633)">
        <path id="Tracé_358" data-name="Tracé 358" d="M4.093-24.379v.527a2.683,2.683,0,0,0-.431-.139,1.785,1.785,0,0,0-.392-.047.673.673,0,0,0-.3.05.162.162,0,0,0-.1.152.144.144,0,0,0,.072.129.7.7,0,0,0,.261.065l.122.017a1.472,1.472,0,0,1,.719.225.6.6,0,0,1,.185.487.591.591,0,0,1-.257.523,1.362,1.362,0,0,1-.764.175,3.041,3.041,0,0,1-.446-.034,3.828,3.828,0,0,1-.473-.1v-.529a2.01,2.01,0,0,0,.426.152,1.985,1.985,0,0,0,.445.05.661.661,0,0,0,.305-.055.181.181,0,0,0,.1-.168.154.154,0,0,0-.071-.139.765.765,0,0,0-.283-.071L3.1-23.127a1.284,1.284,0,0,1-.651-.215.592.592,0,0,1-.186-.479.581.581,0,0,1,.237-.512,1.268,1.268,0,0,1,.726-.168,2.9,2.9,0,0,1,.4.03,4.277,4.277,0,0,1,.46.091Z" transform="translate(-2.265 24.5)" fill="#bb9457"/>
      </g>
      <g id="Groupe_326" data-name="Groupe 326" transform="translate(100.437 60.632)">
        <path id="Tracé_359" data-name="Tracé 359" d="M3.014-23.252a.589.589,0,0,0-.327.074.245.245,0,0,0-.109.217.258.258,0,0,0,.088.207.371.371,0,0,0,.246.074.437.437,0,0,0,.33-.141.489.489,0,0,0,.135-.352v-.08Zm1.063-.263v1.242h-.7V-22.6a.905.905,0,0,1-.315.288.914.914,0,0,1-.425.091.773.773,0,0,1-.55-.2.669.669,0,0,1-.21-.512.629.629,0,0,1,.263-.561,1.5,1.5,0,0,1,.827-.179h.411v-.055a.26.26,0,0,0-.131-.242.825.825,0,0,0-.406-.077,1.8,1.8,0,0,0-.415.045,1.427,1.427,0,0,0-.358.134v-.53a3.742,3.742,0,0,1,.449-.082,3.626,3.626,0,0,1,.45-.028,1.26,1.26,0,0,1,.85.233.961.961,0,0,1,.261.753Z" transform="translate(-1.876 24.501)" fill="#bb9457"/>
      </g>
      <g id="Groupe_327" data-name="Groupe 327" transform="translate(103.13 60.637)">
        <path id="Tracé_360" data-name="Tracé 360" d="M3.6-22.6a.947.947,0,0,1-.317.28.863.863,0,0,1-.4.09.817.817,0,0,1-.658-.314,1.21,1.21,0,0,1-.26-.8,1.206,1.206,0,0,1,.26-.8.821.821,0,0,1,.658-.311.863.863,0,0,1,.4.09.93.93,0,0,1,.317.281V-24.4h.7v1.957a.982.982,0,0,1-.331.8,1.462,1.462,0,0,1-.96.277,2.461,2.461,0,0,1-.4-.031,2.294,2.294,0,0,1-.382-.1v-.541a1.666,1.666,0,0,0,.358.156,1.243,1.243,0,0,0,.351.051.716.716,0,0,0,.5-.149.614.614,0,0,0,.159-.467Zm-.459-1.354a.4.4,0,0,0-.335.161.732.732,0,0,0-.121.45.745.745,0,0,0,.117.453.4.4,0,0,0,.34.155.4.4,0,0,0,.338-.159.734.734,0,0,0,.121-.449.735.735,0,0,0-.121-.45A.4.4,0,0,0,3.145-23.953Z" transform="translate(-1.969 24.453)" fill="#bb9457"/>
      </g>
      <g id="Groupe_328" data-name="Groupe 328" transform="translate(105.969 60.632)">
        <path id="Tracé_361" data-name="Tracé 361" d="M3.014-23.252a.589.589,0,0,0-.327.074.245.245,0,0,0-.109.217.258.258,0,0,0,.088.207.371.371,0,0,0,.246.074.437.437,0,0,0,.33-.141.489.489,0,0,0,.135-.352v-.08Zm1.063-.263v1.242h-.7V-22.6a.905.905,0,0,1-.315.288.914.914,0,0,1-.425.091.773.773,0,0,1-.55-.2.669.669,0,0,1-.21-.512.629.629,0,0,1,.263-.561,1.5,1.5,0,0,1,.827-.179h.411v-.055a.26.26,0,0,0-.131-.242.825.825,0,0,0-.406-.077,1.8,1.8,0,0,0-.415.045,1.427,1.427,0,0,0-.358.134v-.53a3.742,3.742,0,0,1,.449-.082,3.626,3.626,0,0,1,.45-.028,1.26,1.26,0,0,1,.85.233.961.961,0,0,1,.261.753Z" transform="translate(-1.876 24.501)" fill="#bb9457"/>
      </g>
      <g id="Groupe_329" data-name="Groupe 329" transform="translate(108.817 60.633)">
        <path id="Tracé_362" data-name="Tracé 362" d="M5.289-23.854a.917.917,0,0,0-.183-.063.778.778,0,0,0-.18-.021.511.511,0,0,0-.413.172.749.749,0,0,0-.144.493v1h-.7v-2.175h.7v.357a.882.882,0,0,1,.307-.311.841.841,0,0,1,.418-.1l.075,0,.118.013Z" transform="translate(-3.672 24.499)" fill="#bb9457"/>
      </g>
      <g id="Groupe_330" data-name="Groupe 330" transform="translate(112.009 60.637)">
        <path id="Tracé_363" data-name="Tracé 363" d="M3.6-22.6a.947.947,0,0,1-.317.28.863.863,0,0,1-.4.09.817.817,0,0,1-.658-.314,1.21,1.21,0,0,1-.26-.8,1.206,1.206,0,0,1,.26-.8.821.821,0,0,1,.658-.311.863.863,0,0,1,.4.09.93.93,0,0,1,.317.281V-24.4h.7v1.957a.982.982,0,0,1-.331.8,1.462,1.462,0,0,1-.96.277,2.461,2.461,0,0,1-.4-.031,2.294,2.294,0,0,1-.382-.1v-.541a1.666,1.666,0,0,0,.358.156,1.243,1.243,0,0,0,.351.051.716.716,0,0,0,.5-.149.614.614,0,0,0,.159-.467Zm-.459-1.354a.4.4,0,0,0-.335.161.732.732,0,0,0-.121.45.745.745,0,0,0,.117.453.4.4,0,0,0,.34.155.4.4,0,0,0,.338-.159.734.734,0,0,0,.121-.449.735.735,0,0,0-.121-.45A.4.4,0,0,0,3.145-23.953Z" transform="translate(-1.969 24.453)" fill="#bb9457"/>
      </g>
      <g id="Groupe_331" data-name="Groupe 331" transform="translate(115.013 59.838)">
        <path id="Tracé_364" data-name="Tracé 364" d="M5.86-31.535v1.324h-.7v-1.01q0-.286-.013-.392a.4.4,0,0,0-.043-.158.286.286,0,0,0-.111-.105.325.325,0,0,0-.159-.038.4.4,0,0,0-.342.168.772.772,0,0,0-.124.466v1.07h-.7v-3.022h.7v1.165a1.056,1.056,0,0,1,.332-.28.85.85,0,0,1,.392-.091.705.705,0,0,1,.571.232,1.011,1.011,0,0,1,.2.672Z" transform="translate(-3.672 33.233)" fill="#bb9457"/>
      </g>
      <g id="Groupe_332" data-name="Groupe 332" transform="translate(117.681 60.632)">
        <path id="Tracé_365" data-name="Tracé 365" d="M3.014-23.252a.589.589,0,0,0-.327.074.245.245,0,0,0-.109.217.258.258,0,0,0,.088.207.371.371,0,0,0,.246.074.437.437,0,0,0,.33-.141.489.489,0,0,0,.135-.352v-.08Zm1.063-.263v1.242h-.7V-22.6a.905.905,0,0,1-.315.288.914.914,0,0,1-.425.091.773.773,0,0,1-.55-.2.669.669,0,0,1-.21-.512.629.629,0,0,1,.263-.561,1.5,1.5,0,0,1,.827-.179h.411v-.055a.26.26,0,0,0-.131-.242.825.825,0,0,0-.406-.077,1.8,1.8,0,0,0-.415.045,1.427,1.427,0,0,0-.358.134v-.53a3.742,3.742,0,0,1,.449-.082,3.626,3.626,0,0,1,.45-.028,1.26,1.26,0,0,1,.85.233.961.961,0,0,1,.261.753Z" transform="translate(-1.876 24.501)" fill="#bb9457"/>
      </g>
      <g id="Groupe_333" data-name="Groupe 333" transform="translate(120.248 60.067)">
        <path id="Tracé_366" data-name="Tracé 366" d="M1.619-30.719v.618h.716v.5H1.619v.922a.274.274,0,0,0,.06.206.38.38,0,0,0,.239.053h.358v.5h-.6A.807.807,0,0,1,1.1-28.1a.807.807,0,0,1-.172-.584V-29.6H.578v-.5H.923v-.618Z" transform="translate(-0.578 30.719)" fill="#bb9457"/>
      </g>
      <g id="Groupe_334" data-name="Groupe 334" transform="translate(122.268 60.633)">
        <path id="Tracé_367" data-name="Tracé 367" d="M4.21-23.366v.2H2.583a.517.517,0,0,0,.176.367.66.66,0,0,0,.425.122,1.675,1.675,0,0,0,.449-.064,2.309,2.309,0,0,0,.473-.2v.536a2.9,2.9,0,0,1-.493.141,2.586,2.586,0,0,1-.493.048,1.312,1.312,0,0,1-.919-.3,1.088,1.088,0,0,1-.327-.843,1.1,1.1,0,0,1,.321-.837,1.235,1.235,0,0,1,.885-.305,1.108,1.108,0,0,1,.821.31,1.115,1.115,0,0,1,.308.824ZM3.5-23.6a.442.442,0,0,0-.117-.32.4.4,0,0,0-.3-.122.474.474,0,0,0-.33.114.529.529,0,0,0-.156.328Z" transform="translate(-1.874 24.5)" fill="#bb9457"/>
      </g>
    </g>
  </g>
</svg>
