<svg xmlns="http://www.w3.org/2000/svg" xmlns:xlink="http://www.w3.org/1999/xlink" width="34" height="34" viewBox="0 0 34 34">
  <defs>
    <clipPath id="clip-path">
      <circle id="Ellipse_1" data-name="Ellipse 1" cx="17" cy="17" r="17" transform="translate(993 2697.969)" fill="#fff" stroke="#707070" stroke-width="1"/>
    </clipPath>
  </defs>
  <g id="Groupe_de_masques_1" data-name="Groupe de masques 1" transform="translate(-993 -2697.969)" clip-path="url(#clip-path)">
    <path id="facebook" d="M34.548,17.548A17,17,0,1,0,14.892,34.343V22.463H10.574V17.548h4.319V13.8c0-4.26,2.536-6.614,6.421-6.614a26.163,26.163,0,0,1,3.806.332V11.7H22.975a2.457,2.457,0,0,0-2.77,2.655v3.191h4.715l-.754,4.914H20.2v11.88A17.006,17.006,0,0,0,34.548,17.548Z" transform="translate(992.452 2697.524)" fill="#fff"/>
  </g>
</svg>
