<svg xmlns="http://www.w3.org/2000/svg" xmlns:xlink="http://www.w3.org/1999/xlink" width="609.641" height="449.429" viewBox="0 0 609.641 449.429">
  <defs>
    <clipPath id="clip-path">
      <rect x="-22" y="-31" width="609.641" height="449.429" fill="none"/>
    </clipPath>
  </defs>
  <g id="Groupe_défilant_50" data-name="Groupe défilant 50" transform="translate(22 31)" clip-path="url(#clip-path)" style="isolation: isolate">
    <g id="noun-dish-2139522" transform="translate(-69.961 -86.399)">
      <path id="Tracé_119" data-name="Tracé 119" d="M146.07,205.8h-9.8V119.7a8.509,8.509,0,0,0-6.3-4.9h-1.633a6.762,6.762,0,0,0-5.016,5.016v86.1H110.254v-86.1s-5.25-3.852-6.883-5.016H99.754a10.5,10.5,0,0,0-5.6,4.9v86.1H82.484l0-86.684A15.86,15.86,0,0,0,70,124.014v83.3a44.1,44.1,0,0,0,28.351,43.168,1067.487,1067.487,0,0,1,1.4,199.73,15.984,15.984,0,1,0,31.5,0A1058.884,1058.884,0,0,1,133,250.363a44.214,44.214,0,0,0,28.582-43.051v-83.3a19.822,19.822,0,0,0-15.516-4.781Z"/>
      <path id="Tracé_120" data-name="Tracé 120" d="M611.8,117.37c-20.883,15.867-37.1,57.4-37.1,106.17,0,43.633,12.6,81.668,29.285,100.33v117.6c0,35.934,26.016,35.934,26.016,0v-315a11.668,11.668,0,0,0-18.2-9.1Z"/>
      <path id="Tracé_121" data-name="Tracé 121" d="M498.98,143.04a193.787,193.787,0,0,0-273.82,0,194.307,194.307,0,0,0-41.418,212.332A193.6,193.6,0,1,0,498.98,143.054Zm-13.766,189h0A132.29,132.29,0,0,1,456.628,374.5a133.521,133.521,0,1,1,28.578-42.465Z"/>
      <path id="Tracé_122" data-name="Tracé 122" d="M361.67,169.52a110.367,110.367,0,1,0,78.163,32.317A110.378,110.378,0,0,0,361.67,169.52Z"/>
      <g id="Groupe_107" data-name="Groupe 107" transform="translate(70 735)">
        <path id="Tracé_123" data-name="Tracé 123" d="M39.078-2.328a27.97,27.97,0,0,1-6.3,2.359,28.839,28.839,0,0,1-6.828.8Q15.324.828,9.109-5.109t-6.2-16.109q0-10.184,6.2-16.125T25.953-43.3a28.841,28.841,0,0,1,6.828.8,27.644,27.644,0,0,1,6.3,2.375v8.8a24.121,24.121,0,0,0-6.016-3.047,19.912,19.912,0,0,0-6.234-.969,11.78,11.78,0,0,0-9.234,3.766q-3.363,3.75-3.359,10.359,0,6.58,3.359,10.344a11.8,11.8,0,0,0,9.234,3.75,19.8,19.8,0,0,0,6.234-.969,23.855,23.855,0,0,0,6.016-3.047Z"/>
      </g>
      <g id="Groupe_108" data-name="Groupe 108" transform="translate(220.504 735)">
        <path id="Tracé_124" data-name="Tracé 124" d="M16.031-40.953v9.062H26.547v7.281H16.031v13.531a3.951,3.951,0,0,0,.875,3c.594.523,1.766.781,3.516.781h5.234V0H16.922Q10.875,0,8.359-2.516,5.84-5.047,5.844-11.078V-24.609H.765V-31.89H5.844v-9.062Z"/>
      </g>
      <g id="Groupe_109" data-name="Groupe 109" transform="translate(287.953 735)">
        <path id="Tracé_125" data-name="Tracé 125" d="M26.594-27.234V-44.312H36.86V0H26.594V-4.609A13.742,13.742,0,0,1,21.953-.484,12.552,12.552,0,0,1,16.094.828,11.923,11.923,0,0,1,6.407-3.859Q2.621-8.547,2.625-15.921T6.407-27.983a11.923,11.923,0,0,1,9.688-4.688,12.5,12.5,0,0,1,5.844,1.328,14,14,0,0,1,4.656,4.109ZM19.875-6.578a5.777,5.777,0,0,0,5-2.391q1.717-2.391,1.719-6.953t-1.719-6.953a5.776,5.776,0,0,0-5-2.391,5.739,5.739,0,0,0-4.969,2.391q-1.723,2.391-1.719,6.953t1.719,6.953A5.739,5.739,0,0,0,19.875-6.578Z"/>
      </g>
      <g id="Groupe_110" data-name="Groupe 110" transform="translate(350.016 735)">
        <path id="Tracé_126" data-name="Tracé 126" d="M21.875-6.578a5.763,5.763,0,0,0,4.984-2.391q1.734-2.391,1.734-6.953t-1.734-6.953a5.762,5.762,0,0,0-4.984-2.391,5.845,5.845,0,0,0-5.031,2.406q-1.752,2.408-1.75,6.938t1.75,6.938a5.836,5.836,0,0,0,5.031,2.406ZM15.094-27.234a14.079,14.079,0,0,1,4.672-4.109,12.647,12.647,0,0,1,5.891-1.328,11.9,11.9,0,0,1,9.688,4.688q3.779,4.688,3.781,12.062T35.344-3.86A11.9,11.9,0,0,1,25.656.827,12.647,12.647,0,0,1,19.766-.5,13.994,13.994,0,0,1,15.094-4.61V0H4.906V-44.313H15.094Z"/>
      </g>
      <g id="Groupe_111" data-name="Groupe 111" transform="translate(450.105 735)">
        <path id="Tracé_127" data-name="Tracé 127" d="M16.031-40.953v9.062H26.547v7.281H16.031v13.531a3.951,3.951,0,0,0,.875,3c.594.523,1.766.781,3.516.781h5.234V0H16.922Q10.875,0,8.359-2.516,5.84-5.047,5.844-11.078V-24.609H.765V-31.89H5.844v-9.062Z"/>
      </g>
      <g id="Groupe_112" data-name="Groupe 112" transform="translate(519.52 735)">
        <path id="Tracé_128" data-name="Tracé 128" d="M4.906-44.312H15.094V0H4.906Z"/>
      </g>
      <g id="Groupe_113" data-name="Groupe 113" transform="translate(620.633 735)">
        <path id="Tracé_129" data-name="Tracé 129" d="M36.969-19.422V0H26.719V-14.812q0-4.184-.187-5.75a6.053,6.053,0,0,0-.641-2.312,4.239,4.239,0,0,0-1.625-1.547,4.785,4.785,0,0,0-2.328-.562,5.918,5.918,0,0,0-5.031,2.469,11.324,11.324,0,0,0-1.812,6.828V0H4.906V-44.311H15.094v17.078a16.032,16.032,0,0,1,4.891-4.109,12.42,12.42,0,0,1,5.734-1.328q5.531,0,8.391,3.391t2.859,9.859Z"/>
      </g>
    </g>
  </g>
</svg>
