<svg xmlns="http://www.w3.org/2000/svg" xmlns:xlink="http://www.w3.org/1999/xlink" width="513.131" height="484.723" viewBox="0 0 513.131 484.723">
  <defs>
    <clipPath id="clip-path">
      <rect x="26" y="-30" width="513.131" height="484.723" fill="none"/>
    </clipPath>
  </defs>
  <g id="Groupe_défilant_52" data-name="Groupe défilant 52" transform="translate(-26 30)" clip-path="url(#clip-path)" style="isolation: isolate">
    <g id="noun-favorite-food-3485522" transform="translate(-70.109 -67.34)">
      <path id="Tracé_72" data-name="Tracé 72" d="M395.14,179.34c-9.453,0-17.445,12.109-17.445,26.445s7.988,26.445,17.445,26.445,17.441-12.109,17.441-26.445S404.593,179.34,395.14,179.34Z" fill="#fff"/>
      <path id="Tracé_73" data-name="Tracé 73" d="M546.34,107.25a136.253,136.253,0,0,0-192.7,0L350,110.9l-3.648-3.648A135.392,135.392,0,0,0,250,67.34h0a136.254,136.254,0,0,0-96.344,232.6L343.805,490.1a8.752,8.752,0,0,0,12.375,0l190.15-190.16a136.253,136.253,0,0,0,0-192.692ZM296.11,170.586a8.75,8.75,0,0,1,17.5,0v33.883a8.75,8.75,0,0,1-17.5,0Zm43.7,44.2h0a34.908,34.908,0,0,1-26.192,33.7v97.1a8.75,8.75,0,1,1-17.5,0v-97.1a34.908,34.908,0,0,1-26.192-33.7v-44.2a8.75,8.75,0,0,1,17.5,0v44.2a17.442,17.442,0,1,0,34.884,0v-44.2a8.75,8.75,0,0,1,17.5,0Zm64.078,33.383v97.422a8.75,8.75,0,1,1-17.5,0V248.164c-15.023-4.918-26.2-21.969-26.2-42.379,0-24.234,15.676-43.945,34.945-43.945s34.941,19.715,34.941,43.945C430.07,226.2,418.9,243.242,403.883,248.164Z" fill="#fff"/>
      <g id="Groupe_62" data-name="Groupe 62" transform="translate(70 576.406)">
        <path id="Tracé_74" data-name="Tracé 74" d="M3.656-.219A2.844,2.844,0,0,1,3.062,0a2.513,2.513,0,0,1-.625.078A2.245,2.245,0,0,1,.844-.469,2.01,2.01,0,0,1,.266-1.984,1.987,1.987,0,0,1,.844-3.5a2.218,2.218,0,0,1,1.594-.563,2.513,2.513,0,0,1,.625.078,3.083,3.083,0,0,1,.594.219v.828a2.366,2.366,0,0,0-.562-.281,1.742,1.742,0,0,0-.578-.094,1.128,1.128,0,0,0-.875.359,1.383,1.383,0,0,0-.312.969,1.41,1.41,0,0,0,.313.969,1.145,1.145,0,0,0,.875.344A1.97,1.97,0,0,0,3.094-.75a2.063,2.063,0,0,0,.563-.3Z" fill="#fff"/>
      </g>
      <g id="Groupe_63" data-name="Groupe 63" transform="translate(74.012 576.406)">
        <path id="Tracé_75" data-name="Tracé 75" d="M2.688-2.172a1.794,1.794,0,0,0-.25-.094,1.123,1.123,0,0,0-.25-.031.706.706,0,0,0-.578.25,1.058,1.058,0,0,0-.187.672V0H.453V-2.984h.969V-2.5a1.086,1.086,0,0,1,.406-.422,1.152,1.152,0,0,1,.578-.141h.109a1.491,1.491,0,0,1,.156.016Z" fill="#fff"/>
      </g>
      <g id="Groupe_64" data-name="Groupe 64" transform="translate(76.711 576.406)">
        <path id="Tracé_76" data-name="Tracé 76" d="M3.438-1.5v.266H1.2a.773.773,0,0,0,.25.516.918.918,0,0,0,.578.156,2.469,2.469,0,0,0,.625-.078A3.112,3.112,0,0,0,3.3-.922v.734a3.017,3.017,0,0,1-.672.2,4.02,4.02,0,0,1-.672.063A1.813,1.813,0,0,1,.687-.328,1.513,1.513,0,0,1,.234-1.5,1.51,1.51,0,0,1,.672-2.641a1.713,1.713,0,0,1,1.219-.422,1.52,1.52,0,0,1,1.125.422A1.545,1.545,0,0,1,3.438-1.5Zm-.969-.328A.55.55,0,0,0,2.3-2.25a.534.534,0,0,0-.406-.172.658.658,0,0,0-.453.156.722.722,0,0,0-.219.438Z" fill="#fff"/>
      </g>
      <g id="Groupe_65" data-name="Groupe 65" transform="translate(80.418 576.406)">
        <path id="Tracé_77" data-name="Tracé 77" d="M1.8-1.344a.8.8,0,0,0-.453.109.334.334,0,0,0-.141.3.368.368,0,0,0,.109.281.554.554,0,0,0,.344.094A.619.619,0,0,0,2.109-.75.653.653,0,0,0,2.3-1.234v-.109ZM3.266-1.7V0H2.3V-.438a1.176,1.176,0,0,1-.437.391,1.24,1.24,0,0,1-.578.125A1.088,1.088,0,0,1,.516-.188a.954.954,0,0,1-.281-.7.884.884,0,0,1,.359-.781,2.047,2.047,0,0,1,1.141-.25H2.3v-.062a.336.336,0,0,0-.187-.328,1.083,1.083,0,0,0-.547-.109,2.649,2.649,0,0,0-.578.063A2.35,2.35,0,0,0,.5-2.188v-.719a4.311,4.311,0,0,1,.609-.109,4.169,4.169,0,0,1,.625-.047,1.722,1.722,0,0,1,1.172.328A1.315,1.315,0,0,1,3.266-1.7Z" fill="#fff"/>
      </g>
      <g id="Groupe_66" data-name="Groupe 66" transform="translate(84.109 576.406)">
        <path id="Tracé_78" data-name="Tracé 78" d="M1.5-3.844v.859h.984v.672H1.5v1.281a.379.379,0,0,0,.078.281.65.65,0,0,0,.344.063h.484V0H1.594A1.128,1.128,0,0,1,.781-.234a1.1,1.1,0,0,1-.234-.8V-2.313H.078v-.672H.547v-.859Z" fill="#fff"/>
      </g>
      <g id="Groupe_67" data-name="Groupe 67" transform="translate(86.723 576.406)">
        <path id="Tracé_79" data-name="Tracé 79" d="M3.438-1.5v.266H1.2a.773.773,0,0,0,.25.516.918.918,0,0,0,.578.156,2.469,2.469,0,0,0,.625-.078A3.112,3.112,0,0,0,3.3-.922v.734a3.017,3.017,0,0,1-.672.2,4.02,4.02,0,0,1-.672.063A1.813,1.813,0,0,1,.687-.328,1.513,1.513,0,0,1,.234-1.5,1.51,1.51,0,0,1,.672-2.641a1.713,1.713,0,0,1,1.219-.422,1.52,1.52,0,0,1,1.125.422A1.545,1.545,0,0,1,3.438-1.5Zm-.969-.328A.55.55,0,0,0,2.3-2.25a.534.534,0,0,0-.406-.172.658.658,0,0,0-.453.156.722.722,0,0,0-.219.438Z" fill="#fff"/>
      </g>
      <g id="Groupe_68" data-name="Groupe 68" transform="translate(90.434 576.406)">
        <path id="Tracé_80" data-name="Tracé 80" d="M2.5-2.547V-4.156h.953V0H2.5V-.438a1.346,1.346,0,0,1-.437.391,1.164,1.164,0,0,1-.547.125A1.134,1.134,0,0,1,.594-.359,1.78,1.78,0,0,1,.25-1.5,1.764,1.764,0,0,1,.594-2.625a1.145,1.145,0,0,1,.922-.437,1.134,1.134,0,0,1,.531.125,1.4,1.4,0,0,1,.453.391ZM1.859-.609a.535.535,0,0,0,.469-.219A1.13,1.13,0,0,0,2.5-1.5a1.034,1.034,0,0,0-.172-.641.529.529,0,0,0-.469-.234.547.547,0,0,0-.469.234,1.093,1.093,0,0,0-.156.641,1.2,1.2,0,0,0,.156.672A.554.554,0,0,0,1.859-.609Z" fill="#fff"/>
      </g>
      <g id="Groupe_69" data-name="Groupe 69" transform="translate(96.25 576.406)">
        <path id="Tracé_81" data-name="Tracé 81" d="M2.047-.609a.535.535,0,0,0,.469-.219A1.13,1.13,0,0,0,2.688-1.5a1.034,1.034,0,0,0-.172-.641.529.529,0,0,0-.469-.234.547.547,0,0,0-.469.234,1.093,1.093,0,0,0-.156.641,1.2,1.2,0,0,0,.156.672A.554.554,0,0,0,2.047-.609ZM1.422-2.547a1.277,1.277,0,0,1,.422-.391,1.242,1.242,0,0,1,.562-.125,1.137,1.137,0,0,1,.906.438A1.726,1.726,0,0,1,3.672-1.5,1.741,1.741,0,0,1,3.313-.359a1.126,1.126,0,0,1-.906.438,1.242,1.242,0,0,1-.562-.125,1.2,1.2,0,0,1-.422-.391V0H.453V-4.156h.969Z" fill="#fff"/>
      </g>
      <g id="Groupe_70" data-name="Groupe 70" transform="translate(100.168 576.406)">
        <path id="Tracé_82" data-name="Tracé 82" d="M.063-2.984h.953L1.828-.969l.687-2.016h.953L2.2.281a1.674,1.674,0,0,1-.437.7,1.052,1.052,0,0,1-.672.2H.547V.547h.3A.654.654,0,0,0,1.2.469.551.551,0,0,0,1.375.2L1.406.109Z" fill="#fff"/>
      </g>
      <g id="Groupe_71" data-name="Groupe 71" transform="translate(105.637 576.406)">
        <path id="Tracé_83" data-name="Tracé 83" d="M3.656-.219A2.844,2.844,0,0,1,3.062,0a2.513,2.513,0,0,1-.625.078A2.245,2.245,0,0,1,.844-.469,2.01,2.01,0,0,1,.266-1.984,1.987,1.987,0,0,1,.844-3.5a2.218,2.218,0,0,1,1.594-.563,2.513,2.513,0,0,1,.625.078,3.083,3.083,0,0,1,.594.219v.828a2.366,2.366,0,0,0-.562-.281,1.742,1.742,0,0,0-.578-.094,1.128,1.128,0,0,0-.875.359,1.383,1.383,0,0,0-.312.969,1.41,1.41,0,0,0,.313.969,1.145,1.145,0,0,0,.875.344A1.97,1.97,0,0,0,3.094-.75a2.063,2.063,0,0,0,.563-.3Z" fill="#fff"/>
      </g>
      <g id="Groupe_72" data-name="Groupe 72" transform="translate(109.648 576.406)">
        <path id="Tracé_84" data-name="Tracé 84" d="M3.469-1.828V0H2.5V-1.391c0-.258-.008-.437-.016-.531a.488.488,0,0,0-.062-.219.307.307,0,0,0-.156-.141.387.387,0,0,0-.2-.062.561.561,0,0,0-.484.234,1.135,1.135,0,0,0-.156.641V0H.453V-4.156h.969v1.609a1.326,1.326,0,0,1,.453-.391,1.181,1.181,0,0,1,.531-.125.949.949,0,0,1,.781.328,1.318,1.318,0,0,1,.281.906Z" fill="#fff"/>
      </g>
      <g id="Groupe_73" data-name="Groupe 73" transform="translate(113.543 576.406)">
        <path id="Tracé_85" data-name="Tracé 85" d="M1.8-1.344a.8.8,0,0,0-.453.109.334.334,0,0,0-.141.3.368.368,0,0,0,.109.281.554.554,0,0,0,.344.094A.619.619,0,0,0,2.109-.75.653.653,0,0,0,2.3-1.234v-.109ZM3.266-1.7V0H2.3V-.438a1.176,1.176,0,0,1-.437.391,1.24,1.24,0,0,1-.578.125A1.088,1.088,0,0,1,.516-.188a.954.954,0,0,1-.281-.7.884.884,0,0,1,.359-.781,2.047,2.047,0,0,1,1.141-.25H2.3v-.062a.336.336,0,0,0-.187-.328,1.083,1.083,0,0,0-.547-.109,2.649,2.649,0,0,0-.578.063A2.35,2.35,0,0,0,.5-2.188v-.719a4.311,4.311,0,0,1,.609-.109,4.169,4.169,0,0,1,.625-.047,1.722,1.722,0,0,1,1.172.328A1.315,1.315,0,0,1,3.266-1.7Z" fill="#fff"/>
      </g>
      <g id="Groupe_74" data-name="Groupe 74" transform="translate(117.23 576.406)">
        <path id="Tracé_86" data-name="Tracé 86" d="M3.469-1.828V0H2.5V-1.391c0-.258-.008-.437-.016-.531a.488.488,0,0,0-.062-.219.307.307,0,0,0-.156-.141.387.387,0,0,0-.2-.062.561.561,0,0,0-.484.234,1.135,1.135,0,0,0-.156.641V0H.453V-2.984h.969v.438a1.326,1.326,0,0,1,.453-.391,1.181,1.181,0,0,1,.531-.125.949.949,0,0,1,.781.328,1.318,1.318,0,0,1,.281.906Z" fill="#fff"/>
      </g>
      <g id="Groupe_75" data-name="Groupe 75" transform="translate(121.125 576.406)">
        <path id="Tracé_87" data-name="Tracé 87" d="M.422-1.172V-2.984h.969v1.391c0,.242,0,.418.016.531a.416.416,0,0,0,.063.219.5.5,0,0,0,.156.156.476.476,0,0,0,.219.047.557.557,0,0,0,.469-.234,1.066,1.066,0,0,0,.172-.641V-2.984h.953V0H2.484V-.438a1.47,1.47,0,0,1-.469.391,1.134,1.134,0,0,1-.531.125,1.008,1.008,0,0,1-.8-.312,1.441,1.441,0,0,1-.266-.937Z" fill="#fff"/>
      </g>
      <g id="Groupe_76" data-name="Groupe 76" transform="translate(125.02 576.406)">
        <path id="Tracé_88" data-name="Tracé 88" d="M1.5-3.844v.859h.984v.672H1.5v1.281a.379.379,0,0,0,.078.281.65.65,0,0,0,.344.063h.484V0H1.594A1.128,1.128,0,0,1,.781-.234a1.1,1.1,0,0,1-.234-.8V-2.313H.078v-.672H.547v-.859Z" fill="#fff"/>
      </g>
      <g id="Groupe_77" data-name="Groupe 77" transform="translate(129.535 576.406)">
        <path id="Tracé_89" data-name="Tracé 89" d="M.453-2.984h.969V0H.453Zm0-1.172h.969v.781H.453Z" fill="#fff"/>
      </g>
      <g id="Groupe_78" data-name="Groupe 78" transform="translate(131.41 576.406)">
        <path id="Tracé_90" data-name="Tracé 90" d="M2.8-2.891v.719A4.279,4.279,0,0,0,2.2-2.359a2.7,2.7,0,0,0-.547-.062,1.077,1.077,0,0,0-.406.063.209.209,0,0,0-.125.2.2.2,0,0,0,.094.188.983.983,0,0,0,.375.094l.156.016a1.982,1.982,0,0,1,.984.313A.8.8,0,0,1,3-.875a.822.822,0,0,1-.359.719A1.879,1.879,0,0,1,1.594.078,4.411,4.411,0,0,1,.969.031,4.975,4.975,0,0,1,.328-.109V-.828a3.385,3.385,0,0,0,.578.2,3.056,3.056,0,0,0,.625.063.862.862,0,0,0,.422-.078.24.24,0,0,0,.141-.219.222.222,0,0,0-.109-.2,1.048,1.048,0,0,0-.375-.094l-.172-.016a1.749,1.749,0,0,1-.906-.3.818.818,0,0,1-.25-.656.789.789,0,0,1,.328-.7,1.725,1.725,0,0,1,1-.234,3.337,3.337,0,0,1,.547.047,4.488,4.488,0,0,1,.641.125Z" fill="#fff"/>
      </g>
      <g id="Groupe_79" data-name="Groupe 79" transform="translate(136.57 576.406)">
        <path id="Tracé_91" data-name="Tracé 91" d="M.5-3.984H1.531V0H.5Z" fill="#fff"/>
      </g>
      <g id="Groupe_80" data-name="Groupe 80" transform="translate(138.605 576.406)">
        <path id="Tracé_92" data-name="Tracé 92" d="M3.469-1.828V0H2.5V-1.391c0-.258-.008-.437-.016-.531a.488.488,0,0,0-.062-.219.307.307,0,0,0-.156-.141.387.387,0,0,0-.2-.062.561.561,0,0,0-.484.234,1.135,1.135,0,0,0-.156.641V0H.453V-2.984h.969v.438a1.326,1.326,0,0,1,.453-.391,1.181,1.181,0,0,1,.531-.125.949.949,0,0,1,.781.328,1.318,1.318,0,0,1,.281.906Z" fill="#fff"/>
      </g>
      <g id="Groupe_81" data-name="Groupe 81" transform="translate(142.5 576.406)">
        <path id="Tracé_93" data-name="Tracé 93" d="M2.5-2.547V-4.156h.953V0H2.5V-.438a1.346,1.346,0,0,1-.437.391,1.164,1.164,0,0,1-.547.125A1.134,1.134,0,0,1,.594-.359,1.78,1.78,0,0,1,.25-1.5,1.764,1.764,0,0,1,.594-2.625a1.145,1.145,0,0,1,.922-.437,1.134,1.134,0,0,1,.531.125,1.4,1.4,0,0,1,.453.391ZM1.859-.609a.535.535,0,0,0,.469-.219A1.13,1.13,0,0,0,2.5-1.5a1.034,1.034,0,0,0-.172-.641.529.529,0,0,0-.469-.234.547.547,0,0,0-.469.234,1.093,1.093,0,0,0-.156.641,1.2,1.2,0,0,0,.156.672A.554.554,0,0,0,1.859-.609Z" fill="#fff"/>
      </g>
      <g id="Groupe_82" data-name="Groupe 82" transform="translate(146.414 576.406)">
        <path id="Tracé_94" data-name="Tracé 94" d="M.422-1.172V-2.984h.969v1.391c0,.242,0,.418.016.531a.416.416,0,0,0,.063.219.5.5,0,0,0,.156.156.476.476,0,0,0,.219.047.557.557,0,0,0,.469-.234,1.066,1.066,0,0,0,.172-.641V-2.984h.953V0H2.484V-.438a1.47,1.47,0,0,1-.469.391,1.134,1.134,0,0,1-.531.125,1.008,1.008,0,0,1-.8-.312,1.441,1.441,0,0,1-.266-.937Z" fill="#fff"/>
      </g>
      <g id="Groupe_83" data-name="Groupe 83" transform="translate(150.305 576.406)">
        <path id="Tracé_95" data-name="Tracé 95" d="M2.8-2.891v.719A4.279,4.279,0,0,0,2.2-2.359a2.7,2.7,0,0,0-.547-.062,1.077,1.077,0,0,0-.406.063.209.209,0,0,0-.125.2.2.2,0,0,0,.094.188.983.983,0,0,0,.375.094l.156.016a1.982,1.982,0,0,1,.984.313A.8.8,0,0,1,3-.875a.822.822,0,0,1-.359.719A1.879,1.879,0,0,1,1.594.078,4.411,4.411,0,0,1,.969.031,4.975,4.975,0,0,1,.328-.109V-.828a3.385,3.385,0,0,0,.578.2,3.056,3.056,0,0,0,.625.063.862.862,0,0,0,.422-.078.24.24,0,0,0,.141-.219.222.222,0,0,0-.109-.2,1.048,1.048,0,0,0-.375-.094l-.172-.016a1.749,1.749,0,0,1-.906-.3.818.818,0,0,1-.25-.656.789.789,0,0,1,.328-.7,1.725,1.725,0,0,1,1-.234,3.337,3.337,0,0,1,.547.047,4.488,4.488,0,0,1,.641.125Z" fill="#fff"/>
      </g>
      <g id="Groupe_84" data-name="Groupe 84" transform="translate(153.563 576.406)">
        <path id="Tracé_96" data-name="Tracé 96" d="M1.5-3.844v.859h.984v.672H1.5v1.281a.379.379,0,0,0,.078.281.65.65,0,0,0,.344.063h.484V0H1.594A1.128,1.128,0,0,1,.781-.234a1.1,1.1,0,0,1-.234-.8V-2.313H.078v-.672H.547v-.859Z" fill="#fff"/>
      </g>
      <g id="Groupe_85" data-name="Groupe 85" transform="translate(156.176 576.406)">
        <path id="Tracé_97" data-name="Tracé 97" d="M2.688-2.172a1.794,1.794,0,0,0-.25-.094,1.123,1.123,0,0,0-.25-.031.706.706,0,0,0-.578.25,1.058,1.058,0,0,0-.187.672V0H.453V-2.984h.969V-2.5a1.086,1.086,0,0,1,.406-.422,1.152,1.152,0,0,1,.578-.141h.109a1.491,1.491,0,0,1,.156.016Z" fill="#fff"/>
      </g>
      <g id="Groupe_86" data-name="Groupe 86" transform="translate(158.871 576.406)">
        <path id="Tracé_98" data-name="Tracé 98" d="M.453-2.984h.969V0H.453Zm0-1.172h.969v.781H.453Z" fill="#fff"/>
      </g>
      <g id="Groupe_87" data-name="Groupe 87" transform="translate(160.746 576.406)">
        <path id="Tracé_99" data-name="Tracé 99" d="M3.438-1.5v.266H1.2a.773.773,0,0,0,.25.516.918.918,0,0,0,.578.156,2.469,2.469,0,0,0,.625-.078A3.112,3.112,0,0,0,3.3-.922v.734a3.017,3.017,0,0,1-.672.2,4.02,4.02,0,0,1-.672.063A1.813,1.813,0,0,1,.687-.328,1.513,1.513,0,0,1,.234-1.5,1.51,1.51,0,0,1,.672-2.641a1.713,1.713,0,0,1,1.219-.422,1.52,1.52,0,0,1,1.125.422A1.545,1.545,0,0,1,3.438-1.5Zm-.969-.328A.55.55,0,0,0,2.3-2.25a.534.534,0,0,0-.406-.172.658.658,0,0,0-.453.156.722.722,0,0,0-.219.438Z" fill="#fff"/>
      </g>
      <g id="Groupe_88" data-name="Groupe 88" transform="translate(164.457 576.406)">
        <path id="Tracé_100" data-name="Tracé 100" d="M2.8-2.891v.719A4.279,4.279,0,0,0,2.2-2.359a2.7,2.7,0,0,0-.547-.062,1.077,1.077,0,0,0-.406.063.209.209,0,0,0-.125.2.2.2,0,0,0,.094.188.983.983,0,0,0,.375.094l.156.016a1.982,1.982,0,0,1,.984.313A.8.8,0,0,1,3-.875a.822.822,0,0,1-.359.719A1.879,1.879,0,0,1,1.594.078,4.411,4.411,0,0,1,.969.031,4.975,4.975,0,0,1,.328-.109V-.828a3.385,3.385,0,0,0,.578.2,3.056,3.056,0,0,0,.625.063.862.862,0,0,0,.422-.078.24.24,0,0,0,.141-.219.222.222,0,0,0-.109-.2,1.048,1.048,0,0,0-.375-.094l-.172-.016a1.749,1.749,0,0,1-.906-.3.818.818,0,0,1-.25-.656.789.789,0,0,1,.328-.7,1.725,1.725,0,0,1,1-.234,3.337,3.337,0,0,1,.547.047,4.488,4.488,0,0,1,.641.125Z" fill="#fff"/>
      </g>
      <g id="Groupe_89" data-name="Groupe 89" transform="translate(70 581.875)">
        <path id="Tracé_101" data-name="Tracé 101" d="M2.422-4.156v.625H1.906a.466.466,0,0,0-.3.078.337.337,0,0,0-.078.25v.219h.828v.672H1.531V0H.578V-2.312H.109v-.672H.578V-3.2a.9.9,0,0,1,.266-.719A1.32,1.32,0,0,1,1.7-4.156Z" fill="#fff"/>
      </g>
      <g id="Groupe_90" data-name="Groupe 90" transform="translate(72.379 581.875)">
        <path id="Tracé_102" data-name="Tracé 102" d="M2.688-2.172a1.794,1.794,0,0,0-.25-.094,1.123,1.123,0,0,0-.25-.031.706.706,0,0,0-.578.25,1.058,1.058,0,0,0-.187.672V0H.453V-2.984h.969V-2.5a1.086,1.086,0,0,1,.406-.422,1.152,1.152,0,0,1,.578-.141h.109a1.491,1.491,0,0,1,.156.016Z" fill="#fff"/>
      </g>
      <g id="Groupe_91" data-name="Groupe 91" transform="translate(75.078 581.875)">
        <path id="Tracé_103" data-name="Tracé 103" d="M1.875-2.375a.561.561,0,0,0-.484.234,1.093,1.093,0,0,0-.156.641,1.2,1.2,0,0,0,.156.672.569.569,0,0,0,.484.219.578.578,0,0,0,.484-.219A1.13,1.13,0,0,0,2.531-1.5a1.034,1.034,0,0,0-.172-.641A.57.57,0,0,0,1.875-2.375Zm0-.687a1.63,1.63,0,0,1,1.2.422A1.5,1.5,0,0,1,3.516-1.5,1.562,1.562,0,0,1,3.078-.328a1.656,1.656,0,0,1-1.2.406,1.681,1.681,0,0,1-1.2-.406A1.547,1.547,0,0,1,.234-1.5,1.481,1.481,0,0,1,.672-2.641,1.654,1.654,0,0,1,1.875-3.062Z" fill="#fff"/>
      </g>
      <g id="Groupe_92" data-name="Groupe 92" transform="translate(78.832 581.875)">
        <path id="Tracé_104" data-name="Tracé 104" d="M3.234-2.5a1.2,1.2,0,0,1,.422-.406,1.049,1.049,0,0,1,.563-.156.933.933,0,0,1,.766.328,1.318,1.318,0,0,1,.281.906V0H4.3V-1.563a.164.164,0,0,0,.016-.062v-.109A.878.878,0,0,0,4.219-2.2a.334.334,0,0,0-.3-.141.494.494,0,0,0-.437.234,1.2,1.2,0,0,0-.141.641V0H2.375V-1.562A1.371,1.371,0,0,0,2.281-2.2a.313.313,0,0,0-.3-.141.478.478,0,0,0-.422.234,1.2,1.2,0,0,0-.141.641V0H.453V-2.984h.969v.438a1.164,1.164,0,0,1,.391-.391,1.094,1.094,0,0,1,.516-.125.986.986,0,0,1,.547.156.936.936,0,0,1,.359.406Z" fill="#fff"/>
      </g>
      <g id="Groupe_93" data-name="Groupe 93" transform="translate(86.438 581.875)">
        <path id="Tracé_105" data-name="Tracé 105" d="M1.5-3.844v.859h.984v.672H1.5v1.281a.379.379,0,0,0,.078.281.65.65,0,0,0,.344.063h.484V0H1.594A1.128,1.128,0,0,1,.781-.234a1.1,1.1,0,0,1-.234-.8V-2.313H.078v-.672H.547v-.859Z" fill="#fff"/>
      </g>
      <g id="Groupe_94" data-name="Groupe 94" transform="translate(89.051 581.875)">
        <path id="Tracé_106" data-name="Tracé 106" d="M3.469-1.828V0H2.5V-1.391c0-.258-.008-.437-.016-.531a.488.488,0,0,0-.062-.219.307.307,0,0,0-.156-.141.387.387,0,0,0-.2-.062.561.561,0,0,0-.484.234,1.135,1.135,0,0,0-.156.641V0H.453V-4.156h.969v1.609a1.326,1.326,0,0,1,.453-.391,1.181,1.181,0,0,1,.531-.125.949.949,0,0,1,.781.328,1.318,1.318,0,0,1,.281.906Z" fill="#fff"/>
      </g>
      <g id="Groupe_95" data-name="Groupe 95" transform="translate(92.941 581.875)">
        <path id="Tracé_107" data-name="Tracé 107" d="M3.438-1.5v.266H1.2a.773.773,0,0,0,.25.516.918.918,0,0,0,.578.156,2.469,2.469,0,0,0,.625-.078A3.112,3.112,0,0,0,3.3-.922v.734a3.017,3.017,0,0,1-.672.2,4.02,4.02,0,0,1-.672.063A1.813,1.813,0,0,1,.687-.328,1.513,1.513,0,0,1,.234-1.5,1.51,1.51,0,0,1,.672-2.641a1.713,1.713,0,0,1,1.219-.422,1.52,1.52,0,0,1,1.125.422A1.545,1.545,0,0,1,3.438-1.5Zm-.969-.328A.55.55,0,0,0,2.3-2.25a.534.534,0,0,0-.406-.172.658.658,0,0,0-.453.156.722.722,0,0,0-.219.438Z" fill="#fff"/>
      </g>
      <g id="Groupe_96" data-name="Groupe 96" transform="translate(98.555 581.875)">
        <path id="Tracé_108" data-name="Tracé 108" d="M.5-3.984H1.656L3.094-1.25V-3.984h.984V0H2.922L1.484-2.734V0H.5Z" fill="#fff"/>
      </g>
      <g id="Groupe_97" data-name="Groupe 97" transform="translate(103.133 581.875)">
        <path id="Tracé_109" data-name="Tracé 109" d="M1.875-2.375a.561.561,0,0,0-.484.234,1.093,1.093,0,0,0-.156.641,1.2,1.2,0,0,0,.156.672.569.569,0,0,0,.484.219.578.578,0,0,0,.484-.219A1.13,1.13,0,0,0,2.531-1.5a1.034,1.034,0,0,0-.172-.641A.57.57,0,0,0,1.875-2.375Zm0-.687a1.63,1.63,0,0,1,1.2.422A1.5,1.5,0,0,1,3.516-1.5,1.562,1.562,0,0,1,3.078-.328a1.656,1.656,0,0,1-1.2.406,1.681,1.681,0,0,1-1.2-.406A1.547,1.547,0,0,1,.234-1.5,1.481,1.481,0,0,1,.672-2.641,1.654,1.654,0,0,1,1.875-3.062Z" fill="#fff"/>
      </g>
      <g id="Groupe_98" data-name="Groupe 98" transform="translate(106.891 581.875)">
        <path id="Tracé_110" data-name="Tracé 110" d="M.422-1.172V-2.984h.969v1.391c0,.242,0,.418.016.531a.416.416,0,0,0,.063.219.5.5,0,0,0,.156.156.476.476,0,0,0,.219.047.557.557,0,0,0,.469-.234,1.066,1.066,0,0,0,.172-.641V-2.984h.953V0H2.484V-.438a1.47,1.47,0,0,1-.469.391,1.134,1.134,0,0,1-.531.125,1.008,1.008,0,0,1-.8-.312,1.441,1.441,0,0,1-.266-.937Z" fill="#fff"/>
      </g>
      <g id="Groupe_99" data-name="Groupe 99" transform="translate(110.785 581.875)">
        <path id="Tracé_111" data-name="Tracé 111" d="M3.469-1.828V0H2.5V-1.391c0-.258-.008-.437-.016-.531a.488.488,0,0,0-.062-.219.307.307,0,0,0-.156-.141.387.387,0,0,0-.2-.062.561.561,0,0,0-.484.234,1.135,1.135,0,0,0-.156.641V0H.453V-2.984h.969v.438a1.326,1.326,0,0,1,.453-.391,1.181,1.181,0,0,1,.531-.125.949.949,0,0,1,.781.328,1.318,1.318,0,0,1,.281.906Z" fill="#fff"/>
      </g>
      <g id="Groupe_100" data-name="Groupe 100" transform="translate(116.582 581.875)">
        <path id="Tracé_112" data-name="Tracé 112" d="M.5-3.984H2.2a1.792,1.792,0,0,1,1.172.344,1.161,1.161,0,0,1,.406.953,1.2,1.2,0,0,1-.406.969A1.836,1.836,0,0,1,2.2-1.391H1.531V0H.5Zm1.031.75v1.109h.562a.663.663,0,0,0,.453-.141.539.539,0,0,0,.172-.422.5.5,0,0,0-.172-.406.663.663,0,0,0-.453-.141Z" fill="#fff"/>
      </g>
      <g id="Groupe_101" data-name="Groupe 101" transform="translate(120.59 581.875)">
        <path id="Tracé_113" data-name="Tracé 113" d="M2.688-2.172a1.794,1.794,0,0,0-.25-.094,1.123,1.123,0,0,0-.25-.031.706.706,0,0,0-.578.25,1.058,1.058,0,0,0-.187.672V0H.453V-2.984h.969V-2.5a1.086,1.086,0,0,1,.406-.422,1.152,1.152,0,0,1,.578-.141h.109a1.491,1.491,0,0,1,.156.016Z" fill="#fff"/>
      </g>
      <g id="Groupe_102" data-name="Groupe 102" transform="translate(123.285 581.875)">
        <path id="Tracé_114" data-name="Tracé 114" d="M1.875-2.375a.561.561,0,0,0-.484.234,1.093,1.093,0,0,0-.156.641,1.2,1.2,0,0,0,.156.672.569.569,0,0,0,.484.219.578.578,0,0,0,.484-.219A1.13,1.13,0,0,0,2.531-1.5a1.034,1.034,0,0,0-.172-.641A.57.57,0,0,0,1.875-2.375Zm0-.687a1.63,1.63,0,0,1,1.2.422A1.5,1.5,0,0,1,3.516-1.5,1.562,1.562,0,0,1,3.078-.328a1.656,1.656,0,0,1-1.2.406,1.681,1.681,0,0,1-1.2-.406A1.547,1.547,0,0,1,.234-1.5,1.481,1.481,0,0,1,.672-2.641,1.654,1.654,0,0,1,1.875-3.062Z" fill="#fff"/>
      </g>
      <g id="Groupe_103" data-name="Groupe 103" transform="translate(127.043 581.875)">
        <path id="Tracé_115" data-name="Tracé 115" d="M.453-2.984h.969V-.047a1.285,1.285,0,0,1-.3.906A1.032,1.032,0,0,1,.3,1.187H-.188V.547h.172A.433.433,0,0,0,.344.422.715.715,0,0,0,.453-.047Zm0-1.172h.969v.781H.453Z" fill="#fff"/>
      </g>
      <g id="Groupe_104" data-name="Groupe 104" transform="translate(128.918 581.875)">
        <path id="Tracé_116" data-name="Tracé 116" d="M3.438-1.5v.266H1.2a.773.773,0,0,0,.25.516.918.918,0,0,0,.578.156,2.469,2.469,0,0,0,.625-.078A3.112,3.112,0,0,0,3.3-.922v.734a3.017,3.017,0,0,1-.672.2,4.02,4.02,0,0,1-.672.063A1.813,1.813,0,0,1,.687-.328,1.513,1.513,0,0,1,.234-1.5,1.51,1.51,0,0,1,.672-2.641a1.713,1.713,0,0,1,1.219-.422,1.52,1.52,0,0,1,1.125.422A1.545,1.545,0,0,1,3.438-1.5Zm-.969-.328A.55.55,0,0,0,2.3-2.25a.534.534,0,0,0-.406-.172.658.658,0,0,0-.453.156.722.722,0,0,0-.219.438Z" fill="#fff"/>
      </g>
      <g id="Groupe_105" data-name="Groupe 105" transform="translate(132.625 581.875)">
        <path id="Tracé_117" data-name="Tracé 117" d="M2.875-2.891v.766a1.628,1.628,0,0,0-.391-.187,1.488,1.488,0,0,0-.406-.062.807.807,0,0,0-.625.234.892.892,0,0,0-.219.641.913.913,0,0,0,.219.656.807.807,0,0,0,.625.234A1.4,1.4,0,0,0,2.5-.672a1.1,1.1,0,0,0,.375-.2v.781a1.861,1.861,0,0,1-.453.125,2.385,2.385,0,0,1-.469.047A1.813,1.813,0,0,1,.688-.328,1.513,1.513,0,0,1,.234-1.5,1.45,1.45,0,0,1,.688-2.641a1.782,1.782,0,0,1,1.266-.422,2.385,2.385,0,0,1,.469.047,1.861,1.861,0,0,1,.453.125Z" fill="#fff"/>
      </g>
      <g id="Groupe_106" data-name="Groupe 106" transform="translate(135.867 581.875)">
        <path id="Tracé_118" data-name="Tracé 118" d="M1.5-3.844v.859h.984v.672H1.5v1.281a.379.379,0,0,0,.078.281.65.65,0,0,0,.344.063h.484V0H1.594A1.128,1.128,0,0,1,.781-.234a1.1,1.1,0,0,1-.234-.8V-2.313H.078v-.672H.547v-.859Z" fill="#fff"/>
      </g>
    </g>
  </g>
</svg>
