<svg xmlns="http://www.w3.org/2000/svg" xmlns:xlink="http://www.w3.org/1999/xlink" width="507.269" height="505.844" viewBox="0 0 507.269 505.844">
  <defs>
    <clipPath id="clip-path">
      <rect x="26" y="-14" width="507.269" height="505.844" fill="none"/>
    </clipPath>
  </defs>
  <g id="Groupe_défilant_55" data-name="Groupe défilant 55" transform="translate(-26 14)" clip-path="url(#clip-path)" style="isolation: isolate">
    <g id="noun-clock-746589" transform="translate(-70.531 -39.203)">
      <path id="Tracé_210" data-name="Tracé 210" d="M350,39.2c-132.99,0-240.8,107.81-240.8,240.8S217.01,520.8,350,520.8,590.8,412.993,590.8,280,482.99,39.2,350,39.2Zm0,61.6A11.2,11.2,0,0,1,361.2,112V268.8H506.8a11.2,11.2,0,0,1,0,22.4H350A11.2,11.2,0,0,1,338.8,280V112A11.2,11.2,0,0,1,350,100.8Z" fill="#fff"/>
      <g id="Groupe_191" data-name="Groupe 191" transform="translate(70 644)">
        <path id="Tracé_211" data-name="Tracé 211" d="M18.766-1.125A13.3,13.3,0,0,1,15.735,0a13.627,13.627,0,0,1-3.281.391A11.208,11.208,0,0,1,4.375-2.453a10.2,10.2,0,0,1-2.984-7.734,10.175,10.175,0,0,1,2.984-7.734,11.183,11.183,0,0,1,8.078-2.859,13.627,13.627,0,0,1,3.281.391,13.3,13.3,0,0,1,3.031,1.125v4.219A12.009,12.009,0,0,0,15.875-16.5a9.532,9.532,0,0,0-3-.469,5.61,5.61,0,0,0-4.422,1.813,7.181,7.181,0,0,0-1.609,4.969A7.208,7.208,0,0,0,8.454-5.219a5.626,5.626,0,0,0,4.422,1.8,9.754,9.754,0,0,0,3-.453,11.674,11.674,0,0,0,2.891-1.469Z" fill="#fff"/>
      </g>
      <g id="Groupe_192" data-name="Groupe 192" transform="translate(90.551 644)">
        <path id="Tracé_212" data-name="Tracé 212" d="M13.734-11.141a6.765,6.765,0,0,0-1.3-.437,5.346,5.346,0,0,0-1.266-.156,3.566,3.566,0,0,0-2.906,1.219A5.2,5.2,0,0,0,7.25-7.063V0H2.359V-15.312H7.25V-12.8a6.217,6.217,0,0,1,2.156-2.187,5.829,5.829,0,0,1,2.938-.7,5.207,5.207,0,0,1,.531.031c.2.012.477.039.844.078Z" fill="#fff"/>
      </g>
      <g id="Groupe_193" data-name="Groupe 193" transform="translate(104.359 644)">
        <path id="Tracé_213" data-name="Tracé 213" d="M17.641-7.7V-6.3H6.188a3.641,3.641,0,0,0,1.25,2.578,4.619,4.619,0,0,0,2.984.859,11.52,11.52,0,0,0,3.156-.453A16.707,16.707,0,0,0,16.907-4.7V-.938a20.629,20.629,0,0,1-3.469.984A18.006,18.006,0,0,1,9.969.391,9.241,9.241,0,0,1,3.5-1.719,7.635,7.635,0,0,1,1.2-7.641a7.713,7.713,0,0,1,2.266-5.891,8.645,8.645,0,0,1,6.219-2.156A7.79,7.79,0,0,1,15.469-13.5a7.851,7.851,0,0,1,2.172,5.8ZM12.61-9.328a3.1,3.1,0,0,0-.812-2.234,2.8,2.8,0,0,0-2.125-.859,3.335,3.335,0,0,0-2.312.8,3.665,3.665,0,0,0-1.109,2.3Z" fill="#fff"/>
      </g>
      <g id="Groupe_194" data-name="Groupe 194" transform="translate(123.348 644)">
        <path id="Tracé_214" data-name="Tracé 214" d="M9.219-6.891a4.216,4.216,0,0,0-2.312.516,1.724,1.724,0,0,0-.766,1.531,1.817,1.817,0,0,0,.625,1.469,2.616,2.616,0,0,0,1.719.516,3.087,3.087,0,0,0,2.328-.984,3.463,3.463,0,0,0,.953-2.484v-.562Zm7.469-1.844V0H11.766V-2.266A6.323,6.323,0,0,1,9.547-.234a6.625,6.625,0,0,1-3,.625A5.441,5.441,0,0,1,2.687-.984,4.707,4.707,0,0,1,1.2-4.594,4.421,4.421,0,0,1,3.047-8.531Q4.9-9.8,8.875-9.8h2.891v-.391a1.81,1.81,0,0,0-.922-1.687,5.808,5.808,0,0,0-2.859-.547,13.157,13.157,0,0,0-2.937.313,10.134,10.134,0,0,0-2.5.938v-3.734a29.776,29.776,0,0,1,3.141-.578,25.681,25.681,0,0,1,3.188-.2q4.137,0,5.969,1.641t1.844,5.313Z" fill="#fff"/>
      </g>
      <g id="Groupe_195" data-name="Groupe 195" transform="translate(142.242 644)">
        <path id="Tracé_215" data-name="Tracé 215" d="M7.7-19.656v4.344H12.75v3.5H7.7v6.5a1.89,1.89,0,0,0,.422,1.438A2.632,2.632,0,0,0,9.8-3.5h2.516V0H8.125Q5.219,0,4-1.2,2.793-2.422,2.8-5.312v-6.5H.375v-3.5H2.8v-4.344Z" fill="#fff"/>
      </g>
      <g id="Groupe_196" data-name="Groupe 196" transform="translate(155.629 644)">
        <path id="Tracé_216" data-name="Tracé 216" d="M17.641-7.7V-6.3H6.188a3.641,3.641,0,0,0,1.25,2.578,4.619,4.619,0,0,0,2.984.859,11.52,11.52,0,0,0,3.156-.453A16.707,16.707,0,0,0,16.907-4.7V-.938a20.629,20.629,0,0,1-3.469.984A18.006,18.006,0,0,1,9.969.391,9.241,9.241,0,0,1,3.5-1.719,7.635,7.635,0,0,1,1.2-7.641a7.713,7.713,0,0,1,2.266-5.891,8.645,8.645,0,0,1,6.219-2.156A7.79,7.79,0,0,1,15.469-13.5a7.851,7.851,0,0,1,2.172,5.8ZM12.61-9.328a3.1,3.1,0,0,0-.812-2.234,2.8,2.8,0,0,0-2.125-.859,3.335,3.335,0,0,0-2.312.8,3.665,3.665,0,0,0-1.109,2.3Z" fill="#fff"/>
      </g>
      <g id="Groupe_197" data-name="Groupe 197" transform="translate(174.617 644)">
        <path id="Tracé_217" data-name="Tracé 217" d="M12.766-13.078v-8.2h4.922V0H12.766V-2.219A6.444,6.444,0,0,1,10.547-.235,6.155,6.155,0,0,1,7.719.39,5.694,5.694,0,0,1,3.079-1.86,8.908,8.908,0,0,1,1.266-7.641a8.938,8.938,0,0,1,1.813-5.8,5.694,5.694,0,0,1,4.641-2.25,5.972,5.972,0,0,1,2.813.641,6.776,6.776,0,0,1,2.234,1.969ZM9.547-3.156A2.776,2.776,0,0,0,11.938-4.3a5.7,5.7,0,0,0,.828-3.344,5.639,5.639,0,0,0-.828-3.328,2.769,2.769,0,0,0-2.391-1.156,2.76,2.76,0,0,0-2.391,1.156,5.611,5.611,0,0,0-.828,3.328A5.673,5.673,0,0,0,7.157-4.3,2.766,2.766,0,0,0,9.547-3.156Z" fill="#fff"/>
      </g>
      <g id="Groupe_198" data-name="Groupe 198" transform="translate(204.41 644)">
        <path id="Tracé_218" data-name="Tracé 218" d="M10.5-3.156A2.79,2.79,0,0,0,12.906-4.3a5.7,5.7,0,0,0,.828-3.344,5.639,5.639,0,0,0-.828-3.328A2.783,2.783,0,0,0,10.5-12.125a2.816,2.816,0,0,0-2.422,1.156A5.66,5.66,0,0,0,7.25-7.641a5.643,5.643,0,0,0,.828,3.328A2.807,2.807,0,0,0,10.5-3.156ZM7.25-13.078a6.934,6.934,0,0,1,2.234-1.969,6.059,6.059,0,0,1,2.828-.641,5.718,5.718,0,0,1,4.656,2.25,8.961,8.961,0,0,1,1.813,5.8,8.93,8.93,0,0,1-1.812,5.781A5.718,5.718,0,0,1,12.313.391,6.2,6.2,0,0,1,9.484-.234,6.766,6.766,0,0,1,7.25-2.219V0H2.359V-21.281H7.25Z" fill="#fff"/>
      </g>
      <g id="Groupe_199" data-name="Groupe 199" transform="translate(224.453 644)">
        <path id="Tracé_219" data-name="Tracé 219" d="M.344-15.312H5.234L9.359-4.921l3.5-10.391H17.75L11.312,1.454A8.179,8.179,0,0,1,9.047,5.017,5.316,5.316,0,0,1,5.641,6.048H2.8V2.829H4.328a3.163,3.163,0,0,0,1.813-.406,2.555,2.555,0,0,0,.891-1.406L7.172.595Z" fill="#fff"/>
      </g>
      <g id="Groupe_200" data-name="Groupe 200" transform="translate(252.453 644)">
        <path id="Tracé_220" data-name="Tracé 220" d="M10.75-12.516a2.811,2.811,0,0,0,1.875-.547,1.97,1.97,0,0,0,.656-1.609,1.964,1.964,0,0,0-.656-1.594,2.772,2.772,0,0,0-1.875-.562H7.828v4.313Zm.172,8.938a3.629,3.629,0,0,0,2.391-.672,2.5,2.5,0,0,0,.8-2.031,2.425,2.425,0,0,0-.8-1.984,3.669,3.669,0,0,0-2.391-.656H7.828v5.344Zm4.891-7.344A4.645,4.645,0,0,1,18.437-9.11a5.5,5.5,0,0,1,.938,3.25,5.091,5.091,0,0,1-2,4.406Q15.371,0,11.312,0H2.578V-20.406h7.891q4.248,0,6.156,1.281a4.583,4.583,0,0,1,1.922,4.109,4.457,4.457,0,0,1-.7,2.547,4.238,4.238,0,0,1-2.031,1.547Z" fill="#fff"/>
      </g>
      <g id="Groupe_201" data-name="Groupe 201" transform="translate(273.793 644)">
        <path id="Tracé_221" data-name="Tracé 221" d="M9.219-6.891a4.216,4.216,0,0,0-2.312.516,1.724,1.724,0,0,0-.766,1.531,1.817,1.817,0,0,0,.625,1.469,2.616,2.616,0,0,0,1.719.516,3.087,3.087,0,0,0,2.328-.984,3.463,3.463,0,0,0,.953-2.484v-.562Zm7.469-1.844V0H11.766V-2.266A6.323,6.323,0,0,1,9.547-.234a6.625,6.625,0,0,1-3,.625A5.441,5.441,0,0,1,2.687-.984,4.707,4.707,0,0,1,1.2-4.594,4.421,4.421,0,0,1,3.047-8.531Q4.9-9.8,8.875-9.8h2.891v-.391a1.81,1.81,0,0,0-.922-1.687,5.808,5.808,0,0,0-2.859-.547,13.157,13.157,0,0,0-2.937.313,10.134,10.134,0,0,0-2.5.938v-3.734a29.776,29.776,0,0,1,3.141-.578,25.681,25.681,0,0,1,3.188-.2q4.137,0,5.969,1.641t1.844,5.313Z" fill="#fff"/>
      </g>
      <g id="Groupe_202" data-name="Groupe 202" transform="translate(292.688 644)">
        <path id="Tracé_222" data-name="Tracé 222" d="M13.734-11.141a6.765,6.765,0,0,0-1.3-.437,5.346,5.346,0,0,0-1.266-.156,3.566,3.566,0,0,0-2.906,1.219A5.2,5.2,0,0,0,7.25-7.063V0H2.359V-15.312H7.25V-12.8a6.217,6.217,0,0,1,2.156-2.187,5.829,5.829,0,0,1,2.938-.7,5.207,5.207,0,0,1,.531.031c.2.012.477.039.844.078Z" fill="#fff"/>
      </g>
      <g id="Groupe_203" data-name="Groupe 203" transform="translate(306.496 644)">
        <path id="Tracé_223" data-name="Tracé 223" d="M13.734-11.141a6.765,6.765,0,0,0-1.3-.437,5.346,5.346,0,0,0-1.266-.156,3.566,3.566,0,0,0-2.906,1.219A5.2,5.2,0,0,0,7.25-7.063V0H2.359V-15.312H7.25V-12.8a6.217,6.217,0,0,1,2.156-2.187,5.829,5.829,0,0,1,2.938-.7,5.207,5.207,0,0,1,.531.031c.2.012.477.039.844.078Z" fill="#fff"/>
      </g>
      <g id="Groupe_204" data-name="Groupe 204" transform="translate(320.305 644)">
        <path id="Tracé_224" data-name="Tracé 224" d="M9.219-6.891a4.216,4.216,0,0,0-2.312.516,1.724,1.724,0,0,0-.766,1.531,1.817,1.817,0,0,0,.625,1.469,2.616,2.616,0,0,0,1.719.516,3.087,3.087,0,0,0,2.328-.984,3.463,3.463,0,0,0,.953-2.484v-.562Zm7.469-1.844V0H11.766V-2.266A6.323,6.323,0,0,1,9.547-.234a6.625,6.625,0,0,1-3,.625A5.441,5.441,0,0,1,2.687-.984,4.707,4.707,0,0,1,1.2-4.594,4.421,4.421,0,0,1,3.047-8.531Q4.9-9.8,8.875-9.8h2.891v-.391a1.81,1.81,0,0,0-.922-1.687,5.808,5.808,0,0,0-2.859-.547,13.157,13.157,0,0,0-2.937.313,10.134,10.134,0,0,0-2.5.938v-3.734a29.776,29.776,0,0,1,3.141-.578,25.681,25.681,0,0,1,3.188-.2q4.137,0,5.969,1.641t1.844,5.313Z" fill="#fff"/>
      </g>
      <g id="Groupe_205" data-name="Groupe 205" transform="translate(339.199 644)">
        <path id="Tracé_225" data-name="Tracé 225" d="M14.719-14.828v3.984a7.612,7.612,0,0,0-2-1.016,6.629,6.629,0,0,0-2.078-.328,4.232,4.232,0,0,0-3.2,1.2A4.628,4.628,0,0,0,6.3-7.64,4.653,4.653,0,0,0,7.438-4.3a4.253,4.253,0,0,0,3.2,1.188,7.133,7.133,0,0,0,2.172-.328,6.412,6.412,0,0,0,1.906-1.016v4a13.234,13.234,0,0,1-2.328.625,13.04,13.04,0,0,1-2.375.219A9.292,9.292,0,0,1,3.531-1.734,7.577,7.577,0,0,1,1.2-7.64a7.607,7.607,0,0,1,2.328-5.922,9.311,9.311,0,0,1,6.484-2.125,13.04,13.04,0,0,1,2.375.219,13.073,13.073,0,0,1,2.328.641Z" fill="#fff"/>
      </g>
      <g id="Groupe_206" data-name="Groupe 206" transform="translate(355.797 644)">
        <path id="Tracé_226" data-name="Tracé 226" d="M2.188-5.969v-9.344H7.109v1.531c0,.836-.008,1.875-.016,3.125s-.016,2.086-.016,2.5a26.311,26.311,0,0,0,.094,2.672A3.08,3.08,0,0,0,7.5-4.313a2.154,2.154,0,0,0,.8.75,2.357,2.357,0,0,0,1.109.25,2.843,2.843,0,0,0,2.406-1.172,5.364,5.364,0,0,0,.875-3.266v-7.563h4.891V0H12.688V-2.219A7.694,7.694,0,0,1,10.344-.235,6,6,0,0,1,7.609.39,5,5,0,0,1,3.578-1.235,7.075,7.075,0,0,1,2.188-5.969Z" fill="#fff"/>
      </g>
      <g id="Groupe_207" data-name="Groupe 207" transform="translate(375.73 644)">
        <path id="Tracé_227" data-name="Tracé 227" d="M12.766-13.078v-8.2h4.922V0H12.766V-2.219A6.444,6.444,0,0,1,10.547-.235,6.155,6.155,0,0,1,7.719.39,5.694,5.694,0,0,1,3.079-1.86,8.908,8.908,0,0,1,1.266-7.641a8.938,8.938,0,0,1,1.813-5.8,5.694,5.694,0,0,1,4.641-2.25,5.972,5.972,0,0,1,2.813.641,6.776,6.776,0,0,1,2.234,1.969ZM9.547-3.156A2.776,2.776,0,0,0,11.938-4.3a5.7,5.7,0,0,0,.828-3.344,5.639,5.639,0,0,0-.828-3.328,2.769,2.769,0,0,0-2.391-1.156,2.76,2.76,0,0,0-2.391,1.156,5.611,5.611,0,0,0-.828,3.328A5.673,5.673,0,0,0,7.157-4.3,2.766,2.766,0,0,0,9.547-3.156Z" fill="#fff"/>
      </g>
      <g id="Groupe_208" data-name="Groupe 208" transform="translate(395.773 644)">
        <path id="Tracé_228" data-name="Tracé 228" d="M9.219-6.891a4.216,4.216,0,0,0-2.312.516,1.724,1.724,0,0,0-.766,1.531,1.817,1.817,0,0,0,.625,1.469,2.616,2.616,0,0,0,1.719.516,3.087,3.087,0,0,0,2.328-.984,3.463,3.463,0,0,0,.953-2.484v-.562Zm7.469-1.844V0H11.766V-2.266A6.323,6.323,0,0,1,9.547-.234a6.625,6.625,0,0,1-3,.625A5.441,5.441,0,0,1,2.687-.984,4.707,4.707,0,0,1,1.2-4.594,4.421,4.421,0,0,1,3.047-8.531Q4.9-9.8,8.875-9.8h2.891v-.391a1.81,1.81,0,0,0-.922-1.687,5.808,5.808,0,0,0-2.859-.547,13.157,13.157,0,0,0-2.937.313,10.134,10.134,0,0,0-2.5.938v-3.734a29.776,29.776,0,0,1,3.141-.578,25.681,25.681,0,0,1,3.188-.2q4.137,0,5.969,1.641t1.844,5.313Z" fill="#fff"/>
      </g>
      <g id="Groupe_209" data-name="Groupe 209" transform="translate(70 672)">
        <path id="Tracé_229" data-name="Tracé 229" d="M12.422-21.281v3.219h-2.7a2.193,2.193,0,0,0-1.453.375,1.725,1.725,0,0,0-.406,1.313v1.062h4.187v3.5H7.86V0H2.969V-11.812H.531v-3.5H2.969v-1.062a4.635,4.635,0,0,1,1.391-3.7,6.508,6.508,0,0,1,4.328-1.2Z" fill="#fff"/>
      </g>
      <g id="Groupe_210" data-name="Groupe 210" transform="translate(82.184 672)">
        <path id="Tracé_230" data-name="Tracé 230" d="M13.734-11.141a6.765,6.765,0,0,0-1.3-.437,5.346,5.346,0,0,0-1.266-.156,3.566,3.566,0,0,0-2.906,1.219A5.2,5.2,0,0,0,7.25-7.063V0H2.359V-15.312H7.25V-12.8a6.217,6.217,0,0,1,2.156-2.187,5.829,5.829,0,0,1,2.938-.7,5.207,5.207,0,0,1,.531.031c.2.012.477.039.844.078Z" fill="#fff"/>
      </g>
      <g id="Groupe_211" data-name="Groupe 211" transform="translate(95.992 672)">
        <path id="Tracé_231" data-name="Tracé 231" d="M9.641-12.188a2.885,2.885,0,0,0-2.484,1.172A5.637,5.637,0,0,0,6.3-7.641a5.636,5.636,0,0,0,.859,3.375A2.893,2.893,0,0,0,9.641-3.11a2.826,2.826,0,0,0,2.437-1.156,5.664,5.664,0,0,0,.859-3.375,5.664,5.664,0,0,0-.859-3.375A2.819,2.819,0,0,0,9.641-12.188Zm0-3.5a8.533,8.533,0,0,1,6.172,2.141,7.8,7.8,0,0,1,2.219,5.906,7.828,7.828,0,0,1-2.219,5.906A8.559,8.559,0,0,1,9.641.39a8.626,8.626,0,0,1-6.2-2.125A7.779,7.779,0,0,1,1.2-7.641a7.755,7.755,0,0,1,2.234-5.906A8.6,8.6,0,0,1,9.641-15.688Z" fill="#fff"/>
      </g>
      <g id="Groupe_212" data-name="Groupe 212" transform="translate(115.227 672)">
        <path id="Tracé_232" data-name="Tracé 232" d="M16.547-12.766a6.633,6.633,0,0,1,2.2-2.172,5.453,5.453,0,0,1,2.813-.75,4.948,4.948,0,0,1,4.016,1.641,7.079,7.079,0,0,1,1.391,4.719V0H22.047V-8.344c.008-.133.016-.32.016-.562a4.353,4.353,0,0,0-.484-2.344,1.683,1.683,0,0,0-1.531-.734,2.438,2.438,0,0,0-2.156,1.156,6,6,0,0,0-.781,3.312V0H12.188V-7.985a7.608,7.608,0,0,0-.437-3.266,1.67,1.67,0,0,0-1.562-.734,2.455,2.455,0,0,0-2.172,1.156,5.9,5.9,0,0,0-.766,3.3V0H2.328V-15.313H7.25v2.234a6.362,6.362,0,0,1,2.063-1.953,5.186,5.186,0,0,1,2.578-.656,5.2,5.2,0,0,1,2.813.766,4.822,4.822,0,0,1,1.844,2.156Z" fill="#fff"/>
      </g>
      <g id="Groupe_213" data-name="Groupe 213" transform="translate(154.152 672)">
        <path id="Tracé_233" data-name="Tracé 233" d="M7.7-19.656v4.344H12.75v3.5H7.7v6.5a1.89,1.89,0,0,0,.422,1.438A2.632,2.632,0,0,0,9.8-3.5h2.516V0H8.125Q5.219,0,4-1.2,2.793-2.422,2.8-5.312v-6.5H.375v-3.5H2.8v-4.344Z" fill="#fff"/>
      </g>
      <g id="Groupe_214" data-name="Groupe 214" transform="translate(167.535 672)">
        <path id="Tracé_234" data-name="Tracé 234" d="M17.75-9.328V0H12.828V-7.109a26.6,26.6,0,0,0-.094-2.766,2.94,2.94,0,0,0-.312-1.109,1.994,1.994,0,0,0-.781-.734,2.3,2.3,0,0,0-1.109-.266A2.827,2.827,0,0,0,8.125-10.8,5.345,5.345,0,0,0,7.25-7.531V0H2.359V-21.281H7.25v8.2a7.816,7.816,0,0,1,2.344-1.969,5.953,5.953,0,0,1,2.75-.641,4.965,4.965,0,0,1,4.031,1.641A7.142,7.142,0,0,1,17.75-9.328Z" fill="#fff"/>
      </g>
      <g id="Groupe_215" data-name="Groupe 215" transform="translate(187.469 672)">
        <path id="Tracé_235" data-name="Tracé 235" d="M17.641-7.7V-6.3H6.188a3.641,3.641,0,0,0,1.25,2.578,4.619,4.619,0,0,0,2.984.859,11.52,11.52,0,0,0,3.156-.453A16.707,16.707,0,0,0,16.907-4.7V-.938a20.629,20.629,0,0,1-3.469.984A18.006,18.006,0,0,1,9.969.391,9.241,9.241,0,0,1,3.5-1.719,7.635,7.635,0,0,1,1.2-7.641a7.713,7.713,0,0,1,2.266-5.891,8.645,8.645,0,0,1,6.219-2.156A7.79,7.79,0,0,1,15.469-13.5a7.851,7.851,0,0,1,2.172,5.8ZM12.61-9.328a3.1,3.1,0,0,0-.812-2.234,2.8,2.8,0,0,0-2.125-.859,3.335,3.335,0,0,0-2.312.8,3.665,3.665,0,0,0-1.109,2.3Z" fill="#fff"/>
      </g>
      <g id="Groupe_216" data-name="Groupe 216" transform="translate(216.207 672)">
        <path id="Tracé_236" data-name="Tracé 236" d="M2.578-20.406H8.453l7.422,14v-14h4.984V0H14.984L7.563-14V0H2.578Z" fill="#fff"/>
      </g>
      <g id="Groupe_217" data-name="Groupe 217" transform="translate(239.641 672)">
        <path id="Tracé_237" data-name="Tracé 237" d="M9.641-12.188a2.885,2.885,0,0,0-2.484,1.172A5.637,5.637,0,0,0,6.3-7.641a5.636,5.636,0,0,0,.859,3.375A2.893,2.893,0,0,0,9.641-3.11a2.826,2.826,0,0,0,2.437-1.156,5.664,5.664,0,0,0,.859-3.375,5.664,5.664,0,0,0-.859-3.375A2.819,2.819,0,0,0,9.641-12.188Zm0-3.5a8.533,8.533,0,0,1,6.172,2.141,7.8,7.8,0,0,1,2.219,5.906,7.828,7.828,0,0,1-2.219,5.906A8.559,8.559,0,0,1,9.641.39a8.626,8.626,0,0,1-6.2-2.125A7.779,7.779,0,0,1,1.2-7.641a7.755,7.755,0,0,1,2.234-5.906A8.6,8.6,0,0,1,9.641-15.688Z" fill="#fff"/>
      </g>
      <g id="Groupe_218" data-name="Groupe 218" transform="translate(258.879 672)">
        <path id="Tracé_238" data-name="Tracé 238" d="M2.188-5.969v-9.344H7.109v1.531c0,.836-.008,1.875-.016,3.125s-.016,2.086-.016,2.5a26.311,26.311,0,0,0,.094,2.672A3.08,3.08,0,0,0,7.5-4.313a2.154,2.154,0,0,0,.8.75,2.357,2.357,0,0,0,1.109.25,2.843,2.843,0,0,0,2.406-1.172,5.364,5.364,0,0,0,.875-3.266v-7.563h4.891V0H12.688V-2.219A7.694,7.694,0,0,1,10.344-.235,6,6,0,0,1,7.609.39,5,5,0,0,1,3.578-1.235,7.075,7.075,0,0,1,2.188-5.969Z" fill="#fff"/>
      </g>
      <g id="Groupe_219" data-name="Groupe 219" transform="translate(278.813 672)">
        <path id="Tracé_239" data-name="Tracé 239" d="M17.75-9.328V0H12.828V-7.141a26.185,26.185,0,0,0-.094-2.734,2.94,2.94,0,0,0-.312-1.109,1.994,1.994,0,0,0-.781-.734,2.3,2.3,0,0,0-1.109-.266A2.827,2.827,0,0,0,8.125-10.8,5.345,5.345,0,0,0,7.25-7.531V0H2.359V-15.312H7.25v2.234a7.816,7.816,0,0,1,2.344-1.969,5.953,5.953,0,0,1,2.75-.641,4.965,4.965,0,0,1,4.031,1.641A7.142,7.142,0,0,1,17.75-9.328Z" fill="#fff"/>
      </g>
      <g id="Groupe_220" data-name="Groupe 220" transform="translate(308.492 672)">
        <path id="Tracé_240" data-name="Tracé 240" d="M2.578-20.406h8.734a9.085,9.085,0,0,1,5.969,1.734,6.015,6.015,0,0,1,2.094,4.922,6.052,6.052,0,0,1-2.094,4.938,9.085,9.085,0,0,1-5.969,1.734H7.828V0H2.578Zm5.25,3.813v5.7H10.75a3.4,3.4,0,0,0,2.359-.75,2.675,2.675,0,0,0,.844-2.109,2.653,2.653,0,0,0-.844-2.109,3.455,3.455,0,0,0-2.359-.734Z" fill="#fff"/>
      </g>
      <g id="Groupe_221" data-name="Groupe 221" transform="translate(329.016 672)">
        <path id="Tracé_241" data-name="Tracé 241" d="M13.734-11.141a6.765,6.765,0,0,0-1.3-.437,5.346,5.346,0,0,0-1.266-.156,3.566,3.566,0,0,0-2.906,1.219A5.2,5.2,0,0,0,7.25-7.063V0H2.359V-15.312H7.25V-12.8a6.217,6.217,0,0,1,2.156-2.187,5.829,5.829,0,0,1,2.938-.7,5.207,5.207,0,0,1,.531.031c.2.012.477.039.844.078Z" fill="#fff"/>
      </g>
      <g id="Groupe_222" data-name="Groupe 222" transform="translate(342.82 672)">
        <path id="Tracé_242" data-name="Tracé 242" d="M9.641-12.188a2.885,2.885,0,0,0-2.484,1.172A5.637,5.637,0,0,0,6.3-7.641a5.636,5.636,0,0,0,.859,3.375A2.893,2.893,0,0,0,9.641-3.11a2.826,2.826,0,0,0,2.437-1.156,5.664,5.664,0,0,0,.859-3.375,5.664,5.664,0,0,0-.859-3.375A2.819,2.819,0,0,0,9.641-12.188Zm0-3.5a8.533,8.533,0,0,1,6.172,2.141,7.8,7.8,0,0,1,2.219,5.906,7.828,7.828,0,0,1-2.219,5.906A8.559,8.559,0,0,1,9.641.39a8.626,8.626,0,0,1-6.2-2.125A7.779,7.779,0,0,1,1.2-7.641a7.755,7.755,0,0,1,2.234-5.906A8.6,8.6,0,0,1,9.641-15.688Z" fill="#fff"/>
      </g>
      <g id="Groupe_223" data-name="Groupe 223" transform="translate(362.059 672)">
        <path id="Tracé_243" data-name="Tracé 243" d="M2.359-15.312H7.25V-.281a6.752,6.752,0,0,1-1.484,4.7A5.482,5.482,0,0,1,1.484,6.047H-.937V2.828h.859A2.388,2.388,0,0,0,1.828,2.2,4.088,4.088,0,0,0,2.359-.281Zm0-5.969H7.25v4H2.359Z" fill="#fff"/>
      </g>
      <g id="Groupe_224" data-name="Groupe 224" transform="translate(371.656 672)">
        <path id="Tracé_244" data-name="Tracé 244" d="M17.641-7.7V-6.3H6.188a3.641,3.641,0,0,0,1.25,2.578,4.619,4.619,0,0,0,2.984.859,11.52,11.52,0,0,0,3.156-.453A16.707,16.707,0,0,0,16.907-4.7V-.938a20.629,20.629,0,0,1-3.469.984A18.006,18.006,0,0,1,9.969.391,9.241,9.241,0,0,1,3.5-1.719,7.635,7.635,0,0,1,1.2-7.641a7.713,7.713,0,0,1,2.266-5.891,8.645,8.645,0,0,1,6.219-2.156A7.79,7.79,0,0,1,15.469-13.5a7.851,7.851,0,0,1,2.172,5.8ZM12.61-9.328a3.1,3.1,0,0,0-.812-2.234,2.8,2.8,0,0,0-2.125-.859,3.335,3.335,0,0,0-2.312.8,3.665,3.665,0,0,0-1.109,2.3Z" fill="#fff"/>
      </g>
      <g id="Groupe_225" data-name="Groupe 225" transform="translate(390.648 672)">
        <path id="Tracé_245" data-name="Tracé 245" d="M14.719-14.828v3.984a7.612,7.612,0,0,0-2-1.016,6.629,6.629,0,0,0-2.078-.328,4.232,4.232,0,0,0-3.2,1.2A4.628,4.628,0,0,0,6.3-7.64,4.653,4.653,0,0,0,7.438-4.3a4.253,4.253,0,0,0,3.2,1.188,7.133,7.133,0,0,0,2.172-.328,6.412,6.412,0,0,0,1.906-1.016v4a13.234,13.234,0,0,1-2.328.625,13.04,13.04,0,0,1-2.375.219A9.292,9.292,0,0,1,3.531-1.734,7.577,7.577,0,0,1,1.2-7.64a7.607,7.607,0,0,1,2.328-5.922,9.311,9.311,0,0,1,6.484-2.125,13.04,13.04,0,0,1,2.375.219,13.073,13.073,0,0,1,2.328.641Z" fill="#fff"/>
      </g>
      <g id="Groupe_226" data-name="Groupe 226" transform="translate(407.242 672)">
        <path id="Tracé_246" data-name="Tracé 246" d="M7.7-19.656v4.344H12.75v3.5H7.7v6.5a1.89,1.89,0,0,0,.422,1.438A2.632,2.632,0,0,0,9.8-3.5h2.516V0H8.125Q5.219,0,4-1.2,2.793-2.422,2.8-5.312v-6.5H.375v-3.5H2.8v-4.344Z" fill="#fff"/>
      </g>
    </g>
  </g>
</svg>
