<svg xmlns="http://www.w3.org/2000/svg" xmlns:xlink="http://www.w3.org/1999/xlink" width="34" height="34" viewBox="0 0 34 34">
  <defs>
    <clipPath id="clip-path">
      <circle id="Ellipse_1" data-name="Ellipse 1" cx="17" cy="17" r="17" transform="translate(1047 2697.969)" fill="#fff" stroke="#707070" stroke-width="1"/>
    </clipPath>
  </defs>
  <g id="Groupe_de_masques_2" data-name="Groupe de masques 2" transform="translate(-1047 -2697.969)" clip-path="url(#clip-path)">
    <path id="square-instagram" d="M17,15.38a4.048,4.048,0,1,0,4.05,4.049A4.048,4.048,0,0,0,17,15.38Zm9.465-3.112a4.1,4.1,0,0,0-2.308-2.308c-1.594-.629-5.388-.488-7.157-.488s-5.559-.146-7.157.488a4.1,4.1,0,0,0-2.308,2.308c-.628,1.594-.488,5.392-.488,7.159s-.14,5.561.491,7.16A4.1,4.1,0,0,0,9.846,28.9c1.594.629,5.388.488,7.157.488s5.558.146,7.157-.488a4.1,4.1,0,0,0,2.308-2.308c.634-1.594.488-5.392.488-7.159s.146-5.56-.488-7.159ZM17,25.652a6.216,6.216,0,1,1,4.4-1.821A6.223,6.223,0,0,1,17,25.652ZM23.48,14.4a1.444,1.444,0,1,1,1.03-.424,1.453,1.453,0,0,1-1.03.424ZM30.357,2.429H3.643A3.643,3.643,0,0,0,0,6.071V32.786a3.643,3.643,0,0,0,3.643,3.643H30.357A3.643,3.643,0,0,0,34,32.786V6.071a3.643,3.643,0,0,0-3.643-3.643Zm-1.3,22.009A7.221,7.221,0,0,1,27.1,29.522a7.225,7.225,0,0,1-5.085,1.962c-2,.113-8.014.113-10.018,0a7.235,7.235,0,0,1-5.085-1.962,7.2,7.2,0,0,1-1.962-5.085c-.113-2.005-.113-8.015,0-10.018A7.2,7.2,0,0,1,6.909,9.335a7.238,7.238,0,0,1,5.085-1.957c2-.113,8.014-.113,10.018,0A7.226,7.226,0,0,1,27.1,9.34a7.225,7.225,0,0,1,1.962,5.089C29.171,16.426,29.171,22.431,29.058,24.437Z" transform="translate(1047 2695.541)" fill="#fff"/>
  </g>
</svg>
