<svg xmlns="http://www.w3.org/2000/svg" xmlns:xlink="http://www.w3.org/1999/xlink" width="63.219" height="79.462" viewBox="0 0 63.219 79.462">
  <defs>
    <clipPath id="clip-path">
      <rect x="45" y="-6" width="63.219" height="79.462" fill="none"/>
    </clipPath>
  </defs>
  <g id="login-icon" transform="translate(-45 6)" clip-path="url(#clip-path)" style="isolation: isolate">
    <g id="noun-user-login-676796" transform="translate(-70.437 -146.534)">
      <path id="Tracé_218" data-name="Tracé 218" d="M345.709,292.6a18.038,18.038,0,0,1-9.343,2.683,17.781,17.781,0,0,1-9.343-2.683A15.859,15.859,0,0,0,315,307.956v8.6h42.739v-8.6A15.961,15.961,0,0,0,345.709,292.6Z" transform="translate(-196.079 -117.111)"/>
      <path id="Tracé_219" data-name="Tracé 219" d="M368.173,173.547a13.506,13.506,0,1,0-13.506-13.506A13.522,13.522,0,0,0,368.173,173.547Z" transform="translate(-227.885)"/>
      <path id="Tracé_220" data-name="Tracé 220" d="M176.222,168.345a1.272,1.272,0,0,0,.277-.37c0-.092.092-.092.092-.185a.325.325,0,0,1,.092-.185c0-.092.092-.185.092-.277s0-.092.092-.185a1.584,1.584,0,0,0,0-.925c0-.092,0-.092-.092-.185a.34.34,0,0,0-.092-.277.325.325,0,0,0-.092-.185c0-.092-.092-.092-.092-.185-.092-.092-.185-.277-.277-.37l-6.661-6.661a2.289,2.289,0,0,0-3.238,3.238l2.775,2.775H150.689v-7.123a2.313,2.313,0,0,0-4.626,0v9.528a2.29,2.29,0,0,0,2.313,2.313h20.63l-2.775,2.775a2.323,2.323,0,0,0,3.33,3.238Z" transform="translate(-60.634 -6.733)"/>
      <g id="Groupe_203" data-name="Groupe 203" transform="translate(70.58 238.942)">
        <path id="Tracé_221" data-name="Tracé 221" d="M4.024-14.066a2.151,2.151,0,0,1-.5.186,2.23,2.23,0,0,1-.542.065,1.849,1.849,0,0,1-1.335-.471,1.681,1.681,0,0,1-.492-1.276,1.687,1.687,0,0,1,.492-1.279,1.852,1.852,0,0,1,1.335-.471,2.23,2.23,0,0,1,.542.065,2.224,2.224,0,0,1,.5.186v.7a1.95,1.95,0,0,0-.477-.242,1.562,1.562,0,0,0-.492-.077.928.928,0,0,0-.731.3,1.185,1.185,0,0,0-.266.821,1.19,1.19,0,0,0,.266.821.931.931,0,0,0,.731.3,1.54,1.54,0,0,0,.492-.077,1.9,1.9,0,0,0,.477-.242Z" transform="translate(-1.156 17.312)"/>
      </g>
      <g id="Groupe_204" data-name="Groupe 204" transform="translate(74.133 239.784)">
        <path id="Tracé_222" data-name="Tracé 222" d="M3.834-12.313a.994.994,0,0,0-.211-.071.936.936,0,0,0-.211-.025.6.6,0,0,0-.483.2.861.861,0,0,0-.167.57v1.165H1.954V-13h.808v.415a1.018,1.018,0,0,1,.359-.362.966.966,0,0,1,.483-.115l.087,0c.033,0,.079.008.139.015Z" transform="translate(-1.954 13.062)"/>
      </g>
      <g id="Groupe_205" data-name="Groupe 205" transform="translate(76.225 239.784)">
        <path id="Tracé_223" data-name="Tracé 223" d="M3.714-11.743v.229H1.824a.606.606,0,0,0,.2.427.768.768,0,0,0,.5.142,1.937,1.937,0,0,0,.52-.074,2.644,2.644,0,0,0,.551-.232v.623a3.5,3.5,0,0,1-.576.164,2.981,2.981,0,0,1-.573.056,1.523,1.523,0,0,1-1.066-.347A1.266,1.266,0,0,1,1-11.737a1.274,1.274,0,0,1,.372-.969A1.437,1.437,0,0,1,2.4-13.063a1.28,1.28,0,0,1,.951.359,1.3,1.3,0,0,1,.359.96Zm-.83-.269a.51.51,0,0,0-.136-.372.46.46,0,0,0-.35-.142.552.552,0,0,0-.381.133.621.621,0,0,0-.183.381Z" transform="translate(-1 13.063)"/>
      </g>
      <g id="Groupe_206" data-name="Groupe 206" transform="translate(79.362 239.784)">
        <path id="Tracé_224" data-name="Tracé 224" d="M2.323-11.61a.693.693,0,0,0-.381.087.279.279,0,0,0-.127.251.3.3,0,0,0,.1.242.437.437,0,0,0,.288.087.5.5,0,0,0,.381-.164.569.569,0,0,0,.158-.412v-.09Zm1.236-.307v1.443H2.744v-.375a1.049,1.049,0,0,1-.369.335,1.062,1.062,0,0,1-.492.105.892.892,0,0,1-.638-.229A.776.776,0,0,1,1-11.232a.733.733,0,0,1,.307-.654,1.748,1.748,0,0,1,.96-.208h.477v-.062a.306.306,0,0,0-.152-.282.958.958,0,0,0-.471-.09,2.115,2.115,0,0,0-.483.053,1.739,1.739,0,0,0-.415.155v-.616a4.517,4.517,0,0,1,.52-.093,4.116,4.116,0,0,1,.523-.034,1.474,1.474,0,0,1,.988.269,1.12,1.12,0,0,1,.3.877Z" transform="translate(-1 13.063)"/>
      </g>
      <g id="Groupe_207" data-name="Groupe 207" transform="translate(82.347 239.128)">
        <path id="Tracé_225" data-name="Tracé 225" d="M1.52-16.375v.719h.833v.576H1.52v1.072a.308.308,0,0,0,.071.238.441.441,0,0,0,.279.062h.415v.579H1.592a.95.95,0,0,1-.681-.2.95.95,0,0,1-.2-.681V-15.08h-.4v-.576h.4v-.719Z" transform="translate(-0.312 16.375)"/>
      </g>
      <g id="Groupe_208" data-name="Groupe 208" transform="translate(84.694 239.784)">
        <path id="Tracé_226" data-name="Tracé 226" d="M3.714-11.743v.229H1.824a.606.606,0,0,0,.2.427.768.768,0,0,0,.5.142,1.937,1.937,0,0,0,.52-.074,2.644,2.644,0,0,0,.551-.232v.623a3.5,3.5,0,0,1-.576.164,2.981,2.981,0,0,1-.573.056,1.523,1.523,0,0,1-1.066-.347A1.266,1.266,0,0,1,1-11.737a1.274,1.274,0,0,1,.372-.969A1.437,1.437,0,0,1,2.4-13.063a1.28,1.28,0,0,1,.951.359,1.3,1.3,0,0,1,.359.96Zm-.83-.269a.51.51,0,0,0-.136-.372.46.46,0,0,0-.35-.142.552.552,0,0,0-.381.133.621.621,0,0,0-.183.381Z" transform="translate(-1 13.063)"/>
      </g>
      <g id="Groupe_209" data-name="Groupe 209" transform="translate(87.84 238.861)">
        <path id="Tracé_227" data-name="Tracé 227" d="M2.949-16.366v-1.354h.812v3.513H2.949v-.366a1.109,1.109,0,0,1-.369.328,1.016,1.016,0,0,1-.465.1.944.944,0,0,1-.768-.372,1.473,1.473,0,0,1-.3-.957,1.468,1.468,0,0,1,.3-.954.944.944,0,0,1,.768-.372.989.989,0,0,1,.462.105,1.119,1.119,0,0,1,.372.325Zm-.533,1.639a.458.458,0,0,0,.4-.189.953.953,0,0,0,.136-.554.933.933,0,0,0-.136-.548.457.457,0,0,0-.4-.192.452.452,0,0,0-.393.192.927.927,0,0,0-.136.548.947.947,0,0,0,.136.554A.454.454,0,0,0,2.416-14.727Z" transform="translate(-1.047 17.719)"/>
      </g>
      <g id="Groupe_210" data-name="Groupe 210" transform="translate(92.942 238.861)">
        <path id="Tracé_228" data-name="Tracé 228" d="M3.3-14.727a.458.458,0,0,0,.4-.189.953.953,0,0,0,.136-.554.933.933,0,0,0-.136-.548.457.457,0,0,0-.4-.192.464.464,0,0,0-.4.192.925.925,0,0,0-.139.548.927.927,0,0,0,.139.551.463.463,0,0,0,.4.192Zm-.539-1.639a1.118,1.118,0,0,1,.372-.325A1.012,1.012,0,0,1,3.6-16.8a.946.946,0,0,1,.768.372,1.473,1.473,0,0,1,.3.954,1.477,1.477,0,0,1-.3.957.946.946,0,0,1-.768.372,1.012,1.012,0,0,1-.468-.105,1.1,1.1,0,0,1-.372-.325v.366H1.953v-3.513h.808Z" transform="translate(-1.953 17.719)"/>
      </g>
      <g id="Groupe_211" data-name="Groupe 211" transform="translate(95.921 239.846)">
        <path id="Tracé_229" data-name="Tracé 229" d="M.281-12.75H1.09l.681,1.716.576-1.716h.808L2.093-9.984a1.35,1.35,0,0,1-.375.592.89.89,0,0,1-.564.167H.687v-.53H.941a.529.529,0,0,0,.3-.065.431.431,0,0,0,.149-.235l.022-.071Z" transform="translate(-0.281 12.75)"/>
      </g>
      <g id="Groupe_212" data-name="Groupe 212" transform="translate(100.822 238.942)">
        <path id="Tracé_230" data-name="Tracé 230" d="M4.11-17.145v.712a3.06,3.06,0,0,0-.542-.186,2.087,2.087,0,0,0-.5-.065.944.944,0,0,0-.458.087.288.288,0,0,0-.149.266.253.253,0,0,0,.1.214.956.956,0,0,0,.366.127l.369.074a1.612,1.612,0,0,1,.8.344.866.866,0,0,1,.238.654,1.012,1.012,0,0,1-.331.83,1.567,1.567,0,0,1-1.01.273,3.42,3.42,0,0,1-.644-.062,3.69,3.69,0,0,1-.644-.18v-.734a3.107,3.107,0,0,0,.623.26,2.107,2.107,0,0,0,.582.087.826.826,0,0,0,.434-.093.305.305,0,0,0,.152-.273.3.3,0,0,0-.1-.245,1.041,1.041,0,0,0-.409-.155l-.338-.074a1.459,1.459,0,0,1-.74-.344.879.879,0,0,1-.232-.641A.945.945,0,0,1,2-17.04a1.422,1.422,0,0,1,.935-.273,3.9,3.9,0,0,1,.57.043,5.033,5.033,0,0,1,.607.124Z" transform="translate(-1.672 17.313)"/>
      </g>
      <g id="Groupe_213" data-name="Groupe 213" transform="translate(103.878 239.846)">
        <path id="Tracé_231" data-name="Tracé 231" d="M.281-12.75H1.09l.681,1.716.576-1.716h.808L2.093-9.984a1.35,1.35,0,0,1-.375.592.89.89,0,0,1-.564.167H.687v-.53H.941a.529.529,0,0,0,.3-.065.431.431,0,0,0,.149-.235l.022-.071Z" transform="translate(-0.281 12.75)"/>
      </g>
      <g id="Groupe_214" data-name="Groupe 214" transform="translate(107.221 239.784)">
        <path id="Tracé_232" data-name="Tracé 232" d="M4.285-12.583a1.088,1.088,0,0,1,.366-.356.9.9,0,0,1,.465-.124.823.823,0,0,1,.663.269,1.169,1.169,0,0,1,.229.781v1.539H5.193v-1.319c0-.019,0-.038,0-.059s0-.053,0-.093a.72.72,0,0,0-.081-.387.279.279,0,0,0-.254-.121.409.409,0,0,0-.359.189,1.013,1.013,0,0,0-.127.548v1.242H3.567v-1.319a1.223,1.223,0,0,0-.074-.539.274.274,0,0,0-.257-.121.407.407,0,0,0-.359.192.966.966,0,0,0-.127.542v1.245H1.937V-13h.812v.369a1.046,1.046,0,0,1,.341-.322.868.868,0,0,1,.427-.108.857.857,0,0,1,.465.127.776.776,0,0,1,.3.353Z" transform="translate(-1.937 13.063)"/>
      </g>
      <g id="Groupe_215" data-name="Groupe 215" transform="translate(112.044 238.861)">
        <path id="Tracé_233" data-name="Tracé 233" d="M3.3-14.727a.458.458,0,0,0,.4-.189.953.953,0,0,0,.136-.554.933.933,0,0,0-.136-.548.457.457,0,0,0-.4-.192.464.464,0,0,0-.4.192.925.925,0,0,0-.139.548.927.927,0,0,0,.139.551.463.463,0,0,0,.4.192Zm-.539-1.639a1.118,1.118,0,0,1,.372-.325A1.012,1.012,0,0,1,3.6-16.8a.946.946,0,0,1,.768.372,1.473,1.473,0,0,1,.3.954,1.477,1.477,0,0,1-.3.957.946.946,0,0,1-.768.372,1.012,1.012,0,0,1-.468-.105,1.1,1.1,0,0,1-.372-.325v.366H1.953v-3.513h.808Z" transform="translate(-1.953 17.719)"/>
      </g>
      <g id="Groupe_216" data-name="Groupe 216" transform="translate(115.166 239.784)">
        <path id="Tracé_234" data-name="Tracé 234" d="M2.394-12.486a.478.478,0,0,0-.412.2.936.936,0,0,0-.139.554.956.956,0,0,0,.139.561.48.48,0,0,0,.412.192.466.466,0,0,0,.4-.192.944.944,0,0,0,.142-.561.924.924,0,0,0-.142-.554A.465.465,0,0,0,2.394-12.486Zm0-.576a1.407,1.407,0,0,1,1.019.353,1.279,1.279,0,0,1,.369.973,1.292,1.292,0,0,1-.369.979,1.412,1.412,0,0,1-1.019.35,1.433,1.433,0,0,1-1.025-.35A1.289,1.289,0,0,1,1-11.737a1.276,1.276,0,0,1,.369-.973A1.428,1.428,0,0,1,2.394-13.062Z" transform="translate(-1 13.062)"/>
      </g>
      <g id="Groupe_217" data-name="Groupe 217" transform="translate(118.532 238.861)">
        <path id="Tracé_235" data-name="Tracé 235" d="M1.953-17.719h.808v3.513H1.953Z" transform="translate(-1.953 17.719)"/>
      </g>
      <g id="Groupe_218" data-name="Groupe 218" transform="translate(119.929 239.784)">
        <path id="Tracé_236" data-name="Tracé 236" d="M2.394-12.486a.478.478,0,0,0-.412.2.936.936,0,0,0-.139.554.956.956,0,0,0,.139.561.48.48,0,0,0,.412.192.466.466,0,0,0,.4-.192.944.944,0,0,0,.142-.561.924.924,0,0,0-.142-.554A.465.465,0,0,0,2.394-12.486Zm0-.576a1.407,1.407,0,0,1,1.019.353,1.279,1.279,0,0,1,.369.973,1.292,1.292,0,0,1-.369.979,1.412,1.412,0,0,1-1.019.35,1.433,1.433,0,0,1-1.025-.35A1.289,1.289,0,0,1,1-11.737a1.276,1.276,0,0,1,.369-.973A1.428,1.428,0,0,1,2.394-13.062Z" transform="translate(-1 13.062)"/>
      </g>
      <g id="Groupe_219" data-name="Groupe 219" transform="translate(123.296 239.784)">
        <path id="Tracé_237" data-name="Tracé 237" d="M4.5-12.012v1.539H3.684v-1.18a4.361,4.361,0,0,0-.015-.449.527.527,0,0,0-.05-.183.35.35,0,0,0-.13-.124.392.392,0,0,0-.186-.043.468.468,0,0,0-.4.2.881.881,0,0,0-.146.539v1.245H1.953V-13h.808v.369a1.27,1.27,0,0,1,.387-.325,1,1,0,0,1,.455-.105.821.821,0,0,1,.666.269,1.182,1.182,0,0,1,.226.781Z" transform="translate(-1.953 13.062)"/>
      </g>
      <g id="Groupe_220" data-name="Groupe 220" transform="translate(70.437 243.487)">
        <path id="Tracé_238" data-name="Tracé 238" d="M2.4-17.719v.53H1.955a.356.356,0,0,0-.238.062.284.284,0,0,0-.068.217v.177h.691v.576H1.648v1.951H.84v-1.951h-.4v-.576h.4v-.177a.757.757,0,0,1,.229-.61,1.087,1.087,0,0,1,.716-.2Z" transform="translate(-0.437 17.719)"/>
      </g>
      <g id="Groupe_221" data-name="Groupe 221" transform="translate(72.75 244.41)">
        <path id="Tracé_239" data-name="Tracé 239" d="M3.834-12.313a.994.994,0,0,0-.211-.071.936.936,0,0,0-.211-.025.6.6,0,0,0-.483.2.861.861,0,0,0-.167.57v1.165H1.954V-13h.808v.415a1.018,1.018,0,0,1,.359-.362.966.966,0,0,1,.483-.115l.087,0c.033,0,.079.008.139.015Z" transform="translate(-1.954 13.062)"/>
      </g>
      <g id="Groupe_222" data-name="Groupe 222" transform="translate(74.843 244.41)">
        <path id="Tracé_240" data-name="Tracé 240" d="M2.394-12.486a.478.478,0,0,0-.412.2.936.936,0,0,0-.139.554.956.956,0,0,0,.139.561.48.48,0,0,0,.412.192.466.466,0,0,0,.4-.192.944.944,0,0,0,.142-.561.924.924,0,0,0-.142-.554A.465.465,0,0,0,2.394-12.486Zm0-.576a1.407,1.407,0,0,1,1.019.353,1.279,1.279,0,0,1,.369.973,1.292,1.292,0,0,1-.369.979,1.412,1.412,0,0,1-1.019.35,1.433,1.433,0,0,1-1.025-.35A1.289,1.289,0,0,1,1-11.737a1.276,1.276,0,0,1,.369-.973A1.428,1.428,0,0,1,2.394-13.062Z" transform="translate(-1 13.062)"/>
      </g>
      <g id="Groupe_223" data-name="Groupe 223" transform="translate(78.206 244.41)">
        <path id="Tracé_241" data-name="Tracé 241" d="M4.285-12.583a1.088,1.088,0,0,1,.366-.356.9.9,0,0,1,.465-.124.823.823,0,0,1,.663.269,1.169,1.169,0,0,1,.229.781v1.539H5.193v-1.319c0-.019,0-.038,0-.059s0-.053,0-.093a.72.72,0,0,0-.081-.387.279.279,0,0,0-.254-.121.409.409,0,0,0-.359.189,1.013,1.013,0,0,0-.127.548v1.242H3.567v-1.319a1.223,1.223,0,0,0-.074-.539.274.274,0,0,0-.257-.121.407.407,0,0,0-.359.192.966.966,0,0,0-.127.542v1.245H1.937V-13h.812v.369a1.046,1.046,0,0,1,.341-.322.868.868,0,0,1,.427-.108.857.857,0,0,1,.465.127.776.776,0,0,1,.3.353Z" transform="translate(-1.937 13.063)"/>
      </g>
      <g id="Groupe_224" data-name="Groupe 224" transform="translate(84.314 243.753)">
        <path id="Tracé_242" data-name="Tracé 242" d="M1.52-16.375v.719h.833v.576H1.52v1.072a.308.308,0,0,0,.071.238.441.441,0,0,0,.279.062h.415v.579H1.592a.95.95,0,0,1-.681-.2.95.95,0,0,1-.2-.681V-15.08h-.4v-.576h.4v-.719Z" transform="translate(-0.312 16.375)"/>
      </g>
      <g id="Groupe_225" data-name="Groupe 225" transform="translate(86.85 243.486)">
        <path id="Tracé_243" data-name="Tracé 243" d="M4.5-15.746v1.539H3.684V-15.38a4.455,4.455,0,0,0-.015-.455.527.527,0,0,0-.05-.183.35.35,0,0,0-.13-.124.392.392,0,0,0-.186-.043.468.468,0,0,0-.4.2.881.881,0,0,0-.146.539v1.245H1.953v-3.513h.808v1.354a1.27,1.27,0,0,1,.387-.325A1,1,0,0,1,3.6-16.8a.821.821,0,0,1,.666.269,1.182,1.182,0,0,1,.226.781Z" transform="translate(-1.953 17.719)"/>
      </g>
      <g id="Groupe_226" data-name="Groupe 226" transform="translate(89.954 244.41)">
        <path id="Tracé_244" data-name="Tracé 244" d="M3.714-11.743v.229H1.824a.606.606,0,0,0,.2.427.768.768,0,0,0,.5.142,1.937,1.937,0,0,0,.52-.074,2.644,2.644,0,0,0,.551-.232v.623a3.5,3.5,0,0,1-.576.164,2.981,2.981,0,0,1-.573.056,1.523,1.523,0,0,1-1.066-.347A1.266,1.266,0,0,1,1-11.737a1.274,1.274,0,0,1,.372-.969A1.437,1.437,0,0,1,2.4-13.063a1.28,1.28,0,0,1,.951.359,1.3,1.3,0,0,1,.359.96Zm-.83-.269a.51.51,0,0,0-.136-.372.46.46,0,0,0-.35-.142.552.552,0,0,0-.381.133.621.621,0,0,0-.183.381Z" transform="translate(-1 13.063)"/>
      </g>
      <g id="Groupe_227" data-name="Groupe 227" transform="translate(94.928 243.629)">
        <path id="Tracé_245" data-name="Tracé 245" d="M2.141-17h.973l1.223,2.311V-17h.824v3.37H4.191L2.965-15.944v2.314H2.141Z" transform="translate(-2.141 17)"/>
      </g>
      <g id="Groupe_228" data-name="Groupe 228" transform="translate(98.573 244.41)">
        <path id="Tracé_246" data-name="Tracé 246" d="M2.394-12.486a.478.478,0,0,0-.412.2.936.936,0,0,0-.139.554.956.956,0,0,0,.139.561.48.48,0,0,0,.412.192.466.466,0,0,0,.4-.192.944.944,0,0,0,.142-.561.924.924,0,0,0-.142-.554A.465.465,0,0,0,2.394-12.486Zm0-.576a1.407,1.407,0,0,1,1.019.353,1.279,1.279,0,0,1,.369.973,1.292,1.292,0,0,1-.369.979,1.412,1.412,0,0,1-1.019.35,1.433,1.433,0,0,1-1.025-.35A1.289,1.289,0,0,1,1-11.737a1.276,1.276,0,0,1,.369-.973A1.428,1.428,0,0,1,2.394-13.062Z" transform="translate(-1 13.062)"/>
      </g>
      <g id="Groupe_229" data-name="Groupe 229" transform="translate(101.915 244.472)">
        <path id="Tracé_247" data-name="Tracé 247" d="M1.828-11.207V-12.75H2.64v.251c0,.139,0,.311,0,.517v.415a4.212,4.212,0,0,0,.015.44.473.473,0,0,0,.053.192.328.328,0,0,0,.13.124.379.379,0,0,0,.186.043.469.469,0,0,0,.4-.2.886.886,0,0,0,.146-.539V-12.75h.805v2.527H3.563v-.366a1.284,1.284,0,0,1-.39.325.963.963,0,0,1-.449.105.828.828,0,0,1-.666-.266,1.176,1.176,0,0,1-.229-.784Z" transform="translate(-1.828 12.75)"/>
      </g>
      <g id="Groupe_230" data-name="Groupe 230" transform="translate(105.232 244.41)">
        <path id="Tracé_248" data-name="Tracé 248" d="M4.5-12.012v1.539H3.684v-1.18a4.361,4.361,0,0,0-.015-.449.527.527,0,0,0-.05-.183.35.35,0,0,0-.13-.124.392.392,0,0,0-.186-.043.468.468,0,0,0-.4.2.881.881,0,0,0-.146.539v1.245H1.953V-13h.808v.369a1.27,1.27,0,0,1,.387-.325,1,1,0,0,1,.455-.105.821.821,0,0,1,.666.269,1.182,1.182,0,0,1,.226.781Z" transform="translate(-1.953 13.062)"/>
      </g>
      <g id="Groupe_231" data-name="Groupe 231" transform="translate(110.173 243.629)">
        <path id="Tracé_249" data-name="Tracé 249" d="M2.141-17H3.584a1.513,1.513,0,0,1,.988.285,1,1,0,0,1,.344.815,1,1,0,0,1-.344.815,1.509,1.509,0,0,1-.988.285H3.011v1.171h-.87Zm.87.629v.942h.48a.572.572,0,0,0,.39-.121.443.443,0,0,0,.139-.35.435.435,0,0,0-.139-.347.565.565,0,0,0-.39-.124Z" transform="translate(-2.141 17)"/>
      </g>
      <g id="Groupe_232" data-name="Groupe 232" transform="translate(113.526 244.41)">
        <path id="Tracé_250" data-name="Tracé 250" d="M3.834-12.313a.994.994,0,0,0-.211-.071.936.936,0,0,0-.211-.025.6.6,0,0,0-.483.2.861.861,0,0,0-.167.57v1.165H1.954V-13h.808v.415a1.018,1.018,0,0,1,.359-.362.966.966,0,0,1,.483-.115l.087,0c.033,0,.079.008.139.015Z" transform="translate(-1.954 13.062)"/>
      </g>
      <g id="Groupe_233" data-name="Groupe 233" transform="translate(115.618 244.41)">
        <path id="Tracé_251" data-name="Tracé 251" d="M2.394-12.486a.478.478,0,0,0-.412.2.936.936,0,0,0-.139.554.956.956,0,0,0,.139.561.48.48,0,0,0,.412.192.466.466,0,0,0,.4-.192.944.944,0,0,0,.142-.561.924.924,0,0,0-.142-.554A.465.465,0,0,0,2.394-12.486Zm0-.576a1.407,1.407,0,0,1,1.019.353,1.279,1.279,0,0,1,.369.973,1.292,1.292,0,0,1-.369.979,1.412,1.412,0,0,1-1.019.35,1.433,1.433,0,0,1-1.025-.35A1.289,1.289,0,0,1,1-11.737a1.276,1.276,0,0,1,.369-.973A1.428,1.428,0,0,1,2.394-13.062Z" transform="translate(-1 13.062)"/>
      </g>
      <g id="Groupe_234" data-name="Groupe 234" transform="translate(118.443 243.487)">
        <path id="Tracé_252" data-name="Tracé 252" d="M-.239-16.734H.569v2.481a1.11,1.11,0,0,1-.245.774.9.9,0,0,1-.706.269h-.4v-.53h.142a.384.384,0,0,0,.313-.105.675.675,0,0,0,.087-.409Zm0-.985H.569v.66H-.239Z" transform="translate(0.781 17.719)"/>
      </g>
      <g id="Groupe_235" data-name="Groupe 235" transform="translate(120.381 244.41)">
        <path id="Tracé_253" data-name="Tracé 253" d="M3.714-11.743v.229H1.824a.606.606,0,0,0,.2.427.768.768,0,0,0,.5.142,1.937,1.937,0,0,0,.52-.074,2.644,2.644,0,0,0,.551-.232v.623a3.5,3.5,0,0,1-.576.164,2.981,2.981,0,0,1-.573.056,1.523,1.523,0,0,1-1.066-.347A1.266,1.266,0,0,1,1-11.737a1.274,1.274,0,0,1,.372-.969A1.437,1.437,0,0,1,2.4-13.063a1.28,1.28,0,0,1,.951.359,1.3,1.3,0,0,1,.359.96Zm-.83-.269a.51.51,0,0,0-.136-.372.46.46,0,0,0-.35-.142.552.552,0,0,0-.381.133.621.621,0,0,0-.183.381Z" transform="translate(-1 13.063)"/>
      </g>
      <g id="Groupe_236" data-name="Groupe 236" transform="translate(123.519 244.41)">
        <path id="Tracé_254" data-name="Tracé 254" d="M3.234-12.923v.66A1.259,1.259,0,0,0,2.9-12.43a1.066,1.066,0,0,0-.344-.056.693.693,0,0,0-.527.2.766.766,0,0,0-.189.551.769.769,0,0,0,.189.554.691.691,0,0,0,.527.2,1.151,1.151,0,0,0,.359-.056,1.117,1.117,0,0,0,.316-.17v.663a2.126,2.126,0,0,1-.384.105,2.313,2.313,0,0,1-.393.034,1.536,1.536,0,0,1-1.072-.35A1.262,1.262,0,0,1,1-11.736a1.249,1.249,0,0,1,.384-.973,1.53,1.53,0,0,1,1.072-.353,2.279,2.279,0,0,1,.393.034,2.308,2.308,0,0,1,.384.105Z" transform="translate(-1 13.062)"/>
      </g>
      <g id="Groupe_237" data-name="Groupe 237" transform="translate(126.123 243.753)">
        <path id="Tracé_255" data-name="Tracé 255" d="M1.52-16.375v.719h.833v.576H1.52v1.072a.308.308,0,0,0,.071.238.441.441,0,0,0,.279.062h.415v.579H1.592a.95.95,0,0,1-.681-.2.95.95,0,0,1-.2-.681V-15.08h-.4v-.576h.4v-.719Z" transform="translate(-0.312 16.375)"/>
      </g>
    </g>
  </g>
</svg>
