<svg xmlns="http://www.w3.org/2000/svg" xmlns:xlink="http://www.w3.org/1999/xlink" width="41.883" height="52.644" viewBox="0 0 41.883 52.644">
  <defs>
    <clipPath id="clip-path">
      <rect id="login-icon" width="41.883" height="52.644" transform="translate(46 -6)" fill="none"/>
    </clipPath>
  </defs>
  <g id="login-icon-2" data-name="login-icon" transform="translate(-46 6)" clip-path="url(#clip-path)" style="isolation: isolate">
    <g id="noun-user-login-676796" transform="translate(15.189 -2.024)">
      <path id="Tracé_218" data-name="Tracé 218" d="M335.345,292.6a11.95,11.95,0,0,1-6.19,1.777,11.78,11.78,0,0,1-6.19-1.777A10.507,10.507,0,0,0,315,302.773v5.7h28.315v-5.7A10.574,10.574,0,0,0,335.345,292.6Z" transform="translate(-282.881 -273.418)" fill="#fff"/>
      <path id="Tracé_219" data-name="Tracé 219" d="M363.615,164.431a8.948,8.948,0,1,0-8.948-8.948A8.948,8.948,0,0,0,363.615,164.431Z" transform="translate(-317.34 -146.535)" fill="#fff"/>
      <path id="Tracé_220" data-name="Tracé 220" d="M166.043,163.818a.842.842,0,0,0,.184-.245c0-.061.061-.061.061-.123a.215.215,0,0,1,.061-.123c0-.061.061-.123.061-.184s0-.061.061-.123a1.049,1.049,0,0,0,0-.613c0-.061,0-.061-.061-.123a.225.225,0,0,0-.061-.184.215.215,0,0,0-.061-.123c0-.061-.061-.061-.061-.123-.061-.061-.123-.184-.184-.245L161.63,157.2a1.517,1.517,0,0,0-2.145,2.145l1.838,1.838h-12.2v-4.719a1.532,1.532,0,1,0-3.065,0v6.312a1.517,1.517,0,0,0,1.532,1.532h13.667l-1.838,1.838a1.539,1.539,0,0,0,2.206,2.145Z" transform="translate(-136.133 -153.83)" fill="#fff"/>
      <g id="Groupe_203" data-name="Groupe 203" transform="translate(0.091 61.218)">
        <path id="Tracé_221" data-name="Tracé 221" d="M3.055-15.162a1.425,1.425,0,0,1-.331.123A1.477,1.477,0,0,1,2.365-15a1.225,1.225,0,0,1-.884-.312,1.114,1.114,0,0,1-.326-.845A1.118,1.118,0,0,1,1.48-17a1.227,1.227,0,0,1,.884-.312,1.477,1.477,0,0,1,.359.043,1.473,1.473,0,0,1,.331.123v.464a1.292,1.292,0,0,0-.316-.16,1.035,1.035,0,0,0-.326-.051.615.615,0,0,0-.484.2.785.785,0,0,0-.176.544.788.788,0,0,0,.176.544.617.617,0,0,0,.484.2,1.02,1.02,0,0,0,.326-.051,1.259,1.259,0,0,0,.316-.16Z" transform="translate(-1.153 17.315)" fill="#fff"/>
      </g>
      <g id="Groupe_204" data-name="Groupe 204" transform="translate(2.447 61.778)">
        <path id="Tracé_222" data-name="Tracé 222" d="M3.2-12.566a.659.659,0,0,0-.14-.047.62.62,0,0,0-.14-.017.4.4,0,0,0-.32.133.57.57,0,0,0-.111.378v.772H1.954v-1.673h.535v.275a.674.674,0,0,1,.238-.24.64.64,0,0,1,.32-.076H3.1c.022,0,.052.005.092.01Z" transform="translate(-1.954 13.062)" fill="#fff"/>
      </g>
      <g id="Groupe_205" data-name="Groupe 205" transform="translate(3.831 61.776)">
        <path id="Tracé_223" data-name="Tracé 223" d="M2.8-12.189v.152H1.545a.4.4,0,0,0,.133.283.509.509,0,0,0,.331.094,1.283,1.283,0,0,0,.345-.049,1.752,1.752,0,0,0,.365-.154v.413a2.319,2.319,0,0,1-.382.109,1.975,1.975,0,0,1-.38.037,1.009,1.009,0,0,1-.706-.23A.839.839,0,0,1,1-12.185a.844.844,0,0,1,.246-.642.952.952,0,0,1,.681-.237.848.848,0,0,1,.63.238.861.861,0,0,1,.238.636Zm-.55-.178a.338.338,0,0,0-.09-.246.3.3,0,0,0-.232-.094.366.366,0,0,0-.252.088.411.411,0,0,0-.121.252Z" transform="translate(-0.998 13.065)" fill="#fff"/>
      </g>
      <g id="Groupe_206" data-name="Groupe 206" transform="translate(5.909 61.774)">
        <path id="Tracé_224" data-name="Tracé 224" d="M1.876-12.1a.459.459,0,0,0-.252.058.185.185,0,0,0-.084.166.2.2,0,0,0,.066.16.29.29,0,0,0,.191.058.331.331,0,0,0,.252-.109.377.377,0,0,0,.1-.273v-.06Zm.819-.2v.956h-.54V-11.6a.7.7,0,0,1-.244.222.7.7,0,0,1-.326.07.591.591,0,0,1-.423-.152A.514.514,0,0,1,1-11.852a.486.486,0,0,1,.2-.433,1.158,1.158,0,0,1,.636-.138h.316v-.041a.2.2,0,0,0-.1-.187.635.635,0,0,0-.312-.06,1.4,1.4,0,0,0-.32.035,1.152,1.152,0,0,0-.275.1v-.408a2.993,2.993,0,0,1,.345-.062,2.727,2.727,0,0,1,.346-.023.977.977,0,0,1,.655.178.742.742,0,0,1,.2.581Z" transform="translate(-0.998 13.069)" fill="#fff"/>
      </g>
      <g id="Groupe_207" data-name="Groupe 207" transform="translate(7.888 61.343)">
        <path id="Tracé_225" data-name="Tracé 225" d="M1.112-16.375v.476h.552v.382H1.112v.71a.2.2,0,0,0,.047.158.292.292,0,0,0,.185.041h.275v.384H1.16a.629.629,0,0,1-.451-.133.629.629,0,0,1-.133-.451v-.709H.311V-15.9H.576v-.476Z" transform="translate(-0.311 16.375)" fill="#fff"/>
      </g>
      <g id="Groupe_208" data-name="Groupe 208" transform="translate(9.442 61.776)">
        <path id="Tracé_226" data-name="Tracé 226" d="M2.8-12.189v.152H1.545a.4.4,0,0,0,.133.283.509.509,0,0,0,.331.094,1.283,1.283,0,0,0,.345-.049,1.752,1.752,0,0,0,.365-.154v.413a2.319,2.319,0,0,1-.382.109,1.975,1.975,0,0,1-.38.037,1.009,1.009,0,0,1-.706-.23A.839.839,0,0,1,1-12.185a.844.844,0,0,1,.246-.642.952.952,0,0,1,.681-.237.848.848,0,0,1,.63.238.861.861,0,0,1,.238.636Zm-.55-.178a.338.338,0,0,0-.09-.246.3.3,0,0,0-.232-.094.366.366,0,0,0-.252.088.411.411,0,0,0-.121.252Z" transform="translate(-0.998 13.065)" fill="#fff"/>
      </g>
      <g id="Groupe_209" data-name="Groupe 209" transform="translate(11.527 61.166)">
        <path id="Tracé_227" data-name="Tracé 227" d="M2.307-16.823v-.9h.538v2.327H2.307v-.242a.735.735,0,0,1-.244.217.673.673,0,0,1-.308.066.625.625,0,0,1-.509-.246.976.976,0,0,1-.2-.634.973.973,0,0,1,.2-.632.625.625,0,0,1,.509-.246.655.655,0,0,1,.306.07.741.741,0,0,1,.246.215Zm-.353,1.086a.3.3,0,0,0,.265-.125.631.631,0,0,0,.09-.367.618.618,0,0,0-.09-.363.3.3,0,0,0-.265-.127.3.3,0,0,0-.26.127.614.614,0,0,0-.09.363.627.627,0,0,0,.09.367.3.3,0,0,0,.26.125Z" transform="translate(-1.046 17.72)" fill="#fff"/>
      </g>
      <g id="Groupe_210" data-name="Groupe 210" transform="translate(14.908 61.164)">
        <path id="Tracé_228" data-name="Tracé 228" d="M2.845-15.738a.3.3,0,0,0,.265-.125.631.631,0,0,0,.09-.367.618.618,0,0,0-.09-.363.3.3,0,0,0-.265-.127.307.307,0,0,0-.265.127.613.613,0,0,0-.092.363.614.614,0,0,0,.092.365.307.307,0,0,0,.265.127Zm-.357-1.086a.741.741,0,0,1,.246-.215.67.67,0,0,1,.309-.072.627.627,0,0,1,.509.246.976.976,0,0,1,.2.632.979.979,0,0,1-.2.634.627.627,0,0,1-.509.246.67.67,0,0,1-.31-.07.729.729,0,0,1-.246-.215v.242H1.953v-2.327h.535Z" transform="translate(-1.953 17.722)" fill="#fff"/>
      </g>
      <g id="Groupe_211" data-name="Groupe 211" transform="translate(16.881 61.819)">
        <path id="Tracé_229" data-name="Tracé 229" d="M.281-12.75H.817l.451,1.137L1.65-12.75h.535l-.7,1.832a.894.894,0,0,1-.248.392.59.59,0,0,1-.374.111H.55v-.351H.718a.35.35,0,0,0,.2-.043.286.286,0,0,0,.1-.156l.015-.047Z" transform="translate(-0.281 12.75)" fill="#fff"/>
      </g>
      <g id="Groupe_212" data-name="Groupe 212" transform="translate(20.13 61.218)">
        <path id="Tracé_230" data-name="Tracé 230" d="M3.288-17.2v.472a2.027,2.027,0,0,0-.359-.123A1.383,1.383,0,0,0,2.6-16.9a.625.625,0,0,0-.3.058.191.191,0,0,0-.1.176.168.168,0,0,0,.066.142.633.633,0,0,0,.242.084l.244.049a1.068,1.068,0,0,1,.53.228.574.574,0,0,1,.158.433.67.67,0,0,1-.219.55A1.038,1.038,0,0,1,2.548-15a2.266,2.266,0,0,1-.427-.041,2.445,2.445,0,0,1-.427-.119v-.486a2.058,2.058,0,0,0,.413.172,1.4,1.4,0,0,0,.386.058.547.547,0,0,0,.288-.062.2.2,0,0,0,.1-.181.2.2,0,0,0-.066-.162.69.69,0,0,0-.271-.1L2.32-15.97a.967.967,0,0,1-.49-.228.582.582,0,0,1-.154-.425.626.626,0,0,1,.214-.511.942.942,0,0,1,.619-.181,2.584,2.584,0,0,1,.378.028,3.334,3.334,0,0,1,.4.082Z" transform="translate(-1.675 17.316)" fill="#fff"/>
      </g>
      <g id="Groupe_213" data-name="Groupe 213" transform="translate(22.153 61.819)">
        <path id="Tracé_231" data-name="Tracé 231" d="M.281-12.75H.817l.451,1.137L1.65-12.75h.535l-.7,1.832a.894.894,0,0,1-.248.392.59.59,0,0,1-.374.111H.55v-.351H.718a.35.35,0,0,0,.2-.043.286.286,0,0,0,.1-.156l.015-.047Z" transform="translate(-0.281 12.75)" fill="#fff"/>
      </g>
      <g id="Groupe_214" data-name="Groupe 214" transform="translate(24.368 61.777)">
        <path id="Tracé_232" data-name="Tracé 232" d="M3.493-12.746a.721.721,0,0,1,.242-.236.6.6,0,0,1,.308-.082.545.545,0,0,1,.439.178.774.774,0,0,1,.152.517v1.02h-.54v-.975a.477.477,0,0,0-.054-.256.185.185,0,0,0-.168-.08.271.271,0,0,0-.238.125.671.671,0,0,0-.084.363v.823H3.017v-.874a.81.81,0,0,0-.049-.357.182.182,0,0,0-.17-.08.27.27,0,0,0-.238.127.64.64,0,0,0-.084.359v.825H1.937v-1.673h.538v.244a.693.693,0,0,1,.226-.213.575.575,0,0,1,.283-.072.568.568,0,0,1,.308.084.514.514,0,0,1,.2.234Z" transform="translate(-1.937 13.065)" fill="#fff"/>
      </g>
      <g id="Groupe_215" data-name="Groupe 215" transform="translate(27.563 61.164)">
        <path id="Tracé_233" data-name="Tracé 233" d="M2.845-15.738a.3.3,0,0,0,.265-.125.631.631,0,0,0,.09-.367.618.618,0,0,0-.09-.363.3.3,0,0,0-.265-.127.307.307,0,0,0-.265.127.613.613,0,0,0-.092.363.614.614,0,0,0,.092.365.307.307,0,0,0,.265.127Zm-.357-1.086a.741.741,0,0,1,.246-.215.67.67,0,0,1,.309-.072.627.627,0,0,1,.509.246.976.976,0,0,1,.2.632.979.979,0,0,1-.2.634.627.627,0,0,1-.509.246.67.67,0,0,1-.31-.07.729.729,0,0,1-.246-.215v.242H1.953v-2.327h.535Z" transform="translate(-1.953 17.722)" fill="#fff"/>
      </g>
      <g id="Groupe_216" data-name="Groupe 216" transform="translate(29.63 61.776)">
        <path id="Tracé_234" data-name="Tracé 234" d="M1.923-12.681a.317.317,0,0,0-.273.132.62.62,0,0,0-.092.367.633.633,0,0,0,.092.372.318.318,0,0,0,.273.127.309.309,0,0,0,.265-.127.625.625,0,0,0,.094-.372.612.612,0,0,0-.094-.367.308.308,0,0,0-.265-.133Zm0-.382a.932.932,0,0,1,.675.234.847.847,0,0,1,.244.645.856.856,0,0,1-.244.649.935.935,0,0,1-.675.232.949.949,0,0,1-.679-.232A.854.854,0,0,1,1-12.185a.845.845,0,0,1,.244-.645.946.946,0,0,1,.679-.233Z" transform="translate(-0.998 13.065)" fill="#fff"/>
      </g>
      <g id="Groupe_217" data-name="Groupe 217" transform="translate(31.861 61.166)">
        <path id="Tracé_235" data-name="Tracé 235" d="M1.953-17.719h.535v2.327H1.953Z" transform="translate(-1.953 17.719)" fill="#fff"/>
      </g>
      <g id="Groupe_218" data-name="Groupe 218" transform="translate(32.785 61.776)">
        <path id="Tracé_236" data-name="Tracé 236" d="M1.923-12.681a.317.317,0,0,0-.273.132.62.62,0,0,0-.092.367.633.633,0,0,0,.092.372.318.318,0,0,0,.273.127.309.309,0,0,0,.265-.127.625.625,0,0,0,.094-.372.612.612,0,0,0-.094-.367.308.308,0,0,0-.265-.133Zm0-.382a.932.932,0,0,1,.675.234.847.847,0,0,1,.244.645.856.856,0,0,1-.244.649.935.935,0,0,1-.675.232.949.949,0,0,1-.679-.232A.854.854,0,0,1,1-12.185a.845.845,0,0,1,.244-.645.946.946,0,0,1,.679-.233Z" transform="translate(-0.998 13.065)" fill="#fff"/>
      </g>
      <g id="Groupe_219" data-name="Groupe 219" transform="translate(35.017 61.777)">
        <path id="Tracé_237" data-name="Tracé 237" d="M3.64-12.367v1.02H3.1v-.782a2.889,2.889,0,0,0-.01-.3.349.349,0,0,0-.033-.121.232.232,0,0,0-.086-.082.26.26,0,0,0-.123-.028.31.31,0,0,0-.265.133.584.584,0,0,0-.1.357v.825H1.953v-1.677h.535v.244a.841.841,0,0,1,.256-.215.662.662,0,0,1,.3-.07.544.544,0,0,1,.441.178.783.783,0,0,1,.15.517Z" transform="translate(-1.953 13.063)" fill="#fff"/>
      </g>
      <g id="Groupe_220" data-name="Groupe 220" transform="translate(0 64.228)">
        <path id="Tracé_238" data-name="Tracé 238" d="M1.739-17.72v.351H1.444a.236.236,0,0,0-.158.041.188.188,0,0,0-.045.144v.117H1.7v.382H1.24v1.293H.705v-1.293H.44v-.382H.705v-.117a.5.5,0,0,1,.152-.4.72.72,0,0,1,.474-.132Z" transform="translate(-0.44 17.723)" fill="#fff"/>
      </g>
      <g id="Groupe_221" data-name="Groupe 221" transform="translate(1.53 64.842)">
        <path id="Tracé_239" data-name="Tracé 239" d="M3.2-12.566a.659.659,0,0,0-.14-.047.62.62,0,0,0-.14-.017.4.4,0,0,0-.32.133.57.57,0,0,0-.111.378v.772H1.954v-1.673h.535v.275a.674.674,0,0,1,.238-.24.64.64,0,0,1,.32-.076H3.1c.022,0,.052.005.092.01Z" transform="translate(-1.954 13.062)" fill="#fff"/>
      </g>
      <g id="Groupe_222" data-name="Groupe 222" transform="translate(2.916 64.841)">
        <path id="Tracé_240" data-name="Tracé 240" d="M1.923-12.681a.317.317,0,0,0-.273.132.62.62,0,0,0-.092.367.633.633,0,0,0,.092.372.318.318,0,0,0,.273.127.309.309,0,0,0,.265-.127.625.625,0,0,0,.094-.372.612.612,0,0,0-.094-.367.308.308,0,0,0-.265-.133Zm0-.382a.932.932,0,0,1,.675.234.847.847,0,0,1,.244.645.856.856,0,0,1-.244.649.935.935,0,0,1-.675.232.949.949,0,0,1-.679-.232A.854.854,0,0,1,1-12.185a.845.845,0,0,1,.244-.645.946.946,0,0,1,.679-.233Z" transform="translate(-0.998 13.065)" fill="#fff"/>
      </g>
      <g id="Groupe_223" data-name="Groupe 223" transform="translate(5.145 64.841)">
        <path id="Tracé_241" data-name="Tracé 241" d="M3.493-12.746a.721.721,0,0,1,.242-.236.6.6,0,0,1,.308-.082.545.545,0,0,1,.439.178.774.774,0,0,1,.152.517v1.02h-.54v-.975a.477.477,0,0,0-.054-.256.185.185,0,0,0-.168-.08.271.271,0,0,0-.238.125.671.671,0,0,0-.084.363v.823H3.017v-.874a.81.81,0,0,0-.049-.357.182.182,0,0,0-.17-.08.27.27,0,0,0-.238.127.64.64,0,0,0-.084.359v.825H1.937v-1.673h.538v.244a.693.693,0,0,1,.226-.213.575.575,0,0,1,.283-.072.568.568,0,0,1,.308.084.514.514,0,0,1,.2.234Z" transform="translate(-1.937 13.065)" fill="#fff"/>
      </g>
      <g id="Groupe_224" data-name="Groupe 224" transform="translate(9.191 64.407)">
        <path id="Tracé_242" data-name="Tracé 242" d="M1.112-16.375v.476h.552v.382H1.112v.71a.2.2,0,0,0,.047.158.292.292,0,0,0,.185.041h.275v.384H1.16a.629.629,0,0,1-.451-.133.629.629,0,0,1-.133-.451v-.709H.311V-15.9H.576v-.476Z" transform="translate(-0.311 16.375)" fill="#fff"/>
      </g>
      <g id="Groupe_225" data-name="Groupe 225" transform="translate(10.872 64.234)">
        <path id="Tracé_243" data-name="Tracé 243" d="M3.64-16.41v1.02H3.1v-.777a2.951,2.951,0,0,0-.01-.3.349.349,0,0,0-.033-.121.232.232,0,0,0-.086-.082.26.26,0,0,0-.123-.028.31.31,0,0,0-.265.132.584.584,0,0,0-.1.357v.825H1.953v-2.327h.535v.9a.841.841,0,0,1,.256-.215.662.662,0,0,1,.3-.076.544.544,0,0,1,.441.178.783.783,0,0,1,.15.517Z" transform="translate(-1.953 17.714)" fill="#fff"/>
      </g>
      <g id="Groupe_226" data-name="Groupe 226" transform="translate(12.927 64.841)">
        <path id="Tracé_244" data-name="Tracé 244" d="M2.8-12.189v.152H1.545a.4.4,0,0,0,.133.283.509.509,0,0,0,.331.094,1.283,1.283,0,0,0,.345-.049,1.752,1.752,0,0,0,.365-.154v.413a2.319,2.319,0,0,1-.382.109,1.975,1.975,0,0,1-.38.037,1.009,1.009,0,0,1-.706-.23A.839.839,0,0,1,1-12.185a.844.844,0,0,1,.246-.642.952.952,0,0,1,.681-.237.848.848,0,0,1,.63.238.861.861,0,0,1,.238.636Zm-.55-.178a.338.338,0,0,0-.09-.246.3.3,0,0,0-.232-.094.366.366,0,0,0-.252.088.411.411,0,0,0-.121.252Z" transform="translate(-0.998 13.065)" fill="#fff"/>
      </g>
      <g id="Groupe_227" data-name="Groupe 227" transform="translate(16.223 64.325)">
        <path id="Tracé_245" data-name="Tracé 245" d="M2.141-17h.645l.81,1.531V-17h.546v2.233H3.5L2.687-16.3v1.533H2.141Z" transform="translate(-2.141 17)" fill="#fff"/>
      </g>
      <g id="Groupe_228" data-name="Groupe 228" transform="translate(18.637 64.841)">
        <path id="Tracé_246" data-name="Tracé 246" d="M1.923-12.681a.317.317,0,0,0-.273.132.62.62,0,0,0-.092.367.633.633,0,0,0,.092.372.318.318,0,0,0,.273.127.309.309,0,0,0,.265-.127.625.625,0,0,0,.094-.372.612.612,0,0,0-.094-.367.308.308,0,0,0-.265-.133Zm0-.382a.932.932,0,0,1,.675.234.847.847,0,0,1,.244.645.856.856,0,0,1-.244.649.935.935,0,0,1-.675.232.949.949,0,0,1-.679-.232A.854.854,0,0,1,1-12.185a.845.845,0,0,1,.244-.645.946.946,0,0,1,.679-.233Z" transform="translate(-0.998 13.065)" fill="#fff"/>
      </g>
      <g id="Groupe_229" data-name="Groupe 229" transform="translate(20.851 64.884)">
        <path id="Tracé_247" data-name="Tracé 247" d="M1.827-11.728V-12.75h.538v.784a2.79,2.79,0,0,0,.01.292.313.313,0,0,0,.035.127.217.217,0,0,0,.086.082.251.251,0,0,0,.123.028.311.311,0,0,0,.265-.133.587.587,0,0,0,.1-.357v-.823h.533v1.674H2.977v-.242a.851.851,0,0,1-.258.215.638.638,0,0,1-.3.07.549.549,0,0,1-.441-.176.779.779,0,0,1-.152-.519Z" transform="translate(-1.826 12.75)" fill="#fff"/>
      </g>
      <g id="Groupe_230" data-name="Groupe 230" transform="translate(23.05 64.842)">
        <path id="Tracé_248" data-name="Tracé 248" d="M3.64-12.367v1.02H3.1v-.782a2.889,2.889,0,0,0-.01-.3.349.349,0,0,0-.033-.121.232.232,0,0,0-.086-.082.26.26,0,0,0-.123-.028.31.31,0,0,0-.265.133.584.584,0,0,0-.1.357v.825H1.953v-1.677h.535v.244a.841.841,0,0,1,.256-.215.662.662,0,0,1,.3-.07.544.544,0,0,1,.441.178.783.783,0,0,1,.15.517Z" transform="translate(-1.953 13.063)" fill="#fff"/>
      </g>
      <g id="Groupe_231" data-name="Groupe 231" transform="translate(26.323 64.323)">
        <path id="Tracé_249" data-name="Tracé 249" d="M2.141-17H3.1a1,1,0,0,1,.655.189.662.662,0,0,1,.228.54.663.663,0,0,1-.228.54,1,1,0,0,1-.655.189h-.38v.776H2.141Zm.576.417v.624h.318a.379.379,0,0,0,.258-.08.293.293,0,0,0,.092-.232.288.288,0,0,0-.092-.23.374.374,0,0,0-.258-.082Z" transform="translate(-2.141 17.003)" fill="#fff"/>
      </g>
      <g id="Groupe_232" data-name="Groupe 232" transform="translate(28.545 64.842)">
        <path id="Tracé_250" data-name="Tracé 250" d="M3.2-12.566a.659.659,0,0,0-.14-.047.62.62,0,0,0-.14-.017.4.4,0,0,0-.32.133.57.57,0,0,0-.111.378v.772H1.954v-1.673h.535v.275a.674.674,0,0,1,.238-.24.64.64,0,0,1,.32-.076H3.1c.022,0,.052.005.092.01Z" transform="translate(-1.954 13.062)" fill="#fff"/>
      </g>
      <g id="Groupe_233" data-name="Groupe 233" transform="translate(29.929 64.841)">
        <path id="Tracé_251" data-name="Tracé 251" d="M1.923-12.681a.317.317,0,0,0-.273.132.62.62,0,0,0-.092.367.633.633,0,0,0,.092.372.318.318,0,0,0,.273.127.309.309,0,0,0,.265-.127.625.625,0,0,0,.094-.372.612.612,0,0,0-.094-.367.308.308,0,0,0-.265-.133Zm0-.382a.932.932,0,0,1,.675.234.847.847,0,0,1,.244.645.856.856,0,0,1-.244.649.935.935,0,0,1-.675.232.949.949,0,0,1-.679-.232A.854.854,0,0,1,1-12.185a.845.845,0,0,1,.244-.645.946.946,0,0,1,.679-.233Z" transform="translate(-0.998 13.065)" fill="#fff"/>
      </g>
      <g id="Groupe_234" data-name="Groupe 234" transform="translate(31.801 64.231)">
        <path id="Tracé_252" data-name="Tracé 252" d="M-.422-17.066H.113v1.644a.735.735,0,0,1-.162.513.6.6,0,0,1-.468.178H-.782v-.351h.094a.254.254,0,0,0,.207-.07.447.447,0,0,0,.058-.271Zm0-.653H.113v.437H-.422Z" transform="translate(0.782 17.719)" fill="#fff"/>
      </g>
      <g id="Groupe_235" data-name="Groupe 235" transform="translate(33.085 64.841)">
        <path id="Tracé_253" data-name="Tracé 253" d="M2.8-12.189v.152H1.545a.4.4,0,0,0,.133.283.509.509,0,0,0,.331.094,1.283,1.283,0,0,0,.345-.049,1.752,1.752,0,0,0,.365-.154v.413a2.319,2.319,0,0,1-.382.109,1.975,1.975,0,0,1-.38.037,1.009,1.009,0,0,1-.706-.23A.839.839,0,0,1,1-12.185a.844.844,0,0,1,.246-.642.952.952,0,0,1,.681-.237.848.848,0,0,1,.63.238.861.861,0,0,1,.238.636Zm-.55-.178a.338.338,0,0,0-.09-.246.3.3,0,0,0-.232-.094.366.366,0,0,0-.252.088.411.411,0,0,0-.121.252Z" transform="translate(-0.998 13.065)" fill="#fff"/>
      </g>
      <g id="Groupe_236" data-name="Groupe 236" transform="translate(35.164 64.841)">
        <path id="Tracé_254" data-name="Tracé 254" d="M2.479-12.971v.437a.834.834,0,0,0-.221-.111.706.706,0,0,0-.228-.037.459.459,0,0,0-.349.132.507.507,0,0,0-.125.365.509.509,0,0,0,.125.367.458.458,0,0,0,.349.133.763.763,0,0,0,.238-.037.74.74,0,0,0,.209-.113v.439a1.408,1.408,0,0,1-.254.07,1.532,1.532,0,0,1-.26.023,1.018,1.018,0,0,1-.71-.232A.836.836,0,0,1,1-12.184a.827.827,0,0,1,.254-.645,1.014,1.014,0,0,1,.71-.234,1.51,1.51,0,0,1,.26.023,1.529,1.529,0,0,1,.254.07Z" transform="translate(-0.998 13.065)" fill="#fff"/>
      </g>
      <g id="Groupe_237" data-name="Groupe 237" transform="translate(36.89 64.407)">
        <path id="Tracé_255" data-name="Tracé 255" d="M1.112-16.375v.476h.552v.382H1.112v.71a.2.2,0,0,0,.047.158.292.292,0,0,0,.185.041h.275v.384H1.16a.629.629,0,0,1-.451-.133.629.629,0,0,1-.133-.451v-.709H.311V-15.9H.576v-.476Z" transform="translate(-0.311 16.375)" fill="#fff"/>
      </g>
    </g>
  </g>
</svg>
