<svg xmlns="http://www.w3.org/2000/svg" width="232.422" height="42.456" viewBox="0 0 232.422 42.456">
  <path id="Logo" d="M26.855-1.88,25.806.488A7.44,7.44,0,0,1,24.561.61,18,18,0,0,1,21.655.293q-1.318-.244-2.625-.6T15.649-1.318q-1.685-.537-3.345-1A10.718,10.718,0,0,1,8.74-.085a11.3,11.3,0,0,1-4.1.793A7.454,7.454,0,0,1,.793-.159,2.591,2.591,0,0,1-.659-2.441,2.613,2.613,0,0,1,.977-4.81,9.609,9.609,0,0,1,5.4-5.664a25.606,25.606,0,0,1,7.1,1.147,13.894,13.894,0,0,0,1.184-2.661,38.6,38.6,0,0,0,.964-3.857l1.733-8.154q.757-3.54,1.4-5.518a17.163,17.163,0,0,1,1.5-3.418,12.043,12.043,0,0,1,1.855-2.417,8.434,8.434,0,0,1,2.173-1.611,4.893,4.893,0,0,1,2.2-.562,3.788,3.788,0,0,1,2.051.549,3.423,3.423,0,0,1,1.331,1.587,5.98,5.98,0,0,1,.452,2.4,13.832,13.832,0,0,1-.464,3.149,19.81,19.81,0,0,1-1.2,3.516l-2.271.342a22.976,22.976,0,0,0,1.709-4.114,13.076,13.076,0,0,0,.684-3.748,3.538,3.538,0,0,0-.61-2.222,2.125,2.125,0,0,0-1.782-.781q-2.515,0-4.2,3.32a14.256,14.256,0,0,0-.879,2.185q-.342,1.111-.9,3.674L17.261-12.671a35.057,35.057,0,0,1-1.465,5.2,12.977,12.977,0,0,1-1.929,3.394l.61.2q3.687,1.221,5.92,1.746a17.27,17.27,0,0,0,3.87.525A14.265,14.265,0,0,0,26.855-1.88Zm-15.7-.806-.586-.171A25.316,25.316,0,0,0,3.882-4.175Q.2-4.175.2-2.246.2-1.27,1.465-.6a6.8,6.8,0,0,0,3.2.671A8.958,8.958,0,0,0,8.228-.659,8.67,8.67,0,0,0,11.157-2.686Zm27.2-1.1.439.366A11.493,11.493,0,0,1,35.84-.525a5.789,5.789,0,0,1-3.1.891A4.079,4.079,0,0,1,29.565-.952a5,5,0,0,1-1.2-3.491A9.7,9.7,0,0,1,29.529-8.9a11.993,11.993,0,0,1,2.905-3.735,5.388,5.388,0,0,1,3.455-1.477,2.361,2.361,0,0,1,1.648.586,1.949,1.949,0,0,1,.647,1.514,5.258,5.258,0,0,1-2.051,3.76,16.957,16.957,0,0,1-5.591,3.2,3.569,3.569,0,0,0-.024.439,4.023,4.023,0,0,0,.928,2.747A3.031,3.031,0,0,0,33.838-.806a3.938,3.938,0,0,0,2.222-.72A10.735,10.735,0,0,0,38.354-3.784ZM30.542-5.64a13.108,13.108,0,0,0,4.053-2.612,8.911,8.911,0,0,0,1.538-2.1,4.462,4.462,0,0,0,.586-2.026q0-1.147-1.05-1.147-1.587,0-3.21,2.5A12,12,0,0,0,30.542-5.64ZM65.527-.415l-.122.024a14.379,14.379,0,0,1-4.663.781A10.749,10.749,0,0,1,56.58-.415a9.024,9.024,0,0,1-3.308-2.332A10.4,10.4,0,0,1,51.184-6.4a14.284,14.284,0,0,1-.72-4.614,22.434,22.434,0,0,1,1.489-8.008,24.755,24.755,0,0,1,4-6.995,19.873,19.873,0,0,1,5.725-4.846,13.358,13.358,0,0,1,6.555-1.782,10.246,10.246,0,0,1,5.469,1.453,9.771,9.771,0,0,1,3.687,4.138,13.845,13.845,0,0,1,1.318,6.177,21.771,21.771,0,0,1-1.5,7.813,25.286,25.286,0,0,1-4.1,7.092A18.154,18.154,0,0,1,67.334-1.2l.342.22.342.22A37.574,37.574,0,0,0,71.46,1.282,14.753,14.753,0,0,0,74.1,2.356a11.42,11.42,0,0,0,2.441.4L74.731,4.59a6.665,6.665,0,0,1-1.978-.5,17.943,17.943,0,0,1-2.49-1.306q-1.44-.879-3.3-2.2L66.26.1Zm-.854-.61a7.627,7.627,0,0,0-4.248-1.782A2.606,2.606,0,0,0,57.886-1.2a8.384,8.384,0,0,0,3.564.757A8.724,8.724,0,0,0,64.673-1.025ZM57.4-1.465a5.348,5.348,0,0,1,1.648-1.868,3.62,3.62,0,0,1,2.039-.623,9.469,9.469,0,0,1,4.932,1.9l.171.1a.153.153,0,0,0,.061.037.359.359,0,0,1,.11.085,17.411,17.411,0,0,0,3.918-3.333,18.337,18.337,0,0,0,2.893-4.553A27.188,27.188,0,0,0,74.6-13.623a35.992,35.992,0,0,0,.94-4.272,25.9,25.9,0,0,0,.342-4,14.3,14.3,0,0,0-.562-4.15,8.714,8.714,0,0,0-1.587-3.088,7,7,0,0,0-2.539-1.917,8.341,8.341,0,0,0-3.467-.684,9.745,9.745,0,0,0-4.016.891,12.758,12.758,0,0,0-3.735,2.612,18.82,18.82,0,0,0-3.137,4.187,27.492,27.492,0,0,0-2.576,6.592,27.926,27.926,0,0,0-.989,7.031,13.993,13.993,0,0,0,.5,3.821A10.087,10.087,0,0,0,55.2-3.516,6.906,6.906,0,0,0,57.4-1.465ZM83.984-14.282,81.616-4.834A9.122,9.122,0,0,0,81.3-2.686a1.8,1.8,0,0,0,.537,1.367,1.932,1.932,0,0,0,1.392.513q2.075,0,4.321-3.394l.1-.146q.049-.244.073-.391l1.538-8.545,2.393-1L89.5-6.25a12.8,12.8,0,0,0-.537,3.174,2.624,2.624,0,0,0,.269,1.27.8.8,0,0,0,.708.488q.757,0,2.417-1.807l.391.342-.244.269A23.4,23.4,0,0,1,90.454-.305a1.937,1.937,0,0,1-1.221.574A1.526,1.526,0,0,1,87.952-.5a3.322,3.322,0,0,1-.525-1.917q0-.366.024-.684Q84.912.269,82.422.269a2.741,2.741,0,0,1-1.99-.72,2.544,2.544,0,0,1-.745-1.917,11.907,11.907,0,0,1,.269-2.271l1.66-8.643Zm23.877-.146-2.295,8.936A10.132,10.132,0,0,0,105.2-3.2a2.45,2.45,0,0,0,.317,1.27.914.914,0,0,0,.781.537q.708,0,2.344-1.733l.342.342-.269.317a22.117,22.117,0,0,1-1.99,2.087,2.008,2.008,0,0,1-1.208.6A1.644,1.644,0,0,1,104.163-.6a3.212,3.212,0,0,1-.574-1.892,23.216,23.216,0,0,1,.586-3.54l.2-.928a18.122,18.122,0,0,1-2.417,4.028Q99.414.293,97.095.293a2.669,2.669,0,0,1-2.2-1,4.159,4.159,0,0,1-.806-2.686A10.444,10.444,0,0,1,95.4-8.2a13.3,13.3,0,0,1,3.247-4.138,5.96,5.96,0,0,1,3.772-1.624,3.237,3.237,0,0,1,2.881,1.416l.269-.928ZM105.054-11.3a2.826,2.826,0,0,0-.989-1.453,2.584,2.584,0,0,0-1.6-.525,3.647,3.647,0,0,0-2.271.989A9.808,9.808,0,0,0,98-9.546,15.968,15.968,0,0,0,96.692-6.47a9.763,9.763,0,0,0-.525,2.783,3.466,3.466,0,0,0,.476,1.953A1.537,1.537,0,0,0,98-1.025a3.672,3.672,0,0,0,2.344-1.05,12.665,12.665,0,0,0,2.417-3,11.28,11.28,0,0,0,1.147-2.246q.415-1.123.928-3.125Zm10.889-12.549a1.387,1.387,0,0,1,1.025.391,1.387,1.387,0,0,1,.391,1.025,1.393,1.393,0,0,1-.415,1.025,1.364,1.364,0,0,1-1,.415,1.379,1.379,0,0,1-1-.439,1.379,1.379,0,0,1-.439-1,1.364,1.364,0,0,1,.415-1A1.393,1.393,0,0,1,115.942-23.853Zm-.708,9.57L113.086-6.25a12.8,12.8,0,0,0-.537,3.174,2.624,2.624,0,0,0,.269,1.27.8.8,0,0,0,.708.488q.757,0,2.417-1.807l.391.342-.244.269a23.4,23.4,0,0,1-2.051,2.209,1.937,1.937,0,0,1-1.221.574A1.526,1.526,0,0,1,111.536-.5a3.322,3.322,0,0,1-.525-1.917,14.377,14.377,0,0,1,.293-2.319l1.538-8.545Zm40.088,3.467L153,0H151.44a19.105,19.105,0,0,0-2.893-5.591,19.367,19.367,0,0,0-4.5-4.468,27.619,27.619,0,0,1-3.711,4.639A25.478,25.478,0,0,1,135.974-1.9a20.975,20.975,0,0,1-4.8,2.271,15.808,15.808,0,0,1-4.883.806,8.921,8.921,0,0,1-1.416-.122l.781-1.855a18.94,18.94,0,0,0,1.953.146,16.408,16.408,0,0,0,11.914-5.225,28.622,28.622,0,0,0,2.185-2.478,39.428,39.428,0,0,0,2.307-3.284q2.661-4.175,4.541-7.812l2.295-4.419a50,50,0,0,1,4.175-7.043,3.954,3.954,0,0,1,2.905-1.843,1.665,1.665,0,0,1,.818.2,1.337,1.337,0,0,1,.549.574,1.809,1.809,0,0,1,.2.842,5.991,5.991,0,0,1-.122,1q-.122.879-.146.952l-3.735,17.554h1.733l-.171.83Zm-2.295,0h-8.521l.1.073a26.5,26.5,0,0,1,3.735,3.418,29.206,29.206,0,0,1,3.052,4.2Zm-7.861-.83H153.2l3.467-16.6q.171-.806.171-.83a3.093,3.093,0,0,0,.146-.879q0-.61-.537-.61-.659,0-1.587,1.392t-3.223,5.713q-.342.659-1.392,2.661-.879,1.587-.952,1.758l-2.344,4.272Q145.483-12.109,145.166-11.646ZM159.082.244l2.588-13.525,2.319-1-2.1,8.96a27.313,27.313,0,0,1,4.028-6.494q2-2.222,3.833-2.222a1.917,1.917,0,0,1,1.465.6,2.242,2.242,0,0,1,.562,1.6,6.768,6.768,0,0,1-.269,1.587l-.244,1.025-.732,2.979-.244.952a10.065,10.065,0,0,0-.366,2.246,2.551,2.551,0,0,0,.269,1.257.8.8,0,0,0,.708.476q.757,0,2.417-1.807l.391.342-.244.269a23.4,23.4,0,0,1-2.051,2.209,1.937,1.937,0,0,1-1.221.574A1.526,1.526,0,0,1,168.909-.5a3.322,3.322,0,0,1-.525-1.917,13.585,13.585,0,0,1,.293-2.319l.952-5.176a12.724,12.724,0,0,0,.2-1.709,1.058,1.058,0,0,0-.269-.781.99.99,0,0,0-.732-.269q-1.685,0-4.15,3.613a22.989,22.989,0,0,0-1.978,3.43,45.115,45.115,0,0,0-1.758,4.7l-.22.659Zm20.63-13.281-1.855,8.13a10.4,10.4,0,0,0-.293,1.9,2.253,2.253,0,0,0,.415,1.416,1.32,1.32,0,0,0,1.1.537,2.085,2.085,0,0,0,1.208-.378A12.488,12.488,0,0,0,181.958-3l.293-.293.366.366a15.319,15.319,0,0,1-2.4,2.478,3.172,3.172,0,0,1-1.892.72A2.4,2.4,0,0,1,176.453-.5a2.887,2.887,0,0,1-.7-2.014,14.306,14.306,0,0,1,.366-2.686l1.587-7.837h-2.344l.171-.83h2.344l1.367-6.592,2.344-.928-1.709,7.52h3.955l-.171.83ZM189.6-23.853a1.387,1.387,0,0,1,1.025.391,1.386,1.386,0,0,1,.391,1.025,1.393,1.393,0,0,1-.415,1.025,1.364,1.364,0,0,1-1,.415,1.379,1.379,0,0,1-1-.439,1.379,1.379,0,0,1-.439-1,1.364,1.364,0,0,1,.415-1A1.393,1.393,0,0,1,189.6-23.853Zm-.708,9.57L186.743-6.25a12.8,12.8,0,0,0-.537,3.174,2.624,2.624,0,0,0,.269,1.27.8.8,0,0,0,.708.488q.757,0,2.417-1.807l.391.342-.244.269A23.4,23.4,0,0,1,187.7-.305a1.937,1.937,0,0,1-1.221.574A1.526,1.526,0,0,1,185.193-.5a3.322,3.322,0,0,1-.525-1.917,14.377,14.377,0,0,1,.293-2.319l1.538-8.545Zm16.04-.146L198.853,9.692h-1.294l3.394-15.5a17.95,17.95,0,0,1-2.515,3.784Q196.411.391,194.409.391a2.853,2.853,0,0,1-2.332-1.062,4.2,4.2,0,0,1-.867-2.747,11.381,11.381,0,0,1,2.612-6.836,10.965,10.965,0,0,1,2.82-2.722,5.451,5.451,0,0,1,2.917-.891,3.76,3.76,0,0,1,2.93,1.245l.2-.854ZM202.2-11.4a2.545,2.545,0,0,0-2.49-1.782,3.637,3.637,0,0,0-2.136.818,7.314,7.314,0,0,0-1.892,2.087,17.068,17.068,0,0,0-1.7,3.613,10.766,10.766,0,0,0-.647,3.345,2.831,2.831,0,0,0,.537,1.819,1.75,1.75,0,0,0,1.44.671,3.817,3.817,0,0,0,2.527-1.392,14.593,14.593,0,0,0,2.539-3.662A17.707,17.707,0,0,0,202-10.474Zm9.033-2.881-2.368,9.448a9.121,9.121,0,0,0-.317,2.148,1.8,1.8,0,0,0,.537,1.367,1.932,1.932,0,0,0,1.392.513q2.075,0,4.321-3.394l.1-.146q.049-.244.073-.391l1.538-8.545,2.393-1L216.748-6.25a12.8,12.8,0,0,0-.537,3.174,2.624,2.624,0,0,0,.269,1.27.8.8,0,0,0,.708.488q.757,0,2.417-1.807l.391.342-.244.269A23.4,23.4,0,0,1,217.7-.305a1.937,1.937,0,0,1-1.221.574A1.526,1.526,0,0,1,215.2-.5a3.322,3.322,0,0,1-.525-1.917q0-.366.024-.684Q212.158.269,209.668.269a2.741,2.741,0,0,1-1.99-.72,2.544,2.544,0,0,1-.745-1.917,11.908,11.908,0,0,1,.269-2.271l1.66-8.643Zm20.093,10.5.439.366a11.493,11.493,0,0,1-2.954,2.893,5.789,5.789,0,0,1-3.1.891,4.079,4.079,0,0,1-3.174-1.318,5,5,0,0,1-1.2-3.491A9.7,9.7,0,0,1,222.5-8.9a11.993,11.993,0,0,1,2.905-3.735,5.388,5.388,0,0,1,3.455-1.477,2.361,2.361,0,0,1,1.648.586,1.949,1.949,0,0,1,.647,1.514,5.258,5.258,0,0,1-2.051,3.76,16.957,16.957,0,0,1-5.591,3.2,3.568,3.568,0,0,0-.024.439,4.023,4.023,0,0,0,.928,2.747,3.031,3.031,0,0,0,2.393,1.062,3.938,3.938,0,0,0,2.222-.72A10.735,10.735,0,0,0,231.323-3.784ZM223.511-5.64a13.108,13.108,0,0,0,4.053-2.612,8.911,8.911,0,0,0,1.538-2.1,4.462,4.462,0,0,0,.586-2.026q0-1.147-1.05-1.147-1.587,0-3.21,2.5A12,12,0,0,0,223.511-5.64Z" transform="translate(0.659 32.764)"/>
</svg>
