<svg xmlns="http://www.w3.org/2000/svg" xmlns:xlink="http://www.w3.org/1999/xlink" width="66.23" height="78.582" viewBox="0 0 66.23 78.582">
  <defs>
    <clipPath id="clip-path">
      <rect x="3" y="-6" width="66.23" height="78.582" fill="none"/>
    </clipPath>
  </defs>
  <g id="logout" transform="translate(-3 6)" clip-path="url(#clip-path)" style="isolation: isolate">
    <g id="noun-logout-4311153" transform="translate(-70.531 -14)">
      <path id="Tracé_175" data-name="Tracé 175" d="M158.484,247.272a5.883,5.883,0,0,1,6.132-1.48,6.06,6.06,0,0,1,2.679-4.159,20.149,20.149,0,0,0-9.516-9.234,16.882,16.882,0,0,1-18.467,0,20,20,0,0,0-11.63,18.115v5.357a3.459,3.459,0,0,0,3.454,3.454H153.9v-.564a16.32,16.32,0,0,1,4.581-11.489Z" transform="translate(-49.957 -190.911)"/>
      <path id="Tracé_176" data-name="Tracé 176" d="M200.922,40.573A13.287,13.287,0,1,0,187.6,27.322,13.311,13.311,0,0,0,200.922,40.573Z" transform="translate(-102.333)"/>
      <path id="Tracé_177" data-name="Tracé 177" d="M387.048,365.58a2.442,2.442,0,1,0-3.454,3.454,7.774,7.774,0,0,1,2.256,5.568,8.247,8.247,0,0,1-16.494,0,7.772,7.772,0,0,1,2.256-5.568,2.513,2.513,0,0,0,0-3.454,2.446,2.446,0,0,0-3.454,0,12.751,12.751,0,0,0-3.595,8.952,13.112,13.112,0,1,0,22.484-8.952Z" transform="translate(-257.023 -306.681)"/>
      <path id="Tracé_178" data-name="Tracé 178" d="M451.517,341.7a2.376,2.376,0,0,0,2.4-2.4V329.44a2.4,2.4,0,1,0-4.793,0v9.868A2.422,2.422,0,0,0,451.517,341.7Z" transform="translate(-330.937 -273.642)"/>
      <g id="Groupe_164" data-name="Groupe 164" transform="translate(70.64 90.681)">
        <path id="Tracé_179" data-name="Tracé 179" d="M3.578-18.307a1.675,1.675,0,0,1-.382.142,1.715,1.715,0,0,1-.413.049,1.411,1.411,0,0,1-1.017-.358,1.284,1.284,0,0,1-.376-.974,1.281,1.281,0,0,1,.376-.974,1.408,1.408,0,0,1,1.017-.36,1.715,1.715,0,0,1,.413.049,1.674,1.674,0,0,1,.382.142v.531a1.512,1.512,0,0,0-.364-.183,1.2,1.2,0,0,0-.378-.059.706.706,0,0,0-.557.228.9.9,0,0,0-.2.625.907.907,0,0,0,.2.625.708.708,0,0,0,.557.226,1.228,1.228,0,0,0,.378-.057,1.469,1.469,0,0,0,.364-.185Z" transform="translate(-1.391 20.781)"/>
      </g>
      <g id="Groupe_165" data-name="Groupe 165" transform="translate(73.348 91.322)">
        <path id="Tracé_180" data-name="Tracé 180" d="M3.791-15.115a.851.851,0,0,0-.163-.055.673.673,0,0,0-.159-.02.449.449,0,0,0-.366.153.655.655,0,0,0-.128.435v.889H2.359V-15.64h.616v.317a.782.782,0,0,1,.271-.275.734.734,0,0,1,.37-.088.655.655,0,0,1,.067,0l.106.01Z" transform="translate(-2.359 15.687)"/>
      </g>
      <g id="Groupe_166" data-name="Groupe 166" transform="translate(74.941 91.322)">
        <path id="Tracé_181" data-name="Tracé 181" d="M3.272-14.683v.177H1.831a.458.458,0,0,0,.157.324.581.581,0,0,0,.376.108,1.45,1.45,0,0,0,.4-.057A2.1,2.1,0,0,0,3.18-14.3v.474a2.6,2.6,0,0,1-.437.124,2.266,2.266,0,0,1-.437.043,1.163,1.163,0,0,1-.814-.266.961.961,0,0,1-.289-.745.971.971,0,0,1,.285-.741,1.088,1.088,0,0,1,.783-.271A.98.98,0,0,1,3-15.412a.988.988,0,0,1,.273.73Zm-.633-.2a.39.39,0,0,0-.1-.281.353.353,0,0,0-.267-.108.42.42,0,0,0-.291.1.461.461,0,0,0-.14.289Z" transform="translate(-1.203 15.688)"/>
      </g>
      <g id="Groupe_167" data-name="Groupe 167" transform="translate(77.331 91.322)">
        <path id="Tracé_182" data-name="Tracé 182" d="M2.212-14.58a.531.531,0,0,0-.291.065.217.217,0,0,0-.1.193.229.229,0,0,0,.079.185.329.329,0,0,0,.216.065.389.389,0,0,0,.293-.124.436.436,0,0,0,.12-.313v-.071Zm.94-.232v1.1h-.62V-14a.8.8,0,0,1-.279.256.834.834,0,0,1-.378.079.685.685,0,0,1-.486-.173.593.593,0,0,1-.187-.454.557.557,0,0,1,.232-.5,1.325,1.325,0,0,1,.734-.159h.364V-15a.228.228,0,0,0-.116-.212.731.731,0,0,0-.36-.069,1.656,1.656,0,0,0-.37.039,1.276,1.276,0,0,0-.315.118v-.47a3.748,3.748,0,0,1,.4-.073,3.232,3.232,0,0,1,.4-.026,1.112,1.112,0,0,1,.751.206.852.852,0,0,1,.232.669Z" transform="translate(-1.203 15.688)"/>
      </g>
      <g id="Groupe_168" data-name="Groupe 168" transform="translate(79.605 90.822)">
        <path id="Tracé_183" data-name="Tracé 183" d="M1.3-19.656v.547h.635v.441H1.3v.818a.238.238,0,0,0,.053.181.331.331,0,0,0,.21.047h.317v.441H1.35a.723.723,0,0,1-.519-.151.719.719,0,0,1-.151-.517v-.818h-.3v-.441h.3v-.547Z" transform="translate(-0.375 19.656)"/>
      </g>
      <g id="Groupe_169" data-name="Groupe 169" transform="translate(81.394 91.322)">
        <path id="Tracé_184" data-name="Tracé 184" d="M3.272-14.683v.177H1.831a.458.458,0,0,0,.157.324.581.581,0,0,0,.376.108,1.45,1.45,0,0,0,.4-.057A2.1,2.1,0,0,0,3.18-14.3v.474a2.6,2.6,0,0,1-.437.124,2.266,2.266,0,0,1-.437.043,1.163,1.163,0,0,1-.814-.266.961.961,0,0,1-.289-.745.971.971,0,0,1,.285-.741,1.088,1.088,0,0,1,.783-.271A.98.98,0,0,1,3-15.412a.988.988,0,0,1,.273.73Zm-.633-.2a.39.39,0,0,0-.1-.281.353.353,0,0,0-.267-.108.42.42,0,0,0-.291.1.461.461,0,0,0-.14.289Z" transform="translate(-1.203 15.688)"/>
      </g>
      <g id="Groupe_170" data-name="Groupe 170" transform="translate(83.792 90.618)">
        <path id="Tracé_185" data-name="Tracé 185" d="M2.713-20.249v-1.033h.62V-18.6h-.62v-.279a.811.811,0,0,1-.279.25.775.775,0,0,1-.356.079.717.717,0,0,1-.584-.283,1.121,1.121,0,0,1-.228-.728,1.125,1.125,0,0,1,.228-.73.717.717,0,0,1,.584-.283.752.752,0,0,1,.354.081.853.853,0,0,1,.281.248ZM2.308-19a.349.349,0,0,0,.3-.144.718.718,0,0,0,.1-.421.71.71,0,0,0-.1-.419.349.349,0,0,0-.3-.146.347.347,0,0,0-.3.146.706.706,0,0,0-.1.419.714.714,0,0,0,.1.421A.348.348,0,0,0,2.308-19Z" transform="translate(-1.266 21.281)"/>
      </g>
      <g id="Groupe_171" data-name="Groupe 171" transform="translate(87.679 90.618)">
        <path id="Tracé_186" data-name="Tracé 186" d="M3.384-19a.351.351,0,0,0,.3-.144.718.718,0,0,0,.1-.421.71.71,0,0,0-.1-.419.35.35,0,0,0-.3-.146.354.354,0,0,0-.3.146.712.712,0,0,0-.1.419.71.71,0,0,0,.1.419.353.353,0,0,0,.3.146Zm-.409-1.249a.873.873,0,0,1,.281-.248.763.763,0,0,1,.356-.081.72.72,0,0,1,.586.283,1.128,1.128,0,0,1,.228.73,1.124,1.124,0,0,1-.228.728.72.72,0,0,1-.586.283.781.781,0,0,1-.356-.079.852.852,0,0,1-.281-.25v.279H2.359v-2.679h.616Z" transform="translate(-2.359 21.281)"/>
      </g>
      <g id="Groupe_172" data-name="Groupe 172" transform="translate(89.948 91.369)">
        <path id="Tracé_187" data-name="Tracé 187" d="M.344-15.312H.959L1.479-14l.441-1.308h.616l-.81,2.11a1.03,1.03,0,0,1-.285.448.669.669,0,0,1-.429.13H.653v-.405H.845a.4.4,0,0,0,.228-.051.322.322,0,0,0,.112-.177L1.2-13.31Z" transform="translate(-0.344 15.312)"/>
      </g>
      <g id="Groupe_173" data-name="Groupe 173" transform="translate(93.447 90.728)">
        <path id="Tracé_188" data-name="Tracé 188" d="M2-18.306H.97l-.165.468H.141l.952-2.568h.789l.952,2.568H2.168Zm-.869-.476h.7L1.488-19.8Z" transform="translate(-0.141 20.406)"/>
      </g>
      <g id="Groupe_174" data-name="Groupe 174" transform="translate(96.316 90.618)">
        <path id="Tracé_189" data-name="Tracé 189" d="M2.713-20.249v-1.033h.62V-18.6h-.62v-.279a.811.811,0,0,1-.279.25.775.775,0,0,1-.356.079.717.717,0,0,1-.584-.283,1.121,1.121,0,0,1-.228-.728,1.125,1.125,0,0,1,.228-.73.717.717,0,0,1,.584-.283.752.752,0,0,1,.354.081.853.853,0,0,1,.281.248ZM2.308-19a.349.349,0,0,0,.3-.144.718.718,0,0,0,.1-.421.71.71,0,0,0-.1-.419.349.349,0,0,0-.3-.146.347.347,0,0,0-.3.146.706.706,0,0,0-.1.419.714.714,0,0,0,.1.421A.348.348,0,0,0,2.308-19Z" transform="translate(-1.266 21.281)"/>
      </g>
      <g id="Groupe_175" data-name="Groupe 175" transform="translate(98.976 91.322)">
        <path id="Tracé_190" data-name="Tracé 190" d="M3.791-15.115a.851.851,0,0,0-.163-.055.673.673,0,0,0-.159-.02.449.449,0,0,0-.366.153.655.655,0,0,0-.128.435v.889H2.359V-15.64h.616v.317a.782.782,0,0,1,.271-.275.734.734,0,0,1,.37-.088.655.655,0,0,1,.067,0l.106.01Z" transform="translate(-2.359 15.687)"/>
      </g>
      <g id="Groupe_176" data-name="Groupe 176" transform="translate(100.715 90.618)">
        <path id="Tracé_191" data-name="Tracé 191" d="M2.359-20.53h.616V-18.6H2.359Zm0-.751h.616v.5H2.359Z" transform="translate(-2.359 21.281)"/>
      </g>
      <g id="Groupe_177" data-name="Groupe 177" transform="translate(101.777 91.322)">
        <path id="Tracé_192" data-name="Tracé 192" d="M3.272-14.683v.177H1.831a.458.458,0,0,0,.157.324.581.581,0,0,0,.376.108,1.45,1.45,0,0,0,.4-.057A2.1,2.1,0,0,0,3.18-14.3v.474a2.6,2.6,0,0,1-.437.124,2.266,2.266,0,0,1-.437.043,1.163,1.163,0,0,1-.814-.266.961.961,0,0,1-.289-.745.971.971,0,0,1,.285-.741,1.088,1.088,0,0,1,.783-.271A.98.98,0,0,1,3-15.412a.988.988,0,0,1,.273.73Zm-.633-.2a.39.39,0,0,0-.1-.281.353.353,0,0,0-.267-.108.42.42,0,0,0-.291.1.461.461,0,0,0-.14.289Z" transform="translate(-1.203 15.688)"/>
      </g>
      <g id="Groupe_178" data-name="Groupe 178" transform="translate(104.313 91.322)">
        <path id="Tracé_193" data-name="Tracé 193" d="M4.3-14.887v1.174h-.62v-.9a3.3,3.3,0,0,0-.012-.344.37.37,0,0,0-.039-.14.251.251,0,0,0-.1-.092.289.289,0,0,0-.14-.033.356.356,0,0,0-.3.149.673.673,0,0,0-.11.411v.948H2.359V-15.64h.616v.281a.984.984,0,0,1,.3-.248.749.749,0,0,1,.346-.081.625.625,0,0,1,.507.206.9.9,0,0,1,.173.594Z" transform="translate(-2.359 15.687)"/>
      </g>
      <g id="Groupe_179" data-name="Groupe 179" transform="translate(107.927 90.681)">
        <path id="Tracé_194" data-name="Tracé 194" d="M3.578-18.307a1.675,1.675,0,0,1-.382.142,1.715,1.715,0,0,1-.413.049,1.411,1.411,0,0,1-1.017-.358,1.284,1.284,0,0,1-.376-.974,1.281,1.281,0,0,1,.376-.974,1.408,1.408,0,0,1,1.017-.36,1.715,1.715,0,0,1,.413.049,1.674,1.674,0,0,1,.382.142v.531a1.512,1.512,0,0,0-.364-.183,1.2,1.2,0,0,0-.378-.059.706.706,0,0,0-.557.228.9.9,0,0,0-.2.625.907.907,0,0,0,.2.625.708.708,0,0,0,.557.226,1.228,1.228,0,0,0,.378-.057,1.469,1.469,0,0,0,.364-.185Z" transform="translate(-1.391 20.781)"/>
      </g>
      <g id="Groupe_180" data-name="Groupe 180" transform="translate(110.489 91.322)">
        <path id="Tracé_195" data-name="Tracé 195" d="M2.265-15.247a.363.363,0,0,0-.313.148.709.709,0,0,0-.108.425.709.709,0,0,0,.108.425.364.364,0,0,0,.313.146.356.356,0,0,0,.307-.146.713.713,0,0,0,.108-.425.713.713,0,0,0-.108-.425A.355.355,0,0,0,2.265-15.247Zm0-.441a1.074,1.074,0,0,1,.777.269.982.982,0,0,1,.279.743.985.985,0,0,1-.279.743,1.077,1.077,0,0,1-.777.267,1.086,1.086,0,0,1-.781-.267.979.979,0,0,1-.281-.743.976.976,0,0,1,.281-.743A1.082,1.082,0,0,1,2.265-15.688Z" transform="translate(-1.203 15.688)"/>
      </g>
      <g id="Groupe_181" data-name="Groupe 181" transform="translate(112.919 91.326)">
        <path id="Tracé_196" data-name="Tracé 196" d="M2.308-15.212a.347.347,0,0,0-.3.146.706.706,0,0,0-.1.419.714.714,0,0,0,.1.421.348.348,0,0,0,.3.144.349.349,0,0,0,.3-.144.718.718,0,0,0,.1-.421.71.71,0,0,0-.1-.419A.349.349,0,0,0,2.308-15.212Zm.405,1.247a.811.811,0,0,1-.279.25.775.775,0,0,1-.356.079.717.717,0,0,1-.584-.283,1.121,1.121,0,0,1-.228-.728,1.118,1.118,0,0,1,.228-.728.719.719,0,0,1,.584-.281.757.757,0,0,1,.356.081.824.824,0,0,1,.279.248v-.285h.62v2.661h-.62Z" transform="translate(-1.266 15.656)"/>
      </g>
      <g id="Groupe_182" data-name="Groupe 182" transform="translate(115.558 91.369)">
        <path id="Tracé_197" data-name="Tracé 197" d="M2.188-14.137v-1.176h.62v.193c0,.105,0,.236,0,.393s0,.263,0,.315a3.312,3.312,0,0,0,.012.336.388.388,0,0,0,.041.148.271.271,0,0,0,.1.094.3.3,0,0,0,.14.031.358.358,0,0,0,.3-.148.675.675,0,0,0,.11-.411v-.952h.616v1.927H3.509v-.279a.968.968,0,0,1-.3.25.756.756,0,0,1-.344.079.63.63,0,0,1-.507-.2.891.891,0,0,1-.175-.6Z" transform="translate(-2.188 15.313)"/>
      </g>
      <g id="Groupe_183" data-name="Groupe 183" transform="translate(117.943 91.322)">
        <path id="Tracé_198" data-name="Tracé 198" d="M3.272-14.683v.177H1.831a.458.458,0,0,0,.157.324.581.581,0,0,0,.376.108,1.45,1.45,0,0,0,.4-.057A2.1,2.1,0,0,0,3.18-14.3v.474a2.6,2.6,0,0,1-.437.124,2.266,2.266,0,0,1-.437.043,1.163,1.163,0,0,1-.814-.266.961.961,0,0,1-.289-.745.971.971,0,0,1,.285-.741,1.088,1.088,0,0,1,.783-.271A.98.98,0,0,1,3-15.412a.988.988,0,0,1,.273.73Zm-.633-.2a.39.39,0,0,0-.1-.281.353.353,0,0,0-.267-.108.42.42,0,0,0-.291.1.461.461,0,0,0-.14.289Z" transform="translate(-1.203 15.688)"/>
      </g>
      <g id="Groupe_184" data-name="Groupe 184" transform="translate(120.228 90.822)">
        <path id="Tracé_199" data-name="Tracé 199" d="M1.3-19.656v.547h.635v.441H1.3v.818a.238.238,0,0,0,.053.181.331.331,0,0,0,.21.047h.317v.441H1.35a.723.723,0,0,1-.519-.151.719.719,0,0,1-.151-.517v-.818h-.3v-.441h.3v-.547Z" transform="translate(-0.375 19.656)"/>
      </g>
      <g id="Groupe_185" data-name="Groupe 185" transform="translate(70.531 94.142)">
        <path id="Tracé_200" data-name="Tracé 200" d="M2.028-21.281v.405h-.34a.276.276,0,0,0-.183.047.217.217,0,0,0-.051.165v.134h.527v.441H1.454V-18.6H.838v-1.487H.531v-.441H.838v-.134a.583.583,0,0,1,.175-.466.819.819,0,0,1,.545-.151Z" transform="translate(-0.531 21.281)"/>
      </g>
      <g id="Groupe_186" data-name="Groupe 186" transform="translate(72.295 94.846)">
        <path id="Tracé_201" data-name="Tracé 201" d="M3.791-15.115a.851.851,0,0,0-.163-.055.673.673,0,0,0-.159-.02.449.449,0,0,0-.366.153.655.655,0,0,0-.128.435v.889H2.359V-15.64h.616v.317a.782.782,0,0,1,.271-.275.734.734,0,0,1,.37-.088.655.655,0,0,1,.067,0l.106.01Z" transform="translate(-2.359 15.687)"/>
      </g>
      <g id="Groupe_187" data-name="Groupe 187" transform="translate(73.888 94.846)">
        <path id="Tracé_202" data-name="Tracé 202" d="M2.265-15.247a.363.363,0,0,0-.313.148.709.709,0,0,0-.108.425.709.709,0,0,0,.108.425.364.364,0,0,0,.313.146.356.356,0,0,0,.307-.146.713.713,0,0,0,.108-.425.713.713,0,0,0-.108-.425A.355.355,0,0,0,2.265-15.247Zm0-.441a1.074,1.074,0,0,1,.777.269.982.982,0,0,1,.279.743.985.985,0,0,1-.279.743,1.077,1.077,0,0,1-.777.267,1.086,1.086,0,0,1-.781-.267.979.979,0,0,1-.281-.743.976.976,0,0,1,.281-.743A1.082,1.082,0,0,1,2.265-15.688Z" transform="translate(-1.203 15.688)"/>
      </g>
      <g id="Groupe_188" data-name="Groupe 188" transform="translate(76.45 94.846)">
        <path id="Tracé_203" data-name="Tracé 203" d="M4.118-15.32a.835.835,0,0,1,.277-.273.686.686,0,0,1,.354-.094.623.623,0,0,1,.505.206.891.891,0,0,1,.175.594v1.174H4.81v-1.05c0-.017,0-.04,0-.071a.548.548,0,0,0-.061-.3.212.212,0,0,0-.193-.092.307.307,0,0,0-.271.146.755.755,0,0,0-.1.417v.946h-.62v-1a.958.958,0,0,0-.055-.411.21.21,0,0,0-.2-.092.309.309,0,0,0-.273.146.743.743,0,0,0-.1.415v.948h-.62v-1.927h.62v.281a.8.8,0,0,1,.26-.246.653.653,0,0,1,.324-.083.654.654,0,0,1,.354.1.607.607,0,0,1,.232.271Z" transform="translate(-2.328 15.688)"/>
      </g>
      <g id="Groupe_189" data-name="Groupe 189" transform="translate(81.104 94.347)">
        <path id="Tracé_204" data-name="Tracé 204" d="M1.3-19.656v.547h.635v.441H1.3v.818a.238.238,0,0,0,.053.181.331.331,0,0,0,.21.047h.317v.441H1.35a.723.723,0,0,1-.519-.151.719.719,0,0,1-.151-.517v-.818h-.3v-.441h.3v-.547Z" transform="translate(-0.375 19.656)"/>
      </g>
      <g id="Groupe_190" data-name="Groupe 190" transform="translate(83.038 94.142)">
        <path id="Tracé_205" data-name="Tracé 205" d="M4.3-19.777V-18.6h-.62V-19.5a3.347,3.347,0,0,0-.012-.348.37.37,0,0,0-.039-.14.251.251,0,0,0-.1-.092.289.289,0,0,0-.14-.033.356.356,0,0,0-.3.149.673.673,0,0,0-.11.411v.948H2.359v-2.679h.616v1.033a.984.984,0,0,1,.3-.248.749.749,0,0,1,.346-.081.625.625,0,0,1,.507.206.9.9,0,0,1,.173.594Z" transform="translate(-2.359 21.281)"/>
      </g>
      <g id="Groupe_191" data-name="Groupe 191" transform="translate(85.402 94.846)">
        <path id="Tracé_206" data-name="Tracé 206" d="M3.272-14.683v.177H1.831a.458.458,0,0,0,.157.324.581.581,0,0,0,.376.108,1.45,1.45,0,0,0,.4-.057A2.1,2.1,0,0,0,3.18-14.3v.474a2.6,2.6,0,0,1-.437.124,2.266,2.266,0,0,1-.437.043,1.163,1.163,0,0,1-.814-.266.961.961,0,0,1-.289-.745.971.971,0,0,1,.285-.741,1.088,1.088,0,0,1,.783-.271A.98.98,0,0,1,3-15.412a.988.988,0,0,1,.273.73Zm-.633-.2a.39.39,0,0,0-.1-.281.353.353,0,0,0-.267-.108.42.42,0,0,0-.291.1.461.461,0,0,0-.14.289Z" transform="translate(-1.203 15.688)"/>
      </g>
      <g id="Groupe_192" data-name="Groupe 192" transform="translate(89.192 94.252)">
        <path id="Tracé_207" data-name="Tracé 207" d="M2.578-20.406h.739l.934,1.762v-1.762h.627v2.568H4.14L3.205-19.6v1.762H2.578Z" transform="translate(-2.578 20.406)"/>
      </g>
      <g id="Groupe_193" data-name="Groupe 193" transform="translate(91.968 94.846)">
        <path id="Tracé_208" data-name="Tracé 208" d="M2.265-15.247a.363.363,0,0,0-.313.148.709.709,0,0,0-.108.425.709.709,0,0,0,.108.425.364.364,0,0,0,.313.146.356.356,0,0,0,.307-.146.713.713,0,0,0,.108-.425.713.713,0,0,0-.108-.425A.355.355,0,0,0,2.265-15.247Zm0-.441a1.074,1.074,0,0,1,.777.269.982.982,0,0,1,.279.743.985.985,0,0,1-.279.743,1.077,1.077,0,0,1-.777.267,1.086,1.086,0,0,1-.781-.267.979.979,0,0,1-.281-.743.976.976,0,0,1,.281-.743A1.082,1.082,0,0,1,2.265-15.688Z" transform="translate(-1.203 15.688)"/>
      </g>
      <g id="Groupe_194" data-name="Groupe 194" transform="translate(94.514 94.893)">
        <path id="Tracé_209" data-name="Tracé 209" d="M2.188-14.137v-1.176h.62v.193c0,.105,0,.236,0,.393s0,.263,0,.315a3.312,3.312,0,0,0,.012.336.388.388,0,0,0,.041.148.271.271,0,0,0,.1.094.3.3,0,0,0,.14.031.358.358,0,0,0,.3-.148.675.675,0,0,0,.11-.411v-.952h.616v1.927H3.509v-.279a.968.968,0,0,1-.3.25.756.756,0,0,1-.344.079.63.63,0,0,1-.507-.2.891.891,0,0,1-.175-.6Z" transform="translate(-2.188 15.313)"/>
      </g>
      <g id="Groupe_195" data-name="Groupe 195" transform="translate(97.044 94.846)">
        <path id="Tracé_210" data-name="Tracé 210" d="M4.3-14.887v1.174h-.62v-.9a3.3,3.3,0,0,0-.012-.344.37.37,0,0,0-.039-.14.251.251,0,0,0-.1-.092.289.289,0,0,0-.14-.033.356.356,0,0,0-.3.149.673.673,0,0,0-.11.411v.948H2.359V-15.64h.616v.281a.984.984,0,0,1,.3-.248.749.749,0,0,1,.346-.081.625.625,0,0,1,.507.206.9.9,0,0,1,.173.594Z" transform="translate(-2.359 15.687)"/>
      </g>
      <g id="Groupe_196" data-name="Groupe 196" transform="translate(100.807 94.252)">
        <path id="Tracé_211" data-name="Tracé 211" d="M2.578-20.406h1.1a1.144,1.144,0,0,1,.751.218.757.757,0,0,1,.264.62.762.762,0,0,1-.264.621,1.144,1.144,0,0,1-.751.218H3.239v.891H2.578Zm.661.48v.718h.368a.428.428,0,0,0,.3-.094.337.337,0,0,0,.106-.266.334.334,0,0,0-.106-.266.435.435,0,0,0-.3-.092Z" transform="translate(-2.578 20.406)"/>
      </g>
      <g id="Groupe_197" data-name="Groupe 197" transform="translate(103.363 94.846)">
        <path id="Tracé_212" data-name="Tracé 212" d="M3.791-15.115a.851.851,0,0,0-.163-.055.673.673,0,0,0-.159-.02.449.449,0,0,0-.366.153.655.655,0,0,0-.128.435v.889H2.359V-15.64h.616v.317a.782.782,0,0,1,.271-.275.734.734,0,0,1,.37-.088.655.655,0,0,1,.067,0l.106.01Z" transform="translate(-2.359 15.687)"/>
      </g>
      <g id="Groupe_198" data-name="Groupe 198" transform="translate(104.955 94.846)">
        <path id="Tracé_213" data-name="Tracé 213" d="M2.265-15.247a.363.363,0,0,0-.313.148.709.709,0,0,0-.108.425.709.709,0,0,0,.108.425.364.364,0,0,0,.313.146.356.356,0,0,0,.307-.146.713.713,0,0,0,.108-.425.713.713,0,0,0-.108-.425A.355.355,0,0,0,2.265-15.247Zm0-.441a1.074,1.074,0,0,1,.777.269.982.982,0,0,1,.279.743.985.985,0,0,1-.279.743,1.077,1.077,0,0,1-.777.267,1.086,1.086,0,0,1-.781-.267.979.979,0,0,1-.281-.743.976.976,0,0,1,.281-.743A1.082,1.082,0,0,1,2.265-15.688Z" transform="translate(-1.203 15.688)"/>
      </g>
      <g id="Groupe_199" data-name="Groupe 199" transform="translate(107.107 94.142)">
        <path id="Tracé_214" data-name="Tracé 214" d="M-.523-20.53H.093v1.892a.85.85,0,0,1-.187.592.69.69,0,0,1-.539.2h-.3v-.405h.108a.3.3,0,0,0,.24-.079.514.514,0,0,0,.067-.313Zm0-.751H.093v.5H-.523Z" transform="translate(0.937 21.281)"/>
      </g>
      <g id="Groupe_200" data-name="Groupe 200" transform="translate(108.585 94.846)">
        <path id="Tracé_215" data-name="Tracé 215" d="M3.272-14.683v.177H1.831a.458.458,0,0,0,.157.324.581.581,0,0,0,.376.108,1.45,1.45,0,0,0,.4-.057A2.1,2.1,0,0,0,3.18-14.3v.474a2.6,2.6,0,0,1-.437.124,2.266,2.266,0,0,1-.437.043,1.163,1.163,0,0,1-.814-.266.961.961,0,0,1-.289-.745.971.971,0,0,1,.285-.741,1.088,1.088,0,0,1,.783-.271A.98.98,0,0,1,3-15.412a.988.988,0,0,1,.273.73Zm-.633-.2a.39.39,0,0,0-.1-.281.353.353,0,0,0-.267-.108.42.42,0,0,0-.291.1.461.461,0,0,0-.14.289Z" transform="translate(-1.203 15.688)"/>
      </g>
      <g id="Groupe_201" data-name="Groupe 201" transform="translate(110.975 94.846)">
        <path id="Tracé_216" data-name="Tracé 216" d="M2.9-15.579v.5a.958.958,0,0,0-.252-.128.834.834,0,0,0-.262-.041.533.533,0,0,0-.4.151.582.582,0,0,0-.144.421.586.586,0,0,0,.144.421.535.535,0,0,0,.4.149.9.9,0,0,0,.273-.041.807.807,0,0,0,.24-.128v.5a1.666,1.666,0,0,1-.293.079,1.641,1.641,0,0,1-.3.028,1.17,1.17,0,0,1-.816-.267.954.954,0,0,1-.293-.743A.957.957,0,0,1,1.5-15.42a1.172,1.172,0,0,1,.816-.267,1.641,1.641,0,0,1,.3.028,1.646,1.646,0,0,1,.293.081Z" transform="translate(-1.203 15.687)"/>
      </g>
      <g id="Groupe_202" data-name="Groupe 202" transform="translate(112.96 94.347)">
        <path id="Tracé_217" data-name="Tracé 217" d="M1.3-19.656v.547h.635v.441H1.3v.818a.238.238,0,0,0,.053.181.331.331,0,0,0,.21.047h.317v.441H1.35a.723.723,0,0,1-.519-.151.719.719,0,0,1-.151-.517v-.818h-.3v-.441h.3v-.547Z" transform="translate(-0.375 19.656)"/>
      </g>
    </g>
  </g>
</svg>
