<svg xmlns="http://www.w3.org/2000/svg" width="278.906" height="50.947" viewBox="0 0 278.906 50.947">
  <path id="Le_Quai_Antique" data-name="Le Quai Antique" d="M32.227-2.256,30.967.586a8.929,8.929,0,0,1-1.494.146A21.6,21.6,0,0,1,25.986.352Q24.4.059,22.837-.366T18.779-1.582q-2.021-.645-4.014-1.2A12.862,12.862,0,0,1,10.488-.1,13.554,13.554,0,0,1,5.566.85,8.945,8.945,0,0,1,.952-.19,3.109,3.109,0,0,1-.791-2.93,3.136,3.136,0,0,1,1.172-5.771,11.531,11.531,0,0,1,6.475-6.8,30.727,30.727,0,0,1,15-5.42a16.673,16.673,0,0,0,1.421-3.193,46.316,46.316,0,0,0,1.157-4.629l2.08-9.785q.908-4.248,1.685-6.621a20.6,20.6,0,0,1,1.8-4.1,14.452,14.452,0,0,1,2.227-2.9,10.121,10.121,0,0,1,2.607-1.934,5.872,5.872,0,0,1,2.637-.674,4.546,4.546,0,0,1,2.461.659,4.108,4.108,0,0,1,1.6,1.9,7.176,7.176,0,0,1,.542,2.886,16.6,16.6,0,0,1-.557,3.779,23.772,23.772,0,0,1-1.436,4.219L30.5-25.4a27.572,27.572,0,0,0,2.051-4.937,15.691,15.691,0,0,0,.82-4.5,4.246,4.246,0,0,0-.732-2.666,2.55,2.55,0,0,0-2.139-.937q-3.018,0-5.039,3.984A17.107,17.107,0,0,0,24.4-31.831q-.41,1.333-1.084,4.409L20.713-15.205a42.068,42.068,0,0,1-1.758,6.24,15.572,15.572,0,0,1-2.314,4.072l.732.234q4.424,1.465,7.1,2.095a20.724,20.724,0,0,0,4.644.63A17.117,17.117,0,0,0,32.227-2.256ZM13.389-3.223l-.7-.205A30.38,30.38,0,0,0,4.658-5.01Q.234-5.01.234-2.7q0,1.172,1.523,1.978A8.157,8.157,0,0,0,5.6.088,10.749,10.749,0,0,0,9.873-.791,10.4,10.4,0,0,0,13.389-3.223ZM46.025-4.541l.527.439A13.792,13.792,0,0,1,43.008-.63,6.946,6.946,0,0,1,39.287.439a4.894,4.894,0,0,1-3.809-1.582,6,6,0,0,1-1.436-4.189,11.64,11.64,0,0,1,1.392-5.347,14.392,14.392,0,0,1,3.486-4.482,6.465,6.465,0,0,1,4.146-1.772,2.833,2.833,0,0,1,1.978.7,2.338,2.338,0,0,1,.776,1.816q0,2.256-2.461,4.512A20.349,20.349,0,0,1,36.65-6.064a4.283,4.283,0,0,0-.029.527,4.828,4.828,0,0,0,1.113,3.3A3.637,3.637,0,0,0,40.605-.967a4.726,4.726,0,0,0,2.666-.864A12.883,12.883,0,0,0,46.025-4.541ZM36.65-6.768A15.729,15.729,0,0,0,41.514-9.9a10.694,10.694,0,0,0,1.846-2.52,5.354,5.354,0,0,0,.7-2.432q0-1.377-1.26-1.377-1.9,0-3.853,3A14.4,14.4,0,0,0,36.65-6.768ZM78.633-.5l-.146.029a17.255,17.255,0,0,1-5.6.938,12.9,12.9,0,0,1-5-.967,10.829,10.829,0,0,1-3.97-2.8,12.477,12.477,0,0,1-2.5-4.38,17.141,17.141,0,0,1-.864-5.537,26.921,26.921,0,0,1,1.787-9.609,29.706,29.706,0,0,1,4.8-8.394,23.847,23.847,0,0,1,6.87-5.815,16.03,16.03,0,0,1,7.866-2.139,12.3,12.3,0,0,1,6.563,1.743,11.726,11.726,0,0,1,4.424,4.966,16.614,16.614,0,0,1,1.582,7.412,26.125,26.125,0,0,1-1.8,9.375,30.343,30.343,0,0,1-4.922,8.511A21.784,21.784,0,0,1,80.8-1.436l.41.264.41.264a45.089,45.089,0,0,0,4.131,2.446,17.7,17.7,0,0,0,3.164,1.289,13.7,13.7,0,0,0,2.93.483l-2.168,2.2a8,8,0,0,1-2.373-.6A21.531,21.531,0,0,1,84.316,3.34Q82.588,2.285,80.361.7l-.85-.586ZM77.607-1.23a9.152,9.152,0,0,0-5.1-2.139,3.127,3.127,0,0,0-3.047,1.934,10.061,10.061,0,0,0,4.277.908A10.469,10.469,0,0,0,77.607-1.23Zm-8.73-.527A6.418,6.418,0,0,1,70.854-4,4.344,4.344,0,0,1,73.3-4.746q2.461,0,5.918,2.285l.205.117A.184.184,0,0,0,79.5-2.3a.431.431,0,0,1,.132.1,20.893,20.893,0,0,0,4.7-4A22,22,0,0,0,87.8-11.66a32.624,32.624,0,0,0,1.714-4.687,43.191,43.191,0,0,0,1.128-5.127,31.086,31.086,0,0,0,.41-4.8,17.164,17.164,0,0,0-.674-4.98,10.457,10.457,0,0,0-1.9-3.706,8.4,8.4,0,0,0-3.047-2.3,10.01,10.01,0,0,0-4.16-.82,11.694,11.694,0,0,0-4.819,1.069,15.309,15.309,0,0,0-4.482,3.135A22.584,22.584,0,0,0,68.2-28.857a32.991,32.991,0,0,0-3.091,7.91,33.511,33.511,0,0,0-1.187,8.438,16.792,16.792,0,0,0,.6,4.585A12.1,12.1,0,0,0,66.24-4.219,8.287,8.287,0,0,0,68.877-1.758Zm31.9-15.381L97.939-5.8a10.946,10.946,0,0,0-.381,2.578A2.162,2.162,0,0,0,98.2-1.582a2.319,2.319,0,0,0,1.67.615q2.49,0,5.186-4.072l.117-.176q.059-.293.088-.469l1.846-10.254,2.871-1.2L107.4-7.5a15.357,15.357,0,0,0-.645,3.809,3.149,3.149,0,0,0,.322,1.523.96.96,0,0,0,.85.586q.908,0,2.9-2.168l.469.41-.293.322a28.081,28.081,0,0,1-2.461,2.651,2.324,2.324,0,0,1-1.465.688A1.832,1.832,0,0,1,105.542-.6a3.987,3.987,0,0,1-.63-2.3q0-.439.029-.82Q101.895.322,98.906.322a3.289,3.289,0,0,1-2.388-.864,3.052,3.052,0,0,1-.894-2.3,14.289,14.289,0,0,1,.322-2.725l1.992-10.371Zm28.652-.176L126.68-6.592a12.159,12.159,0,0,0-.439,2.754,2.94,2.94,0,0,0,.381,1.523,1.1,1.1,0,0,0,.938.645q.85,0,2.813-2.08l.41.41-.322.381a26.54,26.54,0,0,1-2.388,2.5,2.409,2.409,0,0,1-1.45.718A1.973,1.973,0,0,1,125-.718a3.854,3.854,0,0,1-.688-2.271,27.859,27.859,0,0,1,.7-4.248l.234-1.113a21.746,21.746,0,0,1-2.9,4.834Q119.3.352,116.514.352a3.2,3.2,0,0,1-2.637-1.2,4.991,4.991,0,0,1-.967-3.223,12.532,12.532,0,0,1,1.567-5.771,15.962,15.962,0,0,1,3.9-4.966,7.152,7.152,0,0,1,4.526-1.948,3.884,3.884,0,0,1,3.457,1.7l.322-1.113Zm-3.369,3.75a3.391,3.391,0,0,0-1.187-1.743,3.1,3.1,0,0,0-1.919-.63,4.376,4.376,0,0,0-2.725,1.187,11.77,11.77,0,0,0-2.637,3.3,19.162,19.162,0,0,0-1.567,3.691,11.715,11.715,0,0,0-.63,3.34,4.159,4.159,0,0,0,.571,2.344,1.845,1.845,0,0,0,1.626.85,4.406,4.406,0,0,0,2.813-1.26,15.2,15.2,0,0,0,2.9-3.6,13.536,13.536,0,0,0,1.377-2.7q.5-1.348,1.113-3.75Zm13.066-15.059a1.664,1.664,0,0,1,1.23.469,1.664,1.664,0,0,1,.469,1.23,1.672,1.672,0,0,1-.5,1.23,1.637,1.637,0,0,1-1.2.5,1.655,1.655,0,0,1-1.2-.527,1.655,1.655,0,0,1-.527-1.2,1.637,1.637,0,0,1,.5-1.2A1.672,1.672,0,0,1,139.131-28.623Zm-.85,11.484L135.7-7.5a15.357,15.357,0,0,0-.645,3.809,3.149,3.149,0,0,0,.322,1.523.96.96,0,0,0,.85.586q.908,0,2.9-2.168l.469.41-.293.322a28.081,28.081,0,0,1-2.461,2.651,2.324,2.324,0,0,1-1.465.688A1.832,1.832,0,0,1,133.843-.6a3.987,3.987,0,0,1-.63-2.3,17.253,17.253,0,0,1,.352-2.783l1.846-10.254Zm48.105,4.16L183.6,0h-1.875a22.926,22.926,0,0,0-3.472-6.709,23.24,23.24,0,0,0-5.405-5.361A33.143,33.143,0,0,1,168.4-6.5a30.573,30.573,0,0,1-5.229,4.219A25.17,25.17,0,0,1,157.412.439a18.97,18.97,0,0,1-5.859.967,10.705,10.705,0,0,1-1.7-.146l.938-2.227a22.729,22.729,0,0,0,2.344.176q8.027,0,14.3-6.27a34.346,34.346,0,0,0,2.622-2.974,47.311,47.311,0,0,0,2.769-3.94q3.193-5.01,5.449-9.375l2.754-5.3a60,60,0,0,1,5.01-8.452q1.758-2.212,3.486-2.212a2,2,0,0,1,.981.234,1.6,1.6,0,0,1,.659.688,2.171,2.171,0,0,1,.234,1.011,7.189,7.189,0,0,1-.146,1.2q-.146,1.055-.176,1.143l-4.482,21.064h2.08l-.205,1Zm-2.754,0H173.408l.117.088a31.8,31.8,0,0,1,4.482,4.1A35.047,35.047,0,0,1,181.67-3.75Zm-9.434-1h9.639L188-33.9q.205-.967.205-1a3.711,3.711,0,0,0,.176-1.055q0-.732-.645-.732-.791,0-1.9,1.67t-3.867,6.855q-.41.791-1.67,3.193-1.055,1.9-1.143,2.109l-2.812,5.127Q174.58-14.531,174.2-13.975ZM190.9.293,194-15.937l2.783-1.2-2.52,10.752A32.776,32.776,0,0,1,199.1-14.18q2.4-2.666,4.6-2.666a2.3,2.3,0,0,1,1.758.718,2.69,2.69,0,0,1,.674,1.919,8.122,8.122,0,0,1-.322,1.9l-.293,1.23L204.639-7.5l-.293,1.143a12.077,12.077,0,0,0-.439,2.7,3.062,3.062,0,0,0,.322,1.509.96.96,0,0,0,.85.571q.908,0,2.9-2.168l.469.41-.293.322a28.081,28.081,0,0,1-2.461,2.651,2.324,2.324,0,0,1-1.465.688A1.832,1.832,0,0,1,202.69-.6a3.987,3.987,0,0,1-.63-2.3,16.3,16.3,0,0,1,.352-2.783l1.143-6.211a15.268,15.268,0,0,0,.234-2.051,1.27,1.27,0,0,0-.322-.937,1.188,1.188,0,0,0-.879-.322q-2.021,0-4.98,4.336a27.588,27.588,0,0,0-2.373,4.116,54.135,54.135,0,0,0-2.109,5.64l-.264.791Zm24.756-15.937-2.227,9.756a12.485,12.485,0,0,0-.352,2.285,2.7,2.7,0,0,0,.5,1.7,1.584,1.584,0,0,0,1.318.645,2.5,2.5,0,0,0,1.45-.454A14.985,14.985,0,0,0,218.35-3.6l.352-.352.439.439a18.383,18.383,0,0,1-2.886,2.974,3.807,3.807,0,0,1-2.271.864A2.874,2.874,0,0,1,211.743-.6a3.464,3.464,0,0,1-.835-2.417,17.167,17.167,0,0,1,.439-3.223l1.9-9.4h-2.812l.205-1h2.813l1.641-7.91,2.813-1.113-2.051,9.023h4.746l-.205,1ZM227.52-28.623a1.664,1.664,0,0,1,1.23.469,1.664,1.664,0,0,1,.469,1.23,1.672,1.672,0,0,1-.5,1.23,1.637,1.637,0,0,1-1.2.5,1.655,1.655,0,0,1-1.2-.527,1.655,1.655,0,0,1-.527-1.2,1.637,1.637,0,0,1,.5-1.2A1.672,1.672,0,0,1,227.52-28.623Zm-.85,11.484L224.092-7.5a15.357,15.357,0,0,0-.645,3.809,3.149,3.149,0,0,0,.322,1.523.96.96,0,0,0,.85.586q.908,0,2.9-2.168l.469.41-.293.322a28.081,28.081,0,0,1-2.461,2.651,2.324,2.324,0,0,1-1.465.688A1.832,1.832,0,0,1,222.231-.6a3.987,3.987,0,0,1-.63-2.3,17.253,17.253,0,0,1,.352-2.783L223.8-15.937Zm19.248-.176-7.295,28.945H237.07l4.072-18.6a21.54,21.54,0,0,1-3.018,4.541q-2.432,2.9-4.834,2.9a3.424,3.424,0,0,1-2.8-1.274,5.046,5.046,0,0,1-1.04-3.3,13.658,13.658,0,0,1,3.135-8.2,13.158,13.158,0,0,1,3.384-3.267,6.541,6.541,0,0,1,3.5-1.069,4.512,4.512,0,0,1,3.516,1.494l.234-1.025Zm-3.281,3.633a3.054,3.054,0,0,0-2.988-2.139,4.365,4.365,0,0,0-2.563.981,8.777,8.777,0,0,0-2.271,2.5A20.481,20.481,0,0,0,232.778-8,12.92,12.92,0,0,0,232-3.984a3.4,3.4,0,0,0,.645,2.183A2.1,2.1,0,0,0,234.375-1a4.58,4.58,0,0,0,3.032-1.67,17.511,17.511,0,0,0,3.047-4.395,21.248,21.248,0,0,0,1.948-5.508Zm10.84-3.457L250.635-5.8a10.946,10.946,0,0,0-.381,2.578,2.162,2.162,0,0,0,.645,1.641,2.319,2.319,0,0,0,1.67.615q2.49,0,5.186-4.072l.117-.176q.059-.293.088-.469L259.8-15.937l2.871-1.2L260.1-7.5a15.357,15.357,0,0,0-.645,3.809,3.149,3.149,0,0,0,.322,1.523.96.96,0,0,0,.85.586q.908,0,2.9-2.168l.469.41-.293.322A28.081,28.081,0,0,1,261.24-.366a2.324,2.324,0,0,1-1.465.688A1.832,1.832,0,0,1,258.237-.6a3.987,3.987,0,0,1-.63-2.3q0-.439.029-.82Q254.59.322,251.6.322a3.289,3.289,0,0,1-2.388-.864,3.052,3.052,0,0,1-.894-2.3,14.289,14.289,0,0,1,.322-2.725l1.992-10.371Zm24.111,12.6.527.439A13.792,13.792,0,0,1,274.57-.63,6.946,6.946,0,0,1,270.85.439a4.894,4.894,0,0,1-3.809-1.582,6,6,0,0,1-1.436-4.189A11.64,11.64,0,0,1,267-10.679a14.392,14.392,0,0,1,3.486-4.482,6.465,6.465,0,0,1,4.146-1.772,2.833,2.833,0,0,1,1.978.7,2.338,2.338,0,0,1,.776,1.816q0,2.256-2.461,4.512a20.349,20.349,0,0,1-6.709,3.838,4.283,4.283,0,0,0-.029.527,4.828,4.828,0,0,0,1.113,3.3,3.637,3.637,0,0,0,2.871,1.274,4.726,4.726,0,0,0,2.666-.864A12.883,12.883,0,0,0,277.588-4.541Zm-9.375-2.227A15.729,15.729,0,0,0,273.076-9.9a10.694,10.694,0,0,0,1.846-2.52,5.354,5.354,0,0,0,.7-2.432q0-1.377-1.26-1.377-1.9,0-3.853,3A14.4,14.4,0,0,0,268.213-6.768Z" transform="translate(0.791 39.316)" fill="#fff"/>
</svg>
