<svg xmlns="http://www.w3.org/2000/svg" xmlns:xlink="http://www.w3.org/1999/xlink" width="397.196" height="412.392" viewBox="0 0 397.196 412.392">
  <defs>
    <clipPath id="clip-path">
      <rect x="80" y="-18" width="397.196" height="412.392" fill="none"/>
    </clipPath>
  </defs>
  <g id="Groupe_défilant_1" data-name="Groupe défilant 1" transform="translate(-80 18)" clip-path="url(#clip-path)" style="isolation: isolate">
    <g id="noun-manage-3323709" transform="translate(-72.171 -98.296)">
      <path id="Tracé_24" data-name="Tracé 24" d="M338.27,339.89v73.676a48.127,48.127,0,0,1-48.125,48.125H216.473a48.212,48.212,0,0,1-48.125-48.125V339.89a48.12,48.12,0,0,1,48.125-48.125h73.672A48.12,48.12,0,0,1,338.27,339.89ZM290.145,98.3l-73.672,0a48.212,48.212,0,0,0-48.125,48.125v73.766a48.212,48.212,0,0,0,48.125,48.125h73.672a48.127,48.127,0,0,0,48.125-48.125V146.421A48.127,48.127,0,0,0,290.145,98.3Zm193.38,193.46H409.853a48.12,48.12,0,0,0-48.125,48.125v73.676a48.212,48.212,0,0,0,48.125,48.125h73.672a48.127,48.127,0,0,0,48.125-48.125V339.885a48.12,48.12,0,0,0-48.125-48.125ZM373.8,157.97l12.25-22.4c4.988-1.227,16.273-2.363,19.688,1.227L424.2,125.51c-1.664-4.637,4.637-14.176,7.961-18.023l25.551-.613c3.586,3.762,10.238,12.949,8.75,17.676l19.074,10.414c3.148-3.762,14.523-3.148,19.6-2.1l13.3,21.789c-1.488,4.9-6.125,15.312-10.938,16.449l.438,21.613c4.9.875,10.062,11.023,11.727,15.926l-12.25,22.4c-5.074,1.227-16.363,2.363-19.688-1.227L469.18,241.1c1.664,4.637-4.551,14.176-7.961,18.023l-25.461.613c-3.586-3.762-10.238-12.949-8.836-17.676l-18.988-10.414c-3.238,3.762-14.523,3.148-19.688,2.188l-13.211-21.789c1.488-4.988,6.125-15.4,10.938-16.539l-.523-21.613c-4.82-.871-9.984-11.02-11.645-15.922Zm62.039,45.238h0A22.667,22.667,0,1,0,424.895,189.7a22.706,22.706,0,0,0,10.945,13.512Z" fill="#fff"/>
      <g id="Groupe_22" data-name="Groupe 22" transform="translate(70 691.25)">
        <path id="Tracé_25" data-name="Tracé 25" d="M29.312-1.75A20.9,20.9,0,0,1,24.578.016a21.133,21.133,0,0,1-5.109.609Q11.5.625,6.827-3.828T2.171-15.922q0-7.641,4.656-12.094t12.641-4.453a21.731,21.731,0,0,1,5.109.594,20.763,20.763,0,0,1,4.734,1.781V-23.5A18.052,18.052,0,0,0,24.8-25.782a14.826,14.826,0,0,0-4.672-.734A8.8,8.8,0,0,0,13.2-23.688q-2.52,2.813-2.516,7.766T13.2-8.157a8.81,8.81,0,0,0,6.922,2.813A15.045,15.045,0,0,0,24.8-6.063a18.268,18.268,0,0,0,4.516-2.3Z" fill="#fff"/>
      </g>
      <g id="Groupe_23" data-name="Groupe 23" transform="translate(102.109 691.25)">
        <path id="Tracé_26" data-name="Tracé 26" d="M21.453-17.406a10.087,10.087,0,0,0-2.016-.687,8.556,8.556,0,0,0-1.984-.234,5.624,5.624,0,0,0-4.547,1.891,8.24,8.24,0,0,0-1.578,5.422V0H3.672V-23.921h7.656V-20A9.7,9.7,0,0,1,14.7-23.421,9.247,9.247,0,0,1,19.3-24.5c.25,0,.523.012.828.031s.734.07,1.3.141Z" fill="#fff"/>
      </g>
      <g id="Groupe_24" data-name="Groupe 24" transform="translate(123.684 691.25)">
        <path id="Tracé_27" data-name="Tracé 27" d="M27.562-12.031v2.187H9.671a5.685,5.685,0,0,0,1.938,4.031A7.256,7.256,0,0,0,16.28-4.469a18.421,18.421,0,0,0,4.938-.7,25.385,25.385,0,0,0,5.2-2.172v5.891A31.913,31.913,0,0,1,21,.094a28.432,28.432,0,0,1-5.422.531q-6.5,0-10.109-3.3T1.874-11.937q0-5.859,3.531-9.2T15.14-24.5a12.186,12.186,0,0,1,9.031,3.406,12.26,12.26,0,0,1,3.391,9.063ZM19.7-14.562a4.865,4.865,0,0,0-1.281-3.516,4.347,4.347,0,0,0-3.312-1.344,5.216,5.216,0,0,0-3.625,1.25,5.819,5.819,0,0,0-1.719,3.609Z" fill="#fff"/>
      </g>
      <g id="Groupe_25" data-name="Groupe 25" transform="translate(153.355 691.25)">
        <path id="Tracé_28" data-name="Tracé 28" d="M14.391-10.766a6.48,6.48,0,0,0-3.594.813,2.7,2.7,0,0,0-1.2,2.391,2.832,2.832,0,0,0,.969,2.281,4.076,4.076,0,0,0,2.7.813,4.8,4.8,0,0,0,3.625-1.547,5.375,5.375,0,0,0,1.484-3.875v-.875Zm11.688-2.891V0h-7.7V-3.547A9.955,9.955,0,0,1,14.907-.376a10.056,10.056,0,0,1-4.672,1A8.5,8.5,0,0,1,4.188-1.547,7.354,7.354,0,0,1,1.876-7.172q0-4.219,2.891-6.172,2.906-1.969,9.094-1.969h4.516v-.609a2.861,2.861,0,0,0-1.437-2.656,9.069,9.069,0,0,0-4.469-.844,19.819,19.819,0,0,0-4.563.5,15.7,15.7,0,0,0-3.938,1.469v-5.828a41.147,41.147,0,0,1,4.938-.906A39.869,39.869,0,0,1,13.86-24.5q6.48,0,9.344,2.563t2.875,8.281Z" fill="#fff"/>
      </g>
      <g id="Groupe_26" data-name="Groupe 26" transform="translate(182.879 691.25)">
        <path id="Tracé_29" data-name="Tracé 29" d="M12.031-30.719v6.8h7.875v5.469H12.031V-8.312a3.01,3.01,0,0,0,.656,2.266,4.175,4.175,0,0,0,2.625.578H19.25V0H12.687Q8.152,0,6.265-1.89T4.375-8.312V-18.453H.578v-5.469h3.8v-6.8Z" fill="#fff"/>
      </g>
      <g id="Groupe_27" data-name="Groupe 27" transform="translate(203.793 691.25)">
        <path id="Tracé_30" data-name="Tracé 30" d="M27.562-12.031v2.187H9.671a5.685,5.685,0,0,0,1.938,4.031A7.256,7.256,0,0,0,16.28-4.469a18.421,18.421,0,0,0,4.938-.7,25.385,25.385,0,0,0,5.2-2.172v5.891A31.913,31.913,0,0,1,21,.094a28.432,28.432,0,0,1-5.422.531q-6.5,0-10.109-3.3T1.874-11.937q0-5.859,3.531-9.2T15.14-24.5a12.186,12.186,0,0,1,9.031,3.406,12.26,12.26,0,0,1,3.391,9.063ZM19.7-14.562a4.865,4.865,0,0,0-1.281-3.516,4.347,4.347,0,0,0-3.312-1.344,5.216,5.216,0,0,0-3.625,1.25,5.819,5.819,0,0,0-1.719,3.609Z" fill="#fff"/>
      </g>
      <g id="Groupe_28" data-name="Groupe 28" transform="translate(233.465 691.25)">
        <path id="Tracé_31" data-name="Tracé 31" d="M19.953-20.422V-33.234H27.64V0H19.953V-3.453A10.391,10.391,0,0,1,16.469-.359a9.486,9.486,0,0,1-4.406.984A8.934,8.934,0,0,1,4.8-2.891a13.974,13.974,0,0,1-2.828-9.047A13.974,13.974,0,0,1,4.8-20.984,8.934,8.934,0,0,1,12.062-24.5a9.352,9.352,0,0,1,4.391,1,10.393,10.393,0,0,1,3.5,3.078ZM14.906-4.938a4.314,4.314,0,0,0,3.75-1.8,8.818,8.818,0,0,0,1.3-5.2,8.864,8.864,0,0,0-1.3-5.219,4.324,4.324,0,0,0-3.75-1.8,4.328,4.328,0,0,0-3.734,1.8A8.927,8.927,0,0,0,9.89-11.938a8.882,8.882,0,0,0,1.281,5.2,4.319,4.319,0,0,0,3.734,1.8Z" fill="#fff"/>
      </g>
      <g id="Groupe_29" data-name="Groupe 29" transform="translate(280.012 691.25)">
        <path id="Tracé_32" data-name="Tracé 32" d="M16.406-4.937a4.342,4.342,0,0,0,3.75-1.8,8.818,8.818,0,0,0,1.3-5.2,8.864,8.864,0,0,0-1.3-5.219,4.352,4.352,0,0,0-3.75-1.8,4.368,4.368,0,0,0-3.766,1.813,8.745,8.745,0,0,0-1.312,5.2,8.777,8.777,0,0,0,1.313,5.2,4.376,4.376,0,0,0,3.766,1.8ZM11.328-20.422a10.356,10.356,0,0,1,3.5-3.078,9.471,9.471,0,0,1,4.422-1,8.945,8.945,0,0,1,7.266,3.516,13.937,13.937,0,0,1,2.844,9.047A13.936,13.936,0,0,1,26.515-2.89,8.944,8.944,0,0,1,19.25.625a9.471,9.471,0,0,1-4.422-1,10.528,10.528,0,0,1-3.5-3.078V0H3.672V-33.234h7.656Z" fill="#fff"/>
      </g>
      <g id="Groupe_30" data-name="Groupe 30" transform="translate(311.328 691.25)">
        <path id="Tracé_33" data-name="Tracé 33" d="M.531-23.922H8.187L14.609-7.688l5.469-16.234h7.656L17.672,2.266a12.659,12.659,0,0,1-3.547,5.578A8.347,8.347,0,0,1,8.8,9.438H4.375V4.422H6.766A4.992,4.992,0,0,0,9.594,3.8a4.052,4.052,0,0,0,1.391-2.219l.2-.656Z" fill="#fff"/>
      </g>
      <g id="Groupe_31" data-name="Groupe 31" transform="translate(355.078 691.25)">
        <path id="Tracé_34" data-name="Tracé 34" d="M.219-31.891H29.61v6.219H19.032V0H10.813V-25.672H.219Z" fill="#fff"/>
      </g>
      <g id="Groupe_32" data-name="Groupe 32" transform="translate(384.922 691.25)">
        <path id="Tracé_35" data-name="Tracé 35" d="M27.734-14.562V0h-7.7V-11.109q0-3.141-.141-4.312a4.4,4.4,0,0,0-.469-1.734A3.149,3.149,0,0,0,18.2-18.312a3.57,3.57,0,0,0-1.75-.422,4.446,4.446,0,0,0-3.766,1.844,8.491,8.491,0,0,0-1.359,5.125V0H3.672V-33.233h7.656v12.812A11.618,11.618,0,0,1,14.984-23.5a9.348,9.348,0,0,1,4.313-1,7.757,7.757,0,0,1,6.281,2.547q2.156,2.531,2.156,7.391Z" fill="#fff"/>
      </g>
      <g id="Groupe_33" data-name="Groupe 33" transform="translate(416.07 691.25)">
        <path id="Tracé_36" data-name="Tracé 36" d="M27.562-12.031v2.187H9.671a5.685,5.685,0,0,0,1.938,4.031A7.256,7.256,0,0,0,16.28-4.469a18.421,18.421,0,0,0,4.938-.7,25.385,25.385,0,0,0,5.2-2.172v5.891A31.913,31.913,0,0,1,21,.094a28.432,28.432,0,0,1-5.422.531q-6.5,0-10.109-3.3T1.874-11.937q0-5.859,3.531-9.2T15.14-24.5a12.186,12.186,0,0,1,9.031,3.406,12.26,12.26,0,0,1,3.391,9.063ZM19.7-14.562a4.865,4.865,0,0,0-1.281-3.516,4.347,4.347,0,0,0-3.312-1.344,5.216,5.216,0,0,0-3.625,1.25,5.819,5.819,0,0,0-1.719,3.609Z" fill="#fff"/>
      </g>
      <g id="Groupe_34" data-name="Groupe 34" transform="translate(460.973 691.25)">
        <path id="Tracé_37" data-name="Tracé 37" d="M4.016-31.891h8.219V0H4.016Z" fill="#fff"/>
      </g>
      <g id="Groupe_35" data-name="Groupe 35" transform="translate(477.25 691.25)">
        <path id="Tracé_38" data-name="Tracé 38" d="M23-23.172v6.234a11.706,11.706,0,0,0-3.125-1.578,10.31,10.31,0,0,0-3.25-.516,6.592,6.592,0,0,0-5,1.875,7.245,7.245,0,0,0-1.781,5.219,7.271,7.271,0,0,0,1.781,5.219,6.592,6.592,0,0,0,5,1.875,10.777,10.777,0,0,0,3.406-.531A10.2,10.2,0,0,0,23-6.969V-.7a21.168,21.168,0,0,1-3.641.984,20.414,20.414,0,0,1-3.7.344Q9.188.625,5.531-2.7T1.875-11.938q0-5.918,3.656-9.234T15.656-24.5a20.92,20.92,0,0,1,3.7.328,21.582,21.582,0,0,1,3.641,1Z" fill="#fff"/>
      </g>
      <g id="Groupe_36" data-name="Groupe 36" transform="translate(503.184 691.25)">
        <path id="Tracé_39" data-name="Tracé 39" d="M15.062-19.031A4.528,4.528,0,0,0,11.171-17.2a8.868,8.868,0,0,0-1.328,5.266,8.86,8.86,0,0,0,1.328,5.266,4.528,4.528,0,0,0,3.891,1.828,4.4,4.4,0,0,0,3.813-1.828A8.888,8.888,0,0,0,20.2-11.937,8.9,8.9,0,0,0,18.875-17.2,4.4,4.4,0,0,0,15.062-19.031Zm0-5.469q6.17,0,9.641,3.328t3.469,9.234q0,5.895-3.469,9.234T15.062.625q-6.205,0-9.7-3.328T1.875-11.937q0-5.906,3.484-9.234T15.062-24.5Z" fill="#fff"/>
      </g>
      <g id="Groupe_37" data-name="Groupe 37" transform="translate(533.242 691.25)">
        <path id="Tracé_40" data-name="Tracé 40" d="M27.734-14.562V0h-7.7V-11.156a42.451,42.451,0,0,0-.141-4.266,4.4,4.4,0,0,0-.469-1.734A3.149,3.149,0,0,0,18.2-18.312a3.57,3.57,0,0,0-1.75-.422,4.446,4.446,0,0,0-3.766,1.844,8.491,8.491,0,0,0-1.359,5.125V0H3.672V-23.921h7.656v3.5A11.618,11.618,0,0,1,14.984-23.5a9.348,9.348,0,0,1,4.313-1,7.757,7.757,0,0,1,6.281,2.547q2.156,2.531,2.156,7.391Z" fill="#fff"/>
      </g>
      <g id="Groupe_38" data-name="Groupe 38" transform="translate(579.617 691.25)">
        <path id="Tracé_41" data-name="Tracé 41" d="M2.453-31.891H29.265v4.969L12.156-6.219H29.75V0H1.969V-4.985L19.078-25.673H2.453Z" fill="#fff"/>
      </g>
    </g>
  </g>
</svg>
