<svg xmlns="http://www.w3.org/2000/svg" xmlns:xlink="http://www.w3.org/1999/xlink" width="439.986" height="439.351" viewBox="0 0 439.986 439.351">
  <defs>
    <clipPath id="clip-path">
      <rect x="62" y="-15" width="439.986" height="439.351" fill="none"/>
    </clipPath>
  </defs>
  <g id="Groupe_défilant_56" data-name="Groupe défilant 56" transform="translate(-62 15)" clip-path="url(#clip-path)" style="isolation: isolate">
    <g id="noun-clock-5559554" transform="translate(-70.422 -83.867)">
      <path id="Tracé_130" data-name="Tracé 130" d="M522.31,287.28a6.562,6.562,0,0,1,6.563-6.562h24.535c-3.414-107.04-89.809-193.44-196.85-196.85V108.4a6.563,6.563,0,1,1-13.125,0V83.867c-107.04,3.414-193.43,89.809-196.85,196.85h24.531a6.563,6.563,0,0,1,0,13.125H146.582c3.414,107.04,89.8,193.43,196.84,196.84V466.151a6.563,6.563,0,0,1,13.125,0v24.531c107.04-3.414,193.44-89.8,196.85-196.84H528.862a6.564,6.564,0,0,1-6.562-6.562Zm-167.44,4.395-67.418,74.688a6.56,6.56,0,1,1-9.738-8.793l65.723-72.816,0-122.52a6.563,6.563,0,1,1,13.125,0l0,125.04a6.57,6.57,0,0,1-1.691,4.395Z" fill="#fff"/>
      <g id="Groupe_114" data-name="Groupe 114" transform="translate(70 625.625)">
        <path id="Tracé_131" data-name="Tracé 131" d="M14.656-.875a10.215,10.215,0,0,1-2.375.891,10.878,10.878,0,0,1-2.547.3A8.764,8.764,0,0,1,3.422-1.906,7.974,7.974,0,0,1,1.094-7.953,7.951,7.951,0,0,1,3.422-14a8.739,8.739,0,0,1,6.313-2.234,10.878,10.878,0,0,1,2.547.3,10.579,10.579,0,0,1,2.375.891v3.3a8.985,8.985,0,0,0-2.25-1.141,7.621,7.621,0,0,0-2.344-.359,4.431,4.431,0,0,0-3.469,1.406,5.639,5.639,0,0,0-1.25,3.891,5.61,5.61,0,0,0,1.25,3.875,4.43,4.43,0,0,0,3.469,1.406,7.506,7.506,0,0,0,2.344-.359,8.732,8.732,0,0,0,2.25-1.141Z" fill="#fff"/>
      </g>
      <g id="Groupe_115" data-name="Groupe 115" transform="translate(86.055 625.625)">
        <path id="Tracé_132" data-name="Tracé 132" d="M10.719-8.7a4.9,4.9,0,0,0-1-.344,4.054,4.054,0,0,0-1-.125,2.794,2.794,0,0,0-2.266.953,4.066,4.066,0,0,0-.8,2.7V0H1.844V-11.969H5.657V-10a4.788,4.788,0,0,1,1.688-1.7,4.6,4.6,0,0,1,2.3-.547c.133,0,.273.008.422.016s.363.031.656.063Z" fill="#fff"/>
      </g>
      <g id="Groupe_116" data-name="Groupe 116" transform="translate(96.84 625.625)">
        <path id="Tracé_133" data-name="Tracé 133" d="M13.781-6.016v1.094H4.844a2.828,2.828,0,0,0,.969,2.016,3.593,3.593,0,0,0,2.328.672,8.926,8.926,0,0,0,2.469-.359,13.115,13.115,0,0,0,2.609-1.078V-.719A17.275,17.275,0,0,1,10.5.047,14.251,14.251,0,0,1,7.781.313,7.248,7.248,0,0,1,2.734-1.328a5.984,5.984,0,0,1-1.8-4.641A6.021,6.021,0,0,1,2.7-10.562,6.762,6.762,0,0,1,7.578-12.25a6.061,6.061,0,0,1,4.5,1.7,6.1,6.1,0,0,1,1.7,4.531ZM9.844-7.281A2.407,2.407,0,0,0,9.2-9.031,2.166,2.166,0,0,0,7.547-9.7a2.634,2.634,0,0,0-1.812.625,2.888,2.888,0,0,0-.859,1.8Z" fill="#fff"/>
      </g>
      <g id="Groupe_117" data-name="Groupe 117" transform="translate(111.68 625.625)">
        <path id="Tracé_134" data-name="Tracé 134" d="M7.2-5.391a3.294,3.294,0,0,0-1.812.406,1.36,1.36,0,0,0-.594,1.2,1.429,1.429,0,0,0,.484,1.141,2.032,2.032,0,0,0,1.359.406A2.411,2.411,0,0,0,8.453-3a2.744,2.744,0,0,0,.734-1.953v-.437Zm5.844-1.437V0H9.188V-1.766A4.939,4.939,0,0,1,7.453-.187a5.023,5.023,0,0,1-2.344.5A4.238,4.238,0,0,1,2.094-.766,3.7,3.7,0,0,1,.938-3.594,3.464,3.464,0,0,1,2.375-6.672a8.284,8.284,0,0,1,4.563-.984h2.25v-.3a1.436,1.436,0,0,0-.719-1.328A4.57,4.57,0,0,0,6.234-9.7a10.08,10.08,0,0,0-2.281.25,7.29,7.29,0,0,0-1.969.734v-2.922a23.588,23.588,0,0,1,2.469-.453,20.2,20.2,0,0,1,2.484-.156q3.234,0,4.672,1.281a5.271,5.271,0,0,1,1.438,4.141Z" fill="#fff"/>
      </g>
      <g id="Groupe_118" data-name="Groupe 118" transform="translate(126.438 625.625)">
        <path id="Tracé_135" data-name="Tracé 135" d="M6.016-15.359v3.391H9.953v2.734H6.016v5.078a1.487,1.487,0,0,0,.328,1.125,2.041,2.041,0,0,0,1.313.3H9.625V0H6.344A4.5,4.5,0,0,1,3.125-.937a4.5,4.5,0,0,1-.937-3.219V-9.234H.281v-2.734H2.188v-3.391Z" fill="#fff"/>
      </g>
      <g id="Groupe_119" data-name="Groupe 119" transform="translate(136.895 625.625)">
        <path id="Tracé_136" data-name="Tracé 136" d="M13.781-6.016v1.094H4.844a2.828,2.828,0,0,0,.969,2.016,3.593,3.593,0,0,0,2.328.672,8.926,8.926,0,0,0,2.469-.359,13.115,13.115,0,0,0,2.609-1.078V-.719A17.275,17.275,0,0,1,10.5.047,14.251,14.251,0,0,1,7.781.313,7.248,7.248,0,0,1,2.734-1.328a5.984,5.984,0,0,1-1.8-4.641A6.021,6.021,0,0,1,2.7-10.562,6.762,6.762,0,0,1,7.578-12.25a6.061,6.061,0,0,1,4.5,1.7,6.1,6.1,0,0,1,1.7,4.531ZM9.844-7.281A2.407,2.407,0,0,0,9.2-9.031,2.166,2.166,0,0,0,7.547-9.7a2.634,2.634,0,0,0-1.812.625,2.888,2.888,0,0,0-.859,1.8Z" fill="#fff"/>
      </g>
      <g id="Groupe_120" data-name="Groupe 120" transform="translate(151.73 625.625)">
        <path id="Tracé_137" data-name="Tracé 137" d="M9.969-10.219v-6.406h3.859V0H9.969V-1.735A5.172,5.172,0,0,1,8.234-.172a4.84,4.84,0,0,1-2.2.484,4.461,4.461,0,0,1-3.625-1.75A6.987,6.987,0,0,1,.984-5.969a6.928,6.928,0,0,1,1.422-4.516A4.454,4.454,0,0,1,6.031-12.25a4.7,4.7,0,0,1,2.2.5,5.142,5.142,0,0,1,1.734,1.531ZM7.453-2.469A2.17,2.17,0,0,0,9.328-3.36a4.491,4.491,0,0,0,.641-2.609,4.458,4.458,0,0,0-.641-2.609,2.17,2.17,0,0,0-1.875-.891,2.147,2.147,0,0,0-1.859.891,4.428,4.428,0,0,0-.641,2.609A4.462,4.462,0,0,0,5.594-3.36,2.146,2.146,0,0,0,7.453-2.469Z" fill="#fff"/>
      </g>
      <g id="Groupe_121" data-name="Groupe 121" transform="translate(175.008 625.625)">
        <path id="Tracé_138" data-name="Tracé 138" d="M8.2-2.469a2.17,2.17,0,0,0,1.875-.891,4.491,4.491,0,0,0,.641-2.609,4.458,4.458,0,0,0-.641-2.609A2.17,2.17,0,0,0,8.2-9.469a2.2,2.2,0,0,0-1.891.906,4.338,4.338,0,0,0-.656,2.594,4.4,4.4,0,0,0,.656,2.609A2.2,2.2,0,0,0,8.2-2.469Zm-2.547-7.75a5.219,5.219,0,0,1,1.75-1.531,4.774,4.774,0,0,1,2.219-.5,4.459,4.459,0,0,1,3.625,1.766,6.95,6.95,0,0,1,1.422,4.516A7.009,7.009,0,0,1,13.25-1.438,4.466,4.466,0,0,1,9.625.312a4.774,4.774,0,0,1-2.219-.5,5.321,5.321,0,0,1-1.75-1.547V0H1.844V-16.625H5.656Z" fill="#fff"/>
      </g>
      <g id="Groupe_122" data-name="Groupe 122" transform="translate(190.664 625.625)">
        <path id="Tracé_139" data-name="Tracé 139" d="M.266-11.969H4.094L7.313-3.844l2.734-8.125h3.813L8.828,1.125a6.331,6.331,0,0,1-1.766,2.8,4.147,4.147,0,0,1-2.656.8H2.188v-2.5h1.2A2.479,2.479,0,0,0,4.8,1.906,1.979,1.979,0,0,0,5.484.8L5.594.453Z" fill="#fff"/>
      </g>
      <g id="Groupe_123" data-name="Groupe 123" transform="translate(212.539 625.625)">
        <path id="Tracé_140" data-name="Tracé 140" d="M2.016-15.953H7.234l3.641,8.547,3.656-8.547H19.75V0H15.859V-11.656L12.188-3.062H9.578L5.906-11.656V0H2.016Z" fill="#fff"/>
      </g>
      <g id="Groupe_124" data-name="Groupe 124" transform="translate(234.309 625.625)">
        <path id="Tracé_141" data-name="Tracé 141" d="M1.844-11.969H5.656V0H1.844Zm0-4.656H5.656V-13.5H1.844Z" fill="#fff"/>
      </g>
      <g id="Groupe_125" data-name="Groupe 125" transform="translate(241.805 625.625)">
        <path id="Tracé_142" data-name="Tracé 142" d="M10.719-8.7a4.9,4.9,0,0,0-1-.344,4.054,4.054,0,0,0-1-.125,2.794,2.794,0,0,0-2.266.953,4.066,4.066,0,0,0-.8,2.7V0H1.844V-11.969H5.657V-10a4.788,4.788,0,0,1,1.688-1.7,4.6,4.6,0,0,1,2.3-.547c.133,0,.273.008.422.016s.363.031.656.063Z" fill="#fff"/>
      </g>
      <g id="Groupe_126" data-name="Groupe 126" transform="translate(252.594 625.625)">
        <path id="Tracé_143" data-name="Tracé 143" d="M7.2-5.391a3.294,3.294,0,0,0-1.812.406,1.36,1.36,0,0,0-.594,1.2,1.429,1.429,0,0,0,.484,1.141,2.032,2.032,0,0,0,1.359.406A2.411,2.411,0,0,0,8.453-3a2.744,2.744,0,0,0,.734-1.953v-.437Zm5.844-1.437V0H9.188V-1.766A4.939,4.939,0,0,1,7.453-.187a5.023,5.023,0,0,1-2.344.5A4.238,4.238,0,0,1,2.094-.766,3.7,3.7,0,0,1,.938-3.594,3.464,3.464,0,0,1,2.375-6.672a8.284,8.284,0,0,1,4.563-.984h2.25v-.3a1.436,1.436,0,0,0-.719-1.328A4.57,4.57,0,0,0,6.234-9.7a10.08,10.08,0,0,0-2.281.25,7.29,7.29,0,0,0-1.969.734v-2.922a23.588,23.588,0,0,1,2.469-.453,20.2,20.2,0,0,1,2.484-.156q3.234,0,4.672,1.281a5.271,5.271,0,0,1,1.438,4.141Z" fill="#fff"/>
      </g>
      <g id="Groupe_127" data-name="Groupe 127" transform="translate(274.973 625.625)">
        <path id="Tracé_144" data-name="Tracé 144" d="M1.844-11.969H5.656V0H1.844Zm0-4.656H5.656V-13.5H1.844Z" fill="#fff"/>
      </g>
      <g id="Groupe_128" data-name="Groupe 128" transform="translate(282.469 625.625)">
        <path id="Tracé_145" data-name="Tracé 145" d="M11.5-11.594v3.125A6.284,6.284,0,0,0,9.938-9.25a5.06,5.06,0,0,0-1.625-.266,3.281,3.281,0,0,0-2.5.938,3.638,3.638,0,0,0-.891,2.609A3.632,3.632,0,0,0,5.813-3.36a3.281,3.281,0,0,0,2.5.938A5.23,5.23,0,0,0,10-2.688a4.959,4.959,0,0,0,1.5-.8V-.36a9.4,9.4,0,0,1-1.812.5A10.26,10.26,0,0,1,7.828.312,7.259,7.259,0,0,1,2.766-1.344,5.951,5.951,0,0,1,.938-5.969a5.906,5.906,0,0,1,1.828-4.609A7.228,7.228,0,0,1,7.828-12.25a9.995,9.995,0,0,1,1.844.172,10.71,10.71,0,0,1,1.828.484Z" fill="#fff"/>
      </g>
      <g id="Groupe_129" data-name="Groupe 129" transform="translate(295.438 625.625)">
        <path id="Tracé_146" data-name="Tracé 146" d="M7.531-9.516a2.251,2.251,0,0,0-1.937.922,4.356,4.356,0,0,0-.672,2.625,4.416,4.416,0,0,0,.672,2.641,2.258,2.258,0,0,0,1.938.906,2.205,2.205,0,0,0,1.906-.906,4.444,4.444,0,0,0,.672-2.641,4.384,4.384,0,0,0-.672-2.625A2.2,2.2,0,0,0,7.531-9.516Zm0-2.734a6.654,6.654,0,0,1,4.813,1.672,6.052,6.052,0,0,1,1.75,4.609,6.1,6.1,0,0,1-1.75,4.625A6.681,6.681,0,0,1,7.531.312,6.754,6.754,0,0,1,2.687-1.344,6.086,6.086,0,0,1,.937-5.969a6.038,6.038,0,0,1,1.75-4.609A6.727,6.727,0,0,1,7.531-12.25Z" fill="#fff"/>
      </g>
      <g id="Groupe_130" data-name="Groupe 130" transform="translate(310.465 625.625)">
        <path id="Tracé_147" data-name="Tracé 147" d="M13.859-7.281V0H10.015V-5.578A19.228,19.228,0,0,0,9.937-7.7,2.224,2.224,0,0,0,9.7-8.578a1.523,1.523,0,0,0-.609-.578,1.721,1.721,0,0,0-.875-.219,2.2,2.2,0,0,0-1.875.938,4.17,4.17,0,0,0-.687,2.547V0H1.843V-11.969H5.656v1.75A5.88,5.88,0,0,1,7.5-11.75a4.61,4.61,0,0,1,2.141-.5,3.86,3.86,0,0,1,3.141,1.281,5.545,5.545,0,0,1,1.078,3.688Z" fill="#fff"/>
      </g>
      <g id="Groupe_131" data-name="Groupe 131" transform="translate(326.039 625.625)">
        <path id="Tracé_148" data-name="Tracé 148" d="M1.844-11.969H5.656V0H1.844Zm0-4.656H5.656V-13.5H1.844Z" fill="#fff"/>
      </g>
      <g id="Groupe_132" data-name="Groupe 132" transform="translate(333.535 625.625)">
        <path id="Tracé_149" data-name="Tracé 149" d="M11.5-11.594v3.125A6.284,6.284,0,0,0,9.938-9.25a5.06,5.06,0,0,0-1.625-.266,3.281,3.281,0,0,0-2.5.938,3.638,3.638,0,0,0-.891,2.609A3.632,3.632,0,0,0,5.813-3.36a3.281,3.281,0,0,0,2.5.938A5.23,5.23,0,0,0,10-2.688a4.959,4.959,0,0,0,1.5-.8V-.36a9.4,9.4,0,0,1-1.812.5A10.26,10.26,0,0,1,7.828.312,7.259,7.259,0,0,1,2.766-1.344,5.951,5.951,0,0,1,.938-5.969a5.906,5.906,0,0,1,1.828-4.609A7.228,7.228,0,0,1,7.828-12.25a9.995,9.995,0,0,1,1.844.172,10.71,10.71,0,0,1,1.828.484Z" fill="#fff"/>
      </g>
      <g id="Groupe_133" data-name="Groupe 133" transform="translate(70 647.5)">
        <path id="Tracé_150" data-name="Tracé 150" d="M9.7-16.625v2.516H7.594a1.716,1.716,0,0,0-1.141.3A1.357,1.357,0,0,0,6.141-12.8v.828H9.406v2.734H6.141V0H2.313V-9.234H.422v-2.734H2.313V-12.8a3.6,3.6,0,0,1,1.094-2.891,5.09,5.09,0,0,1,3.375-.937Z" fill="#fff"/>
      </g>
      <g id="Groupe_134" data-name="Groupe 134" transform="translate(79.516 647.5)">
        <path id="Tracé_151" data-name="Tracé 151" d="M10.719-8.7a4.9,4.9,0,0,0-1-.344,4.054,4.054,0,0,0-1-.125,2.794,2.794,0,0,0-2.266.953,4.066,4.066,0,0,0-.8,2.7V0H1.844V-11.969H5.657V-10a4.788,4.788,0,0,1,1.688-1.7,4.6,4.6,0,0,1,2.3-.547c.133,0,.273.008.422.016s.363.031.656.063Z" fill="#fff"/>
      </g>
      <g id="Groupe_135" data-name="Groupe 135" transform="translate(90.305 647.5)">
        <path id="Tracé_152" data-name="Tracé 152" d="M7.531-9.516a2.251,2.251,0,0,0-1.937.922,4.356,4.356,0,0,0-.672,2.625,4.416,4.416,0,0,0,.672,2.641,2.258,2.258,0,0,0,1.938.906,2.205,2.205,0,0,0,1.906-.906,4.444,4.444,0,0,0,.672-2.641,4.384,4.384,0,0,0-.672-2.625A2.2,2.2,0,0,0,7.531-9.516Zm0-2.734a6.654,6.654,0,0,1,4.813,1.672,6.052,6.052,0,0,1,1.75,4.609,6.1,6.1,0,0,1-1.75,4.625A6.681,6.681,0,0,1,7.531.312,6.754,6.754,0,0,1,2.687-1.344,6.086,6.086,0,0,1,.937-5.969a6.038,6.038,0,0,1,1.75-4.609A6.727,6.727,0,0,1,7.531-12.25Z" fill="#fff"/>
      </g>
      <g id="Groupe_136" data-name="Groupe 136" transform="translate(105.332 647.5)">
        <path id="Tracé_153" data-name="Tracé 153" d="M12.922-9.969a5.247,5.247,0,0,1,1.719-1.7,4.335,4.335,0,0,1,2.2-.578,3.882,3.882,0,0,1,3.141,1.281,5.545,5.545,0,0,1,1.078,3.688V0H17.219V-6.235c.008-.094.016-.187.016-.281v-.437A3.489,3.489,0,0,0,16.859-8.8a1.335,1.335,0,0,0-1.2-.578,1.9,1.9,0,0,0-1.687.906,4.939,4.939,0,0,0-.609,2.594V0H9.516V-6.235A6.034,6.034,0,0,0,9.172-8.8a1.307,1.307,0,0,0-1.219-.578,1.944,1.944,0,0,0-1.7.906,4.68,4.68,0,0,0-.594,2.578V0H1.812V-11.969H5.656v1.75a5.035,5.035,0,0,1,1.609-1.516A4.08,4.08,0,0,1,9.3-12.25a4.072,4.072,0,0,1,2.188.594,3.742,3.742,0,0,1,1.438,1.687Z" fill="#fff"/>
      </g>
      <g id="Groupe_137" data-name="Groupe 137" transform="translate(135.742 647.5)">
        <path id="Tracé_154" data-name="Tracé 154" d="M6.016-15.359v3.391H9.953v2.734H6.016v5.078a1.487,1.487,0,0,0,.328,1.125,2.041,2.041,0,0,0,1.313.3H9.625V0H6.344A4.5,4.5,0,0,1,3.125-.937a4.5,4.5,0,0,1-.937-3.219V-9.234H.281v-2.734H2.188v-3.391Z" fill="#fff"/>
      </g>
      <g id="Groupe_138" data-name="Groupe 138" transform="translate(146.199 647.5)">
        <path id="Tracé_155" data-name="Tracé 155" d="M13.859-7.281V0H10.015V-5.547A19.665,19.665,0,0,0,9.937-7.7,2.224,2.224,0,0,0,9.7-8.578a1.523,1.523,0,0,0-.609-.578,1.721,1.721,0,0,0-.875-.219,2.2,2.2,0,0,0-1.875.938,4.17,4.17,0,0,0-.687,2.547V0H1.843V-16.625H5.656v6.406A5.88,5.88,0,0,1,7.5-11.75a4.61,4.61,0,0,1,2.141-.5,3.86,3.86,0,0,1,3.141,1.281,5.545,5.545,0,0,1,1.078,3.688Z" fill="#fff"/>
      </g>
      <g id="Groupe_139" data-name="Groupe 139" transform="translate(161.773 647.5)">
        <path id="Tracé_156" data-name="Tracé 156" d="M13.781-6.016v1.094H4.844a2.828,2.828,0,0,0,.969,2.016,3.593,3.593,0,0,0,2.328.672,8.926,8.926,0,0,0,2.469-.359,13.115,13.115,0,0,0,2.609-1.078V-.719A17.275,17.275,0,0,1,10.5.047,14.251,14.251,0,0,1,7.781.313,7.248,7.248,0,0,1,2.734-1.328a5.984,5.984,0,0,1-1.8-4.641A6.021,6.021,0,0,1,2.7-10.562,6.762,6.762,0,0,1,7.578-12.25a6.061,6.061,0,0,1,4.5,1.7,6.1,6.1,0,0,1,1.7,4.531ZM9.844-7.281A2.407,2.407,0,0,0,9.2-9.031,2.166,2.166,0,0,0,7.547-9.7a2.634,2.634,0,0,0-1.812.625,2.888,2.888,0,0,0-.859,1.8Z" fill="#fff"/>
      </g>
      <g id="Groupe_140" data-name="Groupe 140" transform="translate(184.223 647.5)">
        <path id="Tracé_157" data-name="Tracé 157" d="M2.016-15.953H6.594L12.406-5.015V-15.953H16.3V0H11.7l-5.8-10.938V0H2.016Z" fill="#fff"/>
      </g>
      <g id="Groupe_141" data-name="Groupe 141" transform="translate(202.531 647.5)">
        <path id="Tracé_158" data-name="Tracé 158" d="M7.531-9.516a2.251,2.251,0,0,0-1.937.922,4.356,4.356,0,0,0-.672,2.625,4.416,4.416,0,0,0,.672,2.641,2.258,2.258,0,0,0,1.938.906,2.205,2.205,0,0,0,1.906-.906,4.444,4.444,0,0,0,.672-2.641,4.384,4.384,0,0,0-.672-2.625A2.2,2.2,0,0,0,7.531-9.516Zm0-2.734a6.654,6.654,0,0,1,4.813,1.672,6.052,6.052,0,0,1,1.75,4.609,6.1,6.1,0,0,1-1.75,4.625A6.681,6.681,0,0,1,7.531.312,6.754,6.754,0,0,1,2.687-1.344,6.086,6.086,0,0,1,.937-5.969a6.038,6.038,0,0,1,1.75-4.609A6.727,6.727,0,0,1,7.531-12.25Z" fill="#fff"/>
      </g>
      <g id="Groupe_142" data-name="Groupe 142" transform="translate(217.559 647.5)">
        <path id="Tracé_159" data-name="Tracé 159" d="M1.7-4.656v-7.313H5.547v1.2c0,.648-.008,1.461-.016,2.437v1.969a18.587,18.587,0,0,0,.078,2.078,2.45,2.45,0,0,0,.25.922,1.6,1.6,0,0,0,.609.578,1.841,1.841,0,0,0,.875.2A2.185,2.185,0,0,0,9.219-3.5a4.215,4.215,0,0,0,.688-2.562v-5.906h3.828V0H9.906V-1.734A5.912,5.912,0,0,1,8.078-.187a4.592,4.592,0,0,1-2.125.5A3.959,3.959,0,0,1,2.781-.953,5.6,5.6,0,0,1,1.7-4.656Z" fill="#fff"/>
      </g>
      <g id="Groupe_143" data-name="Groupe 143" transform="translate(233.133 647.5)">
        <path id="Tracé_160" data-name="Tracé 160" d="M13.859-7.281V0H10.015V-5.578A19.228,19.228,0,0,0,9.937-7.7,2.224,2.224,0,0,0,9.7-8.578a1.523,1.523,0,0,0-.609-.578,1.721,1.721,0,0,0-.875-.219,2.2,2.2,0,0,0-1.875.938,4.17,4.17,0,0,0-.687,2.547V0H1.843V-11.969H5.656v1.75A5.88,5.88,0,0,1,7.5-11.75a4.61,4.61,0,0,1,2.141-.5,3.86,3.86,0,0,1,3.141,1.281,5.545,5.545,0,0,1,1.078,3.688Z" fill="#fff"/>
      </g>
      <g id="Groupe_144" data-name="Groupe 144" transform="translate(256.32 647.5)">
        <path id="Tracé_161" data-name="Tracé 161" d="M2.016-15.953H8.828A7.1,7.1,0,0,1,13.5-14.594a4.691,4.691,0,0,1,1.641,3.844A4.745,4.745,0,0,1,13.5-6.875,7.146,7.146,0,0,1,8.828-5.531h-2.7V0H2.016Zm4.109,2.984v4.453H8.391a2.662,2.662,0,0,0,1.844-.578,2.086,2.086,0,0,0,.656-1.656,2.074,2.074,0,0,0-.656-1.641,2.681,2.681,0,0,0-1.844-.578Z" fill="#fff"/>
      </g>
      <g id="Groupe_145" data-name="Groupe 145" transform="translate(272.355 647.5)">
        <path id="Tracé_162" data-name="Tracé 162" d="M10.719-8.7a4.9,4.9,0,0,0-1-.344,4.054,4.054,0,0,0-1-.125,2.794,2.794,0,0,0-2.266.953,4.066,4.066,0,0,0-.8,2.7V0H1.844V-11.969H5.657V-10a4.788,4.788,0,0,1,1.688-1.7,4.6,4.6,0,0,1,2.3-.547c.133,0,.273.008.422.016s.363.031.656.063Z" fill="#fff"/>
      </g>
      <g id="Groupe_146" data-name="Groupe 146" transform="translate(283.141 647.5)">
        <path id="Tracé_163" data-name="Tracé 163" d="M7.531-9.516a2.251,2.251,0,0,0-1.937.922,4.356,4.356,0,0,0-.672,2.625,4.416,4.416,0,0,0,.672,2.641,2.258,2.258,0,0,0,1.938.906,2.205,2.205,0,0,0,1.906-.906,4.444,4.444,0,0,0,.672-2.641,4.384,4.384,0,0,0-.672-2.625A2.2,2.2,0,0,0,7.531-9.516Zm0-2.734a6.654,6.654,0,0,1,4.813,1.672,6.052,6.052,0,0,1,1.75,4.609,6.1,6.1,0,0,1-1.75,4.625A6.681,6.681,0,0,1,7.531.312,6.754,6.754,0,0,1,2.687-1.344,6.086,6.086,0,0,1,.937-5.969a6.038,6.038,0,0,1,1.75-4.609A6.727,6.727,0,0,1,7.531-12.25Z" fill="#fff"/>
      </g>
      <g id="Groupe_147" data-name="Groupe 147" transform="translate(298.172 647.5)">
        <path id="Tracé_164" data-name="Tracé 164" d="M1.844-11.969H5.656V-.219A5.274,5.274,0,0,1,4.5,3.453,4.254,4.254,0,0,1,1.172,4.719H-.719v-2.5h.656a1.865,1.865,0,0,0,1.5-.5A3.223,3.223,0,0,0,1.844-.219Zm0-4.656H5.656V-13.5H1.844Z" fill="#fff"/>
      </g>
      <g id="Groupe_148" data-name="Groupe 148" transform="translate(305.668 647.5)">
        <path id="Tracé_165" data-name="Tracé 165" d="M13.781-6.016v1.094H4.844a2.828,2.828,0,0,0,.969,2.016,3.593,3.593,0,0,0,2.328.672,8.926,8.926,0,0,0,2.469-.359,13.115,13.115,0,0,0,2.609-1.078V-.719A17.275,17.275,0,0,1,10.5.047,14.251,14.251,0,0,1,7.781.313,7.248,7.248,0,0,1,2.734-1.328a5.984,5.984,0,0,1-1.8-4.641A6.021,6.021,0,0,1,2.7-10.562,6.762,6.762,0,0,1,7.578-12.25a6.061,6.061,0,0,1,4.5,1.7,6.1,6.1,0,0,1,1.7,4.531ZM9.844-7.281A2.407,2.407,0,0,0,9.2-9.031,2.166,2.166,0,0,0,7.547-9.7a2.634,2.634,0,0,0-1.812.625,2.888,2.888,0,0,0-.859,1.8Z" fill="#fff"/>
      </g>
      <g id="Groupe_149" data-name="Groupe 149" transform="translate(320.504 647.5)">
        <path id="Tracé_166" data-name="Tracé 166" d="M11.5-11.594v3.125A6.284,6.284,0,0,0,9.938-9.25a5.06,5.06,0,0,0-1.625-.266,3.281,3.281,0,0,0-2.5.938,3.638,3.638,0,0,0-.891,2.609A3.632,3.632,0,0,0,5.813-3.36a3.281,3.281,0,0,0,2.5.938A5.23,5.23,0,0,0,10-2.688a4.959,4.959,0,0,0,1.5-.8V-.36a9.4,9.4,0,0,1-1.812.5A10.26,10.26,0,0,1,7.828.312,7.259,7.259,0,0,1,2.766-1.344,5.951,5.951,0,0,1,.938-5.969a5.906,5.906,0,0,1,1.828-4.609A7.228,7.228,0,0,1,7.828-12.25a9.995,9.995,0,0,1,1.844.172,10.71,10.71,0,0,1,1.828.484Z" fill="#fff"/>
      </g>
      <g id="Groupe_150" data-name="Groupe 150" transform="translate(333.473 647.5)">
        <path id="Tracé_167" data-name="Tracé 167" d="M6.016-15.359v3.391H9.953v2.734H6.016v5.078a1.487,1.487,0,0,0,.328,1.125,2.041,2.041,0,0,0,1.313.3H9.625V0H6.344A4.5,4.5,0,0,1,3.125-.937a4.5,4.5,0,0,1-.937-3.219V-9.234H.281v-2.734H2.188v-3.391Z" fill="#fff"/>
      </g>
    </g>
  </g>
</svg>
