<svg xmlns="http://www.w3.org/2000/svg" xmlns:xlink="http://www.w3.org/1999/xlink" width="60" height="60" viewBox="0 0 60 60">
  <defs>
    <clipPath id="clip-path">
      <rect x="-5" width="60" height="60" fill="none"/>
    </clipPath>
  </defs>
  <g id="reservations" transform="translate(5)" clip-path="url(#clip-path)" style="isolation: isolate">
    <path id="reservations-2" data-name="reservations" d="M126.372-.139A1.5,1.5,0,0,0,124.9,1.373V3.2h2.989V1.373a1.495,1.495,0,0,0-1.52-1.512Zm20.088,0h0a1.495,1.495,0,0,0-1.477,1.512V3.2h2.989V1.373A1.495,1.495,0,0,0,146.46-.139ZM117.844,3.2h0A1.5,1.5,0,0,0,116.5,4.692v7.469h39.88V4.692A1.495,1.495,0,0,0,154.889,3.2h-6.917v4.81c0,.043,0,.086,0,.128s-.009.1-.018.143V8.29l0,.02c-.008.042-.018.084-.029.125l-.006.02-.006.015c-.012.042-.025.084-.041.125s-.023.053-.035.079l-.017.038c-.017.032-.034.063-.053.093l-.02.038-.012.018q-.036.054-.076.105c-.022.028-.046.055-.07.082l-.027.032-.015.015-.015.015c-.031.03-.063.058-.1.085s-.067.054-.1.079-.082.055-.126.079l-.02.012-.032.015c-.033.017-.068.033-.1.047s-.079.033-.119.047l-.02.006-.027.006c-.039.011-.079.021-.12.029a1.432,1.432,0,0,1-.146.02c-.043,0-.086.006-.128.006s-.1,0-.152-.006a1.439,1.439,0,0,1-.146-.02c-.04-.008-.08-.018-.12-.029l-.032-.009c-.046-.014-.09-.031-.134-.05a1.458,1.458,0,0,1-.134-.064q-.057-.03-.111-.064l-.017-.012-.006,0q-.059-.041-.114-.087c-.033-.027-.066-.055-.1-.085l-.02-.02-.035-.041c-.024-.026-.048-.054-.07-.082s-.052-.069-.076-.105l0-.006-.029-.05c-.019-.03-.036-.061-.052-.093s-.037-.077-.053-.117-.029-.083-.041-.125l-.009-.02,0-.015c-.012-.041-.021-.083-.029-.125l0-.02V8.284c-.008-.047-.014-.1-.017-.143s0-.085,0-.128V3.2H127.891v4.81c0,.043,0,.086,0,.128s-.009.1-.018.143V8.29c-.005.033-.012.066-.02.1s-.011.045-.018.067l-.006.015c-.012.042-.025.084-.041.125s-.033.08-.052.12l-.009.017c-.01.018-.021.035-.032.053s-.026.047-.04.07c-.025.038-.051.075-.079.111s-.046.055-.07.082l-.035.041-.02.02c-.031.03-.063.058-.1.085s-.074.06-.114.087l-.052.032-.07.041-.047.023c-.033.017-.066.032-.1.047s-.089.035-.134.05l-.032.009c-.04.011-.079.021-.12.029s-.1.016-.146.02a1.555,1.555,0,0,1-.236,0l-.044,0c-.049,0-.1-.011-.146-.02s-.08-.018-.12-.029l-.032-.009c-.045-.015-.09-.031-.134-.05s-.067-.03-.1-.047l-.047-.023-.07-.041-.053-.032c-.039-.027-.077-.056-.114-.087s-.065-.055-.1-.085l-.02-.02-.035-.041c-.024-.026-.048-.054-.07-.082s-.052-.069-.076-.105l0-.006-.029-.05c-.019-.03-.036-.062-.052-.093s-.037-.077-.053-.117c-.009-.023-.018-.046-.026-.07s-.019-.06-.027-.09-.021-.083-.029-.125l0-.02V8.285c-.008-.047-.014-.1-.017-.143s0-.085,0-.128V3.2h-6.916q-.072,0-.143,0ZM116.5,15.15V46.205h0a1.494,1.494,0,0,0,1.489,1.5h36.9a1.494,1.494,0,0,0,1.489-1.5V15.15Zm27.734,7.933h0a1.495,1.495,0,0,1,1.059,2.572l-12.633,12.3a1.494,1.494,0,0,1-2.417-.488l-2.989-6.993A1.495,1.495,0,1,1,130,29.294l2.131,5,11.074-10.779h0a1.494,1.494,0,0,1,1.027-.429Z" transform="translate(-111.498 4.974)" fill="#bb9457"/>
  </g>
</svg>
