<svg xmlns="http://www.w3.org/2000/svg" xmlns:xlink="http://www.w3.org/1999/xlink" width="34" height="34" viewBox="0 0 34 34">
  <defs>
    <clipPath id="clip-path">
      <circle id="Ellipse_1" data-name="Ellipse 1" cx="17" cy="17" r="17" transform="translate(1101 2697.969)" fill="#fff" stroke="#000" stroke-width="1"/>
    </clipPath>
  </defs>
  <g id="Groupe_de_masques_3" data-name="Groupe de masques 3" transform="translate(-1101 -2697.969)" clip-path="url(#clip-path)">
    <path id="square-twitter" d="M30.357,2.429H3.643A3.644,3.644,0,0,0,0,6.071V32.786a3.644,3.644,0,0,0,3.643,3.643H30.357A3.644,3.644,0,0,0,34,32.786V6.071A3.644,3.644,0,0,0,30.357,2.429ZM26.646,14.48c.015.213.015.433.015.645A14.065,14.065,0,0,1,12.5,29.287a14.1,14.1,0,0,1-7.642-2.231,10.486,10.486,0,0,0,1.2.061,9.979,9.979,0,0,0,6.178-2.125,4.984,4.984,0,0,1-4.652-3.453,5.365,5.365,0,0,0,2.246-.091A4.978,4.978,0,0,1,5.844,16.56V16.5a4.974,4.974,0,0,0,2.246.63,4.967,4.967,0,0,1-2.216-4.144,4.915,4.915,0,0,1,.675-2.512A14.133,14.133,0,0,0,16.81,15.679,4.988,4.988,0,0,1,25.3,11.133a9.753,9.753,0,0,0,3.157-1.2,4.964,4.964,0,0,1-2.186,2.74,9.9,9.9,0,0,0,2.869-.774A10.477,10.477,0,0,1,26.646,14.48Z" transform="translate(1101 2695.541)" fill="#fff" stroke="#707070" stroke-width="0.076"/>
  </g>
</svg>
