<svg xmlns="http://www.w3.org/2000/svg" xmlns:xlink="http://www.w3.org/1999/xlink" width="60" height="60" viewBox="0 0 60 60">
  <defs>
    <clipPath id="clip-path">
      <rect x="7" y="-10" width="60" height="60" fill="none"/>
    </clipPath>
  </defs>
  <g id="account" transform="translate(-7 10)" clip-path="url(#clip-path)" style="isolation: isolate">
    <g id="account-2" data-name="account" transform="translate(-60.531 -118.156)">
      <path id="Tracé_304" data-name="Tracé 304" d="M158.745,127.533a6.571,6.571,0,1,1-6.572-6.572,6.571,6.571,0,0,1,6.572,6.572" transform="translate(-67.908 -0.001)" fill="#bb9457"/>
      <path id="Tracé_305" data-name="Tracé 305" d="M96.419,280c-6.518,0-11.861,5.824-12.449,13.731a1.361,1.361,0,0,0,1.389,1.443h22.119a1.361,1.361,0,0,0,1.389-1.443C108.28,285.823,102.938,280,96.419,280Z" transform="translate(-12.154 -143.867)" fill="#bb9457"/>
      <path id="Tracé_306" data-name="Tracé 306" d="M420.676,378.56H401.763a.822.822,0,0,0-.8.8v4.114a.822.822,0,0,0,.8.8h18.913a.822.822,0,0,0,.8-.8v-4.114A.822.822,0,0,0,420.676,378.56Z" transform="translate(-298.905 -233.023)" fill="#bb9457"/>
      <path id="Tracé_307" data-name="Tracé 307" d="M420.676,249.76H401.763a.822.822,0,0,0-.8.8v4.114a.822.822,0,0,0,.8.8h18.913a.822.822,0,0,0,.8-.8v-4.114A.822.822,0,0,0,420.676,249.76Z" transform="translate(-298.905 -116.512)" fill="#bb9457"/>
      <path id="Tracé_308" data-name="Tracé 308" d="M420.676,120.96H401.763a.822.822,0,0,0-.8.8v4.114a.822.822,0,0,0,.8.8h18.913a.822.822,0,0,0,.8-.8v-4.114A.822.822,0,0,0,420.676,120.96Z" transform="translate(-298.905 0)" fill="#bb9457"/>
      <g id="Groupe_277" data-name="Groupe 277" transform="translate(70.613 168.879)">
        <path id="Tracé_309" data-name="Tracé 309" d="M3.049-18.906a1.269,1.269,0,0,1-.289.107,1.3,1.3,0,0,1-.313.037,1.069,1.069,0,0,1-.771-.271.973.973,0,0,1-.285-.738.971.971,0,0,1,.285-.738,1.067,1.067,0,0,1,.771-.273,1.3,1.3,0,0,1,.313.037,1.269,1.269,0,0,1,.289.107v.4a1.146,1.146,0,0,0-.276-.139.909.909,0,0,0-.286-.045.535.535,0,0,0-.422.173.685.685,0,0,0-.154.474.688.688,0,0,0,.154.474.537.537,0,0,0,.422.171.931.931,0,0,0,.286-.043,1.114,1.114,0,0,0,.276-.14Z" transform="translate(-1.391 20.781)" fill="#bb9457"/>
      </g>
      <g id="Groupe_278" data-name="Groupe 278" transform="translate(72.666 169.365)">
        <path id="Tracé_310" data-name="Tracé 310" d="M3.444-15.254a.645.645,0,0,0-.124-.042A.51.51,0,0,0,3.2-15.31a.34.34,0,0,0-.277.116.5.5,0,0,0-.1.329v.674H2.359v-1.461h.467v.24a.593.593,0,0,1,.206-.209.556.556,0,0,1,.28-.067l.051,0,.08.007Z" transform="translate(-2.359 15.687)" fill="#bb9457"/>
      </g>
      <g id="Groupe_279" data-name="Groupe 279" transform="translate(73.874 169.365)">
        <path id="Tracé_311" data-name="Tracé 311" d="M2.772-14.926v.134H1.679a.347.347,0,0,0,.119.246.441.441,0,0,0,.285.082,1.1,1.1,0,0,0,.3-.043A1.594,1.594,0,0,0,2.7-14.64v.359a1.968,1.968,0,0,1-.331.094,1.718,1.718,0,0,1-.331.033.882.882,0,0,1-.617-.2A.728.728,0,0,1,1.2-14.92a.736.736,0,0,1,.216-.562.825.825,0,0,1,.593-.206.743.743,0,0,1,.552.209.749.749,0,0,1,.207.553Zm-.48-.155a.3.3,0,0,0-.078-.213.267.267,0,0,0-.2-.082.318.318,0,0,0-.221.076.35.35,0,0,0-.106.219Z" transform="translate(-1.203 15.688)" fill="#bb9457"/>
      </g>
      <g id="Groupe_280" data-name="Groupe 280" transform="translate(75.685 169.365)">
        <path id="Tracé_312" data-name="Tracé 312" d="M1.968-14.848a.4.4,0,0,0-.221.049.164.164,0,0,0-.073.146.173.173,0,0,0,.06.14.25.25,0,0,0,.164.049.294.294,0,0,0,.222-.094.33.33,0,0,0,.091-.237v-.054Zm.713-.176v.833h-.47v-.216A.6.6,0,0,1,2-14.213a.632.632,0,0,1-.286.06.519.519,0,0,1-.368-.131.449.449,0,0,1-.142-.344A.422.422,0,0,1,1.379-15a1,1,0,0,1,.556-.121h.276v-.037a.173.173,0,0,0-.088-.161.554.554,0,0,0-.273-.052,1.255,1.255,0,0,0-.28.03.967.967,0,0,0-.239.089v-.356a2.841,2.841,0,0,1,.3-.055,2.45,2.45,0,0,1,.3-.019.843.843,0,0,1,.569.157.646.646,0,0,1,.176.507Z" transform="translate(-1.203 15.688)" fill="#bb9457"/>
      </g>
      <g id="Groupe_281" data-name="Groupe 281" transform="translate(77.409 168.986)">
        <path id="Tracé_313" data-name="Tracé 313" d="M1.074-19.656v.414h.482v.334H1.074v.62a.18.18,0,0,0,.04.137.251.251,0,0,0,.16.036h.24v.334h-.4A.548.548,0,0,1,.721-17.9a.545.545,0,0,1-.115-.392v-.62H.375v-.334H.606v-.414Z" transform="translate(-0.375 19.656)" fill="#bb9457"/>
      </g>
      <g id="Groupe_282" data-name="Groupe 282" transform="translate(78.765 169.365)">
        <path id="Tracé_314" data-name="Tracé 314" d="M2.772-14.926v.134H1.679a.347.347,0,0,0,.119.246.441.441,0,0,0,.285.082,1.1,1.1,0,0,0,.3-.043A1.594,1.594,0,0,0,2.7-14.64v.359a1.968,1.968,0,0,1-.331.094,1.718,1.718,0,0,1-.331.033.882.882,0,0,1-.617-.2A.728.728,0,0,1,1.2-14.92a.736.736,0,0,1,.216-.562.825.825,0,0,1,.593-.206.743.743,0,0,1,.552.209.749.749,0,0,1,.207.553Zm-.48-.155a.3.3,0,0,0-.078-.213.267.267,0,0,0-.2-.082.318.318,0,0,0-.221.076.35.35,0,0,0-.106.219Z" transform="translate(-1.203 15.688)" fill="#bb9457"/>
      </g>
      <g id="Groupe_283" data-name="Groupe 283" transform="translate(80.583 168.831)">
        <path id="Tracé_315" data-name="Tracé 315" d="M2.363-20.5v-.783h.47v2.03h-.47v-.212a.615.615,0,0,1-.212.189.587.587,0,0,1-.27.06.543.543,0,0,1-.443-.215.85.85,0,0,1-.173-.552.853.853,0,0,1,.173-.553.543.543,0,0,1,.443-.215.57.57,0,0,1,.268.061.646.646,0,0,1,.213.188Zm-.307.947a.265.265,0,0,0,.228-.109.544.544,0,0,0,.079-.319.538.538,0,0,0-.079-.318.264.264,0,0,0-.228-.11.263.263,0,0,0-.228.11.535.535,0,0,0-.079.318.541.541,0,0,0,.079.319A.264.264,0,0,0,2.056-19.552Z" transform="translate(-1.266 21.281)" fill="#bb9457"/>
      </g>
      <g id="Groupe_284" data-name="Groupe 284" transform="translate(83.529 168.831)">
        <path id="Tracé_316" data-name="Tracé 316" d="M3.136-19.552a.266.266,0,0,0,.23-.109.544.544,0,0,0,.079-.319.538.538,0,0,0-.079-.318.266.266,0,0,0-.23-.11.269.269,0,0,0-.231.11.54.54,0,0,0-.079.318.538.538,0,0,0,.079.318.268.268,0,0,0,.231.11Zm-.31-.947a.662.662,0,0,1,.213-.188.578.578,0,0,1,.27-.061.546.546,0,0,1,.444.215.855.855,0,0,1,.173.553.852.852,0,0,1-.173.552.546.546,0,0,1-.444.215.592.592,0,0,1-.27-.06.646.646,0,0,1-.213-.189v.212H2.359v-2.03h.467Z" transform="translate(-2.359 21.281)" fill="#bb9457"/>
      </g>
      <g id="Groupe_285" data-name="Groupe 285" transform="translate(85.249 169.401)">
        <path id="Tracé_317" data-name="Tracé 317" d="M.344-15.312H.81l.394.991.334-.991H2l-.614,1.6a.78.78,0,0,1-.216.34.507.507,0,0,1-.325.1H.578v-.307H.724A.3.3,0,0,0,.9-13.62a.244.244,0,0,0,.085-.134L1-13.794Z" transform="translate(-0.344 15.312)" fill="#bb9457"/>
      </g>
      <g id="Groupe_286" data-name="Groupe 286" transform="translate(87.901 168.915)">
        <path id="Tracé_318" data-name="Tracé 318" d="M1.554-18.814H.77l-.125.355h-.5l.722-1.947h.6l.722,1.947h-.5Zm-.659-.361h.532l-.265-.775Z" transform="translate(-0.141 20.406)" fill="#bb9457"/>
      </g>
      <g id="Groupe_287" data-name="Groupe 287" transform="translate(90.076 168.831)">
        <path id="Tracé_319" data-name="Tracé 319" d="M2.363-20.5v-.783h.47v2.03h-.47v-.212a.615.615,0,0,1-.212.189.587.587,0,0,1-.27.06.543.543,0,0,1-.443-.215.85.85,0,0,1-.173-.552.853.853,0,0,1,.173-.553.543.543,0,0,1,.443-.215.57.57,0,0,1,.268.061.646.646,0,0,1,.213.188Zm-.307.947a.265.265,0,0,0,.228-.109.544.544,0,0,0,.079-.319.538.538,0,0,0-.079-.318.264.264,0,0,0-.228-.11.263.263,0,0,0-.228.11.535.535,0,0,0-.079.318.541.541,0,0,0,.079.319A.264.264,0,0,0,2.056-19.552Z" transform="translate(-1.266 21.281)" fill="#bb9457"/>
      </g>
      <g id="Groupe_288" data-name="Groupe 288" transform="translate(92.093 169.365)">
        <path id="Tracé_320" data-name="Tracé 320" d="M3.444-15.254a.645.645,0,0,0-.124-.042A.51.51,0,0,0,3.2-15.31a.34.34,0,0,0-.277.116.5.5,0,0,0-.1.329v.674H2.359v-1.461h.467v.24a.593.593,0,0,1,.206-.209.556.556,0,0,1,.28-.067l.051,0,.08.007Z" transform="translate(-2.359 15.687)" fill="#bb9457"/>
      </g>
      <g id="Groupe_289" data-name="Groupe 289" transform="translate(93.41 168.831)">
        <path id="Tracé_321" data-name="Tracé 321" d="M2.359-20.711h.467v1.461H2.359Zm0-.569h.467v.382H2.359Z" transform="translate(-2.359 21.281)" fill="#bb9457"/>
      </g>
      <g id="Groupe_290" data-name="Groupe 290" transform="translate(94.215 169.365)">
        <path id="Tracé_322" data-name="Tracé 322" d="M2.772-14.926v.134H1.679a.347.347,0,0,0,.119.246.441.441,0,0,0,.285.082,1.1,1.1,0,0,0,.3-.043A1.594,1.594,0,0,0,2.7-14.64v.359a1.968,1.968,0,0,1-.331.094,1.718,1.718,0,0,1-.331.033.882.882,0,0,1-.617-.2A.728.728,0,0,1,1.2-14.92a.736.736,0,0,1,.216-.562.825.825,0,0,1,.593-.206.743.743,0,0,1,.552.209.749.749,0,0,1,.207.553Zm-.48-.155a.3.3,0,0,0-.078-.213.267.267,0,0,0-.2-.082.318.318,0,0,0-.221.076.35.35,0,0,0-.106.219Z" transform="translate(-1.203 15.688)" fill="#bb9457"/>
      </g>
      <g id="Groupe_291" data-name="Groupe 291" transform="translate(96.138 169.365)">
        <path id="Tracé_323" data-name="Tracé 323" d="M3.828-15.08v.89h-.47v-.681a2.5,2.5,0,0,0-.009-.261.28.28,0,0,0-.03-.106.19.19,0,0,0-.075-.07.219.219,0,0,0-.106-.025.27.27,0,0,0-.23.113.51.51,0,0,0-.083.312v.719H2.359v-1.461h.467v.213a.746.746,0,0,1,.224-.188.568.568,0,0,1,.262-.061.474.474,0,0,1,.385.157.681.681,0,0,1,.131.45Z" transform="translate(-2.359 15.687)" fill="#bb9457"/>
      </g>
      <g id="Groupe_292" data-name="Groupe 292" transform="translate(98.877 168.879)">
        <path id="Tracé_324" data-name="Tracé 324" d="M3.049-18.906a1.269,1.269,0,0,1-.289.107,1.3,1.3,0,0,1-.313.037,1.069,1.069,0,0,1-.771-.271.973.973,0,0,1-.285-.738.971.971,0,0,1,.285-.738,1.067,1.067,0,0,1,.771-.273,1.3,1.3,0,0,1,.313.037,1.269,1.269,0,0,1,.289.107v.4a1.146,1.146,0,0,0-.276-.139.909.909,0,0,0-.286-.045.535.535,0,0,0-.422.173.685.685,0,0,0-.154.474.688.688,0,0,0,.154.474.537.537,0,0,0,.422.171.931.931,0,0,0,.286-.043,1.114,1.114,0,0,0,.276-.14Z" transform="translate(-1.391 20.781)" fill="#bb9457"/>
      </g>
      <g id="Groupe_293" data-name="Groupe 293" transform="translate(100.819 169.365)">
        <path id="Tracé_325" data-name="Tracé 325" d="M2.008-15.354a.275.275,0,0,0-.237.112.538.538,0,0,0-.082.322.538.538,0,0,0,.082.322.276.276,0,0,0,.237.11.27.27,0,0,0,.233-.11.54.54,0,0,0,.082-.322.54.54,0,0,0-.082-.322A.269.269,0,0,0,2.008-15.354Zm0-.334a.814.814,0,0,1,.589.2.745.745,0,0,1,.212.563.747.747,0,0,1-.212.563.817.817,0,0,1-.589.2.823.823,0,0,1-.592-.2A.742.742,0,0,1,1.2-14.92a.74.74,0,0,1,.213-.563A.82.82,0,0,1,2.008-15.688Z" transform="translate(-1.203 15.688)" fill="#bb9457"/>
      </g>
      <g id="Groupe_294" data-name="Groupe 294" transform="translate(102.661 169.368)">
        <path id="Tracé_326" data-name="Tracé 326" d="M2.056-15.319a.263.263,0,0,0-.228.11.535.535,0,0,0-.079.318.541.541,0,0,0,.079.319.264.264,0,0,0,.228.109.265.265,0,0,0,.228-.109.544.544,0,0,0,.079-.319.538.538,0,0,0-.079-.318A.264.264,0,0,0,2.056-15.319Zm.307.945a.615.615,0,0,1-.212.189.587.587,0,0,1-.27.06.543.543,0,0,1-.443-.215.85.85,0,0,1-.173-.552.847.847,0,0,1,.173-.552.545.545,0,0,1,.443-.213.574.574,0,0,1,.27.061.625.625,0,0,1,.212.188v-.216h.47v2.017h-.47Z" transform="translate(-1.266 15.656)" fill="#bb9457"/>
      </g>
      <g id="Groupe_295" data-name="Groupe 295" transform="translate(104.661 169.4)">
        <path id="Tracé_327" data-name="Tracé 327" d="M2.188-14.421v-.891h.47v.146c0,.08,0,.179,0,.3s0,.2,0,.239a2.51,2.51,0,0,0,.009.255.294.294,0,0,0,.031.112.205.205,0,0,0,.076.072.225.225,0,0,0,.106.024.271.271,0,0,0,.23-.112.512.512,0,0,0,.083-.312v-.722h.467v1.461H3.189v-.212a.734.734,0,0,1-.224.189.573.573,0,0,1-.261.06.477.477,0,0,1-.385-.155.675.675,0,0,1-.133-.452Z" transform="translate(-2.188 15.313)" fill="#bb9457"/>
      </g>
      <g id="Groupe_296" data-name="Groupe 296" transform="translate(106.469 169.365)">
        <path id="Tracé_328" data-name="Tracé 328" d="M2.772-14.926v.134H1.679a.347.347,0,0,0,.119.246.441.441,0,0,0,.285.082,1.1,1.1,0,0,0,.3-.043A1.594,1.594,0,0,0,2.7-14.64v.359a1.968,1.968,0,0,1-.331.094,1.718,1.718,0,0,1-.331.033.882.882,0,0,1-.617-.2A.728.728,0,0,1,1.2-14.92a.736.736,0,0,1,.216-.562.825.825,0,0,1,.593-.206.743.743,0,0,1,.552.209.749.749,0,0,1,.207.553Zm-.48-.155a.3.3,0,0,0-.078-.213.267.267,0,0,0-.2-.082.318.318,0,0,0-.221.076.35.35,0,0,0-.106.219Z" transform="translate(-1.203 15.688)" fill="#bb9457"/>
      </g>
      <g id="Groupe_297" data-name="Groupe 297" transform="translate(108.201 168.986)">
        <path id="Tracé_329" data-name="Tracé 329" d="M1.074-19.656v.414h.482v.334H1.074v.62a.18.18,0,0,0,.04.137.251.251,0,0,0,.16.036h.24v.334h-.4A.548.548,0,0,1,.721-17.9a.545.545,0,0,1-.115-.392v-.62H.375v-.334H.606v-.414Z" transform="translate(-0.375 19.656)" fill="#bb9457"/>
      </g>
      <g id="Groupe_298" data-name="Groupe 298" transform="translate(70.531 171.502)">
        <path id="Tracé_330" data-name="Tracé 330" d="M1.666-21.281v.307H1.408a.209.209,0,0,0-.139.036.165.165,0,0,0-.039.125v.1h.4v.334h-.4v1.127H.764v-1.127H.531v-.334H.764v-.1A.442.442,0,0,1,.9-21.166a.621.621,0,0,1,.413-.115Z" transform="translate(-0.531 21.281)" fill="#bb9457"/>
      </g>
      <g id="Groupe_299" data-name="Groupe 299" transform="translate(71.868 172.036)">
        <path id="Tracé_331" data-name="Tracé 331" d="M3.444-15.254a.645.645,0,0,0-.124-.042A.51.51,0,0,0,3.2-15.31a.34.34,0,0,0-.277.116.5.5,0,0,0-.1.329v.674H2.359v-1.461h.467v.24a.593.593,0,0,1,.206-.209.556.556,0,0,1,.28-.067l.051,0,.08.007Z" transform="translate(-2.359 15.687)" fill="#bb9457"/>
      </g>
      <g id="Groupe_300" data-name="Groupe 300" transform="translate(73.075 172.036)">
        <path id="Tracé_332" data-name="Tracé 332" d="M2.008-15.354a.275.275,0,0,0-.237.112.538.538,0,0,0-.082.322.538.538,0,0,0,.082.322.276.276,0,0,0,.237.11.27.27,0,0,0,.233-.11.54.54,0,0,0,.082-.322.54.54,0,0,0-.082-.322A.269.269,0,0,0,2.008-15.354Zm0-.334a.814.814,0,0,1,.589.2.745.745,0,0,1,.212.563.747.747,0,0,1-.212.563.817.817,0,0,1-.589.2.823.823,0,0,1-.592-.2A.742.742,0,0,1,1.2-14.92a.74.74,0,0,1,.213-.563A.82.82,0,0,1,2.008-15.688Z" transform="translate(-1.203 15.688)" fill="#bb9457"/>
      </g>
      <g id="Groupe_301" data-name="Groupe 301" transform="translate(75.018 172.036)">
        <path id="Tracé_333" data-name="Tracé 333" d="M3.685-15.409a.633.633,0,0,1,.21-.207.52.52,0,0,1,.268-.072.472.472,0,0,1,.383.157.675.675,0,0,1,.133.45v.89h-.47v-.8c0-.013,0-.031,0-.054a.415.415,0,0,0-.046-.224.161.161,0,0,0-.146-.07.233.233,0,0,0-.206.11.573.573,0,0,0-.075.316v.717h-.47v-.762a.726.726,0,0,0-.042-.312.159.159,0,0,0-.149-.07.234.234,0,0,0-.207.11.563.563,0,0,0-.073.315v.719h-.47v-1.461H2.8v.213a.607.607,0,0,1,.2-.186.5.5,0,0,1,.246-.063.5.5,0,0,1,.268.073.46.46,0,0,1,.176.206Z" transform="translate(-2.328 15.688)" fill="#bb9457"/>
      </g>
      <g id="Groupe_302" data-name="Groupe 302" transform="translate(78.545 171.657)">
        <path id="Tracé_334" data-name="Tracé 334" d="M1.074-19.656v.414h.482v.334H1.074v.62a.18.18,0,0,0,.04.137.251.251,0,0,0,.16.036h.24v.334h-.4A.548.548,0,0,1,.721-17.9a.545.545,0,0,1-.115-.392v-.62H.375v-.334H.606v-.414Z" transform="translate(-0.375 19.656)" fill="#bb9457"/>
      </g>
      <g id="Groupe_303" data-name="Groupe 303" transform="translate(80.011 171.502)">
        <path id="Tracé_335" data-name="Tracé 335" d="M3.828-20.141v.89h-.47v-.678a2.537,2.537,0,0,0-.009-.264.28.28,0,0,0-.03-.106.19.19,0,0,0-.075-.07.219.219,0,0,0-.106-.025.27.27,0,0,0-.23.113.51.51,0,0,0-.083.312v.719H2.359v-2.03h.467v.783a.746.746,0,0,1,.224-.188.568.568,0,0,1,.262-.061.474.474,0,0,1,.385.157.681.681,0,0,1,.131.45Z" transform="translate(-2.359 21.281)" fill="#bb9457"/>
      </g>
      <g id="Groupe_304" data-name="Groupe 304" transform="translate(81.803 172.036)">
        <path id="Tracé_336" data-name="Tracé 336" d="M2.772-14.926v.134H1.679a.347.347,0,0,0,.119.246.441.441,0,0,0,.285.082,1.1,1.1,0,0,0,.3-.043A1.594,1.594,0,0,0,2.7-14.64v.359a1.968,1.968,0,0,1-.331.094,1.718,1.718,0,0,1-.331.033.882.882,0,0,1-.617-.2A.728.728,0,0,1,1.2-14.92a.736.736,0,0,1,.216-.562.825.825,0,0,1,.593-.206.743.743,0,0,1,.552.209.749.749,0,0,1,.207.553Zm-.48-.155a.3.3,0,0,0-.078-.213.267.267,0,0,0-.2-.082.318.318,0,0,0-.221.076.35.35,0,0,0-.106.219Z" transform="translate(-1.203 15.688)" fill="#bb9457"/>
      </g>
      <g id="Groupe_305" data-name="Groupe 305" transform="translate(84.676 171.586)">
        <path id="Tracé_337" data-name="Tracé 337" d="M2.578-20.406h.561l.708,1.336v-1.336h.476v1.947H3.762l-.708-1.336v1.336H2.578Z" transform="translate(-2.578 20.406)" fill="#bb9457"/>
      </g>
      <g id="Groupe_306" data-name="Groupe 306" transform="translate(86.78 172.036)">
        <path id="Tracé_338" data-name="Tracé 338" d="M2.008-15.354a.275.275,0,0,0-.237.112.538.538,0,0,0-.082.322.538.538,0,0,0,.082.322.276.276,0,0,0,.237.11.27.27,0,0,0,.233-.11.54.54,0,0,0,.082-.322.54.54,0,0,0-.082-.322A.269.269,0,0,0,2.008-15.354Zm0-.334a.814.814,0,0,1,.589.2.745.745,0,0,1,.212.563.747.747,0,0,1-.212.563.817.817,0,0,1-.589.2.823.823,0,0,1-.592-.2A.742.742,0,0,1,1.2-14.92a.74.74,0,0,1,.213-.563A.82.82,0,0,1,2.008-15.688Z" transform="translate(-1.203 15.688)" fill="#bb9457"/>
      </g>
      <g id="Groupe_307" data-name="Groupe 307" transform="translate(88.71 172.072)">
        <path id="Tracé_339" data-name="Tracé 339" d="M2.188-14.421v-.891h.47v.146c0,.08,0,.179,0,.3s0,.2,0,.239a2.51,2.51,0,0,0,.009.255.294.294,0,0,0,.031.112.205.205,0,0,0,.076.072.225.225,0,0,0,.106.024.271.271,0,0,0,.23-.112.512.512,0,0,0,.083-.312v-.722h.467v1.461H3.189v-.212a.734.734,0,0,1-.224.189.573.573,0,0,1-.261.06.477.477,0,0,1-.385-.155.675.675,0,0,1-.133-.452Z" transform="translate(-2.188 15.313)" fill="#bb9457"/>
      </g>
      <g id="Groupe_308" data-name="Groupe 308" transform="translate(90.628 172.036)">
        <path id="Tracé_340" data-name="Tracé 340" d="M3.828-15.08v.89h-.47v-.681a2.5,2.5,0,0,0-.009-.261.28.28,0,0,0-.03-.106.19.19,0,0,0-.075-.07.219.219,0,0,0-.106-.025.27.27,0,0,0-.23.113.51.51,0,0,0-.083.312v.719H2.359v-1.461h.467v.213a.746.746,0,0,1,.224-.188.568.568,0,0,1,.262-.061.474.474,0,0,1,.385.157.681.681,0,0,1,.131.45Z" transform="translate(-2.359 15.687)" fill="#bb9457"/>
      </g>
      <g id="Groupe_309" data-name="Groupe 309" transform="translate(93.48 171.586)">
        <path id="Tracé_341" data-name="Tracé 341" d="M2.578-20.406h.833a.867.867,0,0,1,.569.165.574.574,0,0,1,.2.47.577.577,0,0,1-.2.471.867.867,0,0,1-.569.165H3.079v.675h-.5Zm.5.364v.544h.279a.325.325,0,0,0,.225-.072.255.255,0,0,0,.08-.2.253.253,0,0,0-.08-.2.33.33,0,0,0-.225-.07Z" transform="translate(-2.578 20.406)" fill="#bb9457"/>
      </g>
      <g id="Groupe_310" data-name="Groupe 310" transform="translate(95.418 172.036)">
        <path id="Tracé_342" data-name="Tracé 342" d="M3.444-15.254a.645.645,0,0,0-.124-.042A.51.51,0,0,0,3.2-15.31a.34.34,0,0,0-.277.116.5.5,0,0,0-.1.329v.674H2.359v-1.461h.467v.24a.593.593,0,0,1,.206-.209.556.556,0,0,1,.28-.067l.051,0,.08.007Z" transform="translate(-2.359 15.687)" fill="#bb9457"/>
      </g>
      <g id="Groupe_311" data-name="Groupe 311" transform="translate(96.624 172.036)">
        <path id="Tracé_343" data-name="Tracé 343" d="M2.008-15.354a.275.275,0,0,0-.237.112.538.538,0,0,0-.082.322.538.538,0,0,0,.082.322.276.276,0,0,0,.237.11.27.27,0,0,0,.233-.11.54.54,0,0,0,.082-.322.54.54,0,0,0-.082-.322A.269.269,0,0,0,2.008-15.354Zm0-.334a.814.814,0,0,1,.589.2.745.745,0,0,1,.212.563.747.747,0,0,1-.212.563.817.817,0,0,1-.589.2.823.823,0,0,1-.592-.2A.742.742,0,0,1,1.2-14.92a.74.74,0,0,1,.213-.563A.82.82,0,0,1,2.008-15.688Z" transform="translate(-1.203 15.688)" fill="#bb9457"/>
      </g>
      <g id="Groupe_312" data-name="Groupe 312" transform="translate(98.256 171.502)">
        <path id="Tracé_344" data-name="Tracé 344" d="M-.623-20.711h.467v1.434a.644.644,0,0,1-.142.449.523.523,0,0,1-.408.155H-.937v-.307h.082a.228.228,0,0,0,.182-.06.39.39,0,0,0,.051-.237Zm0-.569h.467v.382H-.623Z" transform="translate(0.937 21.281)" fill="#bb9457"/>
      </g>
      <g id="Groupe_313" data-name="Groupe 313" transform="translate(99.376 172.036)">
        <path id="Tracé_345" data-name="Tracé 345" d="M2.772-14.926v.134H1.679a.347.347,0,0,0,.119.246.441.441,0,0,0,.285.082,1.1,1.1,0,0,0,.3-.043A1.594,1.594,0,0,0,2.7-14.64v.359a1.968,1.968,0,0,1-.331.094,1.718,1.718,0,0,1-.331.033.882.882,0,0,1-.617-.2A.728.728,0,0,1,1.2-14.92a.736.736,0,0,1,.216-.562.825.825,0,0,1,.593-.206.743.743,0,0,1,.552.209.749.749,0,0,1,.207.553Zm-.48-.155a.3.3,0,0,0-.078-.213.267.267,0,0,0-.2-.082.318.318,0,0,0-.221.076.35.35,0,0,0-.106.219Z" transform="translate(-1.203 15.688)" fill="#bb9457"/>
      </g>
      <g id="Groupe_314" data-name="Groupe 314" transform="translate(101.188 172.036)">
        <path id="Tracé_346" data-name="Tracé 346" d="M2.493-15.605v.38a.726.726,0,0,0-.191-.1.632.632,0,0,0-.2-.031.4.4,0,0,0-.306.115.442.442,0,0,0-.109.319A.444.444,0,0,0,1.8-14.6a.406.406,0,0,0,.306.113.68.68,0,0,0,.207-.031.612.612,0,0,0,.182-.1v.382a1.263,1.263,0,0,1-.222.06,1.244,1.244,0,0,1-.227.021.887.887,0,0,1-.619-.2.723.723,0,0,1-.222-.563.726.726,0,0,1,.222-.565.888.888,0,0,1,.619-.2,1.244,1.244,0,0,1,.227.021,1.247,1.247,0,0,1,.222.061Z" transform="translate(-1.203 15.687)" fill="#bb9457"/>
      </g>
      <g id="Groupe_315" data-name="Groupe 315" transform="translate(102.692 171.657)">
        <path id="Tracé_347" data-name="Tracé 347" d="M1.074-19.656v.414h.482v.334H1.074v.62a.18.18,0,0,0,.04.137.251.251,0,0,0,.16.036h.24v.334h-.4A.548.548,0,0,1,.721-17.9a.545.545,0,0,1-.115-.392v-.62H.375v-.334H.606v-.414Z" transform="translate(-0.375 19.656)" fill="#bb9457"/>
      </g>
    </g>
  </g>
</svg>
