<svg xmlns="http://www.w3.org/2000/svg" xmlns:xlink="http://www.w3.org/1999/xlink" width="77" height="77" viewBox="0 0 77 77">
  <defs>
    <clipPath id="clip-path">
      <circle id="Ellipse_4" data-name="Ellipse 4" cx="38.5" cy="38.5" r="38.5" transform="translate(323.84 385)" fill="#fff" stroke="#fff" stroke-width="1"/>
    </clipPath>
    <clipPath id="clip-path-2">
      <rect id="Rectangle_23" data-name="Rectangle 23" width="65" height="65" transform="translate(-6.416 0.424)" fill="none" stroke="#fff" stroke-width="1.283"/>
    </clipPath>
    <clipPath id="clip-path-3">
      <rect id="Rectangle_24" data-name="Rectangle 24" width="60" height="60" transform="translate(0)" fill="none"/>
    </clipPath>
  </defs>
  <g id="Groupe_de_masques_5" data-name="Groupe de masques 5" transform="translate(-323.84 -385)" clip-path="url(#clip-path)">
    <g id="reservations" transform="translate(334.256 389.576)" clip-path="url(#clip-path-2)" style="isolation: isolate">
      <g id="Groupe_4" data-name="Groupe 4" transform="translate(2 -6)">
        <g id="account" transform="translate(-5.516 9.614)" clip-path="url(#clip-path-3)" style="isolation: isolate">
          <g id="account-2" data-name="account" transform="translate(3 12.804)">
            <path id="Tracé_304" data-name="Tracé 304" d="M118.667,94.238a6.571,6.571,0,1,1-6.572-6.572,6.571,6.571,0,0,1,6.572,6.572" transform="translate(-98.361 -87.666)" fill="#fff"/>
            <path id="Tracé_305" data-name="Tracé 305" d="M73.307,202.929c-6.518,0-11.861,5.824-12.449,13.731a1.361,1.361,0,0,0,1.389,1.443H84.366a1.361,1.361,0,0,0,1.389-1.443C85.168,208.752,79.826,202.929,73.307,202.929Z" transform="translate(-59.573 -187.756)" fill="#fff"/>
            <path id="Tracé_306" data-name="Tracé 306" d="M310.31,274.361H291.4a.822.822,0,0,0-.8.8v4.114a.822.822,0,0,0,.8.8H310.31a.822.822,0,0,0,.8-.8V275.16A.822.822,0,0,0,310.31,274.361Z" transform="translate(-259.07 -249.783)" fill="#fff"/>
            <path id="Tracé_307" data-name="Tracé 307" d="M310.31,181.013H291.4a.822.822,0,0,0-.8.8v4.114a.822.822,0,0,0,.8.8H310.31a.822.822,0,0,0,.8-.8v-4.114a.822.822,0,0,0-.8-.8Z" transform="translate(-259.07 -168.725)" fill="#fff"/>
            <path id="Tracé_308" data-name="Tracé 308" d="M310.31,87.665H291.4a.822.822,0,0,0-.8.8v4.114a.822.822,0,0,0,.8.8H310.31a.822.822,0,0,0,.8-.8V88.465a.822.822,0,0,0-.8-.8Z" transform="translate(-259.07 -87.665)" fill="#fff"/>
            <g id="Groupe_277" data-name="Groupe 277" transform="translate(0.081 47.917)">
              <path id="Tracé_309" data-name="Tracé 309" d="M2.666-13.185a1.269,1.269,0,0,1-.289.107,1.3,1.3,0,0,1-.313.037,1.069,1.069,0,0,1-.771-.271.973.973,0,0,1-.285-.738.971.971,0,0,1,.285-.738,1.067,1.067,0,0,1,.771-.273,1.3,1.3,0,0,1,.313.037,1.269,1.269,0,0,1,.289.107v.4a1.146,1.146,0,0,0-.276-.139A.909.909,0,0,0,2.1-14.7a.535.535,0,0,0-.422.173.685.685,0,0,0-.154.474.688.688,0,0,0,.154.474.537.537,0,0,0,.422.171.931.931,0,0,0,.286-.043,1.114,1.114,0,0,0,.276-.14Z" transform="translate(-1.007 15.063)" fill="#fff"/>
            </g>
            <g id="Groupe_278" data-name="Groupe 278" transform="translate(2.135 48.404)">
              <path id="Tracé_310" data-name="Tracé 310" d="M2.795-10.936a.645.645,0,0,0-.124-.042.51.51,0,0,0-.12-.014.34.34,0,0,0-.277.116.5.5,0,0,0-.1.329v.674H1.71v-1.461h.467v.24a.593.593,0,0,1,.206-.209.556.556,0,0,1,.28-.067h.051l.08.007Z" transform="translate(-1.71 11.37)" fill="#fff"/>
            </g>
            <g id="Groupe_279" data-name="Groupe 279" transform="translate(3.339 48.404)">
              <path id="Tracé_311" data-name="Tracé 311" d="M2.442-10.607v.134H1.349a.347.347,0,0,0,.119.246.441.441,0,0,0,.285.082,1.1,1.1,0,0,0,.3-.043,1.594,1.594,0,0,0,.317-.133v.359a1.968,1.968,0,0,1-.331.094,1.718,1.718,0,0,1-.331.033.882.882,0,0,1-.617-.2A.728.728,0,0,1,.87-10.6a.736.736,0,0,1,.216-.562.825.825,0,0,1,.593-.206.743.743,0,0,1,.552.209.749.749,0,0,1,.207.553Zm-.48-.155a.3.3,0,0,0-.078-.213.267.267,0,0,0-.2-.082.318.318,0,0,0-.221.076.35.35,0,0,0-.106.219Z" transform="translate(-0.869 11.371)" fill="#fff"/>
            </g>
            <g id="Groupe_280" data-name="Groupe 280" transform="translate(5.154 48.408)">
              <path id="Tracé_312" data-name="Tracé 312" d="M1.637-10.531a.4.4,0,0,0-.221.049.164.164,0,0,0-.073.146.173.173,0,0,0,.06.14.25.25,0,0,0,.164.049.294.294,0,0,0,.222-.094.33.33,0,0,0,.091-.237v-.054Zm.713-.176v.833H1.88v-.216a.6.6,0,0,1-.211.194.632.632,0,0,1-.286.06.519.519,0,0,1-.368-.131.449.449,0,0,1-.142-.344.422.422,0,0,1,.175-.372A1,1,0,0,1,1.6-10.8H1.88v-.037A.173.173,0,0,0,1.792-11a.554.554,0,0,0-.273-.052,1.255,1.255,0,0,0-.28.03A.967.967,0,0,0,1-10.935v-.356a2.841,2.841,0,0,1,.3-.055,2.45,2.45,0,0,1,.3-.019.843.843,0,0,1,.569.157.646.646,0,0,1,.176.507Z" transform="translate(-0.872 11.368)" fill="#fff"/>
            </g>
            <g id="Groupe_281" data-name="Groupe 281" transform="translate(6.878 48.022)">
              <path id="Tracé_313" data-name="Tracé 313" d="M.971-14.245v.414h.482v.334H.971v.62a.18.18,0,0,0,.04.137.251.251,0,0,0,.16.036h.24v.334h-.4a.548.548,0,0,1-.393-.119A.545.545,0,0,1,.5-12.881v-.62H.272v-.334H.5v-.414Z" transform="translate(-0.272 14.249)" fill="#fff"/>
            </g>
            <g id="Groupe_282" data-name="Groupe 282" transform="translate(8.23 48.404)">
              <path id="Tracé_314" data-name="Tracé 314" d="M2.442-10.607v.134H1.349a.347.347,0,0,0,.119.246.441.441,0,0,0,.285.082,1.1,1.1,0,0,0,.3-.043,1.594,1.594,0,0,0,.317-.133v.359a1.968,1.968,0,0,1-.331.094,1.718,1.718,0,0,1-.331.033.882.882,0,0,1-.617-.2A.728.728,0,0,1,.87-10.6a.736.736,0,0,1,.216-.562.825.825,0,0,1,.593-.206.743.743,0,0,1,.552.209.749.749,0,0,1,.207.553Zm-.48-.155a.3.3,0,0,0-.078-.213.267.267,0,0,0-.2-.082.318.318,0,0,0-.221.076.35.35,0,0,0-.106.219Z" transform="translate(-0.869 11.371)" fill="#fff"/>
            </g>
            <g id="Groupe_283" data-name="Groupe 283" transform="translate(10.05 47.869)">
              <path id="Tracé_315" data-name="Tracé 315" d="M2.015-14.642v-.783h.47v2.03h-.47v-.212a.615.615,0,0,1-.212.189.587.587,0,0,1-.27.06.543.543,0,0,1-.443-.215.85.85,0,0,1-.173-.552.853.853,0,0,1,.173-.553.543.543,0,0,1,.443-.215.57.57,0,0,1,.268.061.646.646,0,0,1,.213.188Zm-.307.947a.265.265,0,0,0,.228-.109.544.544,0,0,0,.079-.319.538.538,0,0,0-.079-.318.264.264,0,0,0-.228-.11.263.263,0,0,0-.228.11.535.535,0,0,0-.079.318.541.541,0,0,0,.079.319.264.264,0,0,0,.228.11Z" transform="translate(-0.916 15.425)" fill="#fff"/>
            </g>
            <g id="Groupe_284" data-name="Groupe 284" transform="translate(12.998 47.872)">
              <path id="Tracé_316" data-name="Tracé 316" d="M2.487-13.695a.266.266,0,0,0,.23-.109.544.544,0,0,0,.079-.319.538.538,0,0,0-.079-.318.266.266,0,0,0-.23-.11.269.269,0,0,0-.231.11.54.54,0,0,0-.079.318.538.538,0,0,0,.079.318A.268.268,0,0,0,2.487-13.695Zm-.31-.947a.662.662,0,0,1,.213-.188.578.578,0,0,1,.27-.061.546.546,0,0,1,.444.215.855.855,0,0,1,.173.553.852.852,0,0,1-.173.552.546.546,0,0,1-.444.215.592.592,0,0,1-.27-.06.646.646,0,0,1-.213-.189v.212H1.71v-2.03h.467Z" transform="translate(-1.71 15.423)" fill="#fff"/>
            </g>
            <g id="Groupe_285" data-name="Groupe 285" transform="translate(14.718 48.441)">
              <path id="Tracé_317" data-name="Tracé 317" d="M.249-11.1H.715l.394.991.334-.991h.462L1.291-9.5a.78.78,0,0,1-.216.34.507.507,0,0,1-.325.1H.483v-.307H.629a.3.3,0,0,0,.176-.041A.244.244,0,0,0,.89-9.539l.015-.04Z" transform="translate(-0.249 11.097)" fill="#fff"/>
            </g>
            <g id="Groupe_286" data-name="Groupe 286" transform="translate(17.374 47.955)">
              <path id="Tracé_318" data-name="Tracé 318" d="M1.514-13.2H.73l-.125.355h-.5l.722-1.947h.6l.722,1.947h-.5Zm-.659-.361h.532l-.265-.775Z" transform="translate(-0.105 14.789)" fill="#fff"/>
            </g>
            <g id="Groupe_287" data-name="Groupe 287" transform="translate(19.543 47.869)">
              <path id="Tracé_319" data-name="Tracé 319" d="M2.015-14.642v-.783h.47v2.03h-.47v-.212a.615.615,0,0,1-.212.189.587.587,0,0,1-.27.06.543.543,0,0,1-.443-.215.85.85,0,0,1-.173-.552.853.853,0,0,1,.173-.553.543.543,0,0,1,.443-.215.57.57,0,0,1,.268.061.646.646,0,0,1,.213.188Zm-.307.947a.265.265,0,0,0,.228-.109.544.544,0,0,0,.079-.319.538.538,0,0,0-.079-.318.264.264,0,0,0-.228-.11.263.263,0,0,0-.228.11.535.535,0,0,0-.079.318.541.541,0,0,0,.079.319.264.264,0,0,0,.228.11Z" transform="translate(-0.916 15.425)" fill="#fff"/>
            </g>
            <g id="Groupe_288" data-name="Groupe 288" transform="translate(21.562 48.404)">
              <path id="Tracé_320" data-name="Tracé 320" d="M2.795-10.936a.645.645,0,0,0-.124-.042.51.51,0,0,0-.12-.014.34.34,0,0,0-.277.116.5.5,0,0,0-.1.329v.674H1.71v-1.461h.467v.24a.593.593,0,0,1,.206-.209.556.556,0,0,1,.28-.067h.051l.08.007Z" transform="translate(-1.71 11.37)" fill="#fff"/>
            </g>
            <g id="Groupe_289" data-name="Groupe 289" transform="translate(22.879 47.872)">
              <path id="Tracé_321" data-name="Tracé 321" d="M1.71-14.854h.467v1.461H1.71Zm0-.569h.467v.382H1.71Z" transform="translate(-1.71 15.423)" fill="#fff"/>
            </g>
            <g id="Groupe_290" data-name="Groupe 290" transform="translate(23.68 48.404)">
              <path id="Tracé_322" data-name="Tracé 322" d="M2.442-10.607v.134H1.349a.347.347,0,0,0,.119.246.441.441,0,0,0,.285.082,1.1,1.1,0,0,0,.3-.043,1.594,1.594,0,0,0,.317-.133v.359a1.968,1.968,0,0,1-.331.094,1.718,1.718,0,0,1-.331.033.882.882,0,0,1-.617-.2A.728.728,0,0,1,.87-10.6a.736.736,0,0,1,.216-.562.825.825,0,0,1,.593-.206.743.743,0,0,1,.552.209.749.749,0,0,1,.207.553Zm-.48-.155a.3.3,0,0,0-.078-.213.267.267,0,0,0-.2-.082.318.318,0,0,0-.221.076.35.35,0,0,0-.106.219Z" transform="translate(-0.869 11.371)" fill="#fff"/>
            </g>
            <g id="Groupe_291" data-name="Groupe 291" transform="translate(25.607 48.405)">
              <path id="Tracé_323" data-name="Tracé 323" d="M3.179-10.762v.89h-.47v-.681a2.5,2.5,0,0,0-.009-.261.28.28,0,0,0-.03-.106.19.19,0,0,0-.075-.07.219.219,0,0,0-.106-.025.27.27,0,0,0-.23.113.51.51,0,0,0-.083.312v.719H1.71v-1.461h.467v.213a.746.746,0,0,1,.224-.188.568.568,0,0,1,.262-.061.474.474,0,0,1,.385.157.681.681,0,0,1,.131.45Z" transform="translate(-1.71 11.369)" fill="#fff"/>
            </g>
            <g id="Groupe_292" data-name="Groupe 292" transform="translate(28.345 47.917)">
              <path id="Tracé_324" data-name="Tracé 324" d="M2.666-13.185a1.269,1.269,0,0,1-.289.107,1.3,1.3,0,0,1-.313.037,1.069,1.069,0,0,1-.771-.271.973.973,0,0,1-.285-.738.971.971,0,0,1,.285-.738,1.067,1.067,0,0,1,.771-.273,1.3,1.3,0,0,1,.313.037,1.269,1.269,0,0,1,.289.107v.4a1.146,1.146,0,0,0-.276-.139A.909.909,0,0,0,2.1-14.7a.535.535,0,0,0-.422.173.685.685,0,0,0-.154.474.688.688,0,0,0,.154.474.537.537,0,0,0,.422.171.931.931,0,0,0,.286-.043,1.114,1.114,0,0,0,.276-.14Z" transform="translate(-1.007 15.063)" fill="#fff"/>
            </g>
            <g id="Groupe_293" data-name="Groupe 293" transform="translate(30.284 48.403)">
              <path id="Tracé_325" data-name="Tracé 325" d="M1.678-11.035a.275.275,0,0,0-.237.112.538.538,0,0,0-.082.322.538.538,0,0,0,.082.322.276.276,0,0,0,.237.11.27.27,0,0,0,.233-.11.54.54,0,0,0,.082-.322.54.54,0,0,0-.082-.322.269.269,0,0,0-.233-.112Zm0-.334a.814.814,0,0,1,.589.2.745.745,0,0,1,.212.563.747.747,0,0,1-.212.563.817.817,0,0,1-.589.2.823.823,0,0,1-.592-.2A.742.742,0,0,1,.87-10.6a.74.74,0,0,1,.213-.563.82.82,0,0,1,.6-.2Z" transform="translate(-0.869 11.371)" fill="#fff"/>
            </g>
            <g id="Groupe_294" data-name="Groupe 294" transform="translate(32.128 48.407)">
              <path id="Tracé_326" data-name="Tracé 326" d="M1.708-11.009a.263.263,0,0,0-.228.11.535.535,0,0,0-.079.318.541.541,0,0,0,.079.319.264.264,0,0,0,.228.109.265.265,0,0,0,.228-.109.544.544,0,0,0,.079-.319.538.538,0,0,0-.079-.318A.264.264,0,0,0,1.708-11.009Zm.307.945a.615.615,0,0,1-.212.189.587.587,0,0,1-.27.06.543.543,0,0,1-.443-.215.85.85,0,0,1-.173-.552.847.847,0,0,1,.173-.552.545.545,0,0,1,.443-.213.574.574,0,0,1,.27.061.625.625,0,0,1,.212.188v-.216h.47V-9.3h-.47Z" transform="translate(-0.916 11.347)" fill="#fff"/>
            </g>
            <g id="Groupe_295" data-name="Groupe 295" transform="translate(34.126 48.441)">
              <path id="Tracé_327" data-name="Tracé 327" d="M1.587-10.206V-11.1h.47v.685a2.51,2.51,0,0,0,.009.255.294.294,0,0,0,.031.112.2.2,0,0,0,.076.072.225.225,0,0,0,.106.024.271.271,0,0,0,.23-.112.512.512,0,0,0,.083-.312V-11.1h.467v1.461H2.588v-.212a.734.734,0,0,1-.224.189A.573.573,0,0,1,2.1-9.6a.477.477,0,0,1-.385-.155.675.675,0,0,1-.133-.452Z" transform="translate(-1.583 11.097)" fill="#fff"/>
            </g>
            <g id="Groupe_296" data-name="Groupe 296" transform="translate(35.934 48.404)">
              <path id="Tracé_328" data-name="Tracé 328" d="M2.442-10.607v.134H1.349a.347.347,0,0,0,.119.246.441.441,0,0,0,.285.082,1.1,1.1,0,0,0,.3-.043,1.594,1.594,0,0,0,.317-.133v.359a1.968,1.968,0,0,1-.331.094,1.718,1.718,0,0,1-.331.033.882.882,0,0,1-.617-.2A.728.728,0,0,1,.87-10.6a.736.736,0,0,1,.216-.562.825.825,0,0,1,.593-.206.743.743,0,0,1,.552.209.749.749,0,0,1,.207.553Zm-.48-.155a.3.3,0,0,0-.078-.213.267.267,0,0,0-.2-.082.318.318,0,0,0-.221.076.35.35,0,0,0-.106.219Z" transform="translate(-0.869 11.371)" fill="#fff"/>
            </g>
            <g id="Groupe_297" data-name="Groupe 297" transform="translate(37.67 48.022)">
              <path id="Tracé_329" data-name="Tracé 329" d="M.971-14.245v.414h.482v.334H.971v.62a.18.18,0,0,0,.04.137.251.251,0,0,0,.16.036h.24v.334h-.4a.548.548,0,0,1-.393-.119A.545.545,0,0,1,.5-12.881v-.62H.272v-.334H.5v-.414Z" transform="translate(-0.272 14.249)" fill="#fff"/>
            </g>
            <g id="Groupe_298" data-name="Groupe 298" transform="translate(0 50.54)">
              <path id="Tracé_330" data-name="Tracé 330" d="M1.52-15.423v.307H1.262a.209.209,0,0,0-.139.036.165.165,0,0,0-.039.125v.1h.4v.334h-.4v1.127H.618v-1.127H.385v-.334H.618v-.1a.442.442,0,0,1,.136-.353.621.621,0,0,1,.413-.115Z" transform="translate(-0.385 15.425)" fill="#fff"/>
            </g>
            <g id="Groupe_299" data-name="Groupe 299" transform="translate(1.337 51.075)">
              <path id="Tracé_331" data-name="Tracé 331" d="M2.795-10.936a.645.645,0,0,0-.124-.042.51.51,0,0,0-.12-.014.34.34,0,0,0-.277.116.5.5,0,0,0-.1.329v.674H1.71v-1.461h.467v.24a.593.593,0,0,1,.206-.209.556.556,0,0,1,.28-.067h.051l.08.007Z" transform="translate(-1.71 11.37)" fill="#fff"/>
            </g>
            <g id="Groupe_300" data-name="Groupe 300" transform="translate(2.54 51.074)">
              <path id="Tracé_332" data-name="Tracé 332" d="M1.678-11.035a.275.275,0,0,0-.237.112.538.538,0,0,0-.082.322.538.538,0,0,0,.082.322.276.276,0,0,0,.237.11.27.27,0,0,0,.233-.11.54.54,0,0,0,.082-.322.54.54,0,0,0-.082-.322.269.269,0,0,0-.233-.112Zm0-.334a.814.814,0,0,1,.589.2.745.745,0,0,1,.212.563.747.747,0,0,1-.212.563.817.817,0,0,1-.589.2.823.823,0,0,1-.592-.2A.742.742,0,0,1,.87-10.6a.74.74,0,0,1,.213-.563.82.82,0,0,1,.6-.2Z" transform="translate(-0.869 11.371)" fill="#fff"/>
            </g>
            <g id="Groupe_301" data-name="Groupe 301" transform="translate(4.484 51.071)">
              <path id="Tracé_333" data-name="Tracé 333" d="M3.045-11.089a.633.633,0,0,1,.21-.207.52.52,0,0,1,.268-.072.472.472,0,0,1,.383.157.675.675,0,0,1,.133.45v.89h-.47v-.854a.415.415,0,0,0-.046-.224.161.161,0,0,0-.146-.07.233.233,0,0,0-.206.11.573.573,0,0,0-.075.316v.717h-.47v-.762a.726.726,0,0,0-.042-.312.159.159,0,0,0-.149-.07.234.234,0,0,0-.207.11.563.563,0,0,0-.073.315v.719h-.47v-1.461H2.16v.213a.607.607,0,0,1,.2-.186.5.5,0,0,1,.246-.063.5.5,0,0,1,.268.073.46.46,0,0,1,.176.206Z" transform="translate(-1.685 11.374)" fill="#fff"/>
            </g>
            <g id="Groupe_302" data-name="Groupe 302" transform="translate(8.014 50.693)">
              <path id="Tracé_334" data-name="Tracé 334" d="M.971-14.245v.414h.482v.334H.971v.62a.18.18,0,0,0,.04.137.251.251,0,0,0,.16.036h.24v.334h-.4a.548.548,0,0,1-.393-.119A.545.545,0,0,1,.5-12.881v-.62H.272v-.334H.5v-.414Z" transform="translate(-0.272 14.249)" fill="#fff"/>
            </g>
            <g id="Groupe_303" data-name="Groupe 303" transform="translate(9.48 50.543)">
              <path id="Tracé_335" data-name="Tracé 335" d="M3.179-14.284v.89h-.47v-.678a2.537,2.537,0,0,0-.009-.264.28.28,0,0,0-.03-.106.19.19,0,0,0-.075-.07.219.219,0,0,0-.106-.025.27.27,0,0,0-.23.113.51.51,0,0,0-.083.312v.719H1.71v-2.03h.467v.783a.746.746,0,0,1,.224-.188.568.568,0,0,1,.262-.061.474.474,0,0,1,.385.157.681.681,0,0,1,.131.45Z" transform="translate(-1.71 15.423)" fill="#fff"/>
            </g>
            <g id="Groupe_304" data-name="Groupe 304" transform="translate(11.268 51.075)">
              <path id="Tracé_336" data-name="Tracé 336" d="M2.442-10.607v.134H1.349a.347.347,0,0,0,.119.246.441.441,0,0,0,.285.082,1.1,1.1,0,0,0,.3-.043,1.594,1.594,0,0,0,.317-.133v.359a1.968,1.968,0,0,1-.331.094,1.718,1.718,0,0,1-.331.033.882.882,0,0,1-.617-.2A.728.728,0,0,1,.87-10.6a.736.736,0,0,1,.216-.562.825.825,0,0,1,.593-.206.743.743,0,0,1,.552.209.749.749,0,0,1,.207.553Zm-.48-.155a.3.3,0,0,0-.078-.213.267.267,0,0,0-.2-.082.318.318,0,0,0-.221.076.35.35,0,0,0-.106.219Z" transform="translate(-0.869 11.371)" fill="#fff"/>
            </g>
            <g id="Groupe_305" data-name="Groupe 305" transform="translate(14.145 50.626)">
              <path id="Tracé_337" data-name="Tracé 337" d="M1.868-14.789h.561l.708,1.336v-1.336h.476v1.947H3.052l-.708-1.336v1.336H1.868Z" transform="translate(-1.868 14.789)" fill="#fff"/>
            </g>
            <g id="Groupe_306" data-name="Groupe 306" transform="translate(16.245 51.074)">
              <path id="Tracé_338" data-name="Tracé 338" d="M1.678-11.035a.275.275,0,0,0-.237.112.538.538,0,0,0-.082.322.538.538,0,0,0,.082.322.276.276,0,0,0,.237.11.27.27,0,0,0,.233-.11.54.54,0,0,0,.082-.322.54.54,0,0,0-.082-.322.269.269,0,0,0-.233-.112Zm0-.334a.814.814,0,0,1,.589.2.745.745,0,0,1,.212.563.747.747,0,0,1-.212.563.817.817,0,0,1-.589.2.823.823,0,0,1-.592-.2A.742.742,0,0,1,.87-10.6a.74.74,0,0,1,.213-.563.82.82,0,0,1,.6-.2Z" transform="translate(-0.869 11.371)" fill="#fff"/>
            </g>
            <g id="Groupe_307" data-name="Groupe 307" transform="translate(18.175 51.113)">
              <path id="Tracé_339" data-name="Tracé 339" d="M1.587-10.206V-11.1h.47v.685a2.51,2.51,0,0,0,.009.255.294.294,0,0,0,.031.112.2.2,0,0,0,.076.072.225.225,0,0,0,.106.024.271.271,0,0,0,.23-.112.512.512,0,0,0,.083-.312V-11.1h.467v1.461H2.588v-.212a.734.734,0,0,1-.224.189A.573.573,0,0,1,2.1-9.6a.477.477,0,0,1-.385-.155.675.675,0,0,1-.133-.452Z" transform="translate(-1.583 11.097)" fill="#fff"/>
            </g>
            <g id="Groupe_308" data-name="Groupe 308" transform="translate(20.097 51.076)">
              <path id="Tracé_340" data-name="Tracé 340" d="M3.179-10.762v.89h-.47v-.681a2.5,2.5,0,0,0-.009-.261.28.28,0,0,0-.03-.106.19.19,0,0,0-.075-.07.219.219,0,0,0-.106-.025.27.27,0,0,0-.23.113.51.51,0,0,0-.083.312v.719H1.71v-1.461h.467v.213a.746.746,0,0,1,.224-.188.568.568,0,0,1,.262-.061.474.474,0,0,1,.385.157.681.681,0,0,1,.131.45Z" transform="translate(-1.71 11.369)" fill="#fff"/>
            </g>
            <g id="Groupe_309" data-name="Groupe 309" transform="translate(22.949 50.624)">
              <path id="Tracé_341" data-name="Tracé 341" d="M1.868-14.789H2.7a.867.867,0,0,1,.569.165.574.574,0,0,1,.2.47.577.577,0,0,1-.2.471.867.867,0,0,1-.569.165H2.369v.675h-.5Zm.5.364v.544h.279a.325.325,0,0,0,.225-.072.255.255,0,0,0,.08-.2.253.253,0,0,0-.08-.2.33.33,0,0,0-.225-.07Z" transform="translate(-1.868 14.791)" fill="#fff"/>
            </g>
            <g id="Groupe_310" data-name="Groupe 310" transform="translate(24.887 51.075)">
              <path id="Tracé_342" data-name="Tracé 342" d="M2.795-10.936a.645.645,0,0,0-.124-.042.51.51,0,0,0-.12-.014.34.34,0,0,0-.277.116.5.5,0,0,0-.1.329v.674H1.71v-1.461h.467v.24a.593.593,0,0,1,.206-.209.556.556,0,0,1,.28-.067h.051l.08.007Z" transform="translate(-1.71 11.37)" fill="#fff"/>
            </g>
            <g id="Groupe_311" data-name="Groupe 311" transform="translate(26.089 51.074)">
              <path id="Tracé_343" data-name="Tracé 343" d="M1.678-11.035a.275.275,0,0,0-.237.112.538.538,0,0,0-.082.322.538.538,0,0,0,.082.322.276.276,0,0,0,.237.11.27.27,0,0,0,.233-.11.54.54,0,0,0,.082-.322.54.54,0,0,0-.082-.322.269.269,0,0,0-.233-.112Zm0-.334a.814.814,0,0,1,.589.2.745.745,0,0,1,.212.563.747.747,0,0,1-.212.563.817.817,0,0,1-.589.2.823.823,0,0,1-.592-.2A.742.742,0,0,1,.87-10.6a.74.74,0,0,1,.213-.563.82.82,0,0,1,.6-.2Z" transform="translate(-0.869 11.371)" fill="#fff"/>
            </g>
            <g id="Groupe_312" data-name="Groupe 312" transform="translate(27.725 50.543)">
              <path id="Tracé_344" data-name="Tracé 344" d="M-.365-14.854H.1v1.434a.644.644,0,0,1-.142.449.523.523,0,0,1-.408.155H-.679v-.307H-.6a.228.228,0,0,0,.182-.06.39.39,0,0,0,.051-.237Zm0-.569H.1v.382H-.365Z" transform="translate(0.679 15.423)" fill="#fff"/>
            </g>
            <g id="Groupe_313" data-name="Groupe 313" transform="translate(28.841 51.075)">
              <path id="Tracé_345" data-name="Tracé 345" d="M2.442-10.607v.134H1.349a.347.347,0,0,0,.119.246.441.441,0,0,0,.285.082,1.1,1.1,0,0,0,.3-.043,1.594,1.594,0,0,0,.317-.133v.359a1.968,1.968,0,0,1-.331.094,1.718,1.718,0,0,1-.331.033.882.882,0,0,1-.617-.2A.728.728,0,0,1,.87-10.6a.736.736,0,0,1,.216-.562.825.825,0,0,1,.593-.206.743.743,0,0,1,.552.209.749.749,0,0,1,.207.553Zm-.48-.155a.3.3,0,0,0-.078-.213.267.267,0,0,0-.2-.082.318.318,0,0,0-.221.076.35.35,0,0,0-.106.219Z" transform="translate(-0.869 11.371)" fill="#fff"/>
            </g>
            <g id="Groupe_314" data-name="Groupe 314" transform="translate(30.658 51.078)">
              <path id="Tracé_346" data-name="Tracé 346" d="M2.162-11.288v.38a.726.726,0,0,0-.191-.1.632.632,0,0,0-.2-.031.4.4,0,0,0-.306.115.442.442,0,0,0-.109.319.444.444,0,0,0,.113.322.406.406,0,0,0,.306.113.68.68,0,0,0,.207-.031.612.612,0,0,0,.182-.1v.382a1.263,1.263,0,0,1-.222.06,1.244,1.244,0,0,1-.227.021.887.887,0,0,1-.619-.2A.723.723,0,0,1,.874-10.6a.726.726,0,0,1,.222-.565.888.888,0,0,1,.619-.2,1.244,1.244,0,0,1,.227.021,1.247,1.247,0,0,1,.222.061Z" transform="translate(-0.872 11.367)" fill="#fff"/>
            </g>
            <g id="Groupe_315" data-name="Groupe 315" transform="translate(32.161 50.693)">
              <path id="Tracé_347" data-name="Tracé 347" d="M.971-14.245v.414h.482v.334H.971v.62a.18.18,0,0,0,.04.137.251.251,0,0,0,.16.036h.24v.334h-.4a.548.548,0,0,1-.393-.119A.545.545,0,0,1,.5-12.881v-.62H.272v-.334H.5v-.414Z" transform="translate(-0.272 14.249)" fill="#fff"/>
            </g>
          </g>
        </g>
      </g>
    </g>
  </g>
</svg>
